<?xml version="1.0" encoding="UTF-8"?>
<!DOCTYPE svg PUBLIC "-//W3C//DTD SVG 1.1//EN" "http://www.w3.org/Graphics/SVG/1.1/DTD/svg11.dtd">
<!-- Creator: CorelDRAW 2020 (64-Bit) -->
<svg xmlns="http://www.w3.org/2000/svg" xml:space="preserve" width="300px" height="280px" version="1.1" style="shape-rendering:geometricPrecision; text-rendering:geometricPrecision; image-rendering:optimizeQuality; fill-rule:evenodd; clip-rule:evenodd"
viewBox="0 0 180.25 168.29"
 xmlns:xlink="http://www.w3.org/1999/xlink"
 xmlns:xodm="http://www.corel.com/coreldraw/odm/2003">
 <defs>
  <style type="text/css">
   <![CDATA[
    .fil7 {fill:#263138;fill-rule:nonzero}
    .fil8 {fill:#36464F;fill-rule:nonzero}
    .fil6 {fill:#445964;fill-rule:nonzero}
    .fil12 {fill:#B16667;fill-rule:nonzero}
    .fil4 {fill:#CC750B;fill-rule:nonzero}
    .fil1 {fill:#DFDFDF;fill-rule:nonzero}
    .fil2 {fill:#E95B11;fill-rule:nonzero}
    .fil5 {fill:#ED890D;fill-rule:nonzero}
    .fil0 {fill:#EFEFEF;fill-rule:nonzero}
    .fil13 {fill:#F28E8E;fill-rule:nonzero}
    .fil9 {fill:#F9F9F9;fill-rule:nonzero}
    .fil10 {fill:#FFA8A7;fill-rule:nonzero}
    .fil3 {fill:white;fill-rule:nonzero}
    .fil11 {fill:black;fill-rule:nonzero;fill-opacity:0.101961}
   ]]>
  </style>
 </defs>
 <g id="Character">
  <metadata id="CorelCorpID_0Corel-Layer"/>
  <g id="_1895544938976">
   <path class="fil0" d="M153.85 79.46c35.2,20.32 35.2,53.27 0,73.59 -35.19,20.32 -92.26,20.32 -127.45,0 -35.2,-20.32 -35.2,-53.27 0,-73.59 35.19,-20.32 92.26,-20.32 127.45,0z"/>
   <path class="fil1" d="M93.45 125.05c12.14,7.01 12.14,18.37 0,25.38 -12.14,7.01 -31.82,7.01 -43.95,0 -12.14,-7.01 -12.14,-18.37 0,-25.38 12.13,-7 31.81,-7 43.95,0z"/>
   <path class="fil2" d="M159.85 115.29l-3.64 -2.1c0,0 -0.89,-7.81 -0.3,-13.85 0.83,-8.49 6.32,-18.71 12.86,-16.31 6.55,2.4 -3,11.05 -5.12,18.25 -2.13,7.2 -3.8,14.01 -3.8,14.01z"/>
   <path class="fil3" d="M157.94 114.41c0,0 0,0 0,0 0.13,-0.01 0.22,-0.11 0.22,-0.23 -0.64,-18.87 8.75,-28.37 8.85,-28.46 0.08,-0.09 0.08,-0.23 0,-0.31 -0.09,-0.09 -0.23,-0.09 -0.31,0 -0.1,0.09 -9.63,9.72 -8.98,28.78 0,0.12 0.1,0.22 0.22,0.22z"/>
   <path class="fil4" d="M162.14 116.61l-2.59 -1.5c0,0 -0.44,-5.36 2.19,-11.86 2.28,-5.67 7.95,-10.37 10.81,-9.38 2.85,0.99 2.78,3.01 1.39,5.13 -1.39,2.12 -9.86,7.18 -11.8,17.61z"/>
   <path class="fil3" d="M160.78 116.04l0 0c0.12,0 0.22,-0.1 0.22,-0.23 -0.05,-11.93 11.15,-19.99 11.26,-20.07 0.1,-0.07 0.13,-0.21 0.06,-0.31 -0.07,-0.1 -0.21,-0.12 -0.31,-0.05 -0.12,0.08 -11.51,8.28 -11.45,20.44 0,0.12 0.09,0.22 0.22,0.22z"/>
   <path class="fil5" d="M24.96 110.6l3.37 -2.27c0,0 1.48,-8.81 0.1,-16.56 -1.93,-10.88 -9.44,-14.51 -12.12,-13.37 -2.68,1.14 -3.25,4.39 1.75,10.6 2.94,3.67 6.8,11.47 6.9,21.6z"/>
   <path class="fil3" d="M26.12 106.24c-0.01,0 -0.03,0 -0.04,0 -0.13,-0.01 -0.23,-0.14 -0.21,-0.27 1.22,-10.25 -3.11,-21.37 -7.82,-25.8 -0.1,-0.09 -0.1,-0.24 -0.01,-0.34 0.09,-0.1 0.25,-0.11 0.34,-0.01 4.8,4.5 9.21,15.81 7.97,26.21 -0.01,0.12 -0.11,0.21 -0.23,0.21z"/>
   <path class="fil2" d="M16.15 116.55c-0.54,0.32 -2.1,-0.84 -2.53,-1.12 -0.74,-0.47 -1.34,-1.15 -1.75,-1.93 -0.48,-0.9 -0.61,-1.88 -0.49,-2.89 0.07,-0.53 0.2,-1.04 0.34,-1.55 0.13,-0.51 0.27,-1.01 0.4,-1.51 0.13,-0.49 0.27,-1.01 0.19,-1.51 -0.15,-1.03 -1.07,-1.73 -1.91,-2.33 -0.93,-0.67 -1.9,-1.55 -1.92,-2.78 -0.01,-0.96 0.47,-1.85 1.04,-2.61 0.58,-0.75 1.26,-1.43 1.78,-2.23 0.37,-0.57 0.66,-1.24 0.58,-1.92 -0.04,-0.43 -0.23,-0.82 -0.44,-1.19 -0.45,-0.8 -1.04,-1.52 -1.35,-2.38 -0.32,-0.86 -0.3,-1.93 0.36,-2.56 0.55,-0.52 1.37,-0.6 2.11,-0.57 0.7,0.03 1.38,0.33 1.99,0.66 1.98,1.05 3.14,3.35 5.24,4.14 0.8,0.31 1.68,0.36 2.52,0.57 0.84,0.2 1.7,0.61 2.1,1.38 0.79,1.51 -0.58,3.41 -0.02,5.02 0.5,1.42 1.91,1.94 2.71,3.21 0.35,0.56 0.44,1.21 0.4,1.87 -0.07,1.11 -0.22,1.93 -0.73,3.18 -0.42,1.03 -1.67,3.01 -1.67,3.01 0,0 -8.87,5.99 -8.95,6.04z"/>
   <path class="fil3" d="M21.32 113.38c0,0 -0.01,0 -0.01,0 -0.14,-0.01 -0.24,-0.12 -0.24,-0.25 0.22,-9.69 -4.55,-20.28 -7.93,-23.32 -0.1,-0.09 -0.1,-0.25 -0.01,-0.35 0.09,-0.1 0.24,-0.1 0.34,-0.01 3.44,3.1 8.31,13.87 8.09,23.69 -0.01,0.13 -0.11,0.24 -0.24,0.24z"/>
   <path class="fil3" d="M19.53 101.58c-0.02,0 -0.04,0 -0.07,-0.01 -3.13,-0.9 -7,-1 -7.04,-1 -0.14,0 -0.24,-0.11 -0.24,-0.25 0,-0.13 0.1,-0.24 0.25,-0.23 0.04,0 3.98,0.09 7.17,1.01 0.13,0.04 0.2,0.17 0.16,0.3 -0.03,0.11 -0.12,0.18 -0.23,0.18z"/>
   <path class="fil6" d="M109.69 103.95l-1.45 -0.84c-0.45,-0.27 -0.82,-0.91 -0.82,-1.44l-0.01 -60.25c0,-0.53 0.38,-1.17 0.83,-1.44l40.3 -23.26c0.46,-0.27 1.2,-0.27 1.66,0l1.45 0.83c0.46,0.27 0.83,0.91 0.83,1.44l0 60.25c0,0.53 -0.37,1.18 -0.83,1.44l-40.3 23.27c-0.46,0.26 -1.2,0.26 -1.66,0z"/>
   <path class="fil6" d="M152.47 18.85c-0.06,-0.43 -0.4,-0.58 -0.82,-0.34l-40.3 23.27c-0.23,0.13 -0.43,0.35 -0.58,0.61l-3.11 -1.79c0.15,-0.26 0.35,-0.49 0.58,-0.62l40.3 -23.27c0.46,-0.26 1.2,-0.26 1.66,0l1.45 0.84c0.42,0.24 0.77,0.81 0.82,1.3z"/>
   <path class="fil7" d="M111.21 104.01c-0.46,0.2 -1.1,0.18 -1.51,-0.06l-1.46 -0.84c-0.45,-0.27 -0.82,-0.91 -0.82,-1.44l0 -60.25c0,-0.27 0.09,-0.56 0.24,-0.82l3.11 1.79c-0.16,0.26 -0.25,0.56 -0.25,0.82l0 60.26c0,0.48 0.3,0.69 0.69,0.54z"/>
   <path class="fil8" d="M110.52 43.21l0 60.26c0,0.53 0.37,0.74 0.83,0.48l40.3 -23.27c0.46,-0.26 0.83,-0.91 0.83,-1.44l0 -60.25c0,-0.53 -0.37,-0.74 -0.83,-0.48l-40.3 23.27c-0.46,0.26 -0.83,0.9 -0.83,1.43z"/>
   <path class="fil6" d="M101.11 66.18c-0.52,-0.31 -2.93,-1.68 -3.06,-1.75 -0.38,-0.24 -0.52,-0.8 -0.16,-1.19l9.53 -10.22 3.1 1.78 -9.52 10.23c-0.35,0.37 -0.24,0.9 0.11,1.15z"/>
   <path class="fil8" d="M110.52 54.81l-9.52 10.22c-0.48,0.51 -0.08,1.34 0.62,1.28l8.9 -0.73 0 -10.77z"/>
   <path class="fil2" d="M131.5 36.41c4.7,-2.71 8.5,-0.51 8.5,4.91 0,5.42 -3.8,12.02 -8.5,14.73 -4.7,2.71 -8.5,0.51 -8.5,-4.91 0,-5.42 3.8,-12.02 8.5,-14.73z"/>
   <path class="fil3" d="M131.44 40.68c1.52,-0.88 2.76,-0.17 2.76,1.59 0,1.76 -1.24,3.9 -2.76,4.78 -1.52,0.88 -2.76,0.17 -2.76,-1.59 0,-1.76 1.24,-3.9 2.76,-4.78z"/>
   <path class="fil3" d="M136.88 50.06c0,-2.89 -2.03,-4.06 -4.53,-2.62l-1.57 0.91c-2.5,1.44 -4.53,4.96 -4.53,7.85l0 0.79c0.45,0.15 0.94,0.22 1.46,0.22 1.14,0.01 2.43,-0.37 3.79,-1.16 2.04,-1.18 3.91,-3.09 5.38,-5.32l0 -0.67z"/>
   <path class="fil2" d="M126.11 82.9l10.78 -6.22c0.46,-0.26 0.83,-0.05 0.83,0.48l0 3.47c0,0.53 -0.37,1.17 -0.83,1.43l-10.78 6.22c-0.45,0.27 -0.83,0.05 -0.83,-0.47l0 -3.47c0,-0.53 0.38,-1.17 0.83,-1.44z"/>
   <path class="fil9" d="M120.84 75.15l21.32 -12.31c0.55,-0.32 1,-0.06 1,0.57l-0.01 1.3c0,0.63 -0.44,1.4 -0.99,1.72l-21.32 12.31c-0.55,0.31 -0.99,0.06 -0.99,-0.58l0 -1.29c0,-0.63 0.44,-1.4 0.99,-1.72z"/>
   <path class="fil9" d="M123.33 66.24c0.29,-0.17 0.52,-0.19 0.68,-0.07 0.16,0.11 0.24,0.38 0.24,0.78 0,0.41 -0.08,0.76 -0.24,1.07 -0.16,0.31 -0.39,0.55 -0.68,0.71l-0.57 0.34 0 1.23c0,0.04 -0.01,0.08 -0.03,0.12 -0.02,0.04 -0.04,0.07 -0.07,0.09l-0.29 0.16c-0.03,0.02 -0.05,0.02 -0.07,0 -0.02,-0.02 -0.03,-0.05 -0.03,-0.09l0 -3.58c0,-0.04 0.01,-0.08 0.03,-0.12 0.02,-0.04 0.04,-0.07 0.07,-0.08l0.96 -0.56zm-0.57 2.13l0 0 0.56 -0.32c0.13,-0.08 0.24,-0.18 0.32,-0.31 0.08,-0.13 0.12,-0.3 0.12,-0.51 0,-0.2 -0.04,-0.32 -0.12,-0.36 -0.08,-0.03 -0.19,-0.01 -0.32,0.07l-0.56 0.33 0 1.1z"/>
   <path class="fil9" d="M125.86 64.78c0.03,-0.02 0.06,-0.02 0.08,0 0.02,0.02 0.04,0.06 0.05,0.11l0.88 3c0.01,0.01 0.01,0.02 0.01,0.03 0,0.04 -0.01,0.08 -0.03,0.12 -0.02,0.05 -0.04,0.07 -0.07,0.09l-0.26 0.15c-0.05,0.03 -0.08,0.03 -0.1,0.01 -0.02,-0.02 -0.03,-0.04 -0.04,-0.07l-0.15 -0.52 -1.14 0.65 -0.16 0.71c0,0.03 -0.02,0.07 -0.04,0.11 -0.01,0.04 -0.05,0.08 -0.1,0.11l-0.26 0.14c-0.02,0.02 -0.04,0.02 -0.06,0 -0.02,-0.02 -0.03,-0.05 -0.03,-0.09 0,-0.01 0,-0.03 0,-0.04l0.88 -4.01c0.02,-0.07 0.03,-0.13 0.05,-0.17 0.02,-0.04 0.05,-0.07 0.09,-0.1l0.4 -0.23zm0.19 2.32l0 0 -0.39 -1.35 -0.4 1.81 0.79 -0.46z"/>
   <path class="fil9" d="M128.22 63.37c0.16,-0.1 0.3,-0.14 0.42,-0.15 0.12,0 0.22,0.02 0.31,0.07 0.08,0.06 0.14,0.13 0.18,0.23 0.04,0.09 0.07,0.19 0.07,0.3 0,0.04 -0.01,0.08 -0.03,0.12 -0.02,0.04 -0.04,0.07 -0.07,0.08l-0.25 0.15c-0.04,0.02 -0.07,0.03 -0.09,0.01 -0.02,-0.01 -0.04,-0.03 -0.06,-0.06 -0.03,-0.07 -0.09,-0.12 -0.16,-0.15 -0.07,-0.02 -0.18,0.01 -0.32,0.09 -0.07,0.04 -0.13,0.08 -0.18,0.13 -0.06,0.06 -0.11,0.11 -0.15,0.18 -0.04,0.06 -0.08,0.13 -0.1,0.19 -0.02,0.07 -0.03,0.14 -0.03,0.21 0,0.09 0.01,0.15 0.03,0.19 0.02,0.04 0.06,0.07 0.11,0.07 0.06,0.01 0.13,0.01 0.22,-0.01 0.09,-0.02 0.2,-0.04 0.33,-0.08 0.14,-0.03 0.27,-0.05 0.37,-0.04 0.11,0 0.19,0.03 0.26,0.08 0.06,0.06 0.11,0.13 0.14,0.23 0.04,0.1 0.05,0.23 0.05,0.38 0,0.16 -0.02,0.33 -0.07,0.5 -0.05,0.17 -0.12,0.33 -0.2,0.48 -0.09,0.16 -0.2,0.3 -0.33,0.43 -0.13,0.14 -0.28,0.25 -0.44,0.34 -0.13,0.08 -0.26,0.13 -0.38,0.15 -0.12,0.02 -0.23,0.01 -0.33,-0.03 -0.09,-0.04 -0.17,-0.1 -0.23,-0.2 -0.05,-0.1 -0.09,-0.23 -0.09,-0.39 -0.01,-0.04 0,-0.09 0.02,-0.13 0.02,-0.03 0.05,-0.06 0.07,-0.08l0.26 -0.14c0.04,-0.03 0.07,-0.03 0.09,-0.02 0.02,0.01 0.04,0.03 0.05,0.06 0.02,0.04 0.04,0.08 0.07,0.11 0.02,0.04 0.05,0.06 0.09,0.07 0.04,0.02 0.09,0.02 0.16,0.01 0.06,-0.01 0.13,-0.04 0.22,-0.1 0.08,-0.04 0.14,-0.09 0.21,-0.14 0.07,-0.06 0.13,-0.12 0.18,-0.19 0.05,-0.07 0.09,-0.14 0.12,-0.21 0.03,-0.08 0.05,-0.16 0.05,-0.24 0,-0.08 -0.02,-0.14 -0.05,-0.17 -0.04,-0.04 -0.09,-0.05 -0.16,-0.05 -0.06,0 -0.15,0.02 -0.25,0.04 -0.1,0.03 -0.22,0.05 -0.35,0.08 -0.12,0.02 -0.22,0.03 -0.31,0.02 -0.09,-0.01 -0.17,-0.04 -0.23,-0.09 -0.06,-0.06 -0.1,-0.14 -0.13,-0.24 -0.03,-0.11 -0.04,-0.24 -0.04,-0.41 0,-0.16 0.02,-0.33 0.07,-0.5 0.05,-0.16 0.12,-0.32 0.2,-0.47 0.08,-0.15 0.18,-0.29 0.3,-0.41 0.12,-0.12 0.24,-0.23 0.38,-0.3z"/>
   <path class="fil9" d="M130.73 61.92c0.16,-0.1 0.3,-0.14 0.42,-0.15 0.12,0 0.23,0.02 0.31,0.07 0.08,0.06 0.14,0.13 0.18,0.23 0.04,0.09 0.07,0.19 0.07,0.3 0,0.04 0,0.08 -0.02,0.12 -0.03,0.04 -0.05,0.07 -0.08,0.08l-0.25 0.15c-0.04,0.02 -0.07,0.03 -0.09,0.02 -0.02,-0.02 -0.04,-0.04 -0.05,-0.07 -0.04,-0.07 -0.09,-0.12 -0.17,-0.15 -0.07,-0.02 -0.18,0.01 -0.32,0.09 -0.07,0.04 -0.13,0.08 -0.18,0.13 -0.06,0.06 -0.11,0.11 -0.15,0.18 -0.04,0.06 -0.07,0.13 -0.1,0.2 -0.02,0.06 -0.03,0.13 -0.03,0.2 0,0.09 0.01,0.15 0.03,0.19 0.02,0.04 0.06,0.07 0.11,0.07 0.06,0.01 0.13,0.01 0.22,-0.01 0.09,-0.02 0.2,-0.04 0.33,-0.08 0.14,-0.03 0.27,-0.05 0.37,-0.04 0.11,0 0.19,0.03 0.26,0.08 0.06,0.06 0.11,0.13 0.15,0.23 0.03,0.1 0.04,0.23 0.04,0.38 0,0.16 -0.02,0.33 -0.07,0.5 -0.05,0.17 -0.11,0.33 -0.2,0.48 -0.09,0.16 -0.2,0.3 -0.33,0.44 -0.13,0.13 -0.28,0.24 -0.44,0.33 -0.13,0.08 -0.26,0.13 -0.38,0.15 -0.12,0.02 -0.23,0.01 -0.33,-0.03 -0.09,-0.03 -0.17,-0.1 -0.22,-0.2 -0.06,-0.1 -0.09,-0.23 -0.1,-0.39 0,-0.04 0,-0.09 0.03,-0.12 0.02,-0.04 0.04,-0.07 0.07,-0.09l0.25 -0.14c0.04,-0.03 0.07,-0.03 0.09,-0.02 0.02,0.01 0.04,0.03 0.05,0.07 0.02,0.03 0.04,0.07 0.07,0.1 0.02,0.04 0.05,0.06 0.09,0.08 0.04,0.01 0.09,0.01 0.16,0 0.06,-0.01 0.13,-0.04 0.22,-0.1 0.08,-0.04 0.15,-0.09 0.21,-0.14 0.07,-0.06 0.13,-0.12 0.18,-0.19 0.05,-0.07 0.09,-0.14 0.12,-0.21 0.03,-0.08 0.05,-0.16 0.05,-0.24 0,-0.08 -0.02,-0.14 -0.05,-0.17 -0.04,-0.04 -0.09,-0.05 -0.15,-0.05 -0.07,0.01 -0.16,0.02 -0.26,0.04 -0.1,0.03 -0.22,0.05 -0.35,0.08 -0.12,0.02 -0.22,0.03 -0.31,0.02 -0.09,-0.01 -0.17,-0.04 -0.23,-0.09 -0.05,-0.06 -0.1,-0.14 -0.13,-0.24 -0.03,-0.1 -0.04,-0.24 -0.04,-0.41 0,-0.16 0.02,-0.33 0.07,-0.5 0.05,-0.16 0.12,-0.32 0.2,-0.47 0.08,-0.15 0.18,-0.29 0.3,-0.41 0.12,-0.12 0.24,-0.22 0.38,-0.3z"/>
   <path class="fil9" d="M133.51 62.4l-0.3 1.83c-0.02,0.06 -0.03,0.12 -0.05,0.16 -0.02,0.05 -0.04,0.08 -0.08,0.1l-0.29 0.17c-0.04,0.02 -0.07,0.02 -0.09,0 -0.02,-0.03 -0.03,-0.06 -0.04,-0.12l-0.46 -3.22c0,-0.02 0,-0.04 0,-0.05 0,-0.04 0.01,-0.08 0.03,-0.12 0.02,-0.04 0.04,-0.07 0.06,-0.08l0.27 -0.16c0.02,-0.01 0.05,-0.01 0.07,0 0.02,0.01 0.04,0.04 0.04,0.09l0.3 2.17 0.27 -1.63c0.01,-0.03 0.02,-0.07 0.04,-0.12 0.01,-0.05 0.04,-0.09 0.09,-0.11l0.29 -0.17c0.05,-0.03 0.08,-0.03 0.09,0 0.02,0.03 0.03,0.06 0.04,0.08l0.26 1.33 0.31 -2.52c0,-0.06 0.02,-0.11 0.04,-0.14 0.02,-0.04 0.04,-0.06 0.07,-0.08l0.26 -0.15c0.03,-0.02 0.05,-0.01 0.07,0 0.02,0.02 0.03,0.05 0.03,0.09 0,0.01 0,0.03 0,0.05l-0.46 3.76c-0.01,0.06 -0.02,0.11 -0.04,0.16 -0.02,0.05 -0.05,0.08 -0.09,0.1l-0.29 0.17c-0.04,0.02 -0.06,0.02 -0.08,-0.01 -0.02,-0.02 -0.03,-0.06 -0.05,-0.11l-0.31 -1.47z"/>
   <path class="fil9" d="M135.31 60.77c0,-0.21 0.03,-0.42 0.07,-0.62 0.05,-0.21 0.11,-0.41 0.2,-0.59 0.09,-0.19 0.19,-0.36 0.32,-0.51 0.13,-0.16 0.29,-0.28 0.46,-0.39 0.18,-0.1 0.33,-0.15 0.46,-0.15 0.13,0.01 0.24,0.05 0.32,0.14 0.09,0.09 0.16,0.21 0.2,0.36 0.05,0.16 0.07,0.34 0.08,0.54 0,0.07 0.01,0.15 0.01,0.23 0,0.09 0,0.17 0,0.26 0,0.09 0,0.18 0,0.27 0,0.08 -0.01,0.16 -0.01,0.23 -0.01,0.22 -0.03,0.42 -0.08,0.63 -0.04,0.21 -0.11,0.41 -0.19,0.59 -0.09,0.19 -0.2,0.36 -0.33,0.51 -0.13,0.15 -0.28,0.28 -0.46,0.38 -0.17,0.1 -0.33,0.15 -0.46,0.15 -0.13,0 -0.23,-0.05 -0.32,-0.13 -0.09,-0.09 -0.15,-0.21 -0.2,-0.36 -0.04,-0.16 -0.07,-0.34 -0.07,-0.54 -0.01,-0.07 -0.01,-0.15 -0.01,-0.23 0,-0.09 0,-0.18 0,-0.27 0,-0.09 0,-0.17 0,-0.26 0,-0.09 0,-0.16 0.01,-0.24zm1.63 -0.91l0 0c-0.01,-0.26 -0.07,-0.43 -0.17,-0.52 -0.1,-0.09 -0.24,-0.08 -0.41,0.01 -0.16,0.1 -0.3,0.25 -0.4,0.46 -0.1,0.2 -0.16,0.44 -0.17,0.71 0,0.14 -0.01,0.3 -0.01,0.47 0,0.18 0.01,0.33 0.01,0.47 0.01,0.26 0.07,0.43 0.17,0.52 0.1,0.08 0.24,0.07 0.4,-0.02 0.17,-0.1 0.31,-0.25 0.41,-0.45 0.1,-0.2 0.16,-0.44 0.17,-0.71 0,-0.15 0,-0.3 0,-0.48 0,-0.17 0,-0.32 0,-0.46z"/>
   <path class="fil9" d="M139.1 57.14c0.3,-0.18 0.53,-0.2 0.69,-0.08 0.15,0.13 0.23,0.38 0.23,0.76 0,0.27 -0.04,0.52 -0.12,0.76 -0.08,0.24 -0.2,0.45 -0.36,0.63l0.5 1.08c0.01,0.02 0.01,0.04 0.01,0.05 0,0.04 -0.01,0.07 -0.02,0.1 -0.02,0.04 -0.04,0.06 -0.06,0.07l-0.3 0.18c-0.05,0.03 -0.09,0.03 -0.11,0.01 -0.02,-0.03 -0.04,-0.05 -0.05,-0.07l-0.47 -1.02 -0.48 0.28 0 1.29c0,0.04 -0.01,0.08 -0.03,0.12 -0.02,0.04 -0.04,0.07 -0.07,0.08l-0.29 0.17c-0.02,0.02 -0.05,0.01 -0.06,0 -0.02,-0.02 -0.03,-0.05 -0.03,-0.09l0 -3.58c0,-0.04 0.01,-0.08 0.03,-0.12 0.01,-0.04 0.04,-0.07 0.06,-0.09l0.93 -0.53zm-0.54 2.05l0 0 0.52 -0.3c0.14,-0.08 0.25,-0.18 0.33,-0.3 0.08,-0.12 0.12,-0.28 0.12,-0.49 0,-0.21 -0.04,-0.32 -0.12,-0.34 -0.08,-0.03 -0.19,0 -0.33,0.08l-0.52 0.3 0 1.05z"/>
   <path class="fil9" d="M141.65 55.66c0.18,-0.1 0.33,-0.15 0.46,-0.15 0.14,-0.01 0.24,0.03 0.33,0.11 0.09,0.09 0.16,0.21 0.2,0.37 0.05,0.16 0.08,0.36 0.09,0.58 0.01,0.27 0.01,0.54 0,0.82 -0.01,0.24 -0.04,0.47 -0.09,0.68 -0.04,0.22 -0.11,0.42 -0.2,0.6 -0.08,0.18 -0.19,0.35 -0.32,0.49 -0.13,0.15 -0.28,0.27 -0.45,0.37l-0.91 0.52c-0.02,0.02 -0.05,0.02 -0.06,0 -0.02,-0.02 -0.03,-0.05 -0.03,-0.09l0 -3.58c0,-0.04 0.01,-0.08 0.03,-0.12 0.01,-0.04 0.04,-0.07 0.06,-0.08l0.89 -0.52zm0.59 1.19l0 0c0,-0.11 -0.02,-0.21 -0.04,-0.3 -0.03,-0.09 -0.06,-0.16 -0.11,-0.2 -0.05,-0.05 -0.11,-0.07 -0.19,-0.07 -0.07,0 -0.16,0.03 -0.27,0.09l-0.48 0.28 0 2.49 0.5 -0.29c0.1,-0.06 0.19,-0.13 0.26,-0.21 0.07,-0.09 0.13,-0.18 0.18,-0.28 0.05,-0.1 0.08,-0.21 0.11,-0.33 0.02,-0.12 0.04,-0.24 0.04,-0.36 0.01,-0.28 0.01,-0.55 0,-0.82z"/>
   <path class="fil2" d="M89.12 0.14c0.67,0.15 1.3,0.39 1.89,0.71 0.59,0.33 1.09,0.73 1.5,1.2 0.42,0.47 0.71,1 0.89,1.6 0.18,0.6 0.19,1.25 0.04,1.95 -0.13,0.57 -0.32,1.04 -0.59,1.42 -0.28,0.38 -0.59,0.71 -0.94,0.98 -0.35,0.28 -0.72,0.51 -1.11,0.72 -0.39,0.2 -0.75,0.4 -1.1,0.58 -0.35,0.19 -0.66,0.39 -0.94,0.61 -0.28,0.22 -0.48,0.49 -0.59,0.79 -0.06,0.15 -0.16,0.27 -0.28,0.36 -0.13,0.09 -0.27,0.12 -0.42,0.09l-1.62 -0.36c-0.16,-0.04 -0.29,-0.12 -0.38,-0.26 -0.1,-0.15 -0.12,-0.29 -0.07,-0.45 0.15,-0.54 0.37,-1.01 0.67,-1.38 0.3,-0.37 0.63,-0.69 1,-0.96 0.37,-0.27 0.75,-0.51 1.14,-0.7 0.39,-0.2 0.76,-0.39 1.1,-0.58 0.34,-0.18 0.63,-0.38 0.87,-0.59 0.24,-0.2 0.39,-0.46 0.46,-0.76 0.12,-0.54 -0.01,-1.03 -0.39,-1.48 -0.38,-0.45 -0.94,-0.76 -1.7,-0.93 -1.21,-0.26 -2.23,0.14 -3.06,1.23 -0.11,0.14 -0.21,0.24 -0.31,0.3 -0.09,0.06 -0.23,0.07 -0.42,0.03l-1.73 -0.38c-0.12,-0.03 -0.22,-0.1 -0.3,-0.2 -0.07,-0.11 -0.09,-0.23 -0.06,-0.38 0.12,-0.49 0.39,-0.97 0.8,-1.42 0.4,-0.46 0.9,-0.84 1.48,-1.15 0.58,-0.31 1.24,-0.53 1.96,-0.65 0.72,-0.12 1.46,-0.1 2.21,0.06zm-1.83 12.31l0 0c0.16,0.04 0.28,0.12 0.37,0.26 0.09,0.14 0.11,0.29 0.08,0.44l-0.42 1.88c-0.03,0.16 -0.12,0.28 -0.26,0.37 -0.14,0.09 -0.28,0.12 -0.44,0.08l-1.84 -0.41c-0.15,-0.03 -0.27,-0.12 -0.36,-0.26 -0.09,-0.14 -0.12,-0.28 -0.08,-0.44l0.41 -1.88c0.04,-0.15 0.12,-0.28 0.26,-0.36 0.14,-0.09 0.29,-0.12 0.45,-0.09l1.83 0.41z"/>
   <path class="fil2" d="M91.16 18.09c0.47,-0.08 0.93,-0.09 1.4,-0.03 0.46,0.06 0.88,0.18 1.27,0.38 0.38,0.2 0.71,0.47 0.98,0.8 0.27,0.34 0.44,0.75 0.52,1.24 0.06,0.4 0.06,0.75 -0.02,1.07 -0.07,0.31 -0.19,0.6 -0.35,0.86 -0.15,0.27 -0.33,0.52 -0.52,0.75 -0.2,0.23 -0.39,0.45 -0.56,0.65 -0.18,0.21 -0.33,0.42 -0.45,0.63 -0.12,0.22 -0.18,0.44 -0.17,0.66 -0.01,0.11 -0.04,0.21 -0.09,0.3 -0.06,0.09 -0.14,0.15 -0.25,0.17l-1.13 0.18c-0.11,0.02 -0.21,0 -0.31,-0.07 -0.1,-0.07 -0.15,-0.15 -0.16,-0.27 -0.04,-0.39 -0.02,-0.74 0.08,-1.05 0.1,-0.32 0.23,-0.61 0.39,-0.88 0.17,-0.27 0.35,-0.51 0.55,-0.74 0.21,-0.23 0.39,-0.44 0.56,-0.65 0.17,-0.2 0.31,-0.4 0.41,-0.6 0.1,-0.19 0.13,-0.4 0.1,-0.6 -0.06,-0.38 -0.27,-0.67 -0.63,-0.86 -0.36,-0.19 -0.8,-0.24 -1.33,-0.15 -0.84,0.13 -1.39,0.66 -1.65,1.56 -0.03,0.12 -0.07,0.21 -0.12,0.28 -0.04,0.06 -0.13,0.1 -0.26,0.12l-1.2 0.2c-0.09,0.01 -0.17,0 -0.25,-0.05 -0.07,-0.05 -0.12,-0.12 -0.13,-0.22 -0.05,-0.35 0,-0.73 0.14,-1.12 0.15,-0.4 0.37,-0.77 0.66,-1.12 0.29,-0.35 0.66,-0.65 1.09,-0.92 0.43,-0.26 0.91,-0.44 1.43,-0.52zm1.98 8.36l0 0c0.11,-0.02 0.21,0 0.3,0.07 0.09,0.07 0.15,0.15 0.17,0.26l0.21 1.31c0.02,0.11 0,0.21 -0.07,0.31 -0.07,0.09 -0.16,0.14 -0.26,0.16l-1.29 0.21c-0.1,0.02 -0.21,-0.01 -0.3,-0.07 -0.09,-0.07 -0.14,-0.16 -0.16,-0.27l-0.22 -1.31c-0.01,-0.1 0.01,-0.21 0.08,-0.3 0.06,-0.09 0.15,-0.15 0.26,-0.16l1.28 -0.21z"/>
   <path class="fil2" d="M101.98 20.15c0.11,0.07 0.17,0.18 0.19,0.31 0.03,0.14 0,0.25 -0.08,0.36l-0.91 1.28c-0.07,0.11 -0.18,0.18 -0.31,0.2 -0.13,0.02 -0.25,-0.01 -0.36,-0.08l-1.25 -0.89c-0.11,-0.08 -0.18,-0.18 -0.2,-0.32 -0.02,-0.13 0.01,-0.25 0.08,-0.36l0.91 -1.28c0.08,-0.1 0.18,-0.17 0.32,-0.19 0.13,-0.02 0.25,0 0.36,0.08l1.25 0.89zm5.3 -8.69l0 0c0.46,0.32 0.85,0.7 1.2,1.14 0.34,0.43 0.59,0.89 0.75,1.38 0.16,0.48 0.21,0.98 0.16,1.49 -0.06,0.51 -0.26,1 -0.59,1.48 -0.28,0.38 -0.58,0.68 -0.91,0.88 -0.32,0.2 -0.66,0.35 -1.01,0.44 -0.35,0.09 -0.71,0.16 -1.07,0.19 -0.35,0.03 -0.69,0.06 -1.01,0.08 -0.32,0.03 -0.62,0.09 -0.91,0.16 -0.28,0.08 -0.51,0.22 -0.69,0.41 -0.09,0.09 -0.2,0.15 -0.33,0.18 -0.12,0.03 -0.24,0.01 -0.34,-0.07l-1.11 -0.78c-0.11,-0.08 -0.17,-0.19 -0.2,-0.32 -0.03,-0.14 0,-0.26 0.09,-0.36 0.29,-0.36 0.6,-0.64 0.95,-0.82 0.34,-0.19 0.69,-0.33 1.06,-0.41 0.36,-0.09 0.72,-0.15 1.08,-0.17 0.36,-0.02 0.69,-0.05 1.01,-0.08 0.31,-0.03 0.59,-0.09 0.84,-0.17 0.25,-0.08 0.44,-0.22 0.59,-0.42 0.26,-0.37 0.32,-0.79 0.18,-1.24 -0.14,-0.46 -0.47,-0.88 -0.98,-1.24 -0.83,-0.59 -1.73,-0.61 -2.71,-0.06 -0.12,0.07 -0.23,0.12 -0.32,0.13 -0.09,0.02 -0.2,-0.02 -0.33,-0.11l-1.18 -0.84c-0.08,-0.06 -0.14,-0.14 -0.16,-0.24 -0.02,-0.11 0,-0.21 0.07,-0.3 0.25,-0.34 0.6,-0.61 1.06,-0.82 0.45,-0.22 0.94,-0.35 1.48,-0.4 0.54,-0.04 1.1,0 1.68,0.14 0.58,0.13 1.13,0.38 1.65,0.75z"/>
   <path class="fil7" d="M73.49 54.01l-13.59 0 0 -32.93c0,-5.95 4.83,-10.78 10.79,-10.78l1.25 0c5.96,0 10.78,4.83 10.78,10.78l0 23.7c0,5.1 -4.13,9.23 -9.23,9.23z"/>
   <path class="fil7" d="M58.58 133.29c-0.11,0.82 -0.35,1.79 -0.39,4.13 -0.05,2.51 -0.51,3.4 -0.57,5.46 -0.07,2.35 0.33,3.23 1.29,4.55 0.95,1.33 3.46,2.53 4.52,0.29 1.07,-2.26 0.92,-3.7 0.58,-6.01 -0.35,-2.38 -0.39,-3.7 -0.59,-5.52 -0.18,-1.6 -0.4,-2.82 -0.4,-2.82l-4.44 -0.08z"/>
   <path class="fil10" d="M65.7 116.62l-8.26 -0.15c0.12,5.52 1,11.64 1.14,16.82 0.03,0.97 -0.02,7.57 0.34,9.57 0.56,3.02 4.13,2.61 4.32,0.81 0.19,-1.81 -0.23,-9.51 -0.22,-10.3 -0.03,-3.32 1.53,-8.93 2.34,-14.89 0.04,-0.29 0.3,-1.58 0.34,-1.86z"/>
   <path class="fil7" d="M76.32 128.99c0,0 -0.33,-0.17 -0.39,0.18 -0.08,0.41 -0.2,1.26 -0.38,1.94 -0.23,0.95 -0.43,2.51 -0.29,3.28 0.14,0.77 1.94,1.76 3.1,2.12 1.72,0.52 2.9,1.39 3.85,2.27 1.15,1.09 3.64,2.12 5.34,2.1 2.01,-0.01 3.41,-0.66 4.07,-1.74 0.69,-1.12 -0.6,-1.2 -2.9,-2.69 -0.52,-0.34 -1.11,-0.72 -1.78,-1.16 -3.64,-2.37 -4.97,-3.65 -5.99,-6.02l-4.63 -0.28z"/>
   <path class="fil10" d="M80.97 127.52c-0.06,-1.7 1.11,-16.2 1.11,-16.2l-7.84 3.58c1.68,10.03 2.03,12.4 2.06,14.04 -0.01,0.04 -0.04,0.18 -0.04,0.42 0.01,1.95 2.21,3 3.92,4.3 0.68,0.51 2.65,2.03 4.64,3.03 1.25,0.63 3.78,0.68 4.09,-0.12 -2.08,-1.59 -5.12,-3.98 -6.78,-5.8 -0.79,-0.87 -1.09,-1.54 -1.16,-3.25z"/>
   <path class="fil6" d="M60.83 62.79c-3.02,6.62 -3.02,11.73 -2.52,20.18 0.46,7.74 1.19,14.56 1.19,14.56 -0.12,1.37 -2.03,4.06 -2.28,10.13 -0.23,5.68 0.39,12.89 0.39,12.89 0,0 4.29,2.38 7.46,-0.02 0,0 3.06,-14.61 3.96,-21.71 0.78,-6.21 2.14,-14.13 2.14,-14.13l2.88 14.09c0,0 -1.1,3.48 -1.35,6.13 -0.41,4.18 1.93,12.38 1.93,12.38 0,0 4.43,1.33 7.14,-1.07 0,0 1.01,-13.35 1.38,-18.38 0.51,-6.75 -0.55,-25 -1.39,-34.67l-20.93 -0.38z"/>
   <path class="fil7" d="M71.17 84.69l1.19 -10.61c0,0 5.33,-0.71 7.75,-2.98 0,0 -1.82,3.32 -6.29,3.97l-1.72 9.87 1.95 13.84 -2.88 -14.09z"/>
   <path class="fil10" d="M92.76 60.18c0.33,-3.25 0.32,-5.41 0.29,-5.83 -0.11,-1.68 -0.42,-1.96 -2.77,-4.94 -3.18,-4.03 -5.89,-7.65 -8.76,-11.25 -2.04,-2.57 -4.2,-2.97 -6.3,-2.85 -1.47,0.08 1.4,7.15 2.84,11.33l8.25 8.86c0.25,0.35 0.37,0.79 0.33,1.22l-0.51 7.55 2.47 3.3c0,0 3.74,-3.23 4.16,-7.39z"/>
   <path class="fil2" d="M67.28 35.54l0 0c-1.6,0.11 -4.5,0.36 -4.5,0.36 -1.67,0.94 -2.09,1.7 -2.4,3.93 -0.14,0.94 0.64,3.46 1.3,7.05l1.25 6.64 -0.13 3.3c-0.66,2.01 -2.13,4.51 -3.43,8.19 6.39,3.57 11.75,3.7 16.6,3.08 3.71,-0.48 5.67,-1.37 6.32,-2.26 -0.13,-3.64 -0.39,-5.89 -0.46,-9.69 -0.02,-1.6 0.07,-3.21 0.14,-5.05 2.48,-2.04 2.51,-5.43 1.15,-7.63 -3.15,-5.1 -6.21,-8.31 -8.24,-8.14l-7.6 0.22z"/>
   <path class="fil11" d="M77.02 51.15c0,0 -2.92,2.26 -6.24,1.08 -3.33,-1.18 -3.82,-4.09 -3.82,-4.09 0,0 -0.35,3.8 3.85,5.1 4.05,1.26 6.21,-2.09 6.21,-2.09z"/>
   <path class="fil10" d="M80.98 25.09c-0.13,5.52 -1.92,6.89 -2.82,7.28 -0.9,0.39 -2.63,0.15 -4.31,-0.12l0 3.31c0,0 1.94,2.04 1.79,3.55 -0.15,1.53 -3.05,1.7 -5.23,0.21 -1.59,-1.09 -2.73,-2.32 -3.22,-2.91 -0.19,-0.22 -0.28,-0.49 -0.28,-0.77l0 -7.79c0,0 -0.92,0.97 -2.56,-0.15 -1.62,-1.11 -1.77,-3.19 -0.77,-4.37 0.71,-0.83 2.52,-0.89 3.38,0.41 0.49,0.95 0.56,1.91 1.1,1.51 1.46,-1.05 0.68,-3.43 2.43,-4.6 0.01,0 0.01,-0.01 0.01,-0.01 0.53,-0.28 1.12,-0.55 1.79,-0.78 3.13,-1.08 5.85,-1.99 6.5,-4.13 1.24,0.73 2.34,2.85 2.19,9.36z"/>
   <path class="fil12" d="M75.53 29.3c0,0.4 -0.33,0.73 -0.73,0.73 -0.4,0 -0.72,-0.33 -0.72,-0.73 0,-0.4 0.32,-0.72 0.72,-0.72 0.4,0 0.73,0.32 0.73,0.72z"/>
   <path class="fil7" d="M74.32 24.25c0.02,0.44 -0.31,0.81 -0.73,0.83 -0.42,0.02 -0.78,-0.32 -0.8,-0.75 -0.02,-0.44 0.3,-0.81 0.72,-0.83 0.42,-0.02 0.78,0.32 0.81,0.75z"/>
   <path class="fil7" d="M80.11 24.33c0.02,0.4 -0.27,0.73 -0.65,0.75 -0.43,0.02 -0.71,-0.25 -0.73,-0.68 -0.02,-0.4 0.27,-0.74 0.65,-0.76 0.39,-0.02 0.71,0.29 0.73,0.69z"/>
   <path class="fil6" d="M73.33 26.22c-1.37,0 -2.49,-1.12 -2.49,-2.49 0,-1.69 1.75,-1.69 2.49,-1.69 0.75,0 2.49,0 2.49,1.69 0,1.37 -1.12,2.49 -2.49,2.49zm0 -3.79l0 0c-1.51,0 -2.09,0.37 -2.09,1.3 0,1.16 0.94,2.1 2.09,2.1 1.16,0 2.1,-0.94 2.1,-2.1 0,-0.93 -0.59,-1.3 -2.1,-1.3z"/>
   <path class="fil6" d="M79.65 26.22c-1.37,0 -2.49,-1.12 -2.49,-2.49 0,-1.69 1.74,-1.69 2.49,-1.69 0.74,0 2.49,0 2.49,1.69 0,1.37 -1.12,2.49 -2.49,2.49zm0 -3.79l0 0c-1.51,0 -2.1,0.37 -2.1,1.3 0,1.16 0.94,2.1 2.1,2.1 1.15,0 2.09,-0.94 2.09,-2.1 0,-0.93 -0.58,-1.3 -2.09,-1.3z"/>
   <polygon class="fil13" points="76.21,22.93 76.33,27.58 78.78,26.82 "/>
   <path class="fil13" d="M73.84 32.25c-1.77,-0.24 -5.43,-1.29 -6,-2.73 0,0 0.19,0.91 1.29,1.84 1.09,0.94 4.71,1.99 4.71,1.99l0 -1.1z"/>
   <path class="fil7" d="M73.93 20.67l-1.62 0.99c-0.27,-0.46 -0.12,-1.06 0.33,-1.34 0.45,-0.27 1.02,-0.11 1.29,0.35z"/>
   <path class="fil7" d="M80.53 21.78l-1.81 -0.63c0.16,-0.51 0.69,-0.79 1.19,-0.61 0.5,0.17 0.78,0.73 0.62,1.24z"/>
   <path class="fil6" d="M75.62 23.93c-0.1,0 -0.19,-0.09 -0.19,-0.2 0,-0.32 0.63,-0.52 1.19,-0.52 0.57,0 0.93,0.2 0.93,0.52 0,0.11 -0.08,0.2 -0.19,0.2 -0.11,0 -0.2,-0.09 -0.2,-0.2 -0.02,-0.03 -0.2,-0.13 -0.54,-0.13 -0.34,0 -0.78,0.1 -0.8,0.14 0,0.1 -0.09,0.19 -0.2,0.19z"/>
   <path class="fil6" d="M71.05 23.77c-0.01,0 -0.02,-0.01 -0.02,-0.01l-4.38 -0.39c-0.08,-0.08 -0.28,-0.29 -0.71,-0.47l5.13 0.47c0.11,0.02 0.18,0.11 0.17,0.22 -0.01,0.1 -0.09,0.18 -0.19,0.18z"/>
   <path class="fil10" d="M53.09 28.32c1.43,-1.91 2.41,-3.35 3.72,-4.99 0.74,-0.93 1.21,-1.59 1.92,-2.55 0.49,-0.65 0.78,-1.21 1.33,-1.41 0.61,-0.23 1.2,-0.68 1.59,-1.1 0.28,-0.29 0.51,-0.63 0.76,-0.96 0.81,-1.1 1.79,-2.08 2.89,-2.91 1.15,-0.87 2.42,-1.53 3.61,-2.35 0.7,-0.5 1.46,-1.32 0.6,-2.08 -0.26,-0.23 -0.58,-0.37 -0.92,-0.44 -2.08,-0.45 -3.9,0.26 -5.93,0.78 -0.89,0.23 -1.76,0.51 -2.59,0.88 -0.41,0.18 -0.81,0.37 -1.15,0.66 -0.53,0.45 -0.84,1.09 -1.18,1.69 -0.92,1.61 -2.81,3.03 -4.15,4.29 -1.56,1.47 -2.96,2.82 -4.75,4.45 -1.61,1.46 -3.18,2.81 -4.65,4.41 -1.22,1.32 -0.78,2.35 -0.61,2.71 1,2.04 2.11,2.77 3.44,4.04 2.3,2.19 10.23,8.5 12.87,10.59 0.56,0.44 1,1.02 1.28,1.68l0.51 1.17c3,0.55 5,-3.95 2.51,-9.38 -0.4,-0.88 -1.04,-1.62 -1.82,-2.19 -3.13,-2.29 -9.28,-6.99 -9.28,-6.99z"/>
   <path class="fil13" d="M53.09 28.32c0,0 -1.35,1.82 -3.66,2.53 0,0 1.91,0.48 4.53,-1.87l-0.87 -0.66z"/>
   <path class="fil6" d="M91.98 56.19l0.01 0 -0.49 -0.42 0 0.01c-0.11,-0.09 -0.28,-0.12 -0.5,-0.06l-5.31 1.44c-0.5,0.14 -1.03,0.64 -1.2,1.12l-3.82 11.03c-0.09,0.25 -0.05,0.45 0.07,0.56l0 0 0.5 0.44 0 -0.01c0.11,0.09 0.29,0.12 0.51,0.06l5.31 -1.44c0.5,-0.14 1.03,-0.64 1.2,-1.12 0.75,-2.17 3.07,-8.86 3.82,-11.03 0.09,-0.27 0.05,-0.47 -0.1,-0.58z"/>
   <path class="fil2" d="M81.16 69.73l3.83 -11.03c0.16,-0.48 0.7,-0.98 1.19,-1.11l5.31 -1.45c0.49,-0.13 0.76,0.15 0.59,0.63 -0.75,2.17 -3.07,8.86 -3.82,11.03 -0.17,0.48 -0.7,0.98 -1.2,1.12l-5.31 1.44c-0.49,0.14 -0.75,-0.15 -0.59,-0.63z"/>
   <path class="fil8" d="M85.6 57.89c-0.28,0.22 -0.51,0.52 -0.62,0.81l-3.82 11.03c-0.08,0.25 -0.06,0.44 0.05,0.55l-0.47 -0.4 0 -0.01c-0.12,-0.11 -0.16,-0.31 -0.07,-0.56l3.82 -11.03c0.1,-0.27 0.31,-0.55 0.57,-0.77l0.54 0.38z"/>
   <path class="fil13" d="M90.52 61.22c-0.37,1.12 -1.71,1.87 -3.9,2.39 -2.19,0.52 -3.41,2.85 -3.05,3.56 0.35,0.71 3.9,1.37 5.31,1.16 1.42,-0.2 2.85,-2.25 3.28,-2.88 0.43,-0.64 0.93,-5.07 0.47,-5.68 -0.45,-0.6 -1.41,-0.51 -1.41,-0.51l-0.7 1.96z"/>
  </g>
 </g>
</svg>
