<?xml version="1.0" encoding="UTF-8"?>
<!DOCTYPE svg PUBLIC "-//W3C//DTD SVG 1.1//EN" "http://www.w3.org/Graphics/SVG/1.1/DTD/svg11.dtd">
<!-- Creator: CorelDRAW 2020 (64-Bit) -->
<svg xmlns="http://www.w3.org/2000/svg" xml:space="preserve" width="300px" height="307px" version="1.1" style="shape-rendering:geometricPrecision; text-rendering:geometricPrecision; image-rendering:optimizeQuality; fill-rule:evenodd; clip-rule:evenodd"
viewBox="0 0 11.67 11.94"
 xmlns:xlink="http://www.w3.org/1999/xlink"
 xmlns:xodm="http://www.corel.com/coreldraw/odm/2003">
 <defs>
  <style type="text/css">
   <![CDATA[
    .fil2 {fill:#666264}
    .fil1 {fill:#666264}
    .fil0 {fill:#E95B11}
   ]]>
  </style>
 </defs>
 <g id="Layer_x0020_1">
  <metadata id="CorelCorpID_0Corel-Layer"/>
  <g id="_2236083800832">
   <path class="fil0" d="M1.26 10.13l0.28 0.02c-0.01,0.17 -0.07,0.25 -0.23,0.25 -0.04,-0.08 -0.06,-0.14 -0.05,-0.27zm1.04 -0.15c0.3,-0.36 0.48,-0.47 0.86,-0.96 0.07,-0.1 0.05,-0.08 0.13,-0.15 0.24,-0.22 0.21,-0.37 0.37,-0.69 0.14,-0.27 0.28,-0.47 0.43,-0.68 0.07,0.13 0.08,0.38 0.16,0.53 0.1,0.19 0.21,0.25 0.31,0.43 0.19,0.32 0.27,0.82 0.13,1.21 -0.16,0.47 -0.55,0.28 -1.02,0.23 -0.55,-0.05 -0.87,0.03 -1.37,0.08zm5.17 -2.48c0.2,0.31 0.44,0.64 0.55,1.03 0.09,0.28 0.03,0.2 0.21,0.34l1 1.11c-0.47,-0.07 -0.83,-0.13 -1.34,-0.08 -0.46,0.04 -0.89,0.23 -1.05,-0.23 -0.13,-0.36 -0.05,-0.93 0.12,-1.21 0.11,-0.18 0.2,-0.18 0.33,-0.42 0.09,-0.15 0.11,-0.39 0.18,-0.54zm-2.54 -2.55c-0.01,0.15 -0.07,0.2 0.07,0.18 0.02,0.09 0.04,0.2 -0.03,0.3 -0.1,-0.09 -0.33,-0.77 -0.35,-0.96 -0.04,-0.43 -0.42,-0.64 -0.12,-0.93 0.11,-0.11 0.09,-0.06 0.19,-0.19 0.26,-0.34 0.72,-1 1.1,-1.14 0.68,0.5 0.6,0.54 0.95,1 0.76,0.96 0.27,0.41 0.2,1.31 -0.03,0.3 -0.11,0.25 -0.19,0.47 -0.09,0.24 0.01,0.32 -0.21,0.46l-0.01 -0.28c0.2,-0.13 0,0.05 0.09,0 0.01,-0.25 -0.09,-0.37 -0.07,-0.55 0.05,-0.36 0.41,-0.65 -0.35,-1.22 0.12,-0.34 -0.05,-0.67 -0.44,-0.67 -0.44,0.01 -0.48,0.33 -0.41,0.67 -0.24,0.15 -0.42,0.28 -0.47,0.61 -0.03,0.25 0.01,0.29 0.07,0.49 0.07,0.26 0.02,0.21 -0.02,0.45zm-2.86 -2.38c-0.24,0.59 -0.51,0.14 -0.15,-0.13l0.15 0.13zm7.7 0.3c-0.22,-0.05 -0.35,-0.18 -0.25,-0.39 0.29,-0.03 0.28,0.18 0.25,0.39zm-8.51 7.26c-0.26,-0.03 -0.04,0.31 -0.01,0.37l-0.18 0.09 -0.09 0.07c-0.01,0.01 -0.02,0.02 -0.03,0.03 -0.01,0 -0.02,0.01 -0.03,0.02 0.28,-0.03 0.55,-0.07 0.7,-0.25l0.14 0.19c0.45,0.48 2,0.8 2.75,0.82 0.44,0.02 0.89,-0.09 1.25,-0.08 0.95,0.03 1.08,0.21 2.35,-0.07 0.51,-0.11 1.43,-0.33 1.75,-0.8l0.05 -0.06c0.16,0.17 0.43,0.25 0.72,0.23l-0.34 -0.16 0.06 -0.16 0.03 -0.22c-0.14,0.14 0,-0.09 -0.06,0.09 -0.01,0.01 -0.01,0.03 -0.01,0.04l-0.03 0.09c-0.19,0.1 -0.28,0.01 -0.29,-0.22l0.26 -0.01c0.01,-0.08 -0.02,-0.06 0.07,-0.06 -0.31,-0.35 -0.47,0.09 -0.92,-0.61l-0.77 -1.51c-0.07,-0.27 -0.08,-0.33 -0.22,-0.57 -0.12,-0.22 -0.08,-0.38 -0.17,-0.62 -0.09,-0.25 -0.21,-0.32 -0.29,-0.48 0.49,-0.03 0.92,-0.15 1.24,-0.39 0.3,-0.22 -0.07,-0.02 0.48,-0.35 0.57,-0.33 -0.39,-1.53 0.67,-3.45 -0.06,-0.05 0.02,-0.01 -0.08,-0.04 0,0 -0.11,-0.03 -0.12,-0.03l-0.24 0.45c-0.02,-0.01 -0.03,-0.03 -0.03,-0.03 0,0.01 -0.02,-0.01 -0.03,-0.02 -0.35,-0.3 -0.48,0.05 -0.49,0.24 -0.01,0.3 0.21,0.39 0.19,0.83 -0.02,0.31 -0.15,0.51 -0.25,0.79 -0.09,0.26 -0.14,0.52 -0.21,0.81 -1.39,0.15 -0.83,0.44 -1.56,0.35 0.2,-0.51 0.3,-0.7 0.32,-1.35 0.03,-1.05 -0.06,-0.91 -0.54,-1.17 -0.34,-0.19 -0.8,-0.5 -1.01,-0.71 -0.31,-0.31 -0.13,-0.84 -0.53,-1.16 -0.4,0.31 -0.13,0.78 -0.51,1.14 -1.23,1.2 -1.6,0.43 -1.56,1.85 0.02,0.72 0.13,0.86 0.35,1.39 -0.74,0.14 -0.4,-0.31 -1.58,-0.33 -0.07,-0.31 -0.1,-0.51 -0.21,-0.8 -0.1,-0.27 -0.24,-0.49 -0.25,-0.81 -0.02,-0.37 0.45,-1.08 -0.02,-1.18 -0.18,-0.04 -0.17,0.08 -0.36,0.17 -0.1,-0.47 -0.25,-0.44 -0.42,-0.45 0.11,0.41 0.36,0.77 0.46,1.24 0.21,0.94 -0.19,2 0.17,2.25 0.12,0.08 0.14,0.05 0.26,0.15 0.1,0.1 0.09,0.11 0.22,0.2 0.38,0.27 0.72,0.39 1.27,0.41 -0.07,0.16 -0.19,0.21 -0.28,0.46 -0.1,0.28 -0.02,0.41 -0.16,0.63 -0.27,0.41 -0.09,0.36 -0.5,1.08 -0.23,0.43 -0.5,1.31 -0.94,1.43 -0.19,0.05 -0.51,0.03 -0.44,0.24z"/>
   <g>
    <path class="fil1" d="M2.81 1.04c-0.04,0.02 -0.11,0.1 -0.12,0.13 0.14,0.11 1.1,1.13 1.16,1.13 0.04,-0.01 0.09,-0.06 0.11,-0.11l-1.15 -1.15z"/>
    <path class="fil1" d="M2.22 1.17c0.03,0.05 0.15,0.17 0.19,0.2 0.06,-0.03 0.46,-0.44 0.56,-0.54 0.05,-0.05 0.16,-0.13 0.18,-0.2l-0.06 -0.07c-0.09,0.01 -0.19,0.07 -0.27,0.1 -0.13,0.05 -0.15,0.05 -0.24,0.14 -0.06,0.06 -0.33,0.32 -0.36,0.37z"/>
   </g>
   <g>
    <path class="fil1" d="M0.63 7.15c0.02,0.04 0.04,0.08 0.07,0.12 0.02,0.05 0.05,0.09 0.07,0.13 0.04,0.07 0.11,0.19 0.15,0.25 0.01,0 0.04,-0.05 0.05,-0.06l0.1 -0.14c0.01,-0.02 0.05,-0.06 0.04,-0.07 0,-0.04 -0.06,-0.15 -0.05,-0.19 0.01,-0.06 0.13,0.01 0.17,0.01l0.02 -0.01c0.01,-0.03 -0.05,-0.15 -0.02,-0.17 0.03,-0.03 0.15,0.02 0.19,0.02l0 -0.02c0,-0.02 -0.03,-0.13 -0.02,-0.15 0.03,-0.05 0.14,0.01 0.19,0.01 0.02,-0.05 -0.04,-0.15 -0.01,-0.19 0.04,-0.04 0.18,0.08 0.18,0.01 0,-0.03 -0.04,-0.12 -0.02,-0.15 0.04,-0.03 0.15,0.05 0.17,0.03 0.01,-0.01 0.01,0 0.01,-0.02 0,0 0,-0.02 0,-0.02 0,-0.04 -0.02,-0.14 0,-0.16 0.03,-0.03 0.12,0.05 0.17,0.04 0,-0.04 -0.04,-0.28 -0.05,-0.34 -0.02,-0.12 -0.01,-0.23 -0.09,-0.15l-1.22 1.12c-0.02,0.02 -0.08,0.07 -0.1,0.1z"/>
    <path class="fil1" d="M0.51 7.4c0.01,0.02 0.07,0.12 0.08,0.15 0.02,0.02 0.03,0.05 0.05,0.08 0.01,0.02 0.03,0.05 0.04,0.08 -0.06,0.05 -0.1,0.07 -0.16,0.15 -0.03,0.04 -0.04,0.08 -0.07,0.01 -0.08,-0.17 -0.24,-0.17 -0.05,-0.37l0.11 -0.1zm-0.51 0.22c0.01,0.01 0.06,0.03 0.08,0.04 0.03,0.02 0.05,0.04 0.08,0.06 0.11,0.09 0.21,0.25 0.24,0.39 0.01,0.04 0.01,0.08 0.02,0.12 0.03,-0.03 0.08,-0.08 0.11,-0.11 0.04,-0.03 0.01,-0.08 0.07,-0.16 0.05,-0.07 0.22,-0.2 0.23,-0.23l-0.28 -0.51c-0.03,0.02 -0.21,0.19 -0.25,0.23 -0.12,0.09 -0.16,0.04 -0.21,0.08 -0.02,0.03 -0.08,0.07 -0.09,0.09z"/>
   </g>
   <g>
    <path class="fil1" d="M8.91 1.4l-0.05 -0.05c0.01,-0.01 0.02,-0.02 0.03,-0.03l0.76 -0.74c0.01,-0.01 0.02,-0.02 0.03,-0.03 0.05,-0.04 0.13,-0.14 0.19,-0.19 0,0.02 0,0.01 -0.01,0.02l-0.71 0.76c-0.04,0.05 -0.08,0.09 -0.12,0.13l-0.06 0.06c-0.02,0.02 -0.05,0.06 -0.06,0.07zm-0.12 -0.04c0.04,0.03 0.07,0.07 0.11,0.1 0.01,0.02 0.03,0.03 0.05,0.05 0.02,0.02 0.04,0.04 0.06,0.05l0.32 -0.38c0.01,-0.01 0.01,-0.01 0.02,-0.02l0.12 -0.15c0.03,-0.05 0.16,-0.19 0.2,-0.24 0,-0.01 0,-0.01 0.02,-0.02l0.39 -0.49c0.01,-0.01 0.03,-0.04 0.04,-0.05 0.03,-0.03 0.05,-0.07 0.08,-0.1 0.01,-0.02 0.06,-0.09 0.06,-0.11 -0.04,0.02 -0.19,0.16 -0.24,0.2l-0.53 0.49c-0.01,0.01 -0.01,0.01 -0.02,0.02 -0.01,0.01 -0.01,0.01 -0.02,0.02l-0.18 0.17c-0.01,0.01 -0.02,0.02 -0.03,0.03l-0.04 0.04c-0.01,0.01 -0.01,0.01 -0.02,0.02 -0.01,0.01 -0.02,0.01 -0.03,0.02l-0.36 0.35z"/>
    <path class="fil1" d="M7.87 2.22c0.03,0.02 0.2,0.07 0.26,0.08 0.34,0.06 0.49,-0.11 0.58,-0.44 0.02,-0.1 0.03,-0.08 -0.02,-0.12l-0.09 -0.09c-0.02,-0.01 -0.11,0.02 -0.14,0.03 -0.3,0.1 -0.18,0.4 -0.45,0.42l0.02 0.01c0.04,0.01 0.1,0.03 0.11,0.07 -0.07,0.04 -0.19,0.03 -0.27,0.04z"/>
    <path class="fil1" d="M8.74 1.42c-0.03,0.04 -0.11,0.15 -0.1,0.21 0,0.02 0.04,0.04 0.05,0.06 0.03,0.02 0.04,0.04 0.06,0.04 0.06,0 0.19,-0.09 0.2,-0.12l-0.21 -0.19z"/>
   </g>
   <g>
    <path class="fil1" d="M10.67 7.72c0.02,0.02 0.02,0.01 0.03,0.04 0,0.03 0,0.05 0,0.07l-0.64 0c0,-0.06 0,-0.12 0.06,-0.12 0.07,0 0.53,-0.01 0.55,0.01zm-1.41 -0.04c0.01,-0.05 0.07,-0.16 0.09,-0.2 0.03,-0.06 0.02,-0.06 0.09,-0.06 0.29,0 1.83,-0.01 1.94,0l0.13 0.26 -2.25 0zm2.41 0.23c0.04,-0.05 -0.12,-0.32 -0.17,-0.41 -0.02,-0.04 -0.04,-0.11 -0.08,-0.13l-2.08 0c-0.04,0.02 -0.12,0.22 -0.15,0.27 -0.03,0.06 -0.16,0.26 -0.07,0.29 0.04,0.01 2.06,0 2.45,0 0.07,0.01 0.07,0.01 0.1,-0.02z"/>
    <path class="fil1" d="M9.41 6.11l1.94 0 0 1.13 -1.94 0 0 -1.13zm-0.08 1.22l2.11 0c-0.01,-0.39 -0.01,-0.79 0,-1.18 0,-0.13 -0.06,-0.12 -0.18,-0.12l-1.75 0c-0.11,0 -0.18,-0.02 -0.18,0.11 0,0.4 0,0.79 0,1.19z"/>
    <path class="fil1" d="M10.08 7.61l0 0.05 0.61 0 -0.01 -0.05c-0.04,-0.02 -0.35,-0.01 -0.44,-0.01 -0.06,0 -0.13,-0.01 -0.16,0.01z"/>
    <path class="fil1" d="M10.23 7.58l0.14 0c0,-0.06 0.01,-0.06 -0.06,-0.06 -0.02,0 -0.05,0 -0.08,0l0 0.06z"/>
    <path class="fil1" d="M10.39 7.54l0 0.04 0.14 0 0 -0.06c-0.03,0 -0.05,0 -0.08,0 -0.07,0 -0.04,0 -0.06,0.02z"/>
    <polygon class="fil1" points="9.29,7.66 9.33,7.66 9.38,7.66 9.42,7.66 9.45,7.6 9.41,7.6 9.36,7.6 9.31,7.6 "/>
    <path class="fil1" d="M10.23 7.5c0.03,0 0.06,0 0.08,0 0.07,0 0.06,0 0.06,-0.06l-0.14 0 0 0.06z"/>
    <polygon class="fil1" points="9.76,7.66 9.9,7.66 9.91,7.6 9.77,7.6 "/>
    <polygon class="fil1" points="10.87,7.66 11,7.66 10.99,7.6 10.86,7.6 "/>
    <polygon class="fil1" points="9.6,7.66 9.74,7.66 9.75,7.6 9.62,7.6 "/>
    <polygon class="fil1" points="11.34,7.66 11.48,7.66 11.45,7.6 11.32,7.6 "/>
    <path class="fil1" d="M10.39 7.49l0.11 0.01c0.03,-0.01 0.03,0.01 0.03,-0.06l-0.14 0 0 0.05z"/>
    <polygon class="fil1" points="10.71,7.66 10.84,7.66 10.83,7.6 10.7,7.6 "/>
    <path class="fil1" d="M9.45 7.66l0.12 0c0.02,-0.01 0.02,-0.03 0.03,-0.06l-0.12 0c-0.02,0.02 -0.02,0.03 -0.03,0.06z"/>
    <polygon class="fil1" points="9.92,7.66 10.05,7.66 10.06,7.6 9.93,7.6 "/>
    <polygon class="fil1" points="11.02,7.65 11.16,7.66 11.14,7.6 11.01,7.6 "/>
    <path class="fil1" d="M9.63 7.58c0.03,0 0.09,0 0.11,0 0.03,0 0.03,-0.02 0.03,-0.06l-0.12 0 -0.02 0.06z"/>
    <polygon class="fil1" points="11.18,7.66 11.32,7.66 11.29,7.6 11.16,7.6 "/>
    <path class="fil1" d="M11.13 7.58l-0.01 -0.06 -0.13 0c0.01,0.09 0.04,0.06 0.14,0.06z"/>
    <path class="fil1" d="M11.32 7.58l0.12 0 -0.03 -0.06 -0.13 0c0.01,0.03 0.02,0.04 0.04,0.06z"/>
    <polygon class="fil1" points="9.93,7.58 10.06,7.58 10.07,7.52 9.94,7.52 "/>
    <polygon class="fil1" points="9.78,7.58 9.91,7.58 9.92,7.52 9.79,7.52 "/>
    <polygon class="fil1" points="9.33,7.58 9.45,7.58 9.48,7.52 9.35,7.52 "/>
    <polygon class="fil1" points="11.16,7.58 11.28,7.58 11.26,7.52 11.14,7.52 "/>
    <polygon class="fil1" points="9.48,7.58 9.6,7.58 9.63,7.52 9.5,7.52 "/>
    <polygon class="fil1" points="10.85,7.58 10.98,7.58 10.97,7.52 10.84,7.52 "/>
    <polygon class="fil1" points="10.08,7.58 10.21,7.58 10.21,7.52 10.09,7.52 "/>
    <polygon class="fil1" points="10.55,7.58 10.67,7.58 10.68,7.52 10.55,7.52 "/>
    <path class="fil1" d="M10.7 7.58l0.13 0 -0.01 -0.05 -0.06 -0.01c-0.02,0 -0.04,0 -0.06,0l0 0.06z"/>
    <polygon class="fil1" points="11.27,7.5 11.4,7.5 11.37,7.44 11.25,7.44 "/>
    <polygon class="fil1" points="9.36,7.5 9.49,7.5 9.51,7.44 9.4,7.44 "/>
    <polygon class="fil1" points="9.8,7.5 9.92,7.5 9.93,7.44 9.82,7.44 "/>
    <polygon class="fil1" points="10.84,7.5 10.96,7.5 10.95,7.44 10.83,7.44 "/>
    <polygon class="fil1" points="11.13,7.5 11.25,7.5 11.22,7.44 11.11,7.44 "/>
    <polygon class="fil1" points="9.66,7.5 9.78,7.5 9.79,7.44 9.68,7.44 "/>
    <polygon class="fil1" points="9.51,7.5 9.63,7.5 9.65,7.44 9.54,7.44 "/>
    <polygon class="fil1" points="9.94,7.5 10.07,7.5 10.07,7.44 9.96,7.44 "/>
    <polygon class="fil1" points="10.09,7.5 10.21,7.5 10.21,7.44 10.1,7.44 "/>
    <polygon class="fil1" points="10.55,7.49 10.67,7.5 10.67,7.44 10.55,7.44 "/>
    <polygon class="fil1" points="10.98,7.5 11.1,7.5 11.09,7.44 10.97,7.44 "/>
    <polygon class="fil1" points="10.69,7.49 10.82,7.5 10.81,7.44 10.69,7.44 "/>
   </g>
   <polygon class="fil2" points="0.98,11.94 2.3,11.72 9.23,11.72 10.57,11.94 10.57,11.94 0.98,11.94 "/>
  </g>
 </g>
</svg>
