<?xml version="1.0" encoding="UTF-8"?>
<!DOCTYPE svg PUBLIC "-//W3C//DTD SVG 1.1//EN" "http://www.w3.org/Graphics/SVG/1.1/DTD/svg11.dtd">
<!-- Creator: CorelDRAW 2020 (64-Bit) -->
<svg xmlns="http://www.w3.org/2000/svg" xml:space="preserve" width="300px" height="305px" version="1.1" style="shape-rendering:geometricPrecision; text-rendering:geometricPrecision; image-rendering:optimizeQuality; fill-rule:evenodd; clip-rule:evenodd"
viewBox="0 0 38.83 39.4"
 xmlns:xlink="http://www.w3.org/1999/xlink"
 xmlns:xodm="http://www.corel.com/coreldraw/odm/2003">
 <defs>
  <style type="text/css">
   <![CDATA[
    .fil2 {fill:#FEFEFE;fill-rule:nonzero}
    .fil8 {fill:#FCC32A;fill-rule:nonzero}
    .fil15 {fill:#EE796E;fill-rule:nonzero}
    .fil11 {fill:#F6B50C;fill-rule:nonzero}
    .fil13 {fill:#F6B50C;fill-rule:nonzero}
    .fil3 {fill:#F4F4F4;fill-rule:nonzero}
    .fil0 {fill:#EBECEC;fill-rule:nonzero}
    .fil16 {fill:#E5E6E6;fill-rule:nonzero}
    .fil17 {fill:#DDA316;fill-rule:nonzero}
    .fil18 {fill:#D66E63;fill-rule:nonzero}
    .fil1 {fill:#DCDDDC;fill-rule:nonzero}
    .fil19 {fill:#C99520;fill-rule:nonzero}
    .fil4 {fill:#C8C8C9;fill-rule:nonzero}
    .fil5 {fill:#A7A8A8;fill-rule:nonzero}
    .fil7 {fill:#3F5E69;fill-rule:nonzero}
    .fil12 {fill:#354A53;fill-rule:nonzero}
    .fil6 {fill:#29383E;fill-rule:nonzero}
    .fil14 {fill:#1D1D1E;fill-rule:nonzero}
    .fil10 {fill:#E95B11;fill-rule:nonzero}
    .fil9 {fill:#ED890D;fill-rule:nonzero}
   ]]>
  </style>
 </defs>
 <g id="Layer_x0020_1">
  <metadata id="CorelCorpID_0Corel-Layer"/>
  <g id="_2598426441408">
   <polygon class="fil0" points="33.26,28.63 36.46,28.63 36.46,27.62 33.26,27.62 "/>
   <polygon class="fil0" points="35.04,11.07 38.24,11.07 38.24,10.05 35.04,10.05 "/>
   <path class="fil0" d="M35.04 29.92l-0.02 -1.02 0 -0.02 0.02 0c0.4,-0.01 1.2,-0.02 1.6,-0.02l1.6 -0.01 0.05 0 0 0.05 -0.01 1.02 0 0.04 -0.04 0 -0.81 0c-0.51,-0.01 -1.86,-0.03 -2.39,-0.04zm0 0c0.53,-0.01 1.9,-0.03 2.41,-0.04l0.79 0 -0.04 0.04 0 -1.02 0.04 0.05c-0.53,-0.01 -1.88,-0.01 -2.4,-0.02l-0.8 -0.01 0.02 -0.02 -0.02 1.02z"/>
   <path class="fil0" d="M8.48 27.37l-0.02 -1.01 0 -0.02 0.02 -0.01c0.4,0 1.2,-0.01 1.6,-0.01l1.6 -0.01 0.04 0 0 0.05 0 1.01 0 0.05 -0.04 0 -0.81 -0.01c-0.51,0 -1.87,-0.03 -2.39,-0.04zm0 0c0.53,0 1.89,-0.03 2.41,-0.03l0.79 -0.01 -0.04 0.04 -0.01 -1.01 0.05 0.04c-0.53,0 -1.89,0 -2.4,-0.01l-0.8 -0.01 0.02 -0.02 -0.02 1.01z"/>
   <path class="fil0" d="M10.26 28.66l-0.02 -1.02 0 -0.02 0.02 0c0.4,-0.01 1.2,-0.02 1.6,-0.02l1.6 0 0.05 0 0 0.04 -0.01 1.02 0 0.04 -0.04 0 -0.8 0c-0.51,-0.01 -1.87,-0.03 -2.4,-0.04zm0 0c0.53,-0.01 1.9,-0.03 2.41,-0.04l0.79 0 -0.04 0.04 0 -1.02 0.04 0.05c-0.53,-0.01 -1.88,-0.01 -2.4,-0.02l-0.8 -0.01 0.02 -0.02 -0.02 1.02z"/>
   <polygon class="fil0" points="12.04,27.37 15.24,27.37 15.24,26.36 12.04,26.36 "/>
   <polygon class="fil0" points="0.59,29.92 3.79,29.92 3.79,28.9 0.59,28.9 "/>
   <polygon class="fil0" points="2.37,1.61 5.57,1.61 5.57,0.59 2.37,0.59 "/>
   <path class="fil0" d="M0.59 2.9l-0.02 -1.02 -0.01 -0.02 0.03 0 0.8 -0.01 0.8 -0.01 1.6 -0.01 0.04 0 0 0.05 0 1.02 0 0.04 -0.04 0 -0.81 -0.01 -0.8 -0.01 -1.59 -0.02zm0 0l1.61 -0.03 0.79 -0.01 0.8 0 -0.04 0.04 -0.01 -1.02 0.05 0.04 -1.6 0 -0.8 -0.01 -0.8 -0.01 0.02 -0.02 -0.02 1.02z"/>
   <path class="fil0" d="M33.26 1.61l-0.02 -1.02 -0.01 -0.02 0.03 0 0.8 -0.01 0.8 -0.01 1.6 0 0.04 0 0 0.04 0 1.02 0 0.04 -0.04 0 -0.81 0 -0.8 -0.01 -1.59 -0.03zm0 0l1.61 -0.02 0.79 -0.01 0.8 -0.01 -0.04 0.04 -0.01 -1.02 0.05 0.05 -1.6 -0.01 -0.8 0 -0.8 -0.01 0.02 -0.03 -0.02 1.02z"/>
   <path class="fil0" d="M38.53 3.92c0,2.17 -1.75,3.92 -3.92,3.92 -2.17,0 -3.92,-1.75 -3.92,-3.92 0,-2.13 1.7,-3.87 3.82,-3.92l0.2 0c2.12,0.05 3.82,1.79 3.82,3.92z"/>
   <path class="fil1" d="M38.53 4.01c0,2.06 -1.67,3.74 -3.74,3.74 -2.07,0 -3.74,-1.68 -3.74,-3.74 0,-2.07 1.67,-3.74 3.74,-3.74 2.07,0 3.74,1.67 3.74,3.74z"/>
   <path class="fil2" d="M38.29 4.01c0,1.93 -1.56,3.5 -3.5,3.5 -1.94,0 -3.51,-1.57 -3.51,-3.5 0,-1.94 1.57,-3.51 3.51,-3.51 1.94,0 3.5,1.57 3.5,3.51z"/>
   <path class="fil3" d="M34.53 5.49l0 -2.83 1.89 -1.76c0.9,0.48 1.57,1.34 1.8,2.36 -1.01,0.61 -2.42,1.47 -3.69,2.23z"/>
   <path class="fil3" d="M34.53 6.94l0 -0.64c1.26,-0.73 2.76,-1.59 3.76,-2.17 -0.01,0.4 -0.09,0.78 -0.23,1.14l-3.53 1.67z"/>
   <polygon class="fil4" points="34.76,1.29 34.82,1.29 34.82,0.76 34.76,0.76 "/>
   <polygon class="fil4" points="33.4,1.67 33.13,1.21 33.19,1.18 33.46,1.64 "/>
   <polygon class="fil4" points="32.42,2.68 31.96,2.41 31.99,2.35 32.45,2.62 "/>
   <polygon class="fil4" points="31.54,4.04 32.07,4.04 32.07,3.97 31.54,3.97 "/>
   <polygon class="fil4" points="31.99,5.66 31.96,5.6 32.42,5.34 32.45,5.4 "/>
   <polygon class="fil4" points="33.19,6.84 33.13,6.81 33.4,6.35 33.46,6.38 "/>
   <polygon class="fil4" points="34.76,7.26 34.82,7.26 34.82,6.73 34.76,6.73 "/>
   <polygon class="fil4" points="36.39,6.84 36.12,6.38 36.18,6.35 36.44,6.81 "/>
   <polygon class="fil4" points="37.59,5.66 37.13,5.4 37.16,5.34 37.62,5.6 "/>
   <polygon class="fil4" points="37.51,4.04 38.04,4.04 38.04,3.97 37.51,3.97 "/>
   <polygon class="fil4" points="37.16,2.68 37.13,2.62 37.59,2.35 37.62,2.41 "/>
   <polygon class="fil4" points="36.18,1.67 36.12,1.64 36.39,1.18 36.44,1.21 "/>
   <polygon class="fil4" points="34.84,1 34.96,4.24 34.62,4.24 34.75,1 "/>
   <polygon class="fil5" points="36.86,2.88 34.68,4.27 34.52,3.98 36.82,2.8 "/>
   <path class="fil4" d="M34.9 4.01c0,0.06 -0.05,0.11 -0.11,0.11 -0.06,0 -0.11,-0.05 -0.11,-0.11 0,-0.06 0.05,-0.12 0.11,-0.12 0.06,0 0.11,0.06 0.11,0.12z"/>
   <path class="fil6" d="M0 38.63c12.44,-0.06 26.39,-0.06 38.83,0 -12.44,0.05 -26.39,0.05 -38.83,0z"/>
   <path class="fil7" d="M3.12 27.06c0,0 0.08,0 0.18,0.36 0.05,0.2 -0.26,1.89 -0.23,3.69 0.03,1.35 0.09,2.82 0.19,3.66 0,0 0.1,0.2 0.43,0.14 0,0 -0.4,-1.81 -0.43,-3.85 -0.01,-1.26 0.25,-2.7 0.24,-3.69 0,-0.17 0.08,-0.34 0.08,-0.34l-0.46 0.03z"/>
   <path class="fil8" d="M3.42 26.59c0,0 -0.38,-0.28 -0.36,-0.71 0.01,-0.43 0.16,-0.77 0.37,-0.97 0.21,-0.2 0.28,-0.19 0.28,-0.19 0,0 0.24,-0.03 0.38,0.46 0.15,0.5 0.29,0.91 0.12,1.17 -0.33,0.48 -0.79,0.24 -0.79,0.24z"/>
   <path class="fil9" d="M3.69 26.65c-0.01,0 -0.03,0 -0.04,0 0,-0.02 0,-0.03 0,-0.05 0.01,-0.08 0.01,-0.15 0.01,-0.22 0,-0.26 -0.03,-0.48 -0.1,-0.68 -0.06,-0.18 -0.09,-0.31 -0.17,-0.4 0,-0.02 -0.01,-0.04 -0.01,-0.06 -0.02,-0.07 -0.05,-0.13 -0.08,-0.18 0.04,-0.05 0.09,-0.1 0.13,-0.15 0.19,-0.19 0.27,-0.19 0.28,-0.19 0,0 0,0 0,0 0,0 0.01,0 0.01,0 0.04,0 0.24,0.02 0.37,0.46 0.1,0.33 0.19,0.63 0.19,0.87 0,0.11 -0.02,0.21 -0.07,0.3 -0.17,0.24 -0.36,0.3 -0.52,0.3z"/>
   <path class="fil8" d="M2.79 25.95c0,0 -0.16,-0.42 -0.02,-0.74 0.15,-0.32 0.26,-0.32 0.29,-0.33 0.03,0 0.24,0.05 0.32,0.36 0.07,0.31 0.07,0.52 0.02,0.65 -0.05,0.12 -0.25,0.22 -0.25,0.22 0,0 -0.2,0.03 -0.36,-0.16z"/>
   <path class="fil10" d="M3.39 25.3c-0.03,-0.04 -0.07,-0.07 -0.12,-0.1 -0.15,-0.07 -0.32,-0.13 -0.41,-0.13 -0.01,0 -0.01,0 -0.01,0 0.11,-0.18 0.18,-0.18 0.21,-0.19 0,0 0,0 0.01,0 0.04,0 0.23,0.07 0.31,0.36 0,0.02 0.01,0.04 0.01,0.06z"/>
   <path class="fil8" d="M2.81 25.08c0,0 -0.17,0.04 -0.22,0.34 -0.05,0.29 0.01,0.63 0.03,0.69 0.02,0.07 0.07,0.67 0.38,0.91 0.32,0.24 0.38,0.09 0.38,0.09 0,0 0.25,-0.15 0.27,-0.51 0.03,-0.35 0,-0.64 -0.09,-0.9 -0.08,-0.26 -0.12,-0.4 -0.29,-0.5 -0.18,-0.09 -0.4,-0.16 -0.46,-0.12z"/>
   <path class="fil11" d="M3.29 27.15c-0.06,0 -0.15,-0.03 -0.29,-0.13 -0.31,-0.24 -0.36,-0.84 -0.38,-0.91 -0.01,-0.04 -0.05,-0.24 -0.05,-0.45 0,-0.08 0,-0.17 0.02,-0.24 0.05,-0.3 0.22,-0.34 0.22,-0.34 0.01,-0.01 0.03,-0.01 0.05,-0.01 0.09,0 0.26,0.06 0.41,0.13 0.17,0.1 0.21,0.24 0.29,0.5 0.07,0.2 0.1,0.42 0.1,0.68 0,0.07 0,0.14 -0.01,0.22 0,0.02 0,0.03 0,0.05 -0.04,0.32 -0.27,0.46 -0.27,0.46 0,0 -0.02,0.04 -0.09,0.04z"/>
   <path class="fil10" d="M3.6 27.18c0,0 -0.38,0.06 -0.49,-0.48 -0.11,-0.55 0.02,-0.73 0.05,-0.8 0.02,-0.08 -0.01,-0.16 0.05,-0.26 0.06,-0.09 0.1,-0.07 0.18,-0.19 0.07,-0.13 0.1,-0.31 0.16,-0.36 0.06,-0.06 0.12,-0.09 0.2,-0.08 0.09,0.01 0.24,0.1 0.33,0.14 0.09,0.03 0.06,0.2 0.12,0.28 0.06,0.07 0.24,0.29 0.16,0.7 -0.07,0.41 -0.12,0.69 -0.3,0.85 -0.19,0.15 -0.33,0.2 -0.46,0.2z"/>
   <path class="fil10" d="M3.07 27.15c-0.07,0.01 -0.23,0.02 -0.42,-0.22 -0.23,-0.28 -0.21,-0.69 -0.22,-0.79 -0.02,-0.11 -0.05,-0.45 -0.1,-0.6 -0.06,-0.16 -0.05,-0.25 -0.03,-0.26 0.02,-0.01 0.16,0.04 0.24,0.23 0.07,0.18 0.23,0.35 0.26,0.62 0.03,0.27 0.01,0.66 0.16,0.82 0.15,0.16 0.31,0.12 0.27,0.2 0,0.01 -0.12,0 -0.16,0z"/>
   <path class="fil7" d="M3.2 31.44c0,0 -0.23,-0.73 0.47,-2.06 0.71,-1.32 1.35,-1.73 1.35,-1.73 0,0 -0.01,0.74 -0.63,1.97 -0.62,1.23 -1.1,1.76 -1.19,1.82z"/>
   <path class="fil12" d="M4.67 28.22c0.02,-0.04 0.03,0 0.01,0.04 -0.25,0.47 -1.11,1.89 -1.39,2.87 -0.01,0.04 -0.05,0 -0.03,-0.04 0.54,-1.65 1.16,-2.39 1.41,-2.87z"/>
   <path class="fil8" d="M4.97 30.24c0,0 0.05,-0.93 -0.21,-1.17 -0.25,-0.23 -0.31,-0.17 -0.38,-0.19 -0.08,-0.02 -0.26,0.05 -0.26,0.05 0,0 0.38,0.09 0.47,0.35l0.38 0.96z"/>
   <path class="fil10" d="M4.73 29.64l-0.14 -0.36c-0.05,-0.15 -0.2,-0.24 -0.31,-0.29 -0.02,-0.01 -0.04,-0.02 -0.06,-0.03 -0.06,-0.02 -0.1,-0.03 -0.1,-0.03 0,0 0.14,-0.05 0.23,-0.05 0.01,0 0.02,0 0.03,0 0.07,0.02 0.13,-0.04 0.38,0.19 0,0 0,0 0,0 -0.02,0.15 -0.02,0.29 -0.03,0.37 0,0.02 0,0.05 0,0.09 0,0.03 0,0.07 0,0.11z"/>
   <path class="fil7" d="M5.37 30.52c0,0 0.12,0.14 0.09,0.42 -0.21,2 -0.72,3.07 -1.56,4.37 0,0 -0.16,0.42 0.04,0.33 0,0 1.32,-1.4 1.67,-4.6 0,0 0.01,-0.37 0.25,-0.52 0,0 -0.45,-0.11 -0.49,0z"/>
   <path class="fil8" d="M5.31 28.52c0,0 0.18,-0.02 0.23,0.19 0.05,0.22 0.44,1.38 0.27,1.72 -0.13,0.25 -0.2,0.23 -0.28,0.22 -0.03,-0.01 -0.06,-0.01 -0.1,-0.01 -0.16,0.02 -0.51,-0.21 -0.57,-0.4 -0.06,-0.19 -0.16,-0.58 -0.13,-0.8 0.03,-0.23 -0.03,-0.91 0.58,-0.92z"/>
   <path class="fil9" d="M5.59 30.65c-0.02,0 -0.04,0 -0.06,0 -0.02,-0.01 -0.04,-0.01 -0.07,-0.01 -0.01,0 -0.02,0 -0.03,0 0,0 0,0 0,0 -0.01,0 -0.01,0 -0.02,0 -0.17,0 -0.49,-0.22 -0.55,-0.4 -0.05,-0.17 -0.13,-0.49 -0.13,-0.71 0,-0.04 0,-0.07 0,-0.09 0.03,-0.23 -0.03,-0.91 0.58,-0.92 0,0 0,0 0.01,0 0.04,0 0.18,0.01 0.22,0.19 0.02,0.11 0.13,0.45 0.21,0.81 -0.06,0.33 -0.11,0.66 -0.11,0.89 0,0.09 0.01,0.17 0.03,0.21 -0.03,0.03 -0.05,0.03 -0.08,0.03z"/>
   <path class="fil8" d="M6.32 28.41c0,0 0.19,0.16 0.2,0.34 0.01,0.18 0.11,1 -0.1,1.4 -0.22,0.4 -0.39,0.52 -0.69,0.51 -0.29,0 0.23,-2.05 0.23,-2.05 0,0 0.26,-0.32 0.36,-0.2z"/>
   <path class="fil9" d="M5.74 30.66c0,0 -0.01,0 -0.01,0 -0.02,0 -0.04,-0.01 -0.06,-0.04 -0.02,-0.04 -0.03,-0.12 -0.03,-0.21 0,-0.56 0.32,-1.8 0.32,-1.8 0,0 0.18,-0.23 0.3,-0.23 0.03,0 0.05,0.01 0.06,0.03 0,0 0.19,0.16 0.2,0.34 0.01,0.09 0.03,0.33 0.03,0.6 0,0.28 -0.03,0.6 -0.13,0.8 -0.21,0.4 -0.39,0.51 -0.68,0.51z"/>
   <path class="fil10" d="M5.91 28.52c0,0 0.29,0.02 0.39,0.23 0.11,0.22 0.21,0.61 0.16,0.93 -0.05,0.31 -0.12,1.07 -0.79,0.98 -0.5,-0.07 -0.62,-0.75 -0.59,-1.31 0.02,-0.42 0.27,-0.48 0.42,-0.63 0.14,-0.15 0.34,-0.21 0.41,-0.2z"/>
   <path class="fil10" d="M5.66 30.65c0,0 -0.55,0.08 -0.8,-0.25 -0.24,-0.34 -0.16,-0.59 -0.2,-0.82 -0.04,-0.24 -0.13,-0.42 -0.13,-0.42 0,0 0.15,0.07 0.27,0.53 0.12,0.46 0.5,0.92 0.86,0.96z"/>
   <path class="fil7" d="M3.95 35.57c0,0 0.24,-1.03 1.27,-1.99 0.99,-0.93 1.6,-0.96 1.78,-1.05l0.02 -0.02c0.15,-0.1 -0.65,1.01 -1.34,1.63 -0.69,0.62 -1.25,1.21 -1.73,1.43z"/>
   <path class="fil12" d="M6.27 33.13c-0.87,0.55 -1.49,1.26 -2.03,2.05 -0.02,0.03 -0.05,0.11 -0.03,0.07 0.54,-0.78 1.28,-1.51 2.03,-2.08 0.04,-0.02 0.06,-0.07 0.03,-0.04z"/>
   <path class="fil8" d="M1.92 28.87c0,0 0.44,-0.16 0.56,-0.58 0.11,-0.41 0.06,-0.77 -0.08,-1.03 -0.14,-0.26 -0.21,-0.27 -0.21,-0.27 0,0 -0.22,-0.1 -0.5,0.33 -0.28,0.43 -0.54,0.79 -0.45,1.08 0.17,0.56 0.68,0.47 0.68,0.47z"/>
   <path class="fil9" d="M1.68 28.86c-0.15,-0.04 -0.35,-0.15 -0.44,-0.46 -0.01,-0.04 -0.02,-0.08 -0.02,-0.12 0,-0.27 0.23,-0.59 0.47,-0.96 0.2,-0.29 0.36,-0.34 0.44,-0.34 0.04,0 0.06,0.01 0.06,0.01 0,0 0.07,0.01 0.21,0.27 0.03,0.06 0.06,0.12 0.08,0.18 -0.04,0.04 -0.08,0.09 -0.12,0.15 -0.01,0.02 -0.02,0.04 -0.03,0.06 -0.1,0.06 -0.17,0.17 -0.28,0.33 -0.16,0.22 -0.27,0.48 -0.36,0.83 0,0.02 0,0.03 -0.01,0.05z"/>
   <path class="fil7" d="M2.08 29.3c0,0 -0.09,0 -0.18,0.37 -0.09,0.35 -0.49,2.8 0.44,4.85 0,0 0.08,0.36 -0.24,0.3 0,0 -0.99,-2.39 -0.4,-5.2 0.03,-0.17 -0.09,-0.34 -0.09,-0.34l0.47 0.02z"/>
   <path class="fil8" d="M2.71 28.44c0,0 0.28,-0.35 0.23,-0.7 -0.04,-0.35 -0.15,-0.38 -0.17,-0.4 -0.03,-0.01 -0.25,-0.02 -0.41,0.25 -0.16,0.27 -0.22,0.48 -0.22,0.61 0.01,0.14 0.18,0.29 0.18,0.29 0,0 0.18,0.09 0.39,-0.05z"/>
   <path class="fil13" d="M2.33 27.65c0.01,-0.02 0.02,-0.04 0.03,-0.06 0.13,-0.21 0.29,-0.25 0.37,-0.25 0.02,0 0.03,0 0.04,0 0.02,0.02 0.09,0.04 0.14,0.24 -0.03,-0.01 -0.09,-0.02 -0.16,-0.02 -0.09,0 -0.19,0.01 -0.28,0.03 -0.05,0.01 -0.1,0.03 -0.14,0.06z"/>
   <path class="fil8" d="M2.95 27.6c0,0 0.15,0.1 0.11,0.39 -0.04,0.29 -0.2,0.6 -0.24,0.66 -0.03,0.05 -0.25,0.61 -0.63,0.75 -0.37,0.14 -0.38,-0.02 -0.38,-0.02 0,0 -0.2,-0.22 -0.12,-0.57 0.09,-0.35 0.2,-0.61 0.36,-0.83 0.15,-0.23 0.23,-0.35 0.42,-0.39 0.2,-0.04 0.43,-0.04 0.48,0.01z"/>
   <path class="fil9" d="M1.95 29.45c-0.13,0 -0.14,-0.07 -0.14,-0.07 0,0 -0.14,-0.15 -0.14,-0.4 0,-0.05 0.01,-0.11 0.02,-0.17 0.09,-0.35 0.2,-0.61 0.36,-0.83 0.15,-0.23 0.23,-0.35 0.42,-0.39 0.09,-0.02 0.19,-0.03 0.28,-0.03 0.09,0 0.17,0.02 0.2,0.04 0,0 0.12,0.08 0.12,0.3 0,0.03 0,0.06 -0.01,0.09 -0.04,0.29 -0.2,0.6 -0.24,0.66 -0.03,0.05 -0.25,0.61 -0.63,0.75 -0.11,0.04 -0.19,0.05 -0.24,0.05z"/>
   <path class="fil10" d="M1.57 29.38c0,0 0.35,0.17 0.61,-0.32 0.27,-0.49 0.19,-0.7 0.19,-0.78 0,-0.08 0.06,-0.15 0.03,-0.25 -0.03,-0.11 -0.08,-0.1 -0.11,-0.24 -0.04,-0.15 -0.01,-0.33 -0.05,-0.4 -0.04,-0.06 -0.09,-0.12 -0.18,-0.13 -0.08,-0.01 -0.24,0.03 -0.34,0.03 -0.1,0.01 -0.13,0.18 -0.2,0.24 -0.08,0.05 -0.32,0.21 -0.37,0.62 -0.05,0.42 -0.08,0.7 0.05,0.9 0.13,0.2 0.25,0.29 0.37,0.33z"/>
   <path class="fil10" d="M2.09 29.51c0.06,0.03 0.21,0.08 0.46,-0.09 0.31,-0.2 0.41,-0.6 0.45,-0.69 0.05,-0.1 0.17,-0.41 0.27,-0.55 0.1,-0.13 0.12,-0.22 0.1,-0.23 -0.01,-0.02 -0.16,-0.01 -0.29,0.14 -0.12,0.16 -0.33,0.27 -0.43,0.52 -0.11,0.25 -0.21,0.63 -0.4,0.74 -0.19,0.11 -0.33,0.02 -0.32,0.1 0.01,0.02 0.12,0.04 0.16,0.06z"/>
   <path class="fil7" d="M1.82 33.48c0,0 0.23,-0.73 -0.48,-2.06 -0.7,-1.33 -1.34,-1.73 -1.34,-1.73 0,0 0.01,0.74 0.63,1.97 0.61,1.23 1.1,1.76 1.19,1.82z"/>
   <path class="fil12" d="M0.34 30.26c-0.02,-0.04 -0.02,0 0,0.04 0.25,0.47 1.11,1.89 1.39,2.87 0.01,0.04 0.04,0 0.03,-0.04 -0.55,-1.65 -1.16,-2.39 -1.42,-2.87z"/>
   <polygon class="fil8" points="0.53,38.63 6.93,38.63 6.64,35.58 6.58,34.91 0.88,34.91 0.82,35.58 "/>
   <polygon class="fil11" points="6.64,35.58 0.84,35.37 0.88,34.91 6.58,34.91 "/>
   <polygon class="fil8" points="0.51,35.15 6.95,35.15 6.95,34.34 0.51,34.34 "/>
   <polygon class="fil2" points="4.31,23.67 34.52,23.67 34.52,1.55 4.31,1.55 "/>
   <path class="fil6" d="M34.52 23.67c0,0 -0.01,-5.53 -0.01,-11.05 0,-5.54 0,-11.08 0.01,-11.06l-30.21 0.02 0.02 -0.03c0,0 0,5.53 0,11.05 0,5.55 0,11.09 -0.02,11.05l30.21 0.02zm0 0l-30.22 0.01c-0.01,0 -0.01,-22.12 -0.01,-22.13l0 -0.02 0.02 0 30.22 0.01 -0.01 22.13z"/>
   <polygon class="fil6" points="4.31,2.41 34.52,2.41 34.52,1.55 4.31,1.55 "/>
   <path class="fil8" d="M5.13 1.98c0,0.09 -0.08,0.17 -0.17,0.17 -0.1,0 -0.17,-0.08 -0.17,-0.17 0,-0.09 0.07,-0.17 0.17,-0.17 0.09,0 0.17,0.08 0.17,0.17z"/>
   <path class="fil2" d="M5.83 1.98c0,0.09 -0.08,0.17 -0.17,0.17 -0.1,0 -0.17,-0.08 -0.17,-0.17 0,-0.09 0.07,-0.17 0.17,-0.17 0.09,0 0.17,0.08 0.17,0.17z"/>
   <path class="fil7" d="M6.53 1.98c0,0.09 -0.08,0.17 -0.17,0.17 -0.1,0 -0.17,-0.08 -0.17,-0.17 0,-0.09 0.07,-0.17 0.17,-0.17 0.09,0 0.17,0.08 0.17,0.17z"/>
   <path class="fil6" d="M8.09 6.04c0,-0.14 -0.11,-0.25 -0.24,-0.25l-0.29 0 0 0.48 0.29 0c0.13,0 0.24,-0.1 0.24,-0.23zm0.33 0.93c0.02,0.07 -0.02,0.14 -0.08,0.17 -0.01,0 -0.03,0 -0.05,0l-0.01 0c-0.02,0 -0.06,0 -0.09,-0.02 -0.03,-0.02 -0.05,-0.05 -0.07,-0.08 -0.04,-0.07 -0.05,-0.15 -0.05,-0.28 0,-0.05 -0.01,-0.08 -0.03,-0.1 -0.01,-0.03 -0.04,-0.05 -0.07,-0.07 -0.05,-0.03 -0.11,-0.05 -0.13,-0.06l-0.28 0 0 0.51c0,0.07 -0.05,0.13 -0.13,0.13 -0.07,0 -0.13,-0.06 -0.13,-0.13l0 -1.38c0,-0.07 0.06,-0.13 0.13,-0.13l0.42 0c0.28,0 0.5,0.23 0.5,0.51 0,0.15 -0.07,0.29 -0.18,0.38 0.03,0.02 0.06,0.05 0.08,0.08 0.05,0.07 0.08,0.16 0.08,0.26 0,0.07 0,0.11 0.01,0.13 0.03,0.02 0.06,0.04 0.08,0.08z"/>
   <path class="fil6" d="M8.8 7.04l0 -1.38c0,-0.07 0.05,-0.13 0.13,-0.13l0.76 0c0.07,0 0.13,0.06 0.13,0.13 0,0.07 -0.06,0.13 -0.13,0.13l-0.63 0 0 0.43 0.54 0c0.07,0 0.13,0.06 0.13,0.13 0,0.07 -0.06,0.13 -0.13,0.13l-0.54 0 0 0.43 0.63 0c0.07,0 0.13,0.06 0.13,0.13 0,0.07 -0.06,0.13 -0.13,0.13l-0.76 0 0 0 0 0c-0.08,0 -0.13,-0.06 -0.13,-0.13z"/>
   <path class="fil6" d="M10.13 6.76c0.04,-0.05 0.12,-0.06 0.17,-0.01 0.1,0.08 0.28,0.18 0.45,0.18 0.11,0 0.22,-0.04 0.29,-0.09 0.07,-0.05 0.1,-0.11 0.1,-0.17 0,-0.03 -0.01,-0.05 -0.02,-0.07 -0.02,-0.03 -0.04,-0.05 -0.07,-0.07 -0.07,-0.05 -0.18,-0.09 -0.32,-0.11l-0.01 0c-0.11,-0.02 -0.21,-0.05 -0.3,-0.09 -0.09,-0.05 -0.16,-0.11 -0.22,-0.19 -0.03,-0.05 -0.05,-0.12 -0.05,-0.19 0,-0.14 0.08,-0.26 0.19,-0.34 0.11,-0.08 0.25,-0.12 0.4,-0.12 0.23,0 0.39,0.11 0.51,0.18 0.05,0.04 0.07,0.12 0.03,0.17 -0.03,0.06 -0.11,0.07 -0.16,0.03 -0.12,-0.07 -0.24,-0.14 -0.38,-0.14 -0.1,0 -0.2,0.03 -0.26,0.07 -0.06,0.05 -0.09,0.1 -0.09,0.15 0,0.03 0.01,0.05 0.02,0.07 0.01,0.02 0.03,0.04 0.06,0.06 0.06,0.04 0.17,0.08 0.29,0.1l0.01 0c0.12,0.02 0.23,0.05 0.32,0.1 0.1,0.05 0.18,0.11 0.23,0.19 0.04,0.06 0.06,0.13 0.06,0.2 0,0.15 -0.09,0.28 -0.2,0.36 -0.12,0.09 -0.27,0.14 -0.43,0.14 -0.26,-0.01 -0.47,-0.13 -0.6,-0.24 -0.05,-0.04 -0.06,-0.12 -0.02,-0.17z"/>
   <path class="fil6" d="M11.74 7.04l0 -1.38c0,-0.07 0.05,-0.13 0.13,-0.13l0.76 0c0.07,0 0.13,0.06 0.13,0.13 0,0.07 -0.06,0.13 -0.13,0.13l-0.63 0 0 0.43 0.54 0c0.07,0 0.13,0.06 0.13,0.13 0,0.07 -0.06,0.13 -0.13,0.13l-0.54 0 0 0.43 0.63 0c0.07,0 0.13,0.06 0.13,0.13 0,0.07 -0.06,0.13 -0.13,0.13l-0.76 0 0 0 0 0c-0.08,0 -0.13,-0.06 -0.13,-0.13z"/>
   <path class="fil6" d="M14.12 5.79l-0.37 0 0 1.25c0,0.07 -0.06,0.13 -0.13,0.13 -0.07,0 -0.13,-0.06 -0.13,-0.13l0 -1.25 -0.36 0c-0.08,0 -0.13,-0.06 -0.13,-0.13 0,-0.07 0.05,-0.13 0.13,-0.13l0.99 0c0.07,0 0.13,0.06 0.13,0.13 0,0.07 -0.06,0.13 -0.13,0.13z"/>
   <path class="fil6" d="M7.6 8.71l0.28 0c0.14,0 0.24,-0.11 0.25,-0.24 -0.01,-0.14 -0.11,-0.25 -0.25,-0.25l-0.28 0 0 0.49zm0.28 0.25l-0.28 0 0 0.51c0,0.07 -0.06,0.13 -0.13,0.13 -0.07,0 -0.13,-0.06 -0.13,-0.13l0 -1.38c0,-0.07 0.06,-0.12 0.13,-0.12l0.41 0c0.28,0 0.51,0.22 0.51,0.5 0,0.27 -0.23,0.49 -0.51,0.49z"/>
   <path class="fil6" d="M9.27 8.96l-0.19 -0.5 -0.19 0.5 0.38 0zm0.1 0.25l-0.57 0 -0.11 0.31c-0.02,0.05 -0.07,0.08 -0.12,0.08 -0.02,0 -0.03,0 -0.05,-0.01 -0.07,-0.02 -0.1,-0.1 -0.08,-0.17l0.52 -1.37c0.02,-0.05 0.07,-0.08 0.12,-0.08 0.06,0 0.11,0.03 0.13,0.08l0.51 1.37c0.03,0.07 -0.01,0.15 -0.07,0.17 -0.02,0.01 -0.03,0.01 -0.05,0.01 -0.05,0 -0.1,-0.03 -0.12,-0.08l-0.11 -0.31z"/>
   <path class="fil6" d="M9.95 9.19c0.04,-0.05 0.12,-0.06 0.17,-0.01 0.11,0.08 0.28,0.18 0.45,0.18 0.12,0 0.22,-0.04 0.29,-0.09 0.07,-0.05 0.1,-0.11 0.1,-0.17 0,-0.03 -0.01,-0.05 -0.02,-0.07 -0.01,-0.03 -0.04,-0.05 -0.07,-0.07 -0.07,-0.05 -0.18,-0.09 -0.32,-0.11l0 0c-0.11,-0.02 -0.22,-0.05 -0.31,-0.09 -0.08,-0.05 -0.16,-0.1 -0.21,-0.19 -0.04,-0.05 -0.06,-0.12 -0.06,-0.19 0,-0.14 0.08,-0.26 0.19,-0.34 0.11,-0.08 0.25,-0.12 0.4,-0.12 0.23,0 0.39,0.11 0.51,0.19 0.06,0.03 0.07,0.11 0.04,0.16 -0.04,0.06 -0.11,0.07 -0.17,0.04 -0.12,-0.08 -0.23,-0.15 -0.38,-0.15 -0.1,0 -0.19,0.03 -0.26,0.08 -0.06,0.04 -0.09,0.09 -0.09,0.14 0,0.03 0.01,0.05 0.02,0.07 0.01,0.02 0.03,0.04 0.06,0.06 0.06,0.04 0.17,0.08 0.3,0.1l0 0c0.12,0.03 0.23,0.06 0.32,0.1 0.1,0.05 0.18,0.11 0.24,0.19 0.03,0.06 0.05,0.13 0.05,0.2 0,0.15 -0.08,0.28 -0.2,0.36 -0.11,0.09 -0.27,0.14 -0.43,0.14 -0.25,-0.01 -0.47,-0.13 -0.6,-0.24 -0.05,-0.04 -0.06,-0.12 -0.02,-0.17z"/>
   <path class="fil6" d="M11.49 9.19c0.04,-0.05 0.12,-0.06 0.17,-0.01 0.1,0.08 0.28,0.18 0.44,0.18 0.12,0 0.22,-0.04 0.29,-0.09 0.07,-0.05 0.1,-0.11 0.1,-0.17 0,-0.03 0,-0.05 -0.02,-0.07 -0.01,-0.03 -0.03,-0.05 -0.07,-0.07 -0.06,-0.05 -0.18,-0.09 -0.32,-0.11l0 0c-0.11,-0.02 -0.21,-0.05 -0.3,-0.09 -0.09,-0.05 -0.17,-0.1 -0.22,-0.19 -0.03,-0.05 -0.05,-0.12 -0.05,-0.19 0,-0.14 0.08,-0.26 0.18,-0.34 0.11,-0.08 0.26,-0.12 0.41,-0.12 0.22,0 0.39,0.11 0.51,0.19 0.05,0.03 0.07,0.11 0.03,0.16 -0.04,0.06 -0.11,0.07 -0.17,0.04 -0.12,-0.08 -0.23,-0.15 -0.37,-0.15 -0.11,0 -0.2,0.03 -0.26,0.08 -0.07,0.04 -0.09,0.09 -0.09,0.14 0,0.03 0,0.05 0.01,0.07 0.02,0.02 0.04,0.04 0.07,0.06 0.06,0.04 0.16,0.08 0.29,0.1l0 0c0.12,0.03 0.23,0.06 0.33,0.1 0.09,0.05 0.18,0.11 0.23,0.19 0.03,0.06 0.06,0.13 0.06,0.2 0,0.15 -0.09,0.28 -0.21,0.36 -0.11,0.09 -0.26,0.14 -0.43,0.14 -0.25,-0.01 -0.46,-0.13 -0.6,-0.24 -0.05,-0.04 -0.05,-0.12 -0.01,-0.17z"/>
   <path class="fil6" d="M15.19 8.16l-0.57 1.36 -0.01 0.02 -0.01 0 -0.01 0.02 0 0 -0.02 0.02 0 0c-0.01,0 -0.01,0.01 -0.02,0.01l0 0 -0.01 0 -0.01 0.01 -0.01 0c-0.01,0 -0.01,0 -0.02,0l-0.02 0 -0.01 0 -0.02 -0.01 0 0c-0.01,0 -0.02,-0.01 -0.02,-0.01l0 0 -0.02 -0.02 -0.01 0 0 -0.02 -0.01 0 -0.01 -0.02 -0.3 -0.72 -0.31 0.72 -0.01 0.02 0 0 -0.02 0.02 0 0 -0.01 0.02 -0.01 0 -0.02 0.01 0 0 0 0c-0.01,0 -0.01,0 -0.02,0.01l-0.01 0 -0.02 0 -0.02 0 -0.01 0 -0.01 -0.01 -0.01 0 -0.02 -0.01 0 0 -0.02 -0.02 0 0 -0.01 -0.02 0 0 -0.02 -0.02 -0.57 -1.36c-0.03,-0.06 0,-0.14 0.07,-0.17 0.06,-0.02 0.14,0.01 0.17,0.07l0.45 1.08 0.3 -0.71c0.02,-0.06 0.07,-0.08 0.13,-0.08 0.04,0 0.09,0.02 0.12,0.08l0.3 0.71 0.45 -1.08c0.03,-0.06 0.11,-0.09 0.17,-0.07 0.07,0.03 0.1,0.11 0.07,0.17z"/>
   <path class="fil6" d="M16.79 8.76c0,-0.16 -0.07,-0.31 -0.16,-0.41 -0.1,-0.1 -0.23,-0.17 -0.37,-0.17 -0.15,0 -0.28,0.07 -0.38,0.17 -0.1,0.1 -0.16,0.25 -0.16,0.41 0,0.16 0.06,0.3 0.16,0.41 0.1,0.1 0.23,0.16 0.38,0.16 0.14,0 0.27,-0.06 0.37,-0.16 0.09,-0.11 0.16,-0.25 0.16,-0.41zm0.03 -0.59c0.14,0.15 0.23,0.36 0.23,0.59 0,0.23 -0.09,0.44 -0.23,0.59 -0.14,0.15 -0.35,0.25 -0.56,0.25 -0.23,0 -0.43,-0.1 -0.57,-0.25 -0.15,-0.15 -0.23,-0.36 -0.23,-0.59 0,-0.23 0.08,-0.44 0.23,-0.59 0.14,-0.16 0.34,-0.25 0.57,-0.25 0.21,0 0.42,0.09 0.56,0.25z"/>
   <path class="fil6" d="M18.27 8.47c0,-0.14 -0.11,-0.25 -0.24,-0.25l-0.29 0 0 0.49 0.29 0c0.13,0 0.24,-0.11 0.24,-0.24zm0.32 0.94c0.03,0.06 -0.01,0.14 -0.08,0.16 -0.01,0 -0.03,0.01 -0.05,0.01l0 0c-0.03,0 -0.06,-0.01 -0.09,-0.03 -0.03,-0.02 -0.06,-0.05 -0.08,-0.08 -0.03,-0.07 -0.05,-0.15 -0.05,-0.28 0,-0.05 -0.01,-0.08 -0.03,-0.1 -0.01,-0.03 -0.04,-0.05 -0.07,-0.07 -0.04,-0.03 -0.11,-0.05 -0.13,-0.06l-0.27 0 0 0.51c0,0.07 -0.06,0.13 -0.13,0.13 -0.07,0 -0.13,-0.06 -0.13,-0.13l0 -1.38c0,-0.07 0.06,-0.12 0.13,-0.12l0.42 0c0.27,0 0.5,0.22 0.5,0.5 0,0.15 -0.08,0.29 -0.19,0.38 0.03,0.02 0.06,0.05 0.08,0.09 0.05,0.06 0.08,0.15 0.08,0.25 0,0.07 0.01,0.11 0.01,0.14 0.04,0.01 0.07,0.04 0.08,0.08z"/>
   <path class="fil6" d="M19.23 9.34l0.14 0c0.31,0 0.56,-0.25 0.56,-0.56 0,-0.31 -0.25,-0.56 -0.56,-0.56l-0.14 0 0 1.12zm-0.26 0.13l0 -1.38c0,-0.07 0.06,-0.12 0.13,-0.12l0.27 0c0.46,0 0.82,0.36 0.82,0.81 0,0.45 -0.36,0.82 -0.82,0.82l-0.27 0c-0.07,0 -0.13,-0.06 -0.13,-0.13z"/>
   <path class="fil14" d="M7.33 11.92l0 0.43c0,0.01 -0.01,0.02 -0.02,0.02 -0.01,0 -0.02,-0.01 -0.02,-0.02l0 -0.49 0.01 -0.02c0.01,0 0.02,0 0.03,0.01l0.32 0.45 0 -0.44c0,-0.01 0.01,-0.02 0.02,-0.02 0.01,0 0.02,0.01 0.02,0.02l0 0.49c0,0.01 -0.01,0.02 -0.02,0.02l-0.02 0 0 -0.01 -0.32 -0.44z"/>
   <path class="fil14" d="M7.88 12.16l0.29 0c-0.01,-0.07 -0.07,-0.13 -0.14,-0.13 -0.07,0 -0.13,0.06 -0.15,0.13zm-0.03 0.03c0,-0.11 0.08,-0.19 0.18,-0.19 0.09,0 0.17,0.07 0.18,0.17l0 0.01c0,0.01 -0.01,0.01 -0.02,0.01l-0.31 0c0.01,0.08 0.07,0.15 0.15,0.15 0.05,0 0.09,-0.03 0.12,-0.07 0,-0.01 0.01,-0.01 0.02,-0.01 0.01,0.01 0.01,0.02 0.01,0.03 -0.03,0.05 -0.09,0.08 -0.15,0.08 -0.1,0 -0.18,-0.08 -0.18,-0.18z"/>
   <path class="fil14" d="M8.44 12.37l0 -0.01 -0.14 -0.33c-0.01,-0.01 0,-0.02 0,-0.03 0.01,0 0.03,0 0.03,0.01l0.12 0.3 0.09 -0.21 0.02 -0.01 0.02 0.01 0.08 0.21 0.13 -0.3c0,-0.01 0.01,-0.01 0.02,-0.01 0.01,0.01 0.01,0.02 0.01,0.03l-0.14 0.33 -0.01 0.01 -0.01 0 0 0 -0.02 -0.01 0 0 -0.08 -0.21 -0.09 0.21 0 0 -0.02 0.01 0 0 -0.01 0z"/>
   <path class="fil14" d="M9.38 12.11c0.07,0 0.12,-0.06 0.12,-0.12 0,-0.06 -0.05,-0.11 -0.12,-0.11l-0.13 0 0 0.23 0.13 0zm-0.17 -0.25c0,-0.01 0.01,-0.02 0.02,-0.02l0.15 0c0.09,0 0.16,0.07 0.16,0.15 0,0.08 -0.07,0.15 -0.16,0.15l-0.13 0 0 0.21c0,0.01 -0.01,0.02 -0.02,0.02 -0.01,0 -0.02,-0.01 -0.02,-0.02l0 -0.49z"/>
   <path class="fil14" d="M9.93 12.19c0,-0.09 -0.06,-0.16 -0.14,-0.16 -0.08,0 -0.14,0.07 -0.14,0.16 0,0.08 0.06,0.15 0.14,0.15 0.08,0 0.14,-0.07 0.14,-0.15zm0.04 -0.17l0 0.33c0,0.01 -0.01,0.02 -0.02,0.02 -0.01,0 -0.02,-0.01 -0.02,-0.02l0 -0.05c-0.03,0.04 -0.08,0.07 -0.14,0.07 -0.1,0 -0.18,-0.08 -0.18,-0.18 0,-0.11 0.08,-0.19 0.18,-0.19 0.06,0 0.11,0.03 0.14,0.07l0 -0.05c0,-0.01 0.01,-0.02 0.02,-0.02 0.01,0 0.02,0.01 0.02,0.02z"/>
   <path class="fil14" d="M10.1 12.29c0,0 0.02,0 0.02,0 0.03,0.02 0.07,0.05 0.12,0.05 0.03,0 0.05,-0.01 0.07,-0.03 0.02,-0.01 0.03,-0.03 0.03,-0.04 0,-0.02 -0.01,-0.03 -0.03,-0.05 -0.01,-0.01 -0.04,-0.02 -0.08,-0.03l0 0c-0.03,0 -0.06,-0.01 -0.08,-0.03 -0.03,-0.01 -0.04,-0.03 -0.04,-0.06 0,-0.03 0.01,-0.06 0.04,-0.08 0.02,-0.01 0.05,-0.02 0.09,-0.02 0.05,0 0.08,0.02 0.11,0.04 0.01,0 0.01,0.02 0,0.02 0,0.01 -0.01,0.02 -0.02,0.01 -0.03,-0.02 -0.06,-0.04 -0.09,-0.04 -0.03,0 -0.06,0.01 -0.07,0.02 -0.02,0.02 -0.03,0.03 -0.03,0.05 0,0.01 0.01,0.02 0.02,0.03 0.02,0.02 0.05,0.02 0.08,0.03l0 0c0.04,0.01 0.07,0.02 0.09,0.03 0.03,0.02 0.04,0.05 0.04,0.08 0,0.03 -0.01,0.05 -0.04,0.07 -0.02,0.02 -0.05,0.03 -0.09,0.03 -0.06,0 -0.11,-0.03 -0.14,-0.05l0 -0.03z"/>
   <path class="fil14" d="M10.47 12.29c0,0 0.01,0 0.02,0 0.03,0.02 0.07,0.05 0.12,0.05 0.03,0 0.05,-0.01 0.07,-0.03 0.02,-0.01 0.03,-0.03 0.03,-0.04 0,-0.02 -0.01,-0.03 -0.03,-0.05 -0.02,-0.01 -0.04,-0.02 -0.08,-0.03l0 0c-0.03,0 -0.06,-0.01 -0.09,-0.03 -0.02,-0.01 -0.04,-0.03 -0.04,-0.06 0,-0.03 0.02,-0.06 0.04,-0.08 0.03,-0.01 0.06,-0.02 0.1,-0.02 0.04,0 0.08,0.02 0.11,0.04 0.01,0 0.01,0.02 0,0.02 0,0.01 -0.01,0.02 -0.02,0.01 -0.03,-0.02 -0.06,-0.04 -0.09,-0.04 -0.03,0 -0.06,0.01 -0.08,0.02 -0.01,0.02 -0.02,0.03 -0.02,0.05 0,0.01 0.01,0.02 0.02,0.03 0.02,0.02 0.04,0.02 0.08,0.03l0 0c0.04,0.01 0.07,0.02 0.09,0.03 0.03,0.02 0.04,0.05 0.04,0.08 0,0.03 -0.01,0.05 -0.04,0.07 -0.03,0.02 -0.06,0.03 -0.09,0.03 -0.06,0 -0.11,-0.03 -0.14,-0.05l0 -0.03z"/>
   <path class="fil14" d="M10.98 12.37l-0.01 -0.01 -0.14 -0.33c0,-0.01 0,-0.02 0.01,-0.03 0.01,0 0.02,0 0.03,0.01l0.12 0.3 0.09 -0.21 0.02 -0.01 0.01 0.01 0.09 0.21 0.12 -0.3c0.01,-0.01 0.02,-0.01 0.03,-0.01 0.01,0.01 0.01,0.02 0.01,0.03l-0.14 0.33 -0.01 0.01 -0.01 0 0 0 -0.02 -0.01 0 0 -0.08 -0.21 -0.09 0.21 0 0 -0.02 0.01 0 0 -0.01 0z"/>
   <path class="fil14" d="M11.66 12.34c0.07,0 0.14,-0.07 0.14,-0.15 0,-0.09 -0.07,-0.16 -0.14,-0.16 -0.08,0 -0.14,0.07 -0.14,0.16 0,0.08 0.06,0.15 0.14,0.15zm0 -0.34c0.09,0 0.17,0.08 0.17,0.19 0,0.1 -0.08,0.18 -0.17,0.18 -0.1,0 -0.18,-0.08 -0.18,-0.18 0,-0.11 0.08,-0.19 0.18,-0.19z"/>
   <path class="fil14" d="M11.96 12.02c0,-0.01 0.01,-0.02 0.02,-0.02 0.01,0 0.01,0.01 0.01,0.02l0 0.08 0.01 -0.01c0.03,-0.04 0.08,-0.09 0.15,-0.09 0.01,0 0.02,0.01 0.02,0.02 0,0.01 -0.01,0.02 -0.02,0.02 -0.05,0 -0.08,0.02 -0.11,0.06 -0.02,0.03 -0.04,0.07 -0.04,0.08l-0.01 0.01 0 0.16c0,0.01 0,0.02 -0.01,0.02 -0.01,0 -0.02,-0.01 -0.02,-0.02l0 -0.33z"/>
   <path class="fil14" d="M12.57 12.19l0 -0.01c0,-0.08 -0.06,-0.14 -0.14,-0.14 -0.08,0 -0.14,0.06 -0.14,0.15 0,0.08 0.06,0.14 0.14,0.14 0.08,0 0.14,-0.06 0.14,-0.14zm0 0.11c-0.03,0.04 -0.08,0.07 -0.14,0.07 -0.1,0 -0.18,-0.08 -0.18,-0.18 0,-0.11 0.08,-0.19 0.18,-0.19 0.06,0 0.11,0.03 0.14,0.07l0 -0.21c0,-0.01 0.01,-0.02 0.02,-0.02 0.01,0 0.02,0.01 0.02,0.02l0 0.49c0,0.01 -0.01,0.02 -0.02,0.02 -0.01,0 -0.02,-0.01 -0.02,-0.02l0 -0.05z"/>
   <polygon class="fil0" points="7.24,14.22 20.62,14.22 20.62,12.76 7.24,12.76 "/>
   <path class="fil14" d="M7.55 14.92c0.06,0 0.12,0.03 0.17,0.06 0.01,0.01 0.01,0.02 0,0.03 0,0.01 -0.02,0.01 -0.02,0 -0.05,-0.03 -0.1,-0.05 -0.15,-0.05 -0.14,0 -0.24,0.1 -0.24,0.23 0,0.13 0.1,0.24 0.24,0.24 0.05,0 0.1,-0.02 0.14,-0.05 0.01,-0.01 0.03,-0.01 0.03,0 0.01,0.01 0.01,0.02 0,0.03 -0.05,0.03 -0.11,0.05 -0.17,0.05 -0.16,0 -0.28,-0.12 -0.28,-0.27 0,-0.15 0.12,-0.27 0.28,-0.27z"/>
   <path class="fil14" d="M8.02 15.43c0.08,0 0.14,-0.07 0.14,-0.15 0,-0.09 -0.06,-0.15 -0.14,-0.15 -0.07,0 -0.14,0.06 -0.14,0.15 0,0.08 0.07,0.15 0.14,0.15zm0 -0.34c0.1,0 0.18,0.09 0.18,0.19 0,0.1 -0.08,0.18 -0.18,0.18 -0.09,0 -0.17,-0.08 -0.17,-0.18 0,-0.1 0.08,-0.19 0.17,-0.19z"/>
   <path class="fil14" d="M8.61 15.24c0,-0.06 -0.05,-0.11 -0.12,-0.11 -0.06,0 -0.11,0.05 -0.11,0.11l0 0.21 -0.01 0.01 -0.01 0 0 0 -0.02 -0.01 0 0 0 0 0 -0.34c0,-0.01 0.01,-0.02 0.02,-0.02 0.01,0 0.02,0.01 0.02,0.02l0 0.04c0.03,-0.04 0.07,-0.06 0.11,-0.06 0.09,0 0.16,0.07 0.16,0.15l0 0.21c0,0.01 -0.01,0.01 -0.02,0.01 -0.01,0 -0.02,0 -0.02,-0.01l0 -0.21z"/>
   <path class="fil14" d="M8.98 14.95c0,0.01 -0.01,0.02 -0.02,0.02 -0.03,0 -0.04,0 -0.05,0.01 -0.01,0.01 -0.02,0.03 -0.02,0.06l0 0.04 0.06 0c0.01,0 0.02,0.01 0.02,0.02 0,0.01 -0.01,0.02 -0.02,0.02l-0.06 0 0 0.33c0,0.01 0,0.02 -0.01,0.02 -0.01,0 -0.02,-0.01 -0.02,-0.02l0 -0.33 -0.05 0c-0.01,0 -0.02,-0.01 -0.02,-0.02 0,-0.01 0.01,-0.02 0.02,-0.02l0.05 0 0 -0.04c0,-0.03 0,-0.06 0.02,-0.08 0.02,-0.02 0.05,-0.03 0.08,-0.03 0.01,0 0.02,0.01 0.02,0.02z"/>
   <path class="fil14" d="M9.09 15.11c0,-0.01 0.01,-0.02 0.02,-0.02 0.01,0 0.02,0.01 0.02,0.02l0 0.34c0,0.01 -0.01,0.01 -0.02,0.01 -0.01,0 -0.02,0 -0.02,-0.01l0 -0.34zm0 -0.12c0,-0.01 0.01,-0.02 0.02,-0.02 0.01,0 0.02,0.01 0.02,0.02l0 0.01c0,0.01 -0.01,0.02 -0.02,0.02 -0.01,0 -0.02,-0.01 -0.02,-0.02l0 -0.01z"/>
   <path class="fil14" d="M9.3 15.11c0,-0.01 0.01,-0.02 0.02,-0.02 0.01,0 0.02,0.01 0.02,0.02l0 0.08 0 -0.01c0.03,-0.04 0.08,-0.09 0.15,-0.09 0.01,0 0.02,0.01 0.02,0.02 0,0.01 -0.01,0.02 -0.02,0.02 -0.05,0 -0.08,0.03 -0.1,0.06 -0.03,0.03 -0.04,0.07 -0.05,0.09l0 0 0 0.17c0,0.01 -0.01,0.01 -0.02,0.01 -0.01,0 -0.02,0 -0.02,-0.01l0 -0.34z"/>
   <path class="fil14" d="M10.17 15.24c0,-0.06 -0.05,-0.11 -0.11,-0.11 -0.07,0 -0.12,0.05 -0.12,0.11l0 0.21 0 0 0 0 -0.01 0.01 -0.01 0 0 0 0 0 -0.01 0 0 0 0 0 0 0 0 -0.01 -0.01 0 0 0 0 -0.21c0,-0.06 -0.05,-0.11 -0.11,-0.11 -0.07,0 -0.12,0.05 -0.12,0.11l0 0.21 -0.01 0.01 0 0 0 0 -0.01 0 -0.01 -0.01 0 -0.34c0,-0.01 0.01,-0.02 0.02,-0.02 0.01,0 0.01,0.01 0.01,0.02l0 0.03c0.03,-0.03 0.07,-0.05 0.12,-0.05 0.06,0 0.11,0.03 0.13,0.08 0.03,-0.05 0.08,-0.08 0.14,-0.08 0.08,0 0.15,0.07 0.15,0.15l0 0.21c0,0.01 -0.01,0.01 -0.02,0.01 -0.01,0 -0.02,0 -0.02,-0.01l0 -0.21z"/>
   <path class="fil14" d="M10.64 15.01l0 0.44c0,0.01 -0.01,0.01 -0.02,0.01 -0.01,0 -0.02,0 -0.02,-0.01l0 -0.49 0.01 -0.02c0.01,-0.01 0.02,-0.01 0.03,0l0.32 0.45 0 -0.44c0,-0.01 0.01,-0.01 0.02,-0.01 0.01,0 0.02,0 0.02,0.01l0 0.5c0,0.01 -0.01,0.01 -0.02,0.01l-0.02 0 0 -0.01 -0.32 -0.44z"/>
   <path class="fil14" d="M11.19 15.25l0.29 0c-0.01,-0.07 -0.07,-0.12 -0.14,-0.12 -0.07,0 -0.13,0.05 -0.15,0.12zm-0.03 0.03c0,-0.11 0.08,-0.19 0.18,-0.19 0.09,0 0.17,0.08 0.18,0.17l0 0.01c0,0.01 -0.01,0.01 -0.02,0.01l-0.31 0c0.01,0.09 0.07,0.15 0.15,0.15 0.05,0 0.09,-0.03 0.12,-0.07 0,-0.01 0.02,-0.01 0.02,-0.01 0.01,0.01 0.01,0.02 0.01,0.03 -0.03,0.05 -0.09,0.08 -0.15,0.08 -0.1,0 -0.18,-0.08 -0.18,-0.18z"/>
   <path class="fil14" d="M11.75 15.46l0 -0.01 -0.14 -0.33c-0.01,-0.01 0,-0.02 0.01,-0.03 0,0 0.02,0.01 0.02,0.01l0.12 0.3 0.09 -0.21 0.02 -0.01 0.02 0.01 0.08 0.21 0.13 -0.3c0,0 0.01,-0.01 0.02,-0.01 0.01,0.01 0.01,0.02 0.01,0.03l-0.14 0.33 -0.01 0.01 -0.01 0 0 0 -0.01 -0.01 -0.01 0 -0.08 -0.2 -0.09 0.2 0 0 -0.02 0.01 0 0 -0.01 0z"/>
   <path class="fil14" d="M12.69 15.2c0.07,0 0.12,-0.05 0.12,-0.12 0,-0.06 -0.05,-0.11 -0.12,-0.11l-0.13 0 0 0.23 0.13 0zm-0.17 -0.25c0,-0.01 0.01,-0.02 0.02,-0.02l0.15 0c0.09,0 0.16,0.07 0.16,0.15 0,0.09 -0.07,0.15 -0.16,0.15l-0.13 0.01 0 0.21c0,0.01 -0.01,0.01 -0.02,0.01 -0.01,0 -0.02,0 -0.02,-0.01l0 -0.5z"/>
   <path class="fil14" d="M13.24 15.28c0,-0.09 -0.06,-0.15 -0.14,-0.15 -0.08,0 -0.14,0.06 -0.14,0.15 0,0.08 0.06,0.15 0.14,0.15 0.08,0 0.14,-0.07 0.14,-0.15zm0.04 -0.17l0 0.34c0,0.01 -0.01,0.01 -0.02,0.01 -0.01,0 -0.02,0 -0.02,-0.01l0 -0.06c-0.03,0.04 -0.08,0.07 -0.14,0.07 -0.1,0 -0.18,-0.08 -0.18,-0.18 0,-0.11 0.08,-0.19 0.18,-0.19 0.06,0 0.11,0.03 0.14,0.07l0 -0.05c0,-0.01 0.01,-0.02 0.02,-0.02 0.01,0 0.02,0.01 0.02,0.02z"/>
   <path class="fil14" d="M13.41 15.39c0,-0.01 0.02,-0.01 0.02,-0.01 0.03,0.02 0.07,0.05 0.12,0.05 0.03,0 0.05,-0.01 0.07,-0.03 0.02,-0.01 0.03,-0.02 0.03,-0.04 0,-0.02 -0.01,-0.03 -0.03,-0.05 -0.01,-0.01 -0.04,-0.02 -0.08,-0.02l0 -0.01c-0.03,0 -0.06,-0.01 -0.08,-0.02 -0.03,-0.02 -0.04,-0.04 -0.04,-0.07 0,-0.03 0.01,-0.06 0.04,-0.07 0.02,-0.02 0.05,-0.03 0.09,-0.03 0.05,0 0.08,0.02 0.11,0.04 0.01,0.01 0.01,0.02 0,0.03 0,0 -0.01,0.01 -0.02,0 -0.03,-0.02 -0.06,-0.04 -0.09,-0.04 -0.03,0 -0.06,0.01 -0.07,0.03 -0.02,0.01 -0.03,0.02 -0.03,0.04 0,0.01 0.01,0.02 0.02,0.04 0.02,0.01 0.05,0.02 0.08,0.02l0 0c0.04,0.01 0.07,0.02 0.09,0.03 0.03,0.02 0.05,0.05 0.05,0.08 0,0.03 -0.02,0.06 -0.05,0.07 -0.02,0.02 -0.05,0.03 -0.09,0.03 -0.06,0 -0.11,-0.02 -0.14,-0.05l0 -0.02z"/>
   <path class="fil14" d="M13.78 15.39c0,-0.01 0.01,-0.01 0.02,-0.01 0.03,0.02 0.07,0.05 0.12,0.05 0.03,0 0.05,-0.01 0.07,-0.03 0.02,-0.01 0.03,-0.02 0.03,-0.04 0,-0.02 -0.01,-0.03 -0.03,-0.05 -0.02,-0.01 -0.04,-0.02 -0.08,-0.02l0 -0.01c-0.03,0 -0.06,-0.01 -0.09,-0.02 -0.02,-0.02 -0.04,-0.04 -0.04,-0.07 0,-0.03 0.02,-0.06 0.04,-0.07 0.03,-0.02 0.06,-0.03 0.1,-0.03 0.04,0 0.08,0.02 0.11,0.04 0.01,0.01 0.01,0.02 0,0.03 0,0 -0.01,0.01 -0.02,0 -0.03,-0.02 -0.06,-0.04 -0.09,-0.04 -0.03,0 -0.06,0.01 -0.08,0.03 -0.01,0.01 -0.02,0.02 -0.02,0.04 0,0.01 0.01,0.02 0.02,0.04 0.02,0.01 0.04,0.02 0.08,0.02l0 0c0.04,0.01 0.07,0.02 0.09,0.03 0.03,0.02 0.04,0.05 0.04,0.08 0,0.03 -0.01,0.06 -0.04,0.07 -0.03,0.02 -0.06,0.03 -0.09,0.03 -0.06,0 -0.11,-0.02 -0.14,-0.05l0 -0.02z"/>
   <path class="fil14" d="M14.29 15.46l0 -0.01 -0.15 -0.33c0,-0.01 0.01,-0.02 0.01,-0.03 0.01,0 0.02,0.01 0.03,0.01l0.12 0.3 0.09 -0.21 0.02 -0.01 0.01 0.01 0.09 0.21 0.12 -0.3c0.01,0 0.02,-0.01 0.03,-0.01 0.01,0.01 0.01,0.02 0.01,0.03l-0.14 0.33 -0.01 0.01 -0.01 0 0 0 -0.02 -0.01 0 0 -0.08 -0.2 -0.09 0.2 0 0 -0.02 0.01 0 0 -0.01 0z"/>
   <path class="fil14" d="M14.97 15.43c0.07,0 0.14,-0.07 0.14,-0.15 0,-0.09 -0.07,-0.15 -0.14,-0.15 -0.08,0 -0.14,0.06 -0.14,0.15 0,0.08 0.06,0.15 0.14,0.15zm0 -0.34c0.09,0 0.17,0.09 0.17,0.19 0,0.1 -0.08,0.18 -0.17,0.18 -0.1,0 -0.18,-0.08 -0.18,-0.18 0,-0.1 0.08,-0.19 0.18,-0.19z"/>
   <path class="fil14" d="M15.27 15.11c0,-0.01 0.01,-0.02 0.02,-0.02 0.01,0 0.02,0.01 0.02,0.02l0 0.08 0 -0.01c0.03,-0.04 0.08,-0.09 0.15,-0.09 0.01,0 0.02,0.01 0.02,0.02 0,0.01 -0.01,0.02 -0.02,0.02 -0.05,0 -0.08,0.03 -0.11,0.06 -0.02,0.03 -0.04,0.07 -0.04,0.09l0 0 0 0.17c0,0.01 -0.01,0.01 -0.02,0.01 -0.01,0 -0.02,0 -0.02,-0.01l0 -0.34z"/>
   <path class="fil14" d="M15.88 15.28l0 -0.01c0,-0.08 -0.06,-0.14 -0.14,-0.14 -0.08,0 -0.14,0.06 -0.14,0.15 0,0.08 0.06,0.15 0.14,0.15 0.08,0 0.14,-0.07 0.14,-0.15zm0 0.11c-0.03,0.05 -0.08,0.07 -0.14,0.07 -0.1,0 -0.18,-0.08 -0.18,-0.18 0,-0.11 0.08,-0.19 0.18,-0.19 0.06,0 0.11,0.03 0.14,0.07l0 -0.21c0,-0.01 0.01,-0.02 0.02,-0.02 0.01,0 0.02,0.01 0.02,0.02l0 0.5c0,0.01 -0.01,0.01 -0.02,0.01 -0.01,0 -0.02,0 -0.02,-0.01l0 -0.06z"/>
   <polygon class="fil0" points="7.24,17.31 20.62,17.31 20.62,15.85 7.24,15.85 "/>
   <path class="fil1" d="M28.61 10.54l0 2.45 -0.69 0 0 -2.45c0,-0.93 -0.7,-1.68 -1.57,-1.68 -0.87,0 -1.58,0.75 -1.58,1.68l0 2.45 -0.69 0 0 -2.45c0,-1.33 1.02,-2.41 2.27,-2.41 1.25,0 2.26,1.08 2.26,2.41z"/>
   <polygon class="fil4" points="24.08,11.18 24.77,11.21 24.77,12.99 24.08,12.99 "/>
   <polygon class="fil4" points="28.61,11.36 28.61,12.99 27.92,12.99 27.92,11.33 "/>
   <polygon class="fil9" points="23.2,17.31 29.5,17.31 29.5,12.08 23.2,12.08 "/>
   <path class="fil10" d="M26.35 17.31l-2.89 0c-0.07,-0.16 -0.16,-0.33 -0.26,-0.48l0 -4.75 3.15 0 0 5.23z"/>
   <path class="fil6" d="M26.64 14.66l0.27 1.26 -1.12 0 0.26 -1.26c-0.16,-0.1 -0.26,-0.27 -0.26,-0.47 0,-0.31 0.25,-0.56 0.56,-0.56 0.31,0 0.56,0.25 0.56,0.56 0,0.2 -0.11,0.37 -0.27,0.47z"/>
   <path class="fil12" d="M31.9 12.43l-0.28 -0.04c0.18,-1.12 -0.55,-2.19 -1.66,-2.43 -0.92,-0.2 -1.84,0.24 -2.29,1.01l-0.26 -0.13c0.52,-0.88 1.56,-1.38 2.61,-1.15 1.26,0.27 2.08,1.47 1.88,2.74z"/>
   <path class="fil12" d="M29.97 9.9c1.13,0.24 1.87,1.3 1.72,2.43l0.15 0.03c0.17,-1.21 -0.63,-2.35 -1.83,-2.61 -0.98,-0.21 -1.98,0.21 -2.5,1.06l0.13 0.08c0.49,-0.79 1.42,-1.19 2.33,-0.99zm1.57 2.54l0.01 -0.06c0.18,-1.09 -0.53,-2.12 -1.6,-2.35 -0.88,-0.19 -1.77,0.2 -2.23,0.98l-0.03 0.05 -0.37 -0.19 0.04 -0.06c0.54,-0.94 1.62,-1.42 2.67,-1.19 1.3,0.28 2.14,1.52 1.93,2.82l-0.01 0.07 -0.41 -0.07z"/>
   <polygon class="fil12" points="31.29,12.18 31.42,12.08 31.73,12.49 32.12,12.16 32.21,12.29 31.69,12.73 "/>
   <path class="fil12" d="M31.38 12.19l0.32 0.45 0.43 -0.36 -0.02 -0.02 -0.39 0.33 -0.31 -0.42 -0.03 0.02zm0.3 0.64l-0.48 -0.66 0.23 -0.19 0.31 0.42 0.39 -0.33 0.17 0.23 -0.62 0.53z"/>
   <path class="fil12" d="M27.1 11.73l0.28 0.04c-0.18,1.12 0.55,2.19 1.66,2.43 0.92,0.2 1.84,-0.24 2.29,-1.01l0.25 0.13c-0.51,0.89 -1.55,1.38 -2.6,1.16 -1.26,-0.28 -2.08,-1.48 -1.88,-2.75z"/>
   <path class="fil12" d="M27.15 11.8c-0.16,1.21 0.64,2.35 1.84,2.61 0.98,0.21 1.98,-0.21 2.5,-1.06l-0.13 -0.08c-0.5,0.79 -1.42,1.19 -2.33,0.99 -1.13,-0.24 -1.87,-1.3 -1.72,-2.43l-0.16 -0.03zm1.81 2.74c-1.29,-0.28 -2.13,-1.52 -1.93,-2.82l0.01 -0.07 0.42 0.07 -0.01 0.06c-0.18,1.09 0.53,2.12 1.6,2.35 0.88,0.19 1.77,-0.2 2.23,-0.98l0.03 -0.05 0.37 0.19 -0.04 0.06c-0.54,0.94 -1.62,1.42 -2.68,1.19z"/>
   <polygon class="fil12" points="27.71,11.98 27.58,12.08 27.27,11.67 26.88,12 26.78,11.87 27.31,11.43 "/>
   <path class="fil12" d="M26.87 11.88l0.02 0.03 0.39 -0.34 0.31 0.42 0.03 -0.02 -0.32 -0.45 -0.43 0.36zm0 0.22l-0.17 -0.24 0.62 -0.53 0.48 0.66 -0.23 0.19 -0.31 -0.42 -0.39 0.34z"/>
   <path class="fil6" d="M8.26 13.29c-0.09,0.18 -0.22,0.31 -0.39,0.4 0.08,-0.18 0.21,-0.31 0.39,-0.4z"/>
   <path class="fil6" d="M7.87 13.29c0.17,0.09 0.3,0.22 0.39,0.4 -0.18,-0.09 -0.31,-0.22 -0.39,-0.4z"/>
   <path class="fil6" d="M8.34 13.49c-0.19,0.06 -0.37,0.06 -0.55,0 0.18,-0.06 0.36,-0.06 0.55,0z"/>
   <path class="fil6" d="M8.06 13.21c0.06,0.19 0.06,0.37 0,0.56 -0.06,-0.19 -0.06,-0.37 0,-0.56z"/>
   <path class="fil6" d="M9.21 13.29c-0.08,0.18 -0.22,0.31 -0.39,0.4 0.09,-0.18 0.22,-0.31 0.39,-0.4z"/>
   <path class="fil6" d="M8.82 13.29c0.17,0.09 0.31,0.22 0.39,0.4 -0.17,-0.09 -0.3,-0.22 -0.39,-0.4z"/>
   <path class="fil6" d="M9.29 13.49c-0.18,0.06 -0.37,0.06 -0.55,0 0.18,-0.06 0.37,-0.06 0.55,0z"/>
   <path class="fil6" d="M9.02 13.21c0.06,0.19 0.06,0.37 0,0.56 -0.07,-0.19 -0.07,-0.37 0,-0.56z"/>
   <path class="fil6" d="M10.17 13.29c-0.09,0.18 -0.22,0.31 -0.4,0.4 0.09,-0.18 0.22,-0.31 0.4,-0.4z"/>
   <path class="fil6" d="M9.77 13.29c0.18,0.09 0.31,0.22 0.4,0.4 -0.18,-0.09 -0.31,-0.22 -0.4,-0.4z"/>
   <path class="fil6" d="M10.25 13.49c-0.19,0.06 -0.37,0.06 -0.56,0 0.19,-0.06 0.37,-0.06 0.56,0z"/>
   <path class="fil6" d="M9.97 13.21c0.06,0.19 0.06,0.37 0,0.56 -0.06,-0.19 -0.06,-0.37 0,-0.56z"/>
   <path class="fil6" d="M11.12 13.29c-0.09,0.18 -0.22,0.31 -0.39,0.4 0.08,-0.18 0.22,-0.31 0.39,-0.4z"/>
   <path class="fil6" d="M10.73 13.29c0.17,0.09 0.3,0.22 0.39,0.4 -0.17,-0.09 -0.31,-0.22 -0.39,-0.4z"/>
   <path class="fil6" d="M11.2 13.49c-0.18,0.06 -0.37,0.06 -0.55,0 0.18,-0.06 0.37,-0.06 0.55,0z"/>
   <path class="fil6" d="M10.92 13.21c0.07,0.19 0.07,0.37 0,0.56 -0.06,-0.19 -0.06,-0.37 0,-0.56z"/>
   <path class="fil6" d="M12.07 13.29c-0.08,0.18 -0.21,0.31 -0.39,0.4 0.09,-0.18 0.22,-0.31 0.39,-0.4z"/>
   <path class="fil6" d="M11.68 13.29c0.18,0.09 0.31,0.22 0.39,0.4 -0.17,-0.09 -0.3,-0.22 -0.39,-0.4z"/>
   <path class="fil6" d="M12.16 13.49c-0.19,0.06 -0.37,0.06 -0.56,0 0.19,-0.06 0.37,-0.06 0.56,0z"/>
   <path class="fil6" d="M11.88 13.21c0.06,0.19 0.06,0.37 0,0.56 -0.06,-0.19 -0.06,-0.37 0,-0.56z"/>
   <path class="fil6" d="M13.03 13.29c-0.09,0.18 -0.22,0.31 -0.39,0.4 0.08,-0.18 0.21,-0.31 0.39,-0.4z"/>
   <path class="fil6" d="M12.64 13.29c0.17,0.09 0.3,0.22 0.39,0.4 -0.18,-0.09 -0.31,-0.22 -0.39,-0.4z"/>
   <path class="fil6" d="M13.11 13.49c-0.18,0.06 -0.37,0.06 -0.55,0 0.18,-0.06 0.37,-0.06 0.55,0z"/>
   <path class="fil6" d="M12.83 13.21c0.07,0.19 0.07,0.37 0,0.56 -0.06,-0.19 -0.06,-0.37 0,-0.56z"/>
   <path class="fil6" d="M13.98 13.29c-0.08,0.18 -0.21,0.31 -0.39,0.4 0.09,-0.18 0.22,-0.31 0.39,-0.4z"/>
   <path class="fil6" d="M13.59 13.29c0.18,0.09 0.31,0.22 0.39,0.4 -0.17,-0.09 -0.3,-0.22 -0.39,-0.4z"/>
   <path class="fil6" d="M14.06 13.49c-0.18,0.06 -0.37,0.06 -0.55,0 0.18,-0.06 0.37,-0.06 0.55,0z"/>
   <path class="fil6" d="M13.79 13.21c0.06,0.19 0.06,0.37 0,0.56 -0.07,-0.19 -0.07,-0.37 0,-0.56z"/>
   <path class="fil6" d="M8.26 16.39c-0.09,0.17 -0.22,0.3 -0.39,0.39 0.08,-0.18 0.21,-0.31 0.39,-0.39z"/>
   <path class="fil6" d="M7.87 16.39c0.17,0.08 0.3,0.21 0.39,0.39 -0.18,-0.09 -0.31,-0.22 -0.39,-0.39z"/>
   <path class="fil6" d="M8.34 16.58c-0.19,0.07 -0.37,0.07 -0.55,0 0.18,-0.06 0.36,-0.06 0.55,0z"/>
   <path class="fil6" d="M8.06 16.31c0.06,0.18 0.06,0.37 0,0.55 -0.06,-0.18 -0.06,-0.37 0,-0.55z"/>
   <path class="fil6" d="M9.21 16.39c-0.08,0.17 -0.22,0.3 -0.39,0.39 0.09,-0.18 0.22,-0.31 0.39,-0.39z"/>
   <path class="fil6" d="M8.82 16.39c0.17,0.08 0.31,0.21 0.39,0.39 -0.17,-0.09 -0.3,-0.22 -0.39,-0.39z"/>
   <path class="fil6" d="M9.29 16.58c-0.18,0.07 -0.37,0.07 -0.55,0 0.18,-0.06 0.37,-0.06 0.55,0z"/>
   <path class="fil6" d="M9.02 16.31c0.06,0.18 0.06,0.37 0,0.55 -0.07,-0.18 -0.07,-0.37 0,-0.55z"/>
   <path class="fil6" d="M10.17 16.39c-0.09,0.17 -0.22,0.3 -0.4,0.39 0.09,-0.18 0.22,-0.31 0.4,-0.39z"/>
   <path class="fil6" d="M9.77 16.39c0.18,0.08 0.31,0.21 0.4,0.39 -0.18,-0.09 -0.31,-0.22 -0.4,-0.39z"/>
   <path class="fil6" d="M10.25 16.58c-0.19,0.07 -0.37,0.07 -0.56,0 0.19,-0.06 0.37,-0.06 0.56,0z"/>
   <path class="fil6" d="M9.97 16.31c0.06,0.18 0.06,0.37 0,0.55 -0.06,-0.18 -0.06,-0.37 0,-0.55z"/>
   <path class="fil6" d="M11.12 16.39c-0.09,0.17 -0.22,0.3 -0.39,0.39 0.08,-0.18 0.22,-0.31 0.39,-0.39z"/>
   <path class="fil6" d="M10.73 16.39c0.17,0.08 0.3,0.21 0.39,0.39 -0.17,-0.09 -0.31,-0.22 -0.39,-0.39z"/>
   <path class="fil6" d="M11.2 16.58c-0.18,0.07 -0.37,0.07 -0.55,0 0.18,-0.06 0.37,-0.06 0.55,0z"/>
   <path class="fil6" d="M10.92 16.31c0.07,0.18 0.07,0.37 0,0.55 -0.06,-0.18 -0.06,-0.37 0,-0.55z"/>
   <polygon class="fil6" points="11.17,17.06 11.23,17.06 11.23,16.11 11.17,16.11 "/>
   <polygon class="fil10" points="7.27,20.04 12.45,20.04 12.45,18.54 7.27,18.54 "/>
   <path class="fil2" d="M7.82 19.34c0,-0.16 0.13,-0.28 0.29,-0.28 0.07,0 0.13,0.02 0.18,0.06 0.02,0.01 0.02,0.04 0.01,0.06 -0.02,0.02 -0.05,0.02 -0.07,0.01 -0.03,-0.03 -0.07,-0.04 -0.12,-0.04 -0.05,0 -0.1,0.02 -0.14,0.05 -0.04,0.04 -0.06,0.09 -0.06,0.14 0,0.05 0.02,0.1 0.06,0.13 0.04,0.04 0.09,0.06 0.14,0.06 0.05,0 0.09,-0.02 0.12,-0.04 0.02,-0.02 0.05,-0.01 0.07,0.01 0.01,0.01 0.01,0.04 -0.01,0.06 -0.05,0.04 -0.11,0.06 -0.18,0.06 -0.16,0 -0.29,-0.13 -0.29,-0.28z"/>
   <path class="fil2" d="M8.85 19.34c0,-0.05 -0.02,-0.1 -0.05,-0.14 -0.03,-0.03 -0.08,-0.05 -0.12,-0.05 -0.05,0 -0.1,0.02 -0.13,0.05 -0.03,0.04 -0.05,0.09 -0.05,0.14 0,0.05 0.02,0.1 0.05,0.13 0.03,0.04 0.08,0.06 0.13,0.06 0.04,0 0.09,-0.02 0.12,-0.06 0.03,-0.03 0.05,-0.08 0.05,-0.13zm0.01 -0.2c0.05,0.05 0.08,0.12 0.08,0.2 0,0.08 -0.03,0.14 -0.08,0.2 -0.04,0.05 -0.11,0.08 -0.18,0.08 -0.08,0 -0.15,-0.03 -0.2,-0.08 -0.04,-0.06 -0.07,-0.12 -0.07,-0.2 0,-0.08 0.03,-0.15 0.07,-0.2 0.05,-0.05 0.12,-0.08 0.2,-0.08 0.07,0 0.14,0.03 0.18,0.08z"/>
   <path class="fil2" d="M9.16 19.58c0,0.02 -0.02,0.04 -0.04,0.04 -0.03,0 -0.05,-0.02 -0.05,-0.04l0 -0.46c0,-0.01 0.01,-0.02 0.02,-0.03 0.02,-0.02 0.05,-0.01 0.06,0.01l0.25 0.34 0 -0.32c0,-0.02 0.02,-0.04 0.04,-0.04 0.03,0 0.05,0.02 0.05,0.04l0 0.46c0,0.02 -0.02,0.04 -0.05,0.04 -0.01,0 -0.02,-0.01 -0.03,-0.02l0 0 -0.25 -0.35 0 0.33z"/>
   <path class="fil2" d="M10 19.16l-0.13 0 0 0.42c0,0.02 -0.02,0.04 -0.04,0.04 -0.02,0 -0.04,-0.02 -0.04,-0.04l0 -0.42 -0.13 0c-0.02,0 -0.04,-0.02 -0.04,-0.04 0,-0.03 0.02,-0.05 0.04,-0.05l0.34 0c0.02,0 0.04,0.02 0.04,0.05 0,0.02 -0.02,0.04 -0.04,0.04z"/>
   <path class="fil2" d="M10.17 19.12c0,-0.03 0.02,-0.05 0.05,-0.05 0.02,0 0.04,0.02 0.04,0.05l0 0.46c0,0.02 -0.02,0.04 -0.04,0.04 -0.03,0 -0.05,-0.02 -0.05,-0.04l0 -0.46z"/>
   <path class="fil2" d="M10.49 19.58c0,0.02 -0.02,0.04 -0.04,0.04 -0.03,0 -0.04,-0.02 -0.04,-0.04l0 -0.46c-0.01,-0.01 0,-0.02 0.01,-0.03 0.02,-0.02 0.05,-0.01 0.06,0.01l0.25 0.34 0 -0.32c0,-0.02 0.02,-0.04 0.04,-0.04 0.03,0 0.05,0.02 0.05,0.04l0 0.46c0,0.02 -0.02,0.04 -0.05,0.04 -0.01,0 -0.02,-0.01 -0.03,-0.02l0 0 -0.25 -0.35 0 0.33z"/>
   <path class="fil2" d="M11.19 19.62c-0.12,0 -0.22,-0.1 -0.22,-0.23l0 -0.27c0,-0.03 0.01,-0.05 0.04,-0.05 0.02,0 0.04,0.02 0.04,0.05l0 0.27c0,0.08 0.06,0.14 0.14,0.14 0.08,0 0.14,-0.06 0.14,-0.14l0 -0.27c0,-0.03 0.02,-0.05 0.04,-0.05 0.03,0 0.05,0.02 0.05,0.05l0 0.27c0,0.13 -0.11,0.23 -0.23,0.23z"/>
   <path class="fil2" d="M11.56 19.58l0 -0.46c0,-0.03 0.02,-0.05 0.04,-0.05l0.26 0c0.02,0 0.04,0.02 0.04,0.05 0,0.02 -0.02,0.04 -0.04,0.04l-0.22 0 0 0.14 0.19 0c0.02,0 0.04,0.02 0.04,0.05 0,0.02 -0.02,0.04 -0.04,0.04l-0.19 0 0 0.14 0.22 0c0.02,0 0.04,0.02 0.04,0.05 0,0.02 -0.02,0.04 -0.04,0.04l-0.26 0 0 0 0 0c-0.02,0 -0.04,-0.02 -0.04,-0.04z"/>
   <path class="fil0" d="M14.23 19.34c0,-0.16 0.13,-0.28 0.28,-0.28 0.07,0 0.13,0.02 0.18,0.06 0.02,0.01 0.03,0.04 0.01,0.06 -0.01,0.02 -0.04,0.02 -0.06,0.01 -0.04,-0.03 -0.08,-0.04 -0.13,-0.04 -0.05,0 -0.1,0.02 -0.14,0.05 -0.03,0.04 -0.05,0.09 -0.05,0.14 0,0.05 0.02,0.1 0.05,0.13 0.04,0.04 0.09,0.06 0.14,0.06 0.05,0 0.09,-0.02 0.13,-0.04 0.02,-0.02 0.05,-0.01 0.06,0.01 0.02,0.01 0.01,0.04 -0.01,0.06 -0.05,0.04 -0.11,0.06 -0.18,0.06 -0.15,0 -0.28,-0.13 -0.28,-0.28z"/>
   <path class="fil0" d="M15.09 19.4l-0.07 -0.16 -0.06 0.16 0.13 0zm0.03 0.09l-0.19 0 -0.04 0.1c-0.01,0.02 -0.02,0.03 -0.04,0.03l-0.01 0c-0.03,-0.01 -0.04,-0.04 -0.03,-0.06l0.17 -0.46c0.01,-0.02 0.03,-0.03 0.04,-0.03 0.02,0 0.04,0.01 0.04,0.03l0.18 0.46c0,0.02 -0.01,0.05 -0.03,0.06l-0.01 0c-0.02,0 -0.04,-0.01 -0.04,-0.03l-0.04 -0.1z"/>
   <path class="fil0" d="M15.43 19.58c0,0.02 -0.02,0.04 -0.04,0.04 -0.03,0 -0.05,-0.02 -0.05,-0.04l0 -0.46c0,-0.01 0.01,-0.02 0.02,-0.03 0.02,-0.02 0.05,-0.01 0.06,0.01l0.25 0.34 0 -0.32c0,-0.02 0.02,-0.04 0.04,-0.04 0.03,0 0.05,0.02 0.05,0.04l0 0.46c0,0.02 -0.02,0.04 -0.05,0.04 -0.01,0 -0.02,-0.01 -0.03,-0.02l0 0 -0.25 -0.35 0 0.33z"/>
   <path class="fil0" d="M15.92 19.34c0,-0.16 0.13,-0.28 0.28,-0.28 0.07,0 0.13,0.02 0.18,0.06 0.02,0.01 0.02,0.04 0.01,0.06 -0.02,0.02 -0.04,0.02 -0.06,0.01 -0.04,-0.03 -0.08,-0.04 -0.13,-0.04 -0.05,0 -0.1,0.02 -0.14,0.05 -0.03,0.04 -0.05,0.09 -0.05,0.14 0,0.05 0.02,0.1 0.05,0.13 0.04,0.04 0.09,0.06 0.14,0.06 0.05,0 0.09,-0.02 0.13,-0.04 0.02,-0.02 0.04,-0.01 0.06,0.01 0.01,0.01 0.01,0.04 -0.01,0.06 -0.05,0.04 -0.11,0.06 -0.18,0.06 -0.15,0 -0.28,-0.13 -0.28,-0.28z"/>
   <path class="fil0" d="M16.54 19.58l0 -0.46c0,-0.03 0.02,-0.05 0.04,-0.05l0.26 0c0.02,0 0.04,0.02 0.04,0.05 0,0.02 -0.02,0.04 -0.04,0.04l-0.21 0 0 0.14 0.18 0c0.02,0 0.04,0.02 0.04,0.05 0,0.02 -0.02,0.04 -0.04,0.04l-0.18 0 0 0.14 0.21 0c0.02,0 0.04,0.02 0.04,0.05 0,0.02 -0.02,0.04 -0.04,0.04l-0.25 0 -0.01 0 0 0c-0.02,0 -0.04,-0.02 -0.04,-0.04z"/>
   <path class="fil0" d="M17 19.58l0 -0.46c0,-0.03 0.02,-0.05 0.04,-0.05 0.03,0 0.05,0.02 0.05,0.05l0 0.41 0.21 0c0.02,0 0.04,0.02 0.04,0.05 0,0.02 -0.02,0.04 -0.04,0.04l-0.26 0c-0.02,0 -0.04,-0.02 -0.04,-0.04z"/>
   <path class="fil15" d="M29.33 26.7c-0.24,2.87 -2.09,9.12 -3.39,10.19 -0.83,0.68 -4.41,1.45 -6.29,1.45 -0.77,0 -1.34,-5.28 -0.19,-5.35 2,-0.13 3.41,-0.31 3.94,-0.59 0.41,-0.21 1.45,-2.2 4.26,-5.99 1.04,-1.41 1.81,-1.33 1.67,0.29z"/>
   <path class="fil15" d="M20.67 38.23c-0.1,0.02 -1.48,0.37 -2.3,0.42 -0.61,0.03 -2.36,0.09 -2.47,-0.57 -0.08,-0.46 0.95,-0.61 1.68,-0.74 0.38,-0.07 0.89,-0.34 0.84,-0.59 -0.09,-0.43 -1.08,-0.24 -1.75,-0.03 -1.29,0.41 -3.08,1.27 -3.65,0.53 -0.22,-0.28 0.18,-0.61 0.72,-0.9 -0.83,0.29 -1.69,0.49 -1.95,0.19 -0.14,-0.17 -0.11,-0.35 0.04,-0.54 -0.24,0.03 -0.44,-0.03 -0.55,-0.21 -0.18,-0.3 0.02,-0.64 0.36,-0.96 -0.08,-0.02 -0.14,-0.08 -0.18,-0.19 -0.33,-0.87 2.67,-2.5 3.58,-2.51 2.69,-0.04 5.36,0.79 5.36,0.79 0.82,1.03 0.27,5.31 0.27,5.31z"/>
   <path class="fil6" d="M17.44 35.04c-0.62,-0.05 -1.26,0.05 -1.85,0.27 -0.74,0.28 -1.28,0.68 -1.94,1.07 -0.02,0.01 0,0.03 0.02,0.02 0.31,-0.18 1.58,-0.84 1.91,-0.98 0.59,-0.26 1.21,-0.4 1.86,-0.37l0 -0.01z"/>
   <path class="fil6" d="M17.21 33.85c-0.71,0.03 -1.44,0.06 -2.14,0.24 -0.75,0.19 -1.41,0.64 -2.06,1.06 -0.39,0.26 -0.77,0.53 -1.15,0.8 -0.01,0.01 0,0.04 0.02,0.03 0.65,-0.45 1.33,-0.87 2.01,-1.27 0.64,-0.38 1.32,-0.63 2.06,-0.74 0.42,-0.06 0.84,-0.08 1.26,-0.11l0 -0.01z"/>
   <path class="fil6" d="M16.7 32.74c-0.68,-0.01 -1.27,-0.03 -1.93,0.19 -0.86,0.29 -1.78,0.91 -2.1,1.12 -0.35,0.25 -0.7,0.5 -1.04,0.76 -0.01,0.01 0,0.03 0.02,0.02 0.77,-0.56 1.59,-1.07 2.43,-1.52 0.4,-0.22 0.82,-0.39 1.27,-0.48 0.45,-0.08 0.9,-0.08 1.35,-0.09l0 0z"/>
   <path class="fil8" d="M28.33 33.35l-3.6 -3.53c0,0 2.14,-3.04 3.59,-4.37 0.81,-0.75 1.4,-0.13 1.39,0.87 -0.02,3.48 -1.38,7.03 -1.38,7.03z"/>
   <path class="fil10" d="M28.33 33.35l-3.6 -3.53c0,0 2.14,-3.04 3.59,-4.37 0.81,-0.75 1.4,-0.13 1.39,0.87 -0.02,3.48 -1.38,7.03 -1.38,7.03z"/>
   <path class="fil16" d="M24.86 29.95l-0.07 -0.06c0.01,0 0.01,0 0.01,0l0.06 0.06c0,0 0,0 0,0zm-0.1 -0.09l-0.03 -0.04 0 0 0.03 0.04c0,0 0,0 0,0zm0.21 -0.38c0,0 0.01,0 0.01,-0.01 0,0.01 -0.01,0.01 -0.01,0.01 0,0 0,0 0,0zm0.02 -0.03c0,0 0.01,0 0.01,0 0,0 0,0 0,0 0,0 -0.01,0 -0.01,0zm0.29 -0.39c0.01,-0.02 0.03,-0.04 0.04,-0.05l0 0c-0.01,0.01 -0.03,0.03 -0.04,0.05 0,0 0,0 0,0zm0.23 -0.31c0.04,-0.05 0.09,-0.11 0.13,-0.18 0,0 0,0 0,0 -0.04,0.07 -0.09,0.13 -0.13,0.18zm3.7 -3.58c-0.05,-0.03 -0.11,-0.04 -0.18,-0.05 0.07,0.01 0.13,0.02 0.18,0.05 0,0 0,0 0,0z"/>
   <path class="fil11" d="M24.86 29.95l-0.06 -0.06c0.23,-0.05 0.46,-0.1 0.69,-0.18l-0.14 0.15c-0.16,0.04 -0.33,0.07 -0.49,0.09zm-0.1 -0.09l-0.03 -0.04 0 0 0 0c0.27,-0.09 0.53,-0.16 0.79,-0.27 0.01,0.01 0.01,0.01 0.02,0.02 -0.25,0.11 -0.51,0.2 -0.78,0.29zm0.84 -0.32c0,0 -0.01,-0.01 -0.01,-0.01 0.04,-0.02 0.08,-0.04 0.12,-0.06l-0.02 0.03c-0.03,0.01 -0.06,0.03 -0.09,0.04zm-0.63 -0.06c0,0 0.01,0 0.01,-0.01 0,0 0.01,-0.01 0.01,-0.02 0,0 0.01,0 0.01,0 0.16,-0.12 0.33,-0.22 0.51,-0.31 0.26,-0.14 0.54,-0.24 0.82,-0.33l-0.05 0.05c-0.26,0.08 -0.52,0.17 -0.76,0.3 -0.18,0.09 -0.37,0.2 -0.55,0.32zm0.31 -0.42c0.01,-0.02 0.03,-0.04 0.04,-0.05l0 -0.01c0.09,-0.06 0.18,-0.11 0.28,-0.16 0.29,-0.13 0.6,-0.21 0.91,-0.22l-0.02 0.01c-0.34,0.02 -0.66,0.1 -0.97,0.27 -0.08,0.05 -0.16,0.1 -0.24,0.16zm0.18 -0.24c0.02,-0.02 0.03,-0.05 0.05,-0.07 0.04,-0.05 0.09,-0.11 0.13,-0.18 0.19,-0.1 0.4,-0.16 0.62,-0.16 0.12,0 0.25,0.02 0.39,0.06l-0.08 0.08c-0.07,-0.01 -0.14,-0.01 -0.21,-0.01 -0.32,0 -0.61,0.08 -0.9,0.28zm3.18 -3.19c0.13,-0.17 0.26,-0.34 0.39,-0.51 0,0 0,0 0,0 0.07,0.01 0.13,0.02 0.18,0.05 -0.01,0.01 -0.03,0.02 -0.04,0.03 0,-0.01 -0.01,-0.03 -0.01,-0.04 -0.02,0.03 -0.05,0.06 -0.07,0.09 -0.14,0.11 -0.28,0.23 -0.43,0.36 0,0 -0.01,0.01 -0.02,0.02z"/>
   <path class="fil10" d="M25.6 30.67l-0.53 -0.51 0.28 -0.3c0.13,-0.04 0.26,-0.07 0.37,-0.11 0.06,0.06 0.13,0.12 0.19,0.19 -0.12,0.26 -0.23,0.5 -0.31,0.73zm-0.11 -0.96l0.09 -0.1c0.02,0.02 0.03,0.03 0.05,0.05 -0.05,0.02 -0.09,0.03 -0.14,0.05z"/>
   <path class="fil17" d="M25.35 29.86l0.14 -0.15c0.05,-0.02 0.09,-0.03 0.14,-0.05 0.03,0.03 0.06,0.06 0.09,0.09 -0.11,0.04 -0.24,0.07 -0.37,0.11z"/>
   <path class="fil10" d="M25.96 29.85c-0.05,-0.05 -0.11,-0.09 -0.15,-0.14 0.03,-0.01 0.05,-0.02 0.08,-0.04 0.08,-0.04 0.16,-0.09 0.23,-0.14 -0.06,0.11 -0.11,0.21 -0.16,0.32zm-0.26 -0.23c-0.02,-0.02 -0.05,-0.04 -0.07,-0.06l0.06 -0.06c0.14,-0.07 0.27,-0.15 0.39,-0.24l0 -0.01c-0.12,0.09 -0.24,0.16 -0.37,0.22l0.57 -0.61c0.09,-0.03 0.17,-0.05 0.26,-0.08 -0.05,0.09 -0.11,0.18 -0.16,0.27 0,0 0,0 0,0 0,0 0,0 0,0 -0.06,0.05 -0.12,0.09 -0.18,0.13l0 0.01c0.06,-0.04 0.11,-0.07 0.17,-0.11 0,0 0,0 0,0 -0.04,0.06 -0.07,0.12 -0.1,0.17 0,0 0,0 0,0 0,0 0,0.01 0,0.01 -0.18,0.14 -0.37,0.27 -0.57,0.36 0,0 0,0 0,0zm0.63 -0.81l0.16 -0.18c0.05,0 0.09,0 0.14,0 -0.02,0.04 -0.05,0.07 -0.07,0.11 -0.07,0.02 -0.15,0.04 -0.23,0.07zm0.18 -0.19l0.06 -0.07c0.03,0.01 0.06,0.01 0.1,0.01 0,0 0,0 0,0 0,0 0,0 0,0 -0.01,0.02 -0.02,0.04 -0.03,0.05 -0.02,0 -0.03,0 -0.04,0 -0.03,0 -0.06,0.01 -0.09,0.01zm0.2 -0.13c-0.02,-0.01 -0.04,-0.02 -0.06,-0.02l0.22 -0.24c-0.05,0.08 -0.11,0.17 -0.16,0.26z"/>
   <path class="fil17" d="M25.81 29.71c-0.04,-0.03 -0.08,-0.06 -0.11,-0.09 0,0 0,0 0,0 0.2,-0.09 0.39,-0.22 0.57,-0.36 -0.04,0.07 -0.08,0.14 -0.12,0.22 -0.01,0.02 -0.02,0.03 -0.03,0.05 -0.07,0.05 -0.15,0.1 -0.23,0.14 -0.03,0.02 -0.05,0.03 -0.08,0.04zm-0.12 -0.21l0.02 -0.03c0.13,-0.06 0.25,-0.13 0.37,-0.22l0 0.01c-0.12,0.09 -0.25,0.17 -0.39,0.24zm0.51 -0.31l0 -0.01c0.06,-0.04 0.12,-0.08 0.18,-0.13 0,0.01 -0.01,0.02 -0.01,0.03 -0.06,0.04 -0.11,0.07 -0.17,0.11zm0.08 -0.33l0.05 -0.05c0.08,-0.03 0.16,-0.05 0.23,-0.07 0,0.01 -0.01,0.03 -0.02,0.04 -0.09,0.03 -0.17,0.05 -0.26,0.08zm0.21 -0.23l0.02 -0.01c0.03,0 0.06,-0.01 0.09,-0.01 0.01,0 0.02,0 0.04,0 -0.01,0.01 -0.01,0.02 -0.01,0.02 -0.05,0 -0.09,0 -0.14,0zm0.18 -0.07c-0.04,0 -0.07,0 -0.1,-0.01l0.08 -0.08c0.02,0 0.04,0.01 0.06,0.02 0,0 0,0 0,0 -0.01,0.02 -0.03,0.05 -0.04,0.07z"/>
   <path class="fil6" d="M25.41 29.38c0.6,0.49 2.18,1.89 3.09,2.93l-0.02 0.02c-0.89,-0.75 -2.55,-2.37 -3.1,-2.92 -0.01,-0.01 0.02,-0.04 0.03,-0.03z"/>
   <path class="fil10" d="M37.92 38.7l-12.38 -0.03 0.75 -4.66c0,0 -1.07,-1.3 -0.87,-2.72 0.23,-1.54 3.01,-5.46 3.24,-5.68 0.95,-0.89 1.94,-1.13 2.84,-0.66 3.08,1.6 6.42,13.75 6.42,13.75z"/>
   <path class="fil16" d="M36.17 38.7l-0.16 0c0,0 0,0 0,-0.01l0.16 0.01c0,0 0,0 0,0zm-1.59 -0.01l-0.14 0c0,0 0,0 0,0l0.14 0c0,0 0,0 0,0zm-0.37 0l-0.15 0c0,0 0,0 0,0l0.15 0c0,0 0,0 0,0zm-0.31 0l-0.07 0 0.07 0c0,0 0,0 0,0zm-0.35 0l-0.14 0c0,0 0,0 0,0l0.13 0c0,0 0,0 0.01,0zm-0.68 0l-0.04 0c0,0 0,0 -0.01,0l0.04 0c0,0 0,0 0.01,0zm-0.1 0l-0.13 0c0,0 0,0 0,0l0.13 0 0 0zm-5.05 -0.02l-0.17 0c0,0 0,0 0,0l0.18 0c0,0 0,0 -0.01,0zm-1.73 0l-0.16 0c0,0 0,0 0,0l0.16 0c0,0 0,0 0,0zm-0.2 0l-0.12 0c0,0 0,0 0,0l0.12 0c0,0 0,0 0,0zm-0.19 0l-0.03 0c0,0 0,0 0,0l0.03 0c0,0 0,0 0,0zm-0.01 -0.28c0,0 0,0 0,0l0.01 -0.05 -0.01 0.05z"/>
   <path class="fil18" d="M25.57 32.67c0,-0.02 -0.01,-0.04 -0.02,-0.06 0.01,0.02 0.02,0.04 0.02,0.06 0,0 0,0 0,0zm-0.05 -0.17c0,-0.01 0,-0.02 -0.01,-0.03 0.01,0.01 0.01,0.02 0.01,0.03 0,0 0,0 0,0zm-0.07 -0.32c-0.01,-0.01 -0.01,-0.03 -0.01,-0.04 0,0 0,0 0,0 0,0.01 0,0.03 0.01,0.04 0,0 0,0 0,0zm-0.03 -0.18c-0.01,-0.04 -0.01,-0.07 -0.01,-0.1 0,-0.01 0,-0.01 0,-0.01 0,0.04 0,0.07 0.01,0.11 0,0 0,0 0,0zm-0.02 -0.51c0,-0.02 0.01,-0.04 0.01,-0.06 0,0.02 -0.01,0.04 -0.01,0.06 0,0 0,0 0,0zm0.01 -0.1c0,-0.03 0.01,-0.06 0.01,-0.1 0.01,-0.01 0.01,-0.03 0.01,-0.05 0,0.02 0,0.04 -0.01,0.05 0,0.04 -0.01,0.07 -0.01,0.1zm0.04 -0.26c0.01,-0.03 0.02,-0.06 0.03,-0.09 0,0 0,0 0,0 -0.01,0.03 -0.02,0.06 -0.03,0.09z"/>
   <path class="fil17" d="M26.27 29.26c0,0 0,-0.01 0,-0.01 0,0 0,0 0,0 0,0 0,0 0,0.01 0,0 0,0 0,0z"/>
   <path class="fil19" d="M26.15 29.48c0.04,-0.08 0.08,-0.15 0.12,-0.22 0,0 0,0 0,0 -0.04,0.07 -0.08,0.14 -0.12,0.22z"/>
   <path class="fil17" d="M26.37 29.08c0,0 0,0 0,0 0,0 0,0 0,0 0,0 0,0 0,0zm0.01 -0.03c0,0 0,0 0,0 0,0 0,0 0,0 0,0 0,0 0,0 0,0 0,0 0,0z"/>
   <path class="fil19" d="M26.37 29.08c0,-0.01 0.01,-0.02 0.01,-0.03 0,0 0,0 0,0 0,0.01 -0.01,0.02 -0.01,0.03 0,0 0,0 0,0z"/>
   <path class="fil17" d="M26.67 28.56c0,0 0,0 0,0 0,0 0,0 0,0 0,0 0,0 0,0 0,0 0,0 0,0z"/>
   <path class="fil19" d="M26.67 28.56c0,0 0,0 0,0 0.01,-0.02 0.03,-0.05 0.04,-0.07 -0.01,0.02 -0.03,0.05 -0.04,0.07z"/>
   <path class="fil11" d="M36.17 38.7l-0.16 -0.01c0.01,-0.13 0.01,-0.27 0.02,-0.41 0.05,0.04 0.1,0.08 0.15,0.12 0,0.01 0,0.01 0,0.01 0,0 0,0 0,-0.01 0.03,0.02 0.05,0.04 0.07,0.05 -0.02,0.04 -0.05,0.07 -0.07,0.1 0,0.05 -0.01,0.1 -0.01,0.15zm-1.59 -0.01l-0.14 0c-0.13,-0.3 -0.24,-0.61 -0.33,-0.92l0 -0.01c-0.39,-0.17 -0.83,-0.41 -1.03,-0.81 -0.2,-0.41 -0.12,-0.99 -0.08,-1.42 0.01,-0.02 0.02,-0.02 0.03,-0.02l0.01 0.01c0.69,0.57 1.26,1.2 1.11,2.13 0.12,0.37 0.26,0.72 0.43,1.04zm-1.53 -3.08l0 0c0.02,0.38 -0.01,0.77 0.09,1.14 0.12,0.44 0.52,0.71 0.92,0.89l0 0 0 0c-0.28,-0.24 -0.56,-0.51 -0.73,-0.85 -0.18,-0.36 -0.23,-0.77 -0.27,-1.17l-0.01 -0.01zm0.07 0.04c0.01,0.02 0.01,0.03 0.02,0.04 0.5,0.55 0.88,1.19 0.95,1.94l0 0 0.01 -0.01c-0.01,-0.46 -0.04,-0.84 -0.35,-1.24 -0.19,-0.25 -0.41,-0.49 -0.63,-0.73zm0.57 1.09c0.16,0.28 0.27,0.57 0.37,0.88l0.01 0.01c-0.04,-0.36 -0.15,-0.72 -0.3,-1.04 -0.15,-0.3 -0.37,-0.57 -0.58,-0.82 0.13,0.22 0.25,0.46 0.37,0.7l-0.01 0c-0.13,-0.26 -0.28,-0.52 -0.42,-0.78 -0.02,-0.02 -0.04,-0.04 -0.06,-0.06 0.06,0.37 0.11,0.74 0.26,1.09 0.16,0.36 0.43,0.63 0.72,0.89 -0.09,-0.3 -0.22,-0.59 -0.36,-0.87l0 0zm-0.62 -1.14l0 0.01c0.01,0.01 0.02,0.02 0.03,0.03 -0.01,-0.01 -0.01,-0.01 -0.02,-0.02l0 0 -0.01 -0.02zm-0.02 -0.01l0.01 0.01 0 -0.01 -0.01 -0.01 0 0.01zm1.16 3.1l-0.15 0c-0.06,-0.04 -0.13,-0.09 -0.2,-0.12 -0.25,-0.14 -0.48,-0.18 -0.71,-0.18 -0.17,0 -0.34,0.02 -0.53,0.04 0.35,0.01 0.7,0.05 1.04,0.16 0.08,0.03 0.16,0.06 0.24,0.1l-0.07 0 0 0c-0.06,-0.03 -0.12,-0.05 -0.19,-0.08 -0.28,-0.09 -0.58,-0.12 -0.87,-0.14 0.26,0.06 0.52,0.13 0.77,0.22l-0.13 0c-0.26,-0.09 -0.52,-0.17 -0.79,-0.24 -0.02,0 -0.04,0 -0.05,0 0.09,0.08 0.19,0.16 0.29,0.24l-0.04 0c-0.08,-0.07 -0.16,-0.13 -0.23,-0.2l-0.01 -0.01 0 0 0.01 0.01c0.06,0.07 0.12,0.13 0.18,0.2l-0.13 0c-0.13,-0.18 -0.19,-0.32 -0.18,-0.33 0.23,-0.04 0.44,-0.07 0.66,-0.07 0.22,0 0.44,0.04 0.67,0.14 0.15,0.07 0.29,0.16 0.42,0.26zm-6.48 -0.02l-0.18 0c0.44,-0.87 0.83,-1.77 1.22,-2.66l0 -0.01c-0.04,-0.51 -0.21,-1.09 -0.01,-1.59 0.21,-0.53 0.78,-0.92 1.23,-1.26l0.02 0.01c0,0.58 0,1.2 -0.22,1.74 -0.19,0.46 -0.56,0.79 -0.92,1.11l-0.01 0.01 -0.01 0.01c-0.02,0.02 -0.04,0.03 -0.06,0.05 -0.14,0.43 -0.3,0.86 -0.47,1.28 0.3,-0.33 0.6,-0.68 0.98,-0.89 0.46,-0.25 1.58,-0.38 1.61,-0.38 0,0 0,0 0,0l0.01 0 0 0.01 0 0c-0.01,0.01 -0.04,0.04 -0.04,0.04 -0.55,0.72 -1.1,1.6 -1.96,1.6 -0.2,0 -0.43,-0.05 -0.68,-0.17l-0.01 0c-0.15,0.37 -0.32,0.74 -0.5,1.1zm0.56 -1.15l-0.02 0.02c0.19,0.05 0.37,0.07 0.55,0.07 0.41,0 0.78,-0.14 1.14,-0.46 0.15,-0.14 0.28,-0.29 0.41,-0.45 -0.23,0.24 -0.48,0.45 -0.77,0.59 -0.32,0.16 -0.68,0.25 -1.03,0.25 -0.1,0 -0.19,0 -0.28,-0.02zm2.37 -1.18c-0.12,0.1 -0.25,0.19 -0.37,0.27 -0.19,0.14 -0.39,0.28 -0.6,0.39 -0.43,0.23 -0.92,0.38 -1.39,0.52 0.07,0 0.15,0.01 0.22,0.01 0.4,0 0.8,-0.09 1.16,-0.3 0.38,-0.22 0.68,-0.56 0.98,-0.89zm-1.66 0.62l0 0.01c-0.23,0.16 -0.45,0.33 -0.67,0.51 0.45,-0.16 0.92,-0.27 1.35,-0.5 0.38,-0.21 0.78,-0.48 1.1,-0.8 -0.56,0.24 -1.16,0.34 -1.67,0.71l0 0c0.49,-0.37 1.13,-0.56 1.71,-0.75l0.02 -0.01c-0.45,0.13 -0.91,0.17 -1.35,0.39 -0.42,0.2 -0.8,0.58 -1.14,0.91 0.2,-0.17 0.42,-0.33 0.65,-0.47zm0.95 -3.66c-0.28,0.88 -0.66,1.72 -1.07,2.54 0,0.02 0,0.04 0,0.05 0.02,-0.04 0.05,-0.07 0.08,-0.1 0.49,-0.77 0.8,-1.6 0.99,-2.49zm0.02 -0.1c-0.36,0.34 -0.88,0.81 -1.07,1.27 -0.19,0.43 -0.08,0.93 -0.04,1.38 0.03,-0.47 0.05,-0.97 0.24,-1.4 0.2,-0.46 0.56,-0.87 0.87,-1.25zm0 0.03c-0.29,0.39 -0.63,0.75 -0.83,1.19 -0.2,0.43 -0.21,0.93 -0.26,1.41 0.43,-0.84 0.77,-1.72 1.09,-2.6zm0.01 0.06c-0.13,0.83 -0.46,1.64 -0.9,2.35 0.23,-0.27 0.48,-0.52 0.63,-0.88 0.2,-0.48 0.24,-0.97 0.27,-1.47zm-3.99 5.38l-0.16 0c0.06,-0.89 0.26,-1.77 0.63,-2.57l-0.01 -0.02c-0.3,-0.99 0,-1.82 0.8,-2.43 0.01,-0.01 0.01,-0.02 0.01,-0.03 0,-0.01 0.01,-0.02 0.02,-0.02 0.01,0 0.03,0.01 0.02,0.03 -0.05,0.86 0.18,1.84 -0.7,2.32 -0.19,0.55 -0.34,1.1 -0.45,1.64 0.38,-0.77 0.92,-1.29 1.82,-1.6 0,-0.01 0.01,-0.02 0.02,-0.02 0.01,0 0.02,0.01 0.03,0.02l0 0.01 0 0.01c-0.05,0.6 -0.36,1.25 -0.78,1.69 -0.28,0.31 -0.63,0.4 -1.02,0.4 -0.05,0 -0.11,0 -0.16,0 -0.03,0.19 -0.05,0.38 -0.07,0.57zm1.91 -2.58c-0.33,0.19 -0.68,0.35 -0.97,0.59 -0.41,0.35 -0.61,0.85 -0.84,1.31l0.02 0c0.23,-0.36 0.46,-0.72 0.75,-1.04 0.29,-0.33 0.66,-0.59 1.02,-0.84l0.02 -0.02zm-0.04 0.05c-0.32,0.28 -0.68,0.49 -0.96,0.8 -0.3,0.32 -0.54,0.68 -0.78,1.05l0.03 0c0.06,-0.04 0.13,-0.08 0.19,-0.13 -0.05,0.05 -0.11,0.09 -0.17,0.13 0.41,-0.09 0.77,-0.28 1.05,-0.59 0.34,-0.38 0.46,-0.88 0.71,-1.32l-0.02 0.01c-0.23,0.39 -0.52,0.75 -0.83,1.07 -0.14,0.15 -0.28,0.28 -0.43,0.42 0.14,-0.15 0.28,-0.3 0.41,-0.44 0.29,-0.31 0.55,-0.64 0.8,-1zm0.06 0c-0.24,0.46 -0.37,0.97 -0.75,1.34 -0.24,0.24 -0.54,0.42 -0.87,0.5 0.49,-0.05 0.81,-0.22 1.13,-0.72 0.23,-0.36 0.35,-0.73 0.49,-1.12zm-0.68 -2.42c-0.27,0.35 -0.59,0.61 -0.71,1.05 -0.11,0.38 -0.09,0.76 -0.01,1.13l0 0c0.01,-0.02 0.02,-0.04 0.03,-0.06 0.01,-0.36 0.02,-0.7 0.14,-1.05 0.13,-0.36 0.33,-0.72 0.54,-1.04 0,-0.01 0,-0.02 0.01,-0.03zm-0.69 2.17l-0.01 0.01 0 0 0.01 0 0 -0.01zm0.64 -1.88c-0.09,0.31 -0.19,0.61 -0.29,0.92 -0.1,0.32 -0.19,0.66 -0.35,0.95l0 0.02 0 0c0.02,-0.01 0.03,-0.02 0.04,-0.04l0 0c0.21,-0.29 0.37,-0.6 0.45,-0.96 0.07,-0.29 0.1,-0.59 0.15,-0.89zm0 0.23l0 0 0 0c-0.08,0.58 -0.24,1.13 -0.58,1.61l0 0c0.4,-0.31 0.57,-0.71 0.58,-1.23 0,-0.13 0,-0.26 0,-0.38l0 0 0 0zm0.03 -0.44c-0.19,0.32 -0.38,0.65 -0.51,1 -0.11,0.33 -0.14,0.68 -0.16,1.03 0.28,-0.64 0.44,-1.32 0.66,-1.97 0,-0.02 0.01,-0.04 0.01,-0.06zm-1.43 4.87l-0.12 0c-0.02,-0.09 -0.05,-0.19 -0.08,-0.28l0.01 -0.05 0.02 -0.17c0.08,0.16 0.14,0.33 0.17,0.5zm-0.19 0l-0.03 0c-0.01,-0.02 -0.01,-0.03 -0.02,-0.05l0.01 -0.05c0.02,0.03 0.03,0.06 0.04,0.1zm0.74 -0.81c0.07,-0.06 0.14,-0.12 0.21,-0.19 0.03,-0.03 0.07,-0.06 0.1,-0.09 -0.1,0.1 -0.2,0.2 -0.31,0.28zm6.9 -2.55c-0.56,0 -1.16,-0.3 -1.65,-0.56l-0.01 0c-0.03,-0.01 -0.04,-0.06 0,-0.08l0.01 0 0.01 -0.01c0.42,-0.18 0.8,-0.41 1.26,-0.41 0.06,0 0.11,0.01 0.17,0.02 0.04,0 0.07,0.01 0.1,0.01 0.01,0.05 0.02,0.09 0.03,0.13 -0.05,-0.01 -0.1,-0.02 -0.15,-0.03 -0.05,0 -0.1,-0.01 -0.15,-0.01 -0.34,0 -0.63,0.15 -0.94,0.27 0.28,-0.09 0.57,-0.15 0.87,-0.15 0.03,0 0.06,0 0.09,0 0.1,0.01 0.2,0.02 0.31,0.04 0,0.01 0,0.02 0,0.03 -0.1,-0.02 -0.21,-0.04 -0.31,-0.04 -0.03,0 -0.07,0 -0.1,0 -0.33,0 -0.64,0.07 -0.95,0.17 0.25,-0.03 0.51,-0.05 0.76,-0.05 0.21,0 0.42,0.01 0.63,0.03 0,0.01 0,0.01 0,0.02 -0.2,-0.02 -0.4,-0.02 -0.61,-0.02 -0.28,0 -0.57,0.01 -0.86,0.04l-0.01 0c0.43,0.23 0.89,0.37 1.35,0.37 0.07,0 0.13,0 0.2,-0.01 0,0.01 0,0.02 0.01,0.03 -0.08,0 -0.15,0.01 -0.23,0.01 -0.03,0 -0.07,0 -0.1,0 -0.21,-0.01 -0.42,-0.06 -0.63,-0.13 -0.12,-0.04 -0.25,-0.08 -0.38,-0.14l0 0c0.32,0.17 0.64,0.34 1,0.37 0.04,0 0.08,0 0.12,0 0.08,0 0.15,0 0.23,-0.02 0,0.06 0,0.1 0,0.12 -0.02,0 -0.04,0 -0.07,0zm-1.51 -0.59l0 0 0.01 0.01 0 0 -0.01 -0.01 0 0 0 0zm1.28 -0.97c-0.38,-0.43 -0.71,-0.89 -0.96,-1.39l-0.02 -0.01c-0.97,-0.37 -1.44,-1.12 -1.43,-2.13 -0.01,-0.01 -0.01,-0.02 -0.02,-0.03 -0.01,-0.01 0.01,-0.03 0.02,-0.03 0.01,0 0.01,0 0.02,0.01 0.35,0.31 0.78,0.58 1.08,0.92 0.03,0.12 0.05,0.21 0.06,0.27 -0.1,-0.18 -0.25,-0.35 -0.43,-0.5 -0.1,-0.08 -0.2,-0.15 -0.3,-0.23 0.41,0.42 0.75,0.89 0.91,1.46l0 0c0,-0.25 -0.05,-0.48 -0.15,-0.67l0.12 -0.01c0.11,0.21 0.15,0.45 0.1,0.74 0.29,0.43 0.59,0.84 0.91,1.22 0.03,0.13 0.06,0.26 0.09,0.38zm-2.36 -3.47l0 0c0.11,0.42 0.12,0.84 0.39,1.2 0.23,0.32 0.55,0.53 0.89,0.7l0 0c-0.01,-0.02 -0.02,-0.04 -0.03,-0.06 -0.28,-0.23 -0.55,-0.45 -0.74,-0.75 -0.21,-0.33 -0.37,-0.7 -0.49,-1.07l-0.02 -0.02zm1.29 1.88l0 0.01 0 0 0 -0.01 0 0 0 0zm-1.1 -1.66c0.19,0.25 0.37,0.52 0.56,0.78 0.19,0.28 0.4,0.56 0.53,0.87l0.01 0.01c0,-0.02 0,-0.04 0,-0.05l0 0c-0.1,-0.35 -0.25,-0.67 -0.48,-0.95 -0.19,-0.24 -0.41,-0.44 -0.62,-0.66zm-0.14 -0.16c0.14,0.35 0.28,0.7 0.48,1.01 0.19,0.3 0.45,0.53 0.71,0.76 -0.34,-0.61 -0.77,-1.15 -1.15,-1.73 -0.01,-0.01 -0.03,-0.03 -0.04,-0.04zm-5.13 2.33c0,-0.02 -0.01,-0.04 -0.02,-0.06 0,-0.01 0,-0.02 -0.01,-0.03 0.29,-0.28 0.58,-0.59 0.72,-0.9 0.19,-0.43 0.09,-0.92 0.06,-1.38 -0.04,0.47 -0.07,0.97 -0.27,1.4 -0.13,0.29 -0.32,0.55 -0.53,0.8 0,-0.01 0,-0.02 -0.01,-0.03 0,0 0,0 0,0 0.19,-0.23 0.37,-0.48 0.5,-0.74 0.21,-0.43 0.23,-0.93 0.28,-1.41 -0.31,0.6 -0.59,1.23 -0.84,1.86 -0.01,-0.01 -0.01,-0.03 -0.01,-0.04 0.25,-0.63 0.54,-1.24 0.85,-1.83 0.01,-0.02 0.01,-0.03 0.01,-0.05 -0.03,0.04 -0.05,0.07 -0.08,0.1 -0.35,0.52 -0.61,1.06 -0.8,1.64 -0.01,-0.04 -0.01,-0.07 -0.01,-0.11 0.17,-0.48 0.41,-0.95 0.69,-1.39 -0.24,0.27 -0.5,0.52 -0.65,0.87 -0.02,0.04 -0.03,0.08 -0.05,0.12 0,-0.02 0.01,-0.04 0.01,-0.06 0,-0.01 0,-0.03 0,-0.04 0,-0.03 0.01,-0.06 0.01,-0.1 0.01,-0.01 0.01,-0.03 0.01,-0.05 0.01,-0.03 0.01,-0.07 0.02,-0.11 0.01,-0.03 0.02,-0.06 0.03,-0.09 0.21,-0.36 0.52,-0.63 0.83,-0.9l0.01 -0.01 0.01 -0.01c0.02,-0.01 0.04,-0.03 0.06,-0.05 0.15,-0.42 0.31,-0.85 0.49,-1.27 -0.24,0.26 -0.48,0.53 -0.76,0.73 0.01,-0.02 0.02,-0.04 0.03,-0.05 0.04,-0.08 0.08,-0.15 0.12,-0.22 0,-0.01 0,-0.01 0,-0.01 0.21,-0.16 0.4,-0.35 0.58,-0.52 -0.15,0.13 -0.32,0.24 -0.48,0.35 0,0 0,0 0,0 0,0 0,0 0,0 0,-0.01 0.01,-0.02 0.01,-0.03 0,0 0,0 0,0 0.17,-0.12 0.33,-0.24 0.49,-0.38 -0.11,0.04 -0.22,0.08 -0.33,0.11 0.01,-0.01 0.02,-0.03 0.02,-0.04 0.12,-0.04 0.23,-0.07 0.35,-0.1 -0.09,0 -0.17,-0.01 -0.26,-0.01 -0.01,0 -0.02,0 -0.02,0l0.01 -0.01c0.09,0 0.18,0 0.28,0.02 0,-0.01 0.01,-0.01 0.02,-0.02 -0.09,-0.02 -0.19,-0.04 -0.27,-0.06 0,0 0,0 0,0 0.01,-0.02 0.03,-0.05 0.04,-0.07 0,0 0,0 0,0 0.08,0.02 0.17,0.06 0.26,0.1l0 0c0.46,-1.04 1.01,-2.05 1.67,-2.96 0.01,-0.01 0.02,-0.02 0.02,-0.02 0.15,-0.13 0.29,-0.25 0.43,-0.35 -1.15,1.47 -1.9,3.19 -2.68,4.89l0 0.01c0.03,0.51 0.19,1.09 -0.01,1.58 -0.16,0.37 -0.49,0.67 -0.83,0.93zm2.29 -0.1c-0.01,0 -0.03,-0.01 -0.02,-0.02 0.07,-0.86 -0.15,-1.85 0.74,-2.31 0.19,-0.55 0.35,-1.09 0.47,-1.64 -0.39,0.77 -0.93,1.28 -1.84,1.58 0,0.01 -0.01,0.01 -0.02,0.01 -0.01,0 -0.03,0 -0.03,-0.01l0 -0.02 -0.01 0c0.07,-0.6 0.39,-1.25 0.82,-1.68 0.28,-0.29 0.61,-0.39 0.98,-0.39 0.07,0 0.14,0.01 0.2,0.01 0.16,-0.94 0.18,-1.9 0.02,-2.9 0.03,-0.02 0.07,-0.05 0.1,-0.07 0.1,0.54 0.15,1.1 0.15,1.66 0.01,0.02 0.01,0.04 0.01,0.06 1.11,0.07 1.33,1.28 1.48,2.16l0 0.01c0.02,0.02 -0.01,0.05 -0.04,0.05 0,0 -0.01,0 -0.02,0l0 -0.01 -0.02 0c-0.44,-0.26 -0.91,-0.44 -1.18,-0.91 -0.13,-0.23 -0.21,-0.5 -0.25,-0.78 -0.06,0.95 -0.27,1.88 -0.68,2.72l0.01 0.02c0.28,0.99 -0.03,1.82 -0.84,2.42 -0.01,0.01 -0.01,0.02 -0.01,0.03 0,0.01 -0.01,0.01 -0.02,0.01zm0.8 -2.28c-0.01,0.02 -0.02,0.04 -0.03,0.06 -0.02,0.35 -0.04,0.7 -0.16,1.04 -0.14,0.37 -0.34,0.72 -0.56,1.04 0,0.01 0,0.02 0,0.03l0 0c0.27,-0.35 0.59,-0.6 0.72,-1.04 0.11,-0.38 0.1,-0.76 0.03,-1.13l0 0zm-0.04 0.07c-0.28,0.63 -0.45,1.31 -0.69,1.96 0,0.02 0,0.04 -0.01,0.06 0.2,-0.32 0.39,-0.65 0.52,-1 0.13,-0.32 0.16,-0.67 0.18,-1.02zm-0.04 -0.04c-0.21,0.29 -0.37,0.61 -0.46,0.96 -0.07,0.29 -0.11,0.59 -0.16,0.89 0.1,-0.31 0.2,-0.61 0.3,-0.92 0.1,-0.32 0.2,-0.65 0.37,-0.95l0 -0.01c-0.02,0.01 -0.03,0.02 -0.05,0.03l0 0zm-0.01 0.02c-0.41,0.3 -0.59,0.7 -0.61,1.22 0,0.13 0,0.25 0,0.37 0.09,-0.57 0.26,-1.12 0.61,-1.59zm0.06 -0.05l0 0.01 0.01 -0.01 -0.01 0zm0.41 -2.08c-0.41,0.08 -0.77,0.27 -1.06,0.57 -0.35,0.38 -0.47,0.87 -0.73,1.3l0.02 -0.01c0.24,-0.38 0.54,-0.73 0.85,-1.05 0.14,-0.14 0.29,-0.28 0.43,-0.41 -0.14,0.14 -0.28,0.3 -0.41,0.43 -0.3,0.31 -0.57,0.63 -0.82,0.98 0.32,-0.26 0.68,-0.47 0.98,-0.78 0.3,-0.31 0.55,-0.67 0.79,-1.04 -0.01,0 -0.02,0.01 -0.03,0.01 -0.06,0.03 -0.13,0.08 -0.19,0.12 0.05,-0.04 0.11,-0.08 0.17,-0.12zm0.07 -0.01c-0.24,0.36 -0.48,0.72 -0.77,1.03 -0.3,0.33 -0.68,0.58 -1.04,0.83l-0.01 0.02c0.32,-0.19 0.68,-0.34 0.97,-0.58 0.41,-0.34 0.62,-0.83 0.86,-1.3l-0.01 0zm-0.2 0.01c-0.49,0.05 -0.81,0.21 -1.14,0.7 -0.24,0.36 -0.36,0.73 -0.5,1.12 0.24,-0.46 0.38,-0.96 0.76,-1.33 0.25,-0.24 0.55,-0.41 0.88,-0.49zm1.89 0.7l0 0.01 0 0 0 -0.01 0 0zm-1.34 -1.93l0 0c0.33,0.72 0.78,1.35 1.32,1.93l0.01 0c-0.13,-0.83 -0.55,-1.6 -1.34,-1.95l0 0 0.01 0.02zm0.01 0.05c0.13,0.37 0.26,0.76 0.48,1.09 0.2,0.3 0.48,0.53 0.77,0.74 -0.52,-0.53 -0.94,-1.16 -1.25,-1.83zm0.02 0.12l0 0c0.05,0.33 0.1,0.65 0.27,0.95 0.2,0.35 0.54,0.52 0.87,0.72l0 0c-0.26,-0.19 -0.51,-0.41 -0.7,-0.68 -0.2,-0.29 -0.34,-0.64 -0.44,-0.99l0 0zm-0.04 -0.2l0 0c0.37,0.16 0.68,0.41 0.91,0.74 0.12,0.18 0.21,0.38 0.28,0.58 0.04,0.12 0.08,0.25 0.12,0.38 -0.06,-0.35 -0.12,-0.71 -0.31,-1 -0.24,-0.39 -0.59,-0.57 -1,-0.71l0 0.01zm-0.9 1.66c0.11,-0.1 0.21,-0.19 0.32,-0.28 -0.07,0.06 -0.14,0.12 -0.21,0.19 -0.04,0.03 -0.07,0.06 -0.11,0.09zm2.12 -1.19c-0.02,0 -0.03,-0.01 -0.03,-0.02l0.01 -0.01c0.02,-0.42 0.06,-0.82 0.19,-1.18 0.01,0.08 0.02,0.17 0.02,0.26 0,0 0,0.01 0.01,0.01 -0.07,0.25 -0.12,0.51 -0.16,0.77 0,-0.02 0.01,-0.03 0.02,-0.05 0.03,-0.2 0.08,-0.4 0.15,-0.59 0,0.01 0,0.02 0,0.03 0,0 0,0 0,0 0,0 0,0 0,0 -0.05,0.16 -0.09,0.32 -0.12,0.48 0.04,-0.1 0.09,-0.21 0.14,-0.31 0,0.01 0,0.02 0,0.03 -0.05,0.12 -0.11,0.25 -0.16,0.38 -0.01,0.02 -0.02,0.05 -0.02,0.08 0.07,-0.07 0.14,-0.15 0.21,-0.22 0,0.01 0,0.01 0.01,0.02 0,0 0,0 0,0 -0.08,0.08 -0.15,0.14 -0.22,0.21l-0.01 0.02c0.08,-0.07 0.15,-0.13 0.23,-0.19 0,0.03 0.01,0.06 0.01,0.09 0,0 0,0.01 0.01,0.02 -0.1,0.06 -0.19,0.11 -0.28,0.16 -0.01,0.01 -0.01,0.01 -0.01,0.01zm0.02 -0.09l0 0 0 0.01 0.01 0 0 -0.02 -0.01 0.01zm0.01 -0.03l0 0c0,0.01 0,0.01 0,0.02l0.01 -0.01c0,-0.01 0,-0.03 0,-0.04 0,0.01 0,0.02 -0.01,0.03z"/>
   <path class="fil6" d="M28.43 33.65c0.56,0.06 1.11,0.13 1.65,0.27 0.27,0.07 0.53,0.15 0.79,0.24 0.13,0.04 0.26,0.08 0.4,0.12 0.13,0.04 0.28,0.07 0.42,0.08 0.01,0 0.01,0.02 0,0.02 -0.14,0 -0.27,0 -0.41,-0.01 -0.13,-0.01 -0.26,-0.04 -0.39,-0.07 -0.27,-0.07 -0.54,-0.15 -0.81,-0.22 -0.55,-0.14 -1.1,-0.28 -1.65,-0.38 -0.03,-0.01 -0.02,-0.05 0,-0.05z"/>
   <path class="fil6" d="M27.07 34.14c0.45,-0.04 0.91,-0.07 1.37,-0.06 0.23,0 0.46,0.01 0.68,0.04 0.11,0.01 0.22,0.02 0.33,0.03 0.12,0.02 0.24,0.05 0.36,0.06 0.01,0 0.01,0.02 0,0.02 -0.12,-0.01 -0.23,0 -0.34,0 -0.12,0 -0.23,-0.01 -0.35,-0.01 -0.23,0 -0.45,-0.01 -0.68,-0.01 -0.46,-0.02 -0.92,-0.03 -1.38,-0.03 -0.02,0 -0.02,-0.04 0.01,-0.04z"/>
   <path class="fil15" d="M33 26.28c3.09,3.93 6.59,11.24 5.6,12.66 -1.1,1.58 -5.48,-3.37 -5.3,-3.6 0.15,-0.19 -1.16,-4.92 -2.08,-8.36 -0.93,-3.43 1.02,-1.67 1.78,-0.7z"/>
   <path class="fil10" d="M36.79 31l-5.01 0.42c0,0 -0.9,-3.62 -0.96,-5.58 -0.03,-1.1 0.61,-1.09 1.36,-0.43 2.62,2.29 4.61,5.59 4.61,5.59z"/>
   <path class="fil11" d="M30.94 27.14c0,0 0,0 0,0 0,0 0,0 0,0 0,0 0,0 0,0 0,0 0,0 0,0z"/>
   <path class="fil17" d="M30.95 27.23c0,-0.03 -0.01,-0.06 -0.01,-0.09 0,0 0,0 0,0 0,0.03 0.01,0.06 0.01,0.09z"/>
   <path class="fil11" d="M30.93 27.08c0,0 0,0 0,0 0,0 0,0 0,0l0 0c0,0 0,0 0,0z"/>
   <path class="fil17" d="M30.94 27.1c-0.01,-0.01 -0.01,-0.01 -0.01,-0.02 0,0 0,0 0,0 0,0.01 0,0.01 0.01,0.02z"/>
   <path class="fil11" d="M30.9 26.84c0,0 0,0 0,0 0,0 0,0 0,0 0,0 0,0 0,0 0,0 0,0 0,0zm0 -0.03c0,0 0,0 0,0 0,0 0,0 0,0 0,0 0,0 0,0 0,0 0,0 0,0z"/>
   <path class="fil17" d="M30.9 26.84c0,-0.01 0,-0.02 0,-0.03 0,0 0,0 0,0 0,0.01 0,0.02 0,0.03 0,0 0,0 0,0z"/>
   <path class="fil11" d="M30.88 26.61c0,0 0,0 0,0 0,0 0,0 0,0 0,0 0,0 0,0 0,0 0,0 0,0z"/>
   <path class="fil17" d="M30.88 26.64c0,-0.01 0,-0.02 0,-0.03 0,0 0,0 0,0 0,0.01 0,0.02 0,0.03 0,0 0,0 0,0z"/>
   <path class="fil11" d="M30.84 26.21c0,0 0,0 0,0 0,0 0,0 0,0 0,0 0,0 0,0 0,0 0,0 0,0z"/>
   <path class="fil17" d="M30.86 26.47c0,-0.09 -0.01,-0.18 -0.02,-0.26 0,0 0,0 0,0 0.01,0.08 0.02,0.17 0.02,0.26z"/>
   <path class="fil16" d="M31.82 25.14c-0.02,-0.02 -0.04,-0.03 -0.06,-0.04 0,0 0,0 0,0 0.02,0.01 0.04,0.02 0.06,0.04z"/>
   <path class="fil18" d="M32.82 31.33l0.09 -0.01c0,0 0,0 0,0l-0.09 0.01zm0.17 -0.01c0,0 0,0 0,0l0.02 -0.01c0,0 0,0 0,0l-0.02 0.01zm0.04 -0.01c0,0 0,0 0,0l0.09 0 -0.09 0zm0.78 -0.06c0,0 0,0 0,0l0.12 -0.01c0,0 0,0 0,0l-0.12 0.01zm0.3 -0.03c0,0 0,0 0,0l0.1 0c0,0 0,0 0,0l-0.1 0zm0.15 -0.01c0,0 0,0 0,0l0.02 0c0,0 0,0 0,0l-0.02 0zm0.22 -0.02l0 0 0.04 0c0,0 0,0 0,0l-0.04 0zm0.23 -0.02c0,0 0,0 0,0l0.02 0c0,0 0,0 0,0l-0.02 0zm0.15 -0.01l0.16 -0.01c0,0 0,0 0,0l-0.16 0.01z"/>
   <path class="fil11" d="M31.79 31.41c-0.01,-0.01 -0.02,-0.03 -0.03,-0.05 -0.01,-0.06 -0.03,-0.15 -0.06,-0.27 0.08,0.09 0.16,0.2 0.21,0.31l-0.12 0.01zm1.02 -0.08c0.02,-0.08 0.05,-0.15 0.08,-0.23 -0.02,-0.02 0,-0.05 0.02,-0.05 0,0 0.01,0 0.01,0.01l0.01 0 0 0c0.08,0.08 0.16,0.16 0.22,0.24l-0.03 0.01 -0.09 0c-0.02,-0.02 -0.04,-0.05 -0.06,-0.08 0.01,0.03 0.03,0.06 0.04,0.08l-0.02 0.01c-0.02,-0.05 -0.04,-0.09 -0.05,-0.14l0 0.02c0.01,0.04 0.02,0.08 0.04,0.12l-0.03 0c0,-0.01 0,-0.03 -0.01,-0.04 0,0.01 0,0.03 0,0.04l-0.02 0c0,-0.03 0.01,-0.05 0.01,-0.08l-0.01 -0.02c0,0.03 -0.01,0.07 -0.01,0.1l-0.09 0.01 -0.01 0zm1 -0.08c-0.14,-0.26 -0.28,-0.52 -0.42,-0.78l-0.01 0c-0.42,-0.29 -0.98,-0.5 -1.25,-0.96 -0.29,-0.5 -0.25,-1.2 -0.24,-1.75l0.02 -0.01c0.46,0.35 0.95,0.74 1.23,1.24 0.25,0.44 0.29,0.93 0.32,1.41l0 0.01 0 0.02c0,0.02 0,0.05 0,0.07 0.17,0.24 0.32,0.49 0.47,0.74l-0.12 0.01zm-1.82 -3.37c0.52,0.76 0.95,1.58 1.35,2.41 0.01,0.01 0.02,0.02 0.03,0.03 -0.01,-0.04 -0.03,-0.08 -0.04,-0.13 -0.29,-0.86 -0.76,-1.61 -1.34,-2.31zm-0.07 -0.08c0.05,0.49 0.09,1.2 0.34,1.63 0.23,0.41 0.68,0.63 1.07,0.88 -0.35,-0.32 -0.74,-0.64 -0.96,-1.06 -0.24,-0.44 -0.34,-0.97 -0.45,-1.45zm0.02 0.02c0.13,0.46 0.21,0.96 0.43,1.38 0.22,0.43 0.61,0.75 0.95,1.08 -0.4,-0.85 -0.88,-1.66 -1.38,-2.46zm0.05 0.03c0.58,0.61 1.01,1.37 1.3,2.16 -0.07,-0.35 -0.11,-0.71 -0.3,-1.04 -0.26,-0.45 -0.62,-0.78 -1,-1.12zm2.12 3.37c-0.05,-0.29 -0.07,-0.59 -0.03,-0.87 0.09,-0.53 0.69,-1.52 0.69,-1.52l0.01 0.01 0 0 0 0c0.01,0.01 0.02,0.05 0.02,0.06 0.2,0.76 0.49,1.6 0.22,2.25l-0.16 0.01 -0.01 0c0.14,-0.26 0.2,-0.56 0.17,-0.92 -0.01,-0.2 -0.05,-0.4 -0.1,-0.6 0.05,0.33 0.07,0.65 0,0.98 -0.04,0.19 -0.11,0.38 -0.19,0.55l-0.02 0c0.1,-0.2 0.18,-0.42 0.21,-0.65 0.06,-0.44 -0.03,-0.89 -0.1,-1.33 0,0.15 -0.01,0.31 -0.01,0.46 -0.01,0.24 -0.03,0.48 -0.07,0.71 -0.04,0.28 -0.13,0.56 -0.22,0.83l-0.04 0c0.1,-0.27 0.19,-0.54 0.24,-0.83 0.07,-0.43 0.1,-0.92 0.05,-1.36 -0.16,0.59 -0.45,1.12 -0.47,1.75l0 0c0.01,-0.61 0.25,-1.24 0.46,-1.81l0 -0.02c-0.17,0.44 -0.42,0.82 -0.52,1.31 -0.07,0.3 -0.06,0.65 -0.03,0.99l-0.1 0zm0.15 -0.01c0.01,-0.11 0.01,-0.22 0.03,-0.32l0 0c0,0.11 -0.01,0.21 -0.01,0.32l-0.02 0zm-3.3 -3.96c-0.01,-0.01 -0.01,-0.02 -0.01,-0.02 0,-0.03 -0.01,-0.06 -0.01,-0.09 0,0 0,0 0,0 0.23,-0.17 0.46,-0.34 0.63,-0.57 0.28,-0.36 0.26,-0.84 0.16,-1.27l0 0 0 0c-0.02,0.37 -0.07,0.75 -0.24,1.09 -0.14,0.27 -0.34,0.5 -0.55,0.71 0,0 0,0 0,0 -0.01,-0.01 -0.01,-0.01 -0.01,-0.02l0 0c0.19,-0.2 0.37,-0.4 0.5,-0.64 0.2,-0.35 0.25,-0.73 0.28,-1.11 -0.19,0.25 -0.34,0.53 -0.48,0.81l0 0c0.13,-0.3 0.3,-0.56 0.48,-0.82l0 -0.02c-0.25,0.25 -0.48,0.55 -0.64,0.87 -0.08,0.15 -0.14,0.31 -0.19,0.47 0,-0.01 0,-0.02 0,-0.03 0,0 0,0 0,0 0.16,-0.51 0.42,-0.97 0.83,-1.33l-0.02 0c-0.37,0.29 -0.65,0.53 -0.78,1.02 -0.02,0.06 -0.03,0.12 -0.04,0.18 -0.01,0 -0.01,-0.01 -0.01,-0.01 0,-0.09 -0.01,-0.18 -0.02,-0.26 0,0 0,0 0,0 0.15,-0.41 0.4,-0.75 0.84,-0.99 0.03,-0.04 0.06,-0.08 0.08,-0.12 0.02,0.01 0.04,0.02 0.06,0.04 0,0 0,0 0.01,0 -0.01,0.01 -0.02,0.03 -0.03,0.04l0 0.01c0.1,0.41 0.17,0.91 -0.03,1.31 -0.16,0.31 -0.5,0.55 -0.81,0.75zm-0.06 -0.41c0,0 0,0 0,0 0,-0.01 0,-0.02 0,-0.03 0,0 0,0 0,0 0.06,-0.14 0.13,-0.27 0.2,-0.4l0 0c-0.07,0.14 -0.13,0.28 -0.2,0.43z"/>
   <path class="fil6" d="M31.89 30.61c0.76,-0.13 2.85,-0.41 4.23,-0.42 0.01,0 0.01,0.03 0.01,0.03 -1.15,0.18 -3.46,0.38 -4.24,0.44 -0.01,0 -0.02,-0.05 0,-0.05z"/>
   <path class="fil6" d="M32.39 31.37c-0.21,0 -0.41,0 -0.62,0.01l0.04 0.03c-0.09,-0.55 -0.2,-1.1 -0.33,-1.65 -0.12,-0.54 -0.26,-1.08 -0.42,-1.62 0.08,0.55 0.18,1.1 0.29,1.65 0.12,0.55 0.24,1.09 0.39,1.63l0.01 0.04 0.03 -0.01c0.2,-0.02 0.4,-0.05 0.61,-0.08z"/>
   <path class="fil6" d="M31.28 29.23c-0.03,-0.11 -0.08,-0.22 -0.14,-0.32 -0.05,-0.11 -0.12,-0.21 -0.19,-0.3 0,0.06 0.02,0.12 0.04,0.17 0.02,0.06 0.05,0.11 0.07,0.16 0.06,0.11 0.13,0.21 0.22,0.29z"/>
   <path class="fil15" d="M31 25.46c-0.03,0.24 -0.95,1.87 -2.02,1.95 -0.34,0.02 -0.56,-1.86 -0.56,-1.86l-0.04 -0.14 -0.67 -1.89 2.11 -1.74 0.31 -0.23c0,0 0.15,0.53 0.32,1.19 0.01,0.03 0.02,0.06 0.03,0.09 0.01,0.04 0.02,0.08 0.03,0.11 0.03,0.1 0.05,0.2 0.08,0.3 0.02,0.08 0.04,0.15 0.06,0.23 0.02,0.09 0.04,0.17 0.06,0.25 0.18,0.8 0.3,1.64 0.29,1.74z"/>
   <path class="fil6" d="M30.45 22.74c-0.37,1.62 -1.53,2.39 -2.07,2.67l-0.67 -1.89 2.11 -1.74 0.31 -0.23c0,0 0.15,0.53 0.32,1.19z"/>
   <path class="fil6" d="M30.65 21.9c0.07,0.07 0.11,0.16 0.14,0.25 0.14,0.42 -0.05,0.86 -0.29,1.2 -0.25,0.37 -0.61,0.7 -0.73,1.14 -0.05,0.17 -0.06,0.36 0.02,0.52 0.09,0.18 0.27,0.28 0.46,0.33 0.2,0.05 0.44,0.08 0.58,0.25 0.11,0.15 0.11,0.35 0.05,0.52 -0.13,0.44 -0.6,0.67 -0.88,1 -0.3,0.35 -0.49,0.79 -0.53,1.26 -0.05,0.43 0.05,0.87 0.25,1.25 0.09,0.19 0.22,0.37 0.37,0.52 0.16,0.17 0.36,0.3 0.53,0.46 0.16,0.15 0.31,0.35 0.31,0.58 -0.01,0.18 -0.37,0.73 -1.12,1 -0.06,0.02 -0.02,0.12 0.04,0.12 0.12,0 0.24,-0.01 0.36,-0.02 0.98,-0.1 1.87,-0.67 2.36,-1.53 0.26,-0.46 0.4,-0.98 0.41,-1.51 0.01,-0.29 0,-0.58 0.05,-0.87 0.05,-0.26 0.17,-0.49 0.34,-0.69 0.3,-0.39 0.7,-0.7 0.94,-1.14 0.21,-0.39 0.31,-0.84 0.31,-1.28 0,-0.94 -0.43,-1.82 -1.14,-2.42 -0.69,-0.6 -2.86,-0.98 -2.83,-0.94z"/>
   <path class="fil6" d="M30.67 21.92c0.11,0.16 0.2,0.34 0.22,0.53 0.02,0.17 -0.01,0.35 -0.07,0.51 -0.15,0.36 -0.42,0.63 -0.69,0.91 -0.25,0.26 -0.5,0.55 -0.55,0.91 -0.03,0.16 -0.02,0.33 0.04,0.47 0.08,0.17 0.22,0.27 0.38,0.34 0.3,0.12 0.71,0.18 0.83,0.53 0.11,0.35 -0.17,0.68 -0.38,0.92 -0.5,0.59 -1.23,1.27 -1.04,2.13 0.1,0.44 0.39,0.84 0.68,1.17 0.21,0.24 0.48,0.54 0.42,0.88 0,0.01 -0.02,0.01 -0.02,0 0.06,-0.37 -0.26,-0.62 -0.49,-0.85 -0.26,-0.28 -0.5,-0.61 -0.64,-0.96 -0.14,-0.37 -0.12,-0.75 0.03,-1.11 0.14,-0.37 0.39,-0.68 0.66,-0.98 0.13,-0.15 0.27,-0.3 0.4,-0.45 0.12,-0.14 0.23,-0.29 0.28,-0.47 0.05,-0.19 -0.03,-0.37 -0.19,-0.48 -0.15,-0.11 -0.34,-0.15 -0.52,-0.21 -0.15,-0.06 -0.3,-0.14 -0.4,-0.28 -0.09,-0.11 -0.13,-0.24 -0.15,-0.38 -0.04,-0.31 0.07,-0.61 0.25,-0.86 0.25,-0.36 0.62,-0.62 0.86,-0.98 0.13,-0.18 0.23,-0.4 0.24,-0.62 0.02,-0.24 -0.09,-0.44 -0.19,-0.64 -0.01,-0.03 0.03,-0.05 0.04,-0.03z"/>
   <path class="fil6" d="M33.89 22.84c0.72,0.59 1,1.58 0.84,2.48 -0.09,0.51 -0.32,0.98 -0.63,1.38 -0.29,0.38 -0.64,0.73 -0.85,1.17 -0.22,0.48 -0.14,1 -0.14,1.52 0,0.42 -0.09,0.83 -0.26,1.21 -0.34,0.73 -0.97,1.32 -1.72,1.59 -0.1,0.04 -0.2,0.07 -0.29,0.09 -0.02,0.01 -0.02,-0.01 -0.01,-0.02 0.78,-0.2 1.43,-0.78 1.81,-1.49 0.18,-0.34 0.3,-0.73 0.33,-1.12 0.03,-0.49 -0.07,-0.98 0.03,-1.46 0.09,-0.45 0.39,-0.82 0.68,-1.17 0.31,-0.38 0.62,-0.75 0.8,-1.22 0.32,-0.86 0.21,-1.88 -0.39,-2.6 -0.67,-0.81 -1.74,-1.05 -2.73,-1.15 -0.13,-0.01 -0.27,-0.03 -0.4,-0.04 -0.01,0 -0.02,-0.02 0,-0.02 1.02,0.05 2.12,0.17 2.93,0.85z"/>
   <path class="fil8" d="M30.85 21.38c0.16,0.04 0.33,0.2 0.33,0.3 0,0.11 -0.5,0.76 -0.71,0.78 -0.2,0.02 -0.28,-0.35 -0.28,-0.35l0.66 -0.73z"/>
   <path class="fil15" d="M24.56 20.99c0.37,3.51 2.51,3.68 3.26,3.6 0.69,-0.07 3.01,-0.41 3.01,-3.93 -0.01,-3.52 -1.75,-4.46 -3.33,-4.38 -1.58,0.08 -3.31,1.21 -2.94,4.71z"/>
   <path class="fil6" d="M24.95 20.61c0.08,-0.02 0.15,-0.05 0.22,-0.08 0.09,-0.04 0.16,-0.05 0.22,-0.13 0.03,-0.05 0.01,-0.12 -0.03,-0.15 -0.09,-0.08 -0.2,-0.07 -0.31,-0.03 -0.11,0.04 -0.19,0.1 -0.26,0.2 -0.06,0.1 0.05,0.22 0.16,0.19z"/>
   <path class="fil6" d="M27.32 20.24c-0.08,0.01 -0.16,-0.01 -0.24,-0.01 -0.1,-0.01 -0.17,0 -0.25,-0.06 -0.04,-0.03 -0.05,-0.11 -0.02,-0.15 0.06,-0.1 0.18,-0.12 0.29,-0.12 0.12,0 0.21,0.04 0.31,0.12 0.09,0.07 0.02,0.22 -0.09,0.22z"/>
   <path class="fil6" d="M26.9 21.18c0,-0.01 0.02,0.01 0.02,0.02 0.02,0.23 0.09,0.5 0.31,0.55l0 0.02c-0.26,-0.01 -0.35,-0.36 -0.33,-0.59z"/>
   <path class="fil6" d="M27.08 20.9c0.38,-0.08 0.5,0.68 0.15,0.76 -0.34,0.07 -0.47,-0.69 -0.15,-0.76z"/>
   <path class="fil6" d="M27.23 20.92c0.08,0.03 0.16,0.09 0.24,0.09 0.09,-0.01 0.15,-0.1 0.2,-0.19 0,-0.01 0.01,0 0.01,0.01 0.03,0.15 0,0.3 -0.16,0.35 -0.14,0.05 -0.26,-0.07 -0.32,-0.21 -0.01,-0.02 0.01,-0.07 0.03,-0.05z"/>
   <path class="fil6" d="M25.58 21.35c0,-0.01 -0.01,0.01 -0.01,0.02 0.05,0.23 0.07,0.51 -0.13,0.63l0 0.01c0.25,-0.08 0.23,-0.45 0.14,-0.66z"/>
   <path class="fil6" d="M25.33 21.14c-0.38,0.04 -0.28,0.8 0.08,0.76 0.35,-0.03 0.24,-0.79 -0.08,-0.76z"/>
   <path class="fil6" d="M25.18 21.21c-0.06,0.05 -0.11,0.13 -0.18,0.15 -0.08,0.01 -0.15,-0.06 -0.22,-0.13 0,-0.01 -0.01,0 -0.01,0.01 0.02,0.14 0.09,0.29 0.23,0.3 0.13,0.01 0.21,-0.13 0.22,-0.28 0.01,-0.03 -0.02,-0.07 -0.04,-0.05z"/>
   <path class="fil6" d="M27.43 22.9c-0.04,0.07 -0.07,0.16 -0.15,0.2 -0.07,0.03 -0.18,0.02 -0.26,0.02l-0.01 0.01c0.09,0.07 0.23,0.09 0.33,0.03 0.1,-0.05 0.12,-0.15 0.12,-0.25 0,-0.02 -0.02,-0.02 -0.03,-0.01z"/>
   <path class="fil6" d="M26.26 22.38c0,0 0.04,0.35 0.08,0.52 0.01,0.01 0.05,0.01 0.1,0l0.01 0c0.3,-0.03 0.56,-0.2 0.68,-0.48 0.01,-0.02 -0.02,-0.03 -0.03,-0.02 -0.17,0.21 -0.4,0.31 -0.66,0.38 -0.02,-0.04 -0.04,-0.61 -0.07,-0.61 -0.09,0.02 -0.25,0.12 -0.35,0.18 -0.1,-0.74 -0.08,-1.5 -0.19,-2.23 -0.01,-0.03 -0.05,-0.03 -0.05,0 -0.07,0.78 0.03,1.64 0.11,2.41 0.01,0.1 0.32,-0.11 0.37,-0.15z"/>
   <path class="fil6" d="M25.93 17.56c0,0 0.01,0.56 0.29,0.88 0.58,0.66 1.44,0.2 1.84,0.41 0.38,0.21 0.44,0.82 0.79,1.03 0.48,0.29 0.93,0 1.07,0.24 0.14,0.25 0.54,0.81 0.91,0.82 0.36,0.01 0.47,-5.87 -4.05,-4.65 0,0 -0.83,0.14 -1.46,0.74 -0.87,0.83 -0.83,2.84 -0.83,2.84 0,0 0.02,-0.03 0.13,-0.2 0.16,-0.25 0.19,-0.45 0.31,-0.61 0.19,-0.26 0.35,-0.23 0.55,-0.49 0.31,-0.39 0.45,-1.01 0.45,-1.01z"/>
   <path class="fil6" d="M25.92 17.3c0,0.24 0.02,0.48 0.07,0.71 0.04,0.23 0.12,0.46 0.28,0.63 0.15,0.16 0.38,0.23 0.61,0.25 0.23,0.02 0.47,-0.02 0.72,0 0.12,0.02 0.25,0.06 0.35,0.14 0.11,0.09 0.17,0.2 0.23,0.3 0.11,0.22 0.22,0.43 0.42,0.55 0.19,0.12 0.43,0.15 0.65,0.08 0.23,-0.06 0.45,-0.2 0.7,-0.16 -0.25,-0.02 -0.45,0.13 -0.68,0.21 -0.23,0.09 -0.5,0.07 -0.72,-0.06 -0.23,-0.12 -0.35,-0.36 -0.46,-0.57 -0.06,-0.1 -0.12,-0.2 -0.2,-0.26 -0.08,-0.07 -0.2,-0.1 -0.31,-0.11 -0.22,-0.03 -0.46,0.01 -0.71,-0.02 -0.12,-0.01 -0.24,-0.03 -0.36,-0.08 -0.11,-0.04 -0.23,-0.11 -0.31,-0.21 -0.16,-0.2 -0.23,-0.44 -0.27,-0.68 -0.03,-0.24 -0.03,-0.48 -0.01,-0.72z"/>
   <path class="fil6" d="M25.9 17.52c0.01,0.23 0,0.45 -0.04,0.67 -0.05,0.22 -0.14,0.45 -0.31,0.61 -0.08,0.09 -0.18,0.15 -0.27,0.21 -0.08,0.06 -0.16,0.14 -0.19,0.23 -0.03,0.09 -0.06,0.21 -0.12,0.31 -0.06,0.1 -0.14,0.18 -0.23,0.24 0.08,-0.08 0.15,-0.16 0.18,-0.26 0.05,-0.1 0.06,-0.21 0.09,-0.32 0.03,-0.13 0.12,-0.21 0.21,-0.29 0.09,-0.07 0.18,-0.12 0.25,-0.19 0.15,-0.15 0.24,-0.35 0.3,-0.56 0.06,-0.21 0.09,-0.43 0.13,-0.65z"/>
   <path class="fil15" d="M30.23 20.99c0,0 0.54,-1.23 1.08,-1.05 0.55,0.17 0.28,1.85 -0.25,2.17 -0.53,0.33 -0.85,-0.16 -0.85,-0.16l0.02 -0.96z"/>
   <path class="fil6" d="M31.23 20.41c0.01,0 0.01,0.01 0,0.02 -0.37,0.24 -0.51,0.66 -0.58,1.07 0.09,-0.17 0.24,-0.28 0.46,-0.18 0.02,0.01 0.01,0.02 0,0.02 -0.17,0 -0.29,0.05 -0.37,0.21 -0.06,0.11 -0.1,0.23 -0.13,0.35 -0.01,0.04 -0.08,0.04 -0.08,-0.01l0.01 -0.01c-0.11,-0.51 0.14,-1.31 0.69,-1.47z"/>
   <path class="fil15" d="M38.53 39.07c-1.17,0.71 -5.16,0.25 -10.49,-0.97 -0.74,-0.16 1.02,-5.27 1.82,-5.13 1,0.17 4.86,1.07 5.13,1.17 2.31,0.85 4.34,4.44 3.54,4.93z"/>
   <path class="fil15" d="M31.22 33.47c0,0 -0.32,-0.12 -1.91,-1.02 -1.1,-0.63 -4.18,-1.44 -6.93,0.8 -1.06,0.86 -0.92,1.98 0.34,1.28 0.88,-0.49 1.45,-0.91 1.79,-0.99 0,0 -0.6,1.43 -0.12,2.19 0.22,0.34 0.82,1.25 1.39,1.9 0,0 0.18,-0.09 0.38,-0.23 0,0 0.63,0.94 1.88,0.7l3.18 -4.63z"/>
   <path class="fil15" d="M28.17 32.02c-0.65,0.13 -2.02,0.44 -3.06,1.08 -1.15,0.71 -3.17,2.39 -2.63,3.23 0.39,0.62 1.21,0.05 1.21,0.05 0,0 -0.68,0.87 -0.21,1.35 0.43,0.43 1.05,-0.05 1.05,-0.05 0,0 -0.33,0.6 0.17,0.94 0.6,0.42 1.19,-0.91 2.15,-1.02 0.22,-0.02 1.32,-5.58 1.32,-5.58z"/>
   <path class="fil6" d="M26.07 34.19c-0.59,0.22 -1.8,1.08 -2.38,2.16 -0.01,0.02 0,0.05 0.02,0.03 0.88,-1.06 1.91,-1.87 2.36,-2.18l0 -0.01z"/>
   <path class="fil6" d="M26.75 35.37c-0.49,0.24 -1.7,1.18 -2.24,2.3 -0.01,0.02 0,0.04 0.02,0.02 0.88,-1.14 1.79,-1.97 2.23,-2.31l-0.01 -0.01z"/>
   <path class="fil6" d="M24.53 37.69c-0.66,0.48 -1.48,0.11 -1.17,-0.75 0.08,-0.21 0.19,-0.41 0.33,-0.58l0.03 0.04c-0.26,0.16 -0.57,0.31 -0.89,0.24 -0.33,-0.08 -0.52,-0.44 -0.46,-0.76 0.11,-0.64 0.63,-1.08 1.06,-1.51 0.3,-0.28 0.6,-0.56 0.94,-0.82l0.04 0.08c-0.3,0.14 -0.6,0.29 -0.88,0.45 -0.29,0.17 -0.54,0.39 -0.85,0.54 -0.93,0.48 -1.41,-0.12 -0.77,-0.94 0.78,-0.94 2.29,-1.66 3.49,-1.82 -1.16,0.18 -2.69,0.95 -3.43,1.86 -0.58,0.76 -0.19,1.26 0.68,0.82 0.3,-0.14 0.55,-0.37 0.83,-0.53 0.4,-0.24 0.84,-0.44 1.26,-0.62 -0.44,0.31 -0.86,0.67 -1.25,1.04 -0.42,0.42 -0.93,0.85 -1.04,1.46 -0.08,0.41 0.26,0.79 0.69,0.69 0.25,-0.04 0.48,-0.18 0.69,-0.32l-0.1 0.13c-0.24,0.32 -0.51,0.78 -0.34,1.19 0.22,0.43 0.79,0.35 1.14,0.11z"/>
   <path class="fil6" d="M36.85 35.54c-0.18,-0.2 -0.71,-0.85 -1.55,-1.27 -0.73,-0.37 -1.77,-0.56 -2.32,-0.63 -0.01,0 -0.02,0.02 0,0.02 0.47,0.16 1.42,0.36 2.21,0.74 0.82,0.4 1.47,0.97 1.65,1.15 0.01,0.01 0.02,0 0.01,-0.01z"/>
   <path class="fil2" d="M17.1 18.66c0,1.82 1.48,3.3 3.3,3.3 0.74,0 1.42,-0.24 1.97,-0.65l1.62 0.41 -0.67 -1.5c0.25,-0.47 0.39,-1 0.39,-1.56 0,-1.83 -1.48,-3.31 -3.31,-3.31 -1.82,0 -3.3,1.48 -3.3,3.31z"/>
   <path class="fil6" d="M17.1 18.66c-0.02,-2.13 2.05,-3.76 4.11,-3.23 1.51,0.35 2.61,1.81 2.54,3.35 -0.02,0.51 -0.15,1.01 -0.39,1.46l0 -0.04 0.67 1.51 0.03 0.07 -0.08 -0.02 -1.62 -0.42 0.03 0c-0.92,0.69 -2.21,0.83 -3.27,0.38 -1.21,-0.52 -2.03,-1.74 -2.02,-3.06zm0 0c0,1.22 0.72,2.41 1.83,2.94 1.08,0.55 2.47,0.43 3.44,-0.32l0.01 0 1.62 0.41 -0.04 0.05 -0.68 -1.5 -0.01 -0.02 0.01 -0.02c0.23,-0.44 0.36,-0.93 0.38,-1.42 0.08,-1.5 -0.99,-2.95 -2.46,-3.3 -2.05,-0.55 -4.11,1.06 -4.1,3.18z"/>
   <path class="fil10" d="M19.1 17.38c0.08,-0.08 0.21,-0.08 0.29,0 0.08,0.08 0.08,0.2 0,0.28 -0.08,0.08 -0.21,0.08 -0.29,0 -0.08,-0.08 -0.08,-0.2 0,-0.28zm-0.22 -0.22c-0.43,0.42 -0.43,1.11 0,1.53 0.42,0.43 1.11,0.43 1.54,0 0.42,-0.42 0.42,-1.11 0,-1.53 -0.43,-0.43 -1.12,-0.43 -1.54,0z"/>
   <polygon class="fil10" points="19.86,18.84 20.09,19.07 20.8,18.37 20.56,18.14 "/>
   <polygon class="fil0" points="20.68,18.48 20.21,18.96 20.32,19.07 20.52,19.01 20.46,19.21 20.65,19.41 20.92,19.35 20.86,19.61 20.91,19.66 21.1,19.6 21.04,19.79 21.24,19.73 21.18,19.93 21.33,20.08 21.6,20.03 21.54,20.29 21.68,20.43 22.21,20.48 22.15,19.95 "/>
   <polygon class="fil1" points="20.51,18.79 21.88,20.16 21.91,20.12 20.54,18.75 "/>
   <path class="fil11" d="M19.67 18.88c-0.49,0 -0.97,-0.39 -0.97,-0.96l0 0c0,0.56 0.47,0.94 0.95,0.94 0.07,0 0.15,-0.01 0.22,-0.03l-0.01 0.01 0.01 0.02c-0.06,0.01 -0.13,0.02 -0.2,0.02zm0.87 -0.72c0.08,-0.31 0,-0.66 -0.24,-0.89 -0.19,-0.19 -0.42,-0.28 -0.65,-0.28 -0.48,0 -0.95,0.37 -0.95,0.93 0,-0.57 0.48,-0.95 0.97,-0.95 0.23,0 0.47,0.08 0.66,0.27 0.24,0.24 0.33,0.59 0.25,0.92l-0.02 -0.02 -0.02 0.02z"/>
   <path class="fil11" d="M19.87 18.86l-0.01 -0.02 0.01 -0.01c0.15,-0.04 0.3,-0.12 0.43,-0.25 0.12,-0.12 0.2,-0.26 0.24,-0.42l0.02 -0.02 0.02 0.02c-0.04,0.16 -0.12,0.32 -0.25,0.44 -0.14,0.14 -0.29,0.22 -0.46,0.26z"/>
   <polygon class="fil7" points="17.97,38.85 30.19,38.85 30.19,38.31 17.97,38.31 "/>
   <polygon class="fil12" points="17.97,38.85 24.12,38.85 24.12,38.31 17.97,38.31 "/>
   <polygon class="fil12" points="23.75,38.85 11.84,38.85 10.28,30.76 22.19,30.76 "/>
   <polygon class="fil7" points="23.26,38.85 11.35,38.85 9.8,30.76 21.71,30.76 "/>
   <path class="fil2" d="M17.25 34.81c0.04,0.4 -0.26,0.72 -0.66,0.72 -0.4,0 -0.75,-0.32 -0.79,-0.72 -0.03,-0.4 0.27,-0.73 0.67,-0.73 0.4,0 0.75,0.33 0.78,0.73z"/>
  </g>
 </g>
</svg>
