<?xml version="1.0" encoding="UTF-8"?>
<!DOCTYPE svg PUBLIC "-//W3C//DTD SVG 1.1//EN" "http://www.w3.org/Graphics/SVG/1.1/DTD/svg11.dtd">
<!-- Creator: CorelDRAW 2020 (64-Bit) -->
<svg xmlns="http://www.w3.org/2000/svg" xml:space="preserve" width="300px" height="293px" version="1.1" style="shape-rendering:geometricPrecision; text-rendering:geometricPrecision; image-rendering:optimizeQuality; fill-rule:evenodd; clip-rule:evenodd"
viewBox="0 0 153.86 150.19"
 xmlns:xlink="http://www.w3.org/1999/xlink"
 xmlns:xodm="http://www.corel.com/coreldraw/odm/2003">
 <defs>
  <style type="text/css">
   <![CDATA[
    .fil11 {fill:black;fill-rule:nonzero}
    .fil5 {fill:#263138;fill-rule:nonzero}
    .fil8 {fill:#445964;fill-rule:nonzero}
    .fil1 {fill:#DFDFDF;fill-rule:nonzero}
    .fil7 {fill:#E95B11;fill-rule:nonzero}
    .fil12 {fill:#EB996E;fill-rule:nonzero}
    .fil2 {fill:#EBEBEB;fill-rule:nonzero}
    .fil3 {fill:#F4F4F4;fill-rule:nonzero}
    .fil0 {fill:#F9F9F9;fill-rule:nonzero}
    .fil6 {fill:#FF725D;fill-rule:nonzero}
    .fil10 {fill:#FFBD9C;fill-rule:nonzero}
    .fil4 {fill:white;fill-rule:nonzero}
    .fil9 {fill:black;fill-rule:nonzero;fill-opacity:0.301961}
   ]]>
  </style>
 </defs>
 <g id="Layer_x0020_1">
  <metadata id="CorelCorpID_0Corel-Layer"/>
  <g id="_2561948630864">
   <polygon class="fil0" points="135.04,102.79 3.74,102.79 3.74,0.09 135.04,0.09 "/>
   <path class="fil1" d="M135.04 102.79c0,-0.62 -0.03,-40.72 -0.08,-102.7l0.08 0.08c-37.41,0 -82.62,0.01 -131.29,0.01l-0.01 0 0.09 -0.09c0,37.03 -0.01,72.06 -0.01,102.7l-0.08 -0.08c77.96,0.05 130.59,0.08 131.3,0.08 -0.71,0.01 -53.34,0.04 -131.3,0.09l-0.08 0 0 -0.09c-0.01,-30.64 -0.01,-65.67 -0.01,-102.7l0 -0.09 0.09 0 0.01 0c48.67,0.01 93.88,0.01 131.29,0.02l0.07 0 0 0.07c-0.04,61.98 -0.07,102.08 -0.07,102.7z"/>
   <g>
    <g>
     <g>
      <g>
       <g>
        <g>
         <path class="fil2" d="M22.88 25.23l-7.74 0c-0.54,0 -0.97,-0.43 -0.97,-0.96l0 -10.72c0,-0.53 0.43,-0.97 0.97,-0.97l4.91 0 3.8 3.92 0 7.77c0,0.53 -0.44,0.96 -0.97,0.96z"/>
        </g>
       </g>
      </g>
     </g>
    </g>
   </g>
   <g>
    <g>
     <g>
      <g>
       <g>
        <g>
         <path class="fil3" d="M20.05 12.58l0 3.02c0,0.5 0.4,0.9 0.9,0.9l2.9 0 -3.8 -3.92z"/>
        </g>
       </g>
      </g>
     </g>
    </g>
   </g>
   <g>
    <g>
     <g>
      <g>
       <g>
        <g>
         <path class="fil1" d="M20.09 15.86c0,0 -0.04,0.73 0.79,0.97 0.03,0.01 0.07,0.02 0.1,0.03 0.38,0.06 2.87,0.51 2.87,0.45 0,-0.06 0,-0.81 0,-0.81l-2.9 0c0,0 -0.73,-0.03 -0.86,-0.64z"/>
        </g>
       </g>
      </g>
     </g>
    </g>
   </g>
   <g>
    <g>
     <g>
      <g>
       <g>
        <path class="fil1" d="M22.88 25.23c0,0 0.06,0.01 0.17,-0.02 0.1,-0.02 0.27,-0.06 0.44,-0.2 0.16,-0.13 0.33,-0.37 0.34,-0.68 0.01,-0.32 0,-0.68 0,-1.08 0,-1.63 -0.01,-3.95 -0.01,-6.75l0.01 0.02c-1.15,-1.18 -2.44,-2.51 -3.81,-3.91l0.03 0.01c-0.91,0 -1.86,0 -2.84,0 -0.48,0 -0.98,0 -1.48,0 -0.12,0 -0.25,0 -0.37,0 -0.13,0 -0.26,-0.01 -0.37,0.01 -0.25,0.04 -0.47,0.18 -0.61,0.38 -0.1,0.14 -0.16,0.3 -0.17,0.47 -0.01,0.18 0,0.36 -0.01,0.53 0,0.35 0,0.7 0,1.05 0,0.69 0,1.37 0,2.04 0,1.34 0,2.63 0,3.86 0,0.62 0,1.22 0,1.8 0,0.29 0,0.58 0,0.86 0,0.14 0,0.28 0,0.42 0,0.14 -0.01,0.28 0.02,0.41 0.05,0.26 0.21,0.49 0.43,0.62 0.11,0.07 0.24,0.11 0.36,0.13 0.12,0.01 0.26,0.01 0.38,0.01 0.51,0 1,0 1.46,0 1.86,0.01 3.37,0.01 4.41,0.01 0.52,0 0.93,0.01 1.2,0.01 0.14,0 0.24,0 0.31,0 0.07,0 0.11,0 0.11,0 0,0 -0.04,0.01 -0.11,0.01 -0.07,0 -0.17,0 -0.31,0 -0.27,0 -0.68,0.01 -1.2,0.01 -1.04,0 -2.55,0 -4.41,0.01 -0.46,0 -0.95,0 -1.46,0 -0.13,0 -0.25,0.01 -0.39,-0.01 -0.13,-0.02 -0.26,-0.06 -0.37,-0.13 -0.24,-0.14 -0.42,-0.38 -0.47,-0.66 -0.03,-0.14 -0.02,-0.28 -0.02,-0.42 0,-0.14 0,-0.28 0,-0.42 0,-0.28 0,-0.57 0,-0.86 0,-0.58 0,-1.18 0,-1.8 0,-1.23 0,-2.52 0,-3.86 0,-0.67 0,-1.35 0,-2.04 0,-0.35 0,-0.7 0,-1.05 0,-0.18 -0.01,-0.35 0,-0.53 0.01,-0.18 0.08,-0.36 0.18,-0.51 0.16,-0.22 0.4,-0.37 0.65,-0.41 0.14,-0.02 0.26,-0.01 0.39,-0.01 0.12,0 0.25,0 0.37,0 0.5,0 1,0 1.48,0 0.98,0 1.93,0 2.84,0l0.01 0 0.01 0.01c1.37,1.41 2.65,2.73 3.8,3.92l0.01 0.01 0 0.01c-0.01,2.8 -0.01,5.12 -0.02,6.75 0,0.4 0.01,0.76 0,1.08 -0.02,0.32 -0.2,0.56 -0.36,0.69 -0.18,0.14 -0.34,0.19 -0.45,0.2 -0.06,0.01 -0.1,0.01 -0.13,0.01 -0.03,0.01 -0.04,0 -0.04,0z"/>
       </g>
      </g>
     </g>
    </g>
   </g>
   <g>
    <g>
     <g>
      <g>
       <g>
        <path class="fil1" d="M23.85 16.5c0,0 -0.03,0 -0.08,0.01 -0.05,0 -0.12,0 -0.21,0 -0.19,0.01 -0.46,0.01 -0.79,0.01 -0.33,0.01 -0.72,0.01 -1.16,0.01 -0.22,0 -0.45,0 -0.69,0 -0.25,0 -0.5,-0.12 -0.67,-0.32 -0.09,-0.09 -0.15,-0.21 -0.19,-0.33 -0.04,-0.12 -0.05,-0.25 -0.05,-0.37 0.01,-0.24 0.01,-0.47 0.01,-0.69 0,-0.44 0,-0.83 0,-1.16 0.01,-0.33 0.01,-0.59 0.01,-0.79 0.01,-0.09 0.01,-0.16 0.01,-0.21 0,-0.05 0.01,-0.08 0.01,-0.08 0,0 0,0.03 0,0.08 0.01,0.05 0.01,0.12 0.01,0.21 0,0.2 0.01,0.46 0.01,0.79 0,0.33 0.01,0.72 0.01,1.16 0,0.22 0,0.45 0,0.69 -0.01,0.23 0.05,0.48 0.22,0.66 0.16,0.18 0.39,0.29 0.62,0.29 0.24,0.01 0.47,0.01 0.69,0.01 0.44,0 0.83,0 1.16,0.01 0.33,0 0.6,0 0.79,0.01 0.09,0 0.16,0 0.21,0 0.05,0 0.08,0.01 0.08,0.01z"/>
       </g>
      </g>
     </g>
    </g>
   </g>
   <path class="fil1" d="M19.9 15.27c0,0.02 -0.91,0.04 -2.04,0.04 -1.13,0 -2.04,-0.02 -2.04,-0.04 0,-0.02 0.91,-0.03 2.04,-0.03 1.13,0 2.04,0.01 2.04,0.03z"/>
   <path class="fil1" d="M21.84 16.78c0,0.02 -1.35,0.03 -3.01,0.03 -1.66,0 -3.01,-0.01 -3.01,-0.03 0,-0.02 1.35,-0.04 3.01,-0.04 1.66,0 3.01,0.02 3.01,0.04z"/>
   <path class="fil1" d="M21.84 18.28c0,0.02 -1.35,0.04 -3.01,0.04 -1.66,0 -3.01,-0.02 -3.01,-0.04 0,-0.02 1.35,-0.03 3.01,-0.03 1.66,0 3.01,0.01 3.01,0.03z"/>
   <path class="fil1" d="M21.84 19.79c0,0.02 -1.35,0.03 -3.01,0.03 -1.66,0 -3.01,-0.01 -3.01,-0.03 0,-0.02 1.35,-0.04 3.01,-0.04 1.66,0 3.01,0.02 3.01,0.04z"/>
   <path class="fil1" d="M21.84 21.29c0,0.02 -1.35,0.03 -3.01,0.03 -1.66,0 -3.01,-0.01 -3.01,-0.03 0,-0.02 1.35,-0.03 3.01,-0.03 1.66,0 3.01,0.01 3.01,0.03z"/>
   <path class="fil1" d="M21.84 23.15c0,0.01 -1.35,0.03 -3.01,0.03 -1.66,0 -3.01,-0.02 -3.01,-0.03 0,-0.02 1.35,-0.04 3.01,-0.04 1.66,0 3.01,0.02 3.01,0.04z"/>
   <path class="fil1" d="M23.8 28.45c0,0.05 -2.15,0.09 -4.79,0.09 -2.65,0 -4.8,-0.04 -4.8,-0.09 0,-0.05 2.15,-0.09 4.8,-0.09 2.64,0 4.79,0.04 4.79,0.09z"/>
   <path class="fil1" d="M22.09 29.7c0,0.05 -1.38,0.09 -3.08,0.09 -1.71,0 -3.09,-0.04 -3.09,-0.09 0,-0.05 1.38,-0.09 3.09,-0.09 1.7,0 3.08,0.04 3.08,0.09z"/>
   <g>
    <g>
     <g>
      <g>
       <g>
        <g>
         <path class="fil2" d="M22.88 52.63l-7.74 0c-0.54,0 -0.97,-0.44 -0.97,-0.97l0 -10.72c0,-0.53 0.43,-0.97 0.97,-0.97l4.91 0 3.8 3.92 0 7.77c0,0.53 -0.44,0.97 -0.97,0.97z"/>
        </g>
       </g>
      </g>
     </g>
    </g>
   </g>
   <g>
    <g>
     <g>
      <g>
       <g>
        <g>
         <path class="fil3" d="M20.05 39.97l0 3.02c0,0.5 0.4,0.9 0.9,0.9l2.9 0 -3.8 -3.92z"/>
        </g>
       </g>
      </g>
     </g>
    </g>
   </g>
   <g>
    <g>
     <g>
      <g>
       <g>
        <g>
         <path class="fil1" d="M20.09 43.25c0,0 -0.04,0.74 0.79,0.98 0.03,0 0.07,0.01 0.1,0.02 0.38,0.06 2.87,0.51 2.87,0.45 0,-0.06 0,-0.81 0,-0.81l-2.9 0c0,0 -0.73,-0.02 -0.86,-0.64z"/>
        </g>
       </g>
      </g>
     </g>
    </g>
   </g>
   <g>
    <g>
     <g>
      <g>
       <g>
        <path class="fil1" d="M22.88 52.63c0,-0.01 0.06,0 0.17,-0.02 0.1,-0.02 0.27,-0.07 0.44,-0.21 0.16,-0.13 0.33,-0.37 0.34,-0.68 0.01,-0.31 0,-0.68 0,-1.08 0,-1.62 -0.01,-3.95 -0.01,-6.75l0.01 0.02c-1.15,-1.18 -2.44,-2.5 -3.81,-3.91l0.03 0.01c-0.91,0 -1.86,0 -2.84,0 -0.48,0 -0.98,0 -1.48,0 -0.12,0 -0.25,0 -0.37,0 -0.13,0 -0.26,-0.01 -0.37,0.01 -0.25,0.04 -0.47,0.18 -0.61,0.38 -0.1,0.14 -0.16,0.31 -0.17,0.48 -0.01,0.17 0,0.35 -0.01,0.52 0,0.35 0,0.7 0,1.05 0,0.69 0,1.37 0,2.04 0,1.34 0,2.63 0,3.86 0,0.62 0,1.22 0,1.8 0,0.29 0,0.58 0,0.86 0,0.14 0,0.28 0,0.42 0,0.14 -0.01,0.28 0.02,0.41 0.05,0.26 0.21,0.49 0.43,0.62 0.11,0.07 0.24,0.11 0.36,0.13 0.12,0.01 0.26,0.01 0.38,0.01 0.51,0 1,0 1.46,0 1.86,0.01 3.37,0.01 4.41,0.01 0.52,0.01 0.93,0.01 1.2,0.01 0.14,0 0.24,0 0.31,0 0.07,0 0.11,0.01 0.11,0.01 0,0 -0.04,0 -0.11,0 -0.07,0 -0.17,0 -0.31,0 -0.27,0 -0.68,0.01 -1.2,0.01 -1.04,0 -2.55,0.01 -4.41,0.01 -0.46,0 -0.95,0 -1.46,0 -0.13,0 -0.25,0.01 -0.39,-0.01 -0.13,-0.02 -0.26,-0.06 -0.37,-0.13 -0.24,-0.14 -0.42,-0.38 -0.47,-0.66 -0.03,-0.14 -0.02,-0.28 -0.02,-0.42 0,-0.14 0,-0.28 0,-0.42 0,-0.28 0,-0.57 0,-0.86 0,-0.58 0,-1.18 0,-1.8 0,-1.23 0,-2.52 0,-3.86 0,-0.67 0,-1.35 0,-2.04 0,-0.35 0,-0.7 0,-1.05 0,-0.18 -0.01,-0.35 0,-0.53 0.01,-0.18 0.08,-0.36 0.18,-0.51 0.16,-0.22 0.4,-0.36 0.65,-0.41 0.14,-0.02 0.26,-0.01 0.39,-0.01 0.12,0 0.25,0 0.37,0 0.5,0 1,0 1.48,0 0.98,0 1.93,0 2.84,0l0.01 0 0.01 0.01c1.37,1.41 2.65,2.73 3.8,3.92l0.01 0.01 0 0.01c-0.01,2.8 -0.01,5.13 -0.02,6.75 0,0.4 0.01,0.76 0,1.08 -0.02,0.32 -0.2,0.56 -0.36,0.69 -0.18,0.14 -0.34,0.19 -0.45,0.2 -0.06,0.01 -0.1,0.02 -0.13,0.02 -0.03,0 -0.04,0 -0.04,0z"/>
       </g>
      </g>
     </g>
    </g>
   </g>
   <g>
    <g>
     <g>
      <g>
       <g>
        <path class="fil1" d="M23.85 43.89c0,0 -0.03,0.01 -0.08,0.01 -0.05,0 -0.12,0 -0.21,0 -0.19,0.01 -0.46,0.01 -0.79,0.01 -0.33,0.01 -0.72,0.01 -1.16,0.01 -0.22,0 -0.45,0 -0.69,0 -0.25,0 -0.5,-0.12 -0.67,-0.31 -0.09,-0.1 -0.15,-0.22 -0.19,-0.34 -0.04,-0.12 -0.05,-0.25 -0.05,-0.37 0.01,-0.24 0.01,-0.47 0.01,-0.69 0,-0.43 0,-0.83 0,-1.16 0.01,-0.33 0.01,-0.59 0.01,-0.79 0.01,-0.08 0.01,-0.16 0.01,-0.21 0,-0.05 0.01,-0.08 0.01,-0.08 0,0 0,0.03 0,0.08 0.01,0.05 0.01,0.13 0.01,0.21 0,0.2 0.01,0.46 0.01,0.79 0,0.33 0.01,0.73 0.01,1.16 0,0.22 0,0.45 0,0.69 -0.01,0.24 0.05,0.48 0.22,0.66 0.16,0.18 0.39,0.29 0.62,0.3 0.24,0 0.47,0 0.69,0 0.44,0 0.83,0 1.16,0.01 0.33,0 0.6,0 0.79,0.01 0.09,0 0.16,0 0.21,0 0.05,0.01 0.08,0.01 0.08,0.01z"/>
       </g>
      </g>
     </g>
    </g>
   </g>
   <path class="fil1" d="M19.9 42.66c0,0.02 -0.91,0.04 -2.04,0.04 -1.13,0 -2.04,-0.02 -2.04,-0.04 0,-0.01 0.91,-0.03 2.04,-0.03 1.13,0 2.04,0.02 2.04,0.03z"/>
   <path class="fil1" d="M21.84 44.17c0,0.02 -1.35,0.03 -3.01,0.03 -1.66,0 -3.01,-0.01 -3.01,-0.03 0,-0.02 1.35,-0.04 3.01,-0.04 1.66,0 3.01,0.02 3.01,0.04z"/>
   <path class="fil1" d="M21.84 45.67c0,0.02 -1.35,0.04 -3.01,0.04 -1.66,0 -3.01,-0.02 -3.01,-0.04 0,-0.02 1.35,-0.03 3.01,-0.03 1.66,0 3.01,0.01 3.01,0.03z"/>
   <path class="fil1" d="M21.84 47.18c0,0.02 -1.35,0.03 -3.01,0.03 -1.66,0 -3.01,-0.01 -3.01,-0.03 0,-0.02 1.35,-0.04 3.01,-0.04 1.66,0 3.01,0.02 3.01,0.04z"/>
   <path class="fil1" d="M21.84 48.68c0,0.02 -1.35,0.04 -3.01,0.04 -1.66,0 -3.01,-0.02 -3.01,-0.04 0,-0.02 1.35,-0.03 3.01,-0.03 1.66,0 3.01,0.01 3.01,0.03z"/>
   <path class="fil1" d="M21.84 50.54c0,0.02 -1.35,0.03 -3.01,0.03 -1.66,0 -3.01,-0.01 -3.01,-0.03 0,-0.02 1.35,-0.04 3.01,-0.04 1.66,0 3.01,0.02 3.01,0.04z"/>
   <path class="fil1" d="M23.8 55.84c0,0.05 -2.15,0.09 -4.79,0.09 -2.65,0 -4.8,-0.04 -4.8,-0.09 0,-0.05 2.15,-0.09 4.8,-0.09 2.64,0 4.79,0.04 4.79,0.09z"/>
   <path class="fil1" d="M22.09 57.09c0,0.05 -1.38,0.09 -3.08,0.09 -1.71,0 -3.09,-0.04 -3.09,-0.09 0,-0.05 1.38,-0.09 3.09,-0.09 1.7,0 3.08,0.04 3.08,0.09z"/>
   <g>
    <g>
     <g>
      <g>
       <g>
        <g>
         <path class="fil2" d="M22.35 86.23l-7.74 0c-0.54,0 -0.97,-0.44 -0.97,-0.97l0 -10.72c0,-0.53 0.43,-0.97 0.97,-0.97l4.91 0 3.8 3.92 0 7.77c0,0.53 -0.44,0.97 -0.97,0.97z"/>
        </g>
       </g>
      </g>
     </g>
    </g>
   </g>
   <g>
    <g>
     <g>
      <g>
       <g>
        <g>
         <path class="fil3" d="M19.52 73.57l0 3.02c0,0.5 0.4,0.9 0.9,0.9l2.9 0 -3.8 -3.92z"/>
        </g>
       </g>
      </g>
     </g>
    </g>
   </g>
   <g>
    <g>
     <g>
      <g>
       <g>
        <g>
         <path class="fil1" d="M19.56 76.86c0,0 -0.04,0.73 0.79,0.97 0.03,0.01 0.06,0.01 0.1,0.02 0.37,0.07 2.87,0.51 2.87,0.45 0,-0.06 0,-0.81 0,-0.81l-2.9 0c0,0 -0.73,-0.02 -0.86,-0.63z"/>
        </g>
       </g>
      </g>
     </g>
    </g>
   </g>
   <g>
    <g>
     <g>
      <g>
       <g>
        <path class="fil1" d="M22.35 86.23c0,-0.01 0.06,0 0.17,-0.02 0.1,-0.02 0.27,-0.07 0.43,-0.21 0.17,-0.13 0.33,-0.37 0.35,-0.68 0.01,-0.31 0,-0.68 0,-1.08 0,-1.62 -0.01,-3.94 -0.01,-6.75l0.01 0.02c-1.15,-1.18 -2.44,-2.5 -3.81,-3.91l0.03 0.01c-0.91,0 -1.86,0 -2.84,0 -0.48,0 -0.98,0 -1.48,0 -0.12,0 -0.25,0 -0.37,0 -0.13,0 -0.26,-0.01 -0.38,0.01 -0.24,0.04 -0.46,0.18 -0.6,0.38 -0.1,0.14 -0.16,0.31 -0.17,0.48 -0.01,0.17 -0.01,0.35 -0.01,0.52 0,0.35 0,0.7 0,1.05 0,0.69 0,1.37 0,2.04 0,1.34 0,2.63 0,3.86 0,0.62 0,1.22 0,1.8 0,0.29 0,0.58 0,0.86 0,0.15 0,0.29 0,0.42 0,0.14 -0.01,0.28 0.01,0.41 0.05,0.26 0.22,0.49 0.44,0.62 0.11,0.07 0.23,0.11 0.36,0.13 0.12,0.02 0.25,0.01 0.38,0.01 0.51,0 1,0 1.46,0 1.86,0.01 3.37,0.01 4.41,0.01 0.52,0.01 0.92,0.01 1.2,0.01 0.14,0 0.24,0 0.31,0 0.07,0 0.11,0.01 0.11,0.01 0,0 -0.04,0 -0.11,0 -0.07,0 -0.17,0 -0.31,0 -0.28,0.01 -0.68,0.01 -1.2,0.01 -1.04,0 -2.55,0.01 -4.41,0.01 -0.46,0 -0.95,0 -1.46,0 -0.13,0 -0.25,0.01 -0.39,-0.01 -0.13,-0.01 -0.26,-0.06 -0.38,-0.13 -0.23,-0.14 -0.41,-0.38 -0.46,-0.66 -0.03,-0.14 -0.02,-0.28 -0.02,-0.42 0,-0.13 0,-0.27 0,-0.42 0,-0.28 0,-0.57 0,-0.86 0,-0.58 0,-1.18 0,-1.8 0,-1.23 0,-2.52 -0.01,-3.86 0,-0.67 0,-1.35 0,-2.04 0,-0.35 0,-0.7 0,-1.05 0.01,-0.17 0,-0.35 0.01,-0.53 0.01,-0.18 0.07,-0.36 0.18,-0.51 0.15,-0.21 0.39,-0.36 0.65,-0.4 0.13,-0.03 0.26,-0.02 0.39,-0.02 0.12,0 0.25,0 0.37,0 0.5,0 1,0 1.48,0 0.98,0 1.93,0 2.84,0l0.01 0 0.01 0.01c1.37,1.41 2.65,2.74 3.8,3.92l0 0.01 0 0.01c0,2.81 0,5.13 -0.01,6.75 0,0.4 0,0.77 0,1.08 -0.02,0.32 -0.2,0.56 -0.37,0.7 -0.17,0.13 -0.33,0.18 -0.44,0.2 -0.06,0 -0.1,0.01 -0.13,0.01 -0.03,0 -0.04,0 -0.04,0z"/>
       </g>
      </g>
     </g>
    </g>
   </g>
   <g>
    <g>
     <g>
      <g>
       <g>
        <path class="fil1" d="M23.32 77.49c0,0 -0.03,0.01 -0.08,0.01 -0.05,0 -0.13,0 -0.21,0 -0.2,0.01 -0.46,0.01 -0.79,0.02 -0.33,0 -0.73,0 -1.16,0 -0.22,0 -0.45,0 -0.69,0 -0.25,0 -0.5,-0.11 -0.67,-0.31 -0.09,-0.1 -0.16,-0.22 -0.19,-0.34 -0.05,-0.12 -0.05,-0.25 -0.05,-0.37 0,-0.24 0,-0.47 0,-0.69 0.01,-0.43 0.01,-0.83 0.01,-1.16 0.01,-0.33 0.01,-0.59 0.01,-0.79 0.01,-0.08 0.01,-0.15 0.01,-0.21 0,-0.05 0,-0.08 0.01,-0.08 0,0 0,0.03 0,0.08 0,0.06 0.01,0.13 0.01,0.21 0,0.2 0.01,0.46 0.01,0.79 0,0.33 0,0.73 0.01,1.16 0,0.22 0,0.45 0,0.69 -0.02,0.24 0.05,0.48 0.22,0.66 0.16,0.19 0.39,0.29 0.62,0.3 0.24,0 0.47,0 0.69,0 0.43,0 0.83,0.01 1.16,0.01 0.33,0 0.59,0.01 0.79,0.01 0.08,0 0.16,0 0.21,0 0.05,0.01 0.08,0.01 0.08,0.01z"/>
       </g>
      </g>
     </g>
    </g>
   </g>
   <path class="fil1" d="M19.37 76.27c0,0.01 -0.91,0.03 -2.04,0.03 -1.13,0 -2.04,-0.02 -2.04,-0.03 0,-0.02 0.91,-0.04 2.04,-0.04 1.13,0 2.04,0.02 2.04,0.04z"/>
   <path class="fil1" d="M21.31 77.77c0,0.02 -1.35,0.03 -3.01,0.03 -1.67,0 -3.01,-0.01 -3.01,-0.03 0,-0.02 1.34,-0.03 3.01,-0.03 1.66,0 3.01,0.01 3.01,0.03z"/>
   <path class="fil1" d="M21.31 79.27c0,0.02 -1.35,0.04 -3.01,0.04 -1.67,0 -3.01,-0.02 -3.01,-0.04 0,-0.01 1.34,-0.03 3.01,-0.03 1.66,0 3.01,0.02 3.01,0.03z"/>
   <path class="fil1" d="M21.31 80.78c0,0.02 -1.35,0.03 -3.01,0.03 -1.67,0 -3.01,-0.01 -3.01,-0.03 0,-0.02 1.34,-0.04 3.01,-0.04 1.66,0 3.01,0.02 3.01,0.04z"/>
   <path class="fil1" d="M21.31 82.28c0,0.02 -1.35,0.04 -3.01,0.04 -1.67,0 -3.01,-0.02 -3.01,-0.04 0,-0.02 1.34,-0.03 3.01,-0.03 1.66,0 3.01,0.01 3.01,0.03z"/>
   <path class="fil1" d="M21.31 84.14c0,0.02 -1.35,0.03 -3.01,0.03 -1.67,0 -3.01,-0.01 -3.01,-0.03 0,-0.02 1.34,-0.04 3.01,-0.04 1.66,0 3.01,0.02 3.01,0.04z"/>
   <path class="fil1" d="M23.27 89.44c0,0.05 -2.15,0.09 -4.8,0.09 -2.64,0 -4.79,-0.04 -4.79,-0.09 0,-0.05 2.15,-0.09 4.79,-0.09 2.65,0 4.8,0.04 4.8,0.09z"/>
   <path class="fil1" d="M21.56 90.69c0,0.05 -1.38,0.09 -3.09,0.09 -1.7,0 -3.08,-0.04 -3.08,-0.09 0,-0.05 1.38,-0.09 3.08,-0.09 1.71,0 3.09,0.04 3.09,0.09z"/>
   <g>
    <g>
     <g>
      <g>
       <g>
        <g>
         <path class="fil2" d="M73.26 85.46l-7.74 0c-0.53,0 -0.97,-0.43 -0.97,-0.97l0 -10.71c0,-0.54 0.44,-0.97 0.97,-0.97l4.91 0 3.8 3.92 0 7.76c0,0.54 -0.43,0.97 -0.97,0.97z"/>
        </g>
       </g>
      </g>
     </g>
    </g>
   </g>
   <g>
    <g>
     <g>
      <g>
       <g>
        <g>
         <path class="fil3" d="M70.43 72.81l0 3.01c0,0.5 0.4,0.91 0.9,0.91l2.9 0 -3.8 -3.92z"/>
        </g>
       </g>
      </g>
     </g>
    </g>
   </g>
   <g>
    <g>
     <g>
      <g>
       <g>
        <g>
         <path class="fil1" d="M70.47 76.09c0,0 -0.04,0.73 0.79,0.97 0.04,0.01 0.07,0.02 0.1,0.02 0.38,0.07 2.87,0.51 2.87,0.46 0,-0.07 0,-0.81 0,-0.81l-2.9 0c0,0 -0.72,-0.03 -0.86,-0.64z"/>
        </g>
       </g>
      </g>
     </g>
    </g>
   </g>
   <g>
    <g>
     <g>
      <g>
       <g>
        <path class="fil1" d="M73.26 85.46c0,0 0.06,0 0.17,-0.02 0.11,-0.02 0.27,-0.07 0.44,-0.2 0.16,-0.14 0.33,-0.37 0.35,-0.69 0,-0.31 -0.01,-0.67 -0.01,-1.08 0,-1.62 0,-3.94 -0.01,-6.74l0.01 0.02c-1.15,-1.19 -2.43,-2.51 -3.8,-3.92l0.02 0.01c-0.91,0 -1.86,0 -2.83,0 -0.49,0 -0.98,0 -1.48,0 -0.13,0 -0.25,0 -0.38,0 -0.13,0.01 -0.25,0 -0.37,0.02 -0.24,0.04 -0.47,0.17 -0.61,0.38 -0.1,0.13 -0.16,0.3 -0.17,0.47 -0.01,0.17 0,0.35 0,0.53 0,0.35 0,0.7 0,1.04 0,0.69 0,1.38 0,2.05 0,1.33 -0.01,2.63 -0.01,3.86 0,0.61 0,1.21 0,1.8 0,0.29 0,0.58 0,0.86 0,0.14 0,0.28 0,0.42 0,0.14 -0.01,0.28 0.02,0.41 0.05,0.26 0.22,0.49 0.44,0.62 0.11,0.07 0.23,0.11 0.35,0.12 0.13,0.02 0.26,0.01 0.38,0.01 0.51,0.01 1,0.01 1.47,0.01 1.86,0 3.36,0.01 4.41,0.01 0.51,0 0.92,0 1.19,0 0.14,0.01 0.24,0.01 0.32,0.01 0.07,0 0.1,0 0.1,0 0,0 -0.03,0 -0.1,0 -0.08,0.01 -0.18,0.01 -0.32,0.01 -0.27,0 -0.68,0 -1.19,0 -1.05,0.01 -2.55,0.01 -4.41,0.02 -0.47,0 -0.96,0 -1.47,0 -0.12,0 -0.25,0 -0.38,-0.01 -0.14,-0.02 -0.26,-0.06 -0.38,-0.13 -0.23,-0.14 -0.41,-0.38 -0.47,-0.66 -0.03,-0.14 -0.01,-0.28 -0.02,-0.42 0,-0.14 0,-0.28 0,-0.42 0,-0.28 0,-0.57 0,-0.86 0,-0.59 0,-1.19 0,-1.8 0,-1.23 0,-2.53 0,-3.86 0,-0.67 0,-1.36 0,-2.05 0,-0.34 0,-0.69 0,-1.04 0,-0.18 -0.01,-0.35 0,-0.53 0.01,-0.19 0.08,-0.36 0.19,-0.51 0.15,-0.22 0.39,-0.37 0.65,-0.41 0.13,-0.02 0.25,-0.01 0.38,-0.01 0.13,0 0.25,0 0.38,0 0.5,0 0.99,0 1.48,0 0.97,0 1.92,0 2.83,0l0.01 0 0.01 0.01c1.37,1.41 2.65,2.73 3.8,3.92l0.01 0 0 0.02c-0.01,2.8 -0.01,5.12 -0.01,6.74 -0.01,0.41 0,0.77 -0.01,1.09 -0.02,0.32 -0.19,0.56 -0.36,0.69 -0.17,0.14 -0.34,0.18 -0.45,0.2 -0.05,0.01 -0.1,0.01 -0.13,0.01 -0.02,0 -0.04,0 -0.04,0z"/>
       </g>
      </g>
     </g>
    </g>
   </g>
   <g>
    <g>
     <g>
      <g>
       <g>
        <path class="fil1" d="M74.23 76.73c0,0 -0.02,0 -0.07,0 -0.06,0 -0.13,0.01 -0.22,0.01 -0.19,0 -0.46,0.01 -0.78,0.01 -0.34,0 -0.73,0 -1.17,0.01 -0.22,0 -0.45,0 -0.69,0 -0.24,-0.01 -0.5,-0.12 -0.67,-0.32 -0.09,-0.1 -0.15,-0.21 -0.19,-0.33 -0.04,-0.13 -0.05,-0.26 -0.04,-0.37 0,-0.24 0,-0.47 0,-0.69 0,-0.44 0,-0.83 0.01,-1.17 0,-0.32 0,-0.59 0.01,-0.78 0,-0.09 0,-0.16 0,-0.22 0.01,-0.05 0.01,-0.07 0.01,-0.07 0,0 0.01,0.02 0.01,0.07 0,0.06 0,0.13 0,0.22 0.01,0.19 0.01,0.46 0.01,0.78 0.01,0.34 0.01,0.73 0.01,1.17 0,0.22 0,0.45 0,0.69 -0.01,0.23 0.06,0.47 0.22,0.66 0.16,0.18 0.4,0.29 0.63,0.29 0.23,0 0.46,0 0.68,0 0.44,0.01 0.83,0.01 1.17,0.01 0.32,0.01 0.59,0.01 0.78,0.01 0.09,0.01 0.16,0.01 0.22,0.01 0.05,0 0.07,0 0.07,0.01z"/>
       </g>
      </g>
     </g>
    </g>
   </g>
   <path class="fil1" d="M70.28 75.5c0,0.02 -0.91,0.03 -2.04,0.03 -1.13,0 -2.04,-0.01 -2.04,-0.03 0,-0.02 0.91,-0.03 2.04,-0.03 1.13,0 2.04,0.01 2.04,0.03z"/>
   <path class="fil1" d="M72.22 77c0,0.02 -1.35,0.04 -3.01,0.04 -1.66,0 -3.01,-0.02 -3.01,-0.04 0,-0.01 1.35,-0.03 3.01,-0.03 1.66,0 3.01,0.02 3.01,0.03z"/>
   <path class="fil1" d="M72.22 78.51c0,0.02 -1.35,0.03 -3.01,0.03 -1.66,0 -3.01,-0.01 -3.01,-0.03 0,-0.02 1.35,-0.04 3.01,-0.04 1.66,0 3.01,0.02 3.01,0.04z"/>
   <path class="fil1" d="M72.22 80.01c0,0.02 -1.35,0.04 -3.01,0.04 -1.66,0 -3.01,-0.02 -3.01,-0.04 0,-0.02 1.35,-0.03 3.01,-0.03 1.66,0 3.01,0.01 3.01,0.03z"/>
   <path class="fil1" d="M72.22 81.52c0,0.02 -1.35,0.03 -3.01,0.03 -1.66,0 -3.01,-0.01 -3.01,-0.03 0,-0.02 1.35,-0.04 3.01,-0.04 1.66,0 3.01,0.02 3.01,0.04z"/>
   <path class="fil1" d="M72.22 83.37c0,0.02 -1.35,0.04 -3.01,0.04 -1.66,0 -3.01,-0.02 -3.01,-0.04 0,-0.02 1.35,-0.03 3.01,-0.03 1.66,0 3.01,0.01 3.01,0.03z"/>
   <path class="fil1" d="M74.18 88.67c0,0.05 -2.14,0.09 -4.79,0.09 -2.65,0 -4.8,-0.04 -4.8,-0.09 0,-0.05 2.15,-0.09 4.8,-0.09 2.65,0 4.79,0.04 4.79,0.09z"/>
   <path class="fil1" d="M72.48 89.93c0,0.05 -1.39,0.09 -3.09,0.09 -1.71,0 -3.09,-0.04 -3.09,-0.09 0,-0.05 1.38,-0.09 3.09,-0.09 1.7,0 3.09,0.04 3.09,0.09z"/>
   <path class="fil2" d="M42.55 7.85l0.36 6.93c0.02,0.25 0.19,0.44 0.4,0.44l10.69 0c0.22,0 0.4,-0.21 0.4,-0.47l0 -5.39c0,-0.26 -0.18,-0.47 -0.41,-0.47l-6.57 0.05c-0.1,0 -0.2,-0.05 -0.28,-0.14l-1.14 -1.31c-0.08,-0.08 -0.18,-0.13 -0.28,-0.13l-2.77 0c-0.23,0 -0.42,0.22 -0.4,0.49z"/>
   <polygon class="fil3" points="54.4,16.21 42.72,16.21 42.72,8.07 54.4,8.07 "/>
   <path class="fil2" d="M41.8 8.8l0.89 8.49c0.01,0.15 0.12,0.27 0.25,0.27l11.38 0c0.13,0 0.25,-0.12 0.26,-0.28l0.57 -8.49c0.01,-0.18 -0.11,-0.33 -0.26,-0.33l-12.84 0c-0.15,0 -0.27,0.16 -0.25,0.34z"/>
   <path class="fil1" d="M53.27 21.87c0,0.05 -2.15,0.09 -4.8,0.09 -2.65,0 -4.79,-0.04 -4.79,-0.09 0,-0.05 2.14,-0.09 4.79,-0.09 2.65,0 4.8,0.04 4.8,0.09z"/>
   <path class="fil1" d="M51.56 23.12c0,0.05 -1.38,0.09 -3.09,0.09 -1.7,0 -3.09,-0.04 -3.09,-0.09 0,-0.05 1.39,-0.09 3.09,-0.09 1.71,0 3.09,0.04 3.09,0.09z"/>
   <path class="fil2" d="M42.92 40.42l0.37 6.92c0.01,0.25 0.19,0.44 0.4,0.44l10.68 0c0.22,0 0.4,-0.21 0.4,-0.46l0 -5.4c0,-0.26 -0.18,-0.47 -0.4,-0.47l-6.57 0.05c-0.11,0 -0.21,-0.04 -0.28,-0.13l-1.15 -1.31c-0.07,-0.09 -0.17,-0.14 -0.28,-0.14l-2.77 0c-0.23,0 -0.41,0.23 -0.4,0.5z"/>
   <polygon class="fil3" points="54.77,48.78 43.1,48.78 43.1,40.64 54.77,40.64 "/>
   <path class="fil2" d="M42.17 41.37l0.89 8.49c0.02,0.15 0.13,0.26 0.26,0.26l11.38 0c0.13,0 0.24,-0.12 0.25,-0.28l0.58 -8.49c0.01,-0.17 -0.11,-0.32 -0.26,-0.32l-12.84 0c-0.16,0 -0.28,0.16 -0.26,0.34z"/>
   <path class="fil1" d="M53.64 54.43c0,0.05 -2.14,0.09 -4.79,0.09 -2.65,0 -4.8,-0.04 -4.8,-0.09 0,-0.05 2.15,-0.09 4.8,-0.09 2.65,0 4.79,0.04 4.79,0.09z"/>
   <path class="fil1" d="M51.93 55.69c0,0.05 -1.38,0.09 -3.08,0.09 -1.71,0 -3.09,-0.04 -3.09,-0.09 0,-0.05 1.38,-0.09 3.09,-0.09 1.7,0 3.08,0.04 3.08,0.09z"/>
   <path class="fil2" d="M37.27 80.57l0.37 6.92c0.01,0.25 0.19,0.44 0.4,0.44l10.69 0c0.22,0 0.4,-0.21 0.4,-0.47l0 -5.39c0,-0.26 -0.18,-0.47 -0.41,-0.47l-6.57 0.05c-0.1,0 -0.21,-0.05 -0.28,-0.13l-1.14 -1.32c-0.08,-0.08 -0.18,-0.13 -0.29,-0.13l-2.77 0c-0.23,0 -0.41,0.23 -0.4,0.5z"/>
   <polygon class="fil3" points="49.13,88.93 37.45,88.93 37.45,80.78 49.13,80.78 "/>
   <path class="fil2" d="M36.52 81.51l0.9 8.5c0.01,0.15 0.12,0.26 0.25,0.26l11.38 0c0.13,0 0.24,-0.12 0.26,-0.28l0.57 -8.49c0.01,-0.17 -0.11,-0.32 -0.26,-0.32l-12.84 0c-0.16,0 -0.28,0.16 -0.26,0.33z"/>
   <path class="fil1" d="M48 94.58c0,0.05 -2.15,0.09 -4.8,0.09 -2.65,0 -4.8,-0.04 -4.8,-0.09 0,-0.05 2.15,-0.09 4.8,-0.09 2.65,0 4.8,0.04 4.8,0.09z"/>
   <path class="fil1" d="M46.29 95.83c0,0.05 -1.38,0.1 -3.09,0.1 -1.71,0 -3.09,-0.05 -3.09,-0.1 0,-0.05 1.38,-0.09 3.09,-0.09 1.71,0 3.09,0.04 3.09,0.09z"/>
   <polygon class="fil4" points="153.64,73.89 76.37,73.89 76.37,5.94 153.64,5.94 "/>
   <path class="fil1" d="M153.64 73.89c0,-0.64 -0.03,-27.06 -0.08,-67.95l0.08 0.08c-22.22,0.01 -48.78,0.01 -77.26,0.01l-0.01 0 0.09 -0.09c0,24.7 0,47.95 -0.01,67.95l-0.08 -0.08c46.11,0.05 76.58,0.08 77.27,0.08 -0.69,0.01 -31.16,0.04 -77.27,0.08l-0.08 0 0 -0.08c0,-20 0,-43.25 -0.01,-67.95l0 -0.09 0.09 0 0.01 0c28.48,0.01 55.04,0.01 77.26,0.02l0.08 0 0 0.07c-0.05,40.89 -0.08,67.31 -0.08,67.95z"/>
   <path class="fil1" d="M153.86 12.91c0,0.04 -17.15,0.06 -38.31,0.06 -21.16,0 -38.31,-0.02 -38.31,-0.06 0,-0.03 17.15,-0.06 38.31,-0.06 21.16,0 38.31,0.03 38.31,0.06z"/>
   <path class="fil2" d="M81.63 9.73c0,0.44 -0.35,0.8 -0.79,0.8 -0.44,0 -0.79,-0.36 -0.79,-0.8 0,-0.44 0.35,-0.79 0.79,-0.79 0.44,0 0.79,0.35 0.79,0.79z"/>
   <path class="fil2" d="M84.24 9.73c0,0.44 -0.36,0.8 -0.8,0.8 -0.44,0 -0.79,-0.36 -0.79,-0.8 0,-0.44 0.35,-0.79 0.79,-0.79 0.44,0 0.8,0.35 0.8,0.79z"/>
   <path class="fil2" d="M86.84 9.73c0,0.44 -0.36,0.8 -0.79,0.8 -0.44,0 -0.8,-0.36 -0.8,-0.8 0,-0.44 0.36,-0.79 0.8,-0.79 0.43,0 0.79,0.35 0.79,0.79z"/>
   <path class="fil1" d="M150.05 18.91c-0.01,0 0.04,0 0.12,-0.02 0.08,-0.03 0.21,-0.1 0.28,-0.26 0.03,-0.08 0.03,-0.17 0.03,-0.28 -0.01,-0.1 -0.01,-0.22 -0.01,-0.35 0,-0.25 0,-0.54 0,-0.86 0,-0.33 -0.01,-0.7 -0.01,-1.09 0,-0.1 0,-0.21 0,-0.31 -0.01,-0.09 -0.05,-0.19 -0.13,-0.26 -0.07,-0.07 -0.17,-0.11 -0.27,-0.11 -0.12,0 -0.23,0 -0.34,0 -0.93,0 -1.99,0.01 -3.16,0.01 -4.68,0 -11.14,0.01 -18.27,0.02 -0.2,-0.01 -0.38,0.16 -0.39,0.35 0,0.22 0,0.44 0,0.66 0,0.44 0,0.88 0,1.31 0,0.22 0,0.44 0,0.65 0,0.12 0,0.2 0.05,0.29 0.05,0.08 0.12,0.14 0.21,0.17 0.05,0.02 0.09,0.02 0.14,0.02l0.16 0 0.32 0c0.21,0 0.42,0 0.63,0 1.68,0 3.31,0 4.85,0.01 3.09,0 5.88,0.01 8.22,0.01 2.33,0.01 4.22,0.01 5.53,0.02 0.65,0 1.16,0.01 1.51,0.01 0.17,0 0.3,0 0.39,0.01 0.09,0 0.14,0 0.14,0 0,0 -0.05,0.01 -0.14,0.01 -0.09,0 -0.22,0 -0.39,0 -0.35,0.01 -0.86,0.01 -1.51,0.02 -1.31,0 -3.2,0.01 -5.53,0.01 -2.34,0.01 -5.13,0.01 -8.22,0.02 -1.54,0 -3.17,0 -4.85,0 -0.21,0 -0.42,0 -0.63,0l-0.32 0 -0.16 0c-0.06,0 -0.12,-0.01 -0.18,-0.03 -0.11,-0.04 -0.21,-0.12 -0.27,-0.23 -0.07,-0.1 -0.07,-0.24 -0.07,-0.34 0,-0.21 0,-0.43 0,-0.65 0,-0.43 0,-0.87 0,-1.31 0,-0.22 0,-0.44 0,-0.67 0.02,-0.25 0.25,-0.47 0.51,-0.46 7.13,0 13.59,0.01 18.27,0.01 1.17,0.01 2.23,0.01 3.16,0.01 0.11,0 0.23,0 0.34,0 0.12,0.01 0.23,0.06 0.32,0.14 0.08,0.08 0.13,0.19 0.14,0.3 0,0.11 0,0.21 0,0.31 0,0.39 0,0.76 -0.01,1.09 0,0.32 0,0.61 0,0.86 0,0.13 0,0.25 0,0.35 0,0.11 0,0.21 -0.04,0.29 -0.07,0.17 -0.21,0.23 -0.29,0.26 -0.09,0.02 -0.13,0.01 -0.13,0.01z"/>
   <path class="fil1" d="M129.25 17.58l0.06 -0.12c0.09,0.07 0.23,0.13 0.38,0.13 0.19,0 0.28,-0.08 0.28,-0.18 0,-0.28 -0.69,-0.1 -0.69,-0.52 0,-0.18 0.14,-0.33 0.44,-0.33 0.13,0 0.27,0.04 0.36,0.1l-0.05 0.13c-0.1,-0.06 -0.21,-0.09 -0.31,-0.09 -0.2,0 -0.28,0.08 -0.28,0.18 0,0.28 0.69,0.1 0.69,0.52 0,0.18 -0.14,0.33 -0.44,0.33 -0.18,0 -0.35,-0.06 -0.44,-0.15z"/>
   <path class="fil1" d="M131.12 17.33l-0.7 0c0.02,0.15 0.14,0.26 0.31,0.26 0.1,0 0.19,-0.04 0.25,-0.11l0.09 0.1c-0.08,0.09 -0.2,0.14 -0.34,0.14 -0.28,0 -0.47,-0.18 -0.47,-0.44 0,-0.25 0.19,-0.44 0.44,-0.44 0.25,0 0.42,0.18 0.42,0.45 0,0.01 0,0.03 0,0.04zm-0.7 -0.11l0 0 0.55 0c-0.01,-0.14 -0.12,-0.25 -0.27,-0.25 -0.15,0 -0.26,0.1 -0.28,0.25z"/>
   <path class="fil1" d="M132 17.19l0 0.52 -0.15 0 0 -0.11c-0.05,0.08 -0.15,0.12 -0.28,0.12 -0.2,0 -0.32,-0.1 -0.32,-0.25 0,-0.14 0.09,-0.25 0.35,-0.25l0.24 0 0 -0.03c0,-0.14 -0.07,-0.21 -0.23,-0.21 -0.1,0 -0.2,0.03 -0.27,0.09l-0.07 -0.12c0.09,-0.07 0.22,-0.11 0.36,-0.11 0.24,0 0.37,0.12 0.37,0.35zm-0.16 0.26l0 0 0 -0.12 -0.24 0c-0.15,0 -0.2,0.06 -0.2,0.13 0,0.09 0.07,0.14 0.19,0.14 0.12,0 0.21,-0.05 0.25,-0.15z"/>
   <path class="fil1" d="M132.75 16.84l0 0.15c-0.01,0 -0.02,0 -0.03,0 -0.17,0 -0.28,0.1 -0.28,0.29l0 0.43 -0.15 0 0 -0.86 0.15 0 0 0.14c0.05,-0.1 0.16,-0.15 0.31,-0.15z"/>
   <path class="fil1" d="M132.86 17.28c0,-0.26 0.19,-0.44 0.45,-0.44 0.16,0 0.29,0.07 0.35,0.19l-0.12 0.07c-0.05,-0.08 -0.14,-0.12 -0.23,-0.12 -0.17,0 -0.3,0.12 -0.3,0.3 0,0.19 0.13,0.31 0.3,0.31 0.09,0 0.18,-0.04 0.23,-0.13l0.12 0.08c-0.06,0.12 -0.19,0.18 -0.35,0.18 -0.26,0 -0.45,-0.18 -0.45,-0.44z"/>
   <path class="fil1" d="M134.67 17.22l0 0.49 -0.15 0 0 -0.48c0,-0.17 -0.09,-0.25 -0.24,-0.25 -0.16,0 -0.27,0.1 -0.27,0.29l0 0.44 -0.16 0 0 -1.21 0.16 0 0 0.47c0.07,-0.08 0.17,-0.13 0.3,-0.13 0.21,0 0.36,0.12 0.36,0.38z"/>
   <path class="fil1" d="M134.89 17.61c0,-0.07 0.05,-0.11 0.11,-0.11 0.06,0 0.11,0.04 0.11,0.11 0,0.06 -0.05,0.11 -0.11,0.11 -0.06,0 -0.11,-0.05 -0.11,-0.11z"/>
   <path class="fil1" d="M135.26 17.61c0,-0.07 0.05,-0.11 0.11,-0.11 0.06,0 0.11,0.04 0.11,0.11 0,0.06 -0.05,0.11 -0.11,0.11 -0.06,0 -0.11,-0.05 -0.11,-0.11z"/>
   <path class="fil1" d="M135.63 17.61c0,-0.07 0.05,-0.11 0.11,-0.11 0.06,0 0.11,0.04 0.11,0.11 0,0.06 -0.05,0.11 -0.11,0.11 -0.06,0 -0.11,-0.05 -0.11,-0.11z"/>
   <path class="fil1" d="M124.24 24.71l0 12.19 14.81 0 0 -12.19c0,-0.58 -0.47,-1.05 -1.05,-1.05l-12.71 0c-0.58,0 -1.05,0.47 -1.05,1.05z"/>
   <g>
    <polygon class="fil3" points="124.94,30.28 125.03,25.8 138,25.8 138,28.36 "/>
   </g>
   <g>
    <polygon class="fil3" points="125.88,24.59 125.88,25.8 137.2,25.8 137.2,24.59 "/>
   </g>
   <g>
    <g>
     <path class="fil1" d="M125.88 24.59c0,0 0.01,0 0.05,0 0.04,0 0.1,0 0.17,0 0.15,-0.01 0.37,-0.01 0.64,-0.01 0.57,-0.01 1.38,-0.01 2.39,-0.02 2.05,-0.01 4.89,-0.02 8.07,-0.03l0.06 0 0 0.06c0,0.39 0,0.8 0,1.21 -0.12,0.12 -0.03,0.04 -0.06,0.06l0 0 -0.01 0 -0.02 0 -0.03 0 -0.05 0 -0.12 0 -0.24 0c-0.15,0 -0.31,0 -0.46,0 -0.31,0 -0.61,0 -0.92,0 -0.6,0 -1.19,0 -1.76,0 -1.14,0 -2.22,0 -3.2,-0.01 -1.94,-0.01 -3.51,-0.02 -4.51,-0.02l-0.03 0 0 -0.03c0.01,-0.39 0.01,-0.69 0.02,-0.9 0,-0.1 0,-0.17 0,-0.23 0,-0.05 0.01,-0.08 0.01,-0.08 0,0.01 0,0.03 0,0.09 0,0.06 0.01,0.13 0.01,0.23 0,0.21 0.01,0.51 0.01,0.89l-0.02 -0.02c1,-0.01 2.57,-0.02 4.51,-0.03 0.98,0 2.06,0 3.2,-0.01 0.57,0 1.16,0 1.76,0 0.31,0 0.61,0 0.92,0 0.15,0 0.31,0 0.46,0l0.24 0 0.12 0 0.05 0 0.03 0 0.02 0 0.01 0 0 0c-0.03,0.03 0.06,-0.06 -0.06,0.06 0,-0.41 0,-0.82 0,-1.21l0.06 0.06c-3.17,-0.01 -5.99,-0.02 -8.02,-0.02 -1.02,-0.01 -1.84,-0.02 -2.41,-0.02 -0.28,0 -0.5,-0.01 -0.66,-0.01 -0.07,0 -0.13,0 -0.17,0 -0.04,0 -0.06,-0.01 -0.06,-0.01z"/>
    </g>
   </g>
   <g>
    <path class="fil1" d="M138.52 39.95c0,0.03 -2.83,0.06 -6.32,0.06 -3.49,0 -6.32,-0.03 -6.32,-0.06 0,-0.04 2.83,-0.07 6.32,-0.07 3.49,0 6.32,0.03 6.32,0.07z"/>
   </g>
   <path class="fil2" d="M123.1 28.08l1.14 8.82 14.81 0 0 -8.54 -6.72 0 -1.31 -1.15 -7.15 0c-0.47,0 -0.83,0.41 -0.77,0.87z"/>
   <g>
    <path class="fil1" d="M134.98 31.81c0,0.03 -1.63,0.06 -3.63,0.06 -2,0 -3.62,-0.03 -3.62,-0.06 0,-0.03 1.62,-0.06 3.62,-0.06 2,0 3.63,0.03 3.63,0.06z"/>
   </g>
   <g>
    <path class="fil1" d="M134.98 32.68c0,0.03 -1.63,0.06 -3.63,0.06 -2,0 -3.62,-0.03 -3.62,-0.06 0,-0.04 1.62,-0.06 3.62,-0.06 2,0 3.63,0.02 3.63,0.06z"/>
   </g>
   <path class="fil1" d="M135.42 41.59c0,0.04 -1.78,0.06 -3.97,0.06 -2.19,0 -3.96,-0.02 -3.96,-0.06 0,-0.03 1.77,-0.06 3.96,-0.06 2.19,0 3.97,0.03 3.97,0.06z"/>
   <path class="fil1" d="M92.02 24.71l0 12.19 14.82 0 0 -12.19c0,-0.58 -0.47,-1.05 -1.05,-1.05l-12.72 0c-0.58,0 -1.05,0.47 -1.05,1.05z"/>
   <g>
    <polygon class="fil3" points="92.72,30.28 92.82,25.8 105.78,25.8 105.78,28.36 "/>
   </g>
   <g>
    <polygon class="fil3" points="93.66,24.59 93.66,25.8 104.99,25.8 104.99,24.59 "/>
   </g>
   <g>
    <g>
     <path class="fil1" d="M93.66 24.59c0,0 0.02,0 0.05,0 0.05,0 0.1,0 0.17,0 0.15,-0.01 0.37,-0.01 0.64,-0.01 0.57,-0.01 1.39,-0.01 2.39,-0.02 2.05,-0.01 4.89,-0.02 8.08,-0.03l0.06 0 0 0.06c0,0.39 0,0.8 0,1.21 -0.13,0.12 -0.04,0.04 -0.07,0.06l0 0 -0.01 0 -0.01 0 -0.03 0 -0.06 0 -0.12 0 -0.23 0c-0.16,0 -0.31,0 -0.47,0 -0.31,0 -0.61,0 -0.91,0 -0.61,0 -1.2,0 -1.77,0 -1.14,0 -2.21,0 -3.19,-0.01 -1.95,-0.01 -3.52,-0.02 -4.52,-0.02l-0.03 0 0 -0.03c0.01,-0.39 0.02,-0.69 0.02,-0.9 0,-0.1 0,-0.17 0.01,-0.23 0,-0.05 0,-0.08 0,-0.08 0,0.01 0,0.03 0.01,0.09 0,0.06 0,0.13 0,0.23 0,0.21 0.01,0.51 0.02,0.89l-0.03 -0.02c1,-0.01 2.57,-0.02 4.52,-0.03 0.98,0 2.05,0 3.19,-0.01 0.57,0 1.16,0 1.77,0 0.3,0 0.6,0 0.91,0 0.16,0 0.31,0 0.47,0l0.23 0 0.12 0 0.06 0 0.03 0 0.01 0 0.01 0 0 0c-0.02,0.03 0.07,-0.06 -0.06,0.06 0,-0.41 0,-0.82 0,-1.21l0.07 0.06c-3.17,-0.01 -5.99,-0.02 -8.03,-0.02 -1.02,-0.01 -1.83,-0.02 -2.41,-0.02 -0.28,0 -0.5,-0.01 -0.66,-0.01 -0.07,0 -0.12,0 -0.17,0 -0.04,0 -0.06,-0.01 -0.06,-0.01z"/>
    </g>
   </g>
   <g>
    <path class="fil1" d="M106.3 39.95c0,0.03 -2.83,0.06 -6.32,0.06 -3.49,0 -6.32,-0.03 -6.32,-0.06 0,-0.04 2.83,-0.07 6.32,-0.07 3.49,0 6.32,0.03 6.32,0.07z"/>
   </g>
   <path class="fil2" d="M90.88 28.08l1.14 8.82 14.82 0 0 -8.54 -6.73 0 -1.31 -1.15 -7.15 0c-0.47,0 -0.83,0.41 -0.77,0.87z"/>
   <g>
    <path class="fil1" d="M102.76 31.81c0,0.03 -1.62,0.06 -3.62,0.06 -2,0 -3.63,-0.03 -3.63,-0.06 0,-0.03 1.63,-0.06 3.63,-0.06 2,0 3.62,0.03 3.62,0.06z"/>
   </g>
   <g>
    <path class="fil1" d="M102.76 32.68c0,0.03 -1.62,0.06 -3.62,0.06 -2,0 -3.63,-0.03 -3.63,-0.06 0,-0.04 1.63,-0.06 3.63,-0.06 2,0 3.62,0.02 3.62,0.06z"/>
   </g>
   <path class="fil1" d="M103.2 41.59c0,0.04 -1.78,0.06 -3.97,0.06 -2.19,0 -3.96,-0.02 -3.96,-0.06 0,-0.03 1.77,-0.06 3.96,-0.06 2.19,0 3.97,0.03 3.97,0.06z"/>
   <path class="fil1" d="M91.56 50.59l0 12.19 14.81 0 0 -12.19c0,-0.58 -0.47,-1.05 -1.05,-1.05l-12.71 0c-0.58,0 -1.05,0.47 -1.05,1.05z"/>
   <g>
    <polygon class="fil3" points="92.25,56.16 92.35,51.69 105.31,51.69 105.31,54.24 "/>
   </g>
   <g>
    <polygon class="fil3" points="93.19,50.48 93.19,51.69 104.52,51.69 104.52,50.48 "/>
   </g>
   <g>
    <g>
     <path class="fil1" d="M93.19 50.48c0,0 0.02,0 0.06,0 0.04,-0.01 0.1,-0.01 0.16,-0.01 0.16,0 0.37,0 0.64,-0.01 0.58,0 1.39,-0.01 2.4,-0.02 2.05,0 4.88,-0.01 8.07,-0.02l0.06 0 0 0.06c0,0.38 0,0.79 0,1.21 -0.12,0.12 -0.04,0.03 -0.06,0.06l-0.01 0 0 0 -0.02 0 -0.03 0 -0.06 0 -0.11 0 -0.24 0c-0.15,0 -0.31,0 -0.46,0 -0.31,0 -0.62,0 -0.92,0 -0.6,0 -1.19,0 -1.76,0 -1.15,-0.01 -2.22,-0.01 -3.2,-0.01 -1.95,-0.01 -3.52,-0.02 -4.52,-0.03l-0.02 0 0 -0.02c0.01,-0.39 0.01,-0.69 0.01,-0.91 0.01,-0.09 0.01,-0.17 0.01,-0.23 0,-0.05 0,-0.07 0,-0.07 0.01,0 0.01,0.03 0.01,0.08 0,0.06 0,0.14 0.01,0.24 0,0.21 0,0.51 0.01,0.89l-0.03 -0.03c1,0 2.57,-0.01 4.52,-0.02 0.98,0 2.05,-0.01 3.2,-0.01 0.57,0 1.16,0 1.76,0 0.3,0 0.61,0 0.92,0 0.15,0 0.31,0 0.46,0l0.24 0 0.11 0 0.06 0 0.03 0 0.02 0 0 0 0.01 0c-0.03,0.02 0.06,-0.06 -0.06,0.06 0,-0.42 0,-0.83 0,-1.21l0.06 0.06c-3.17,-0.01 -5.99,-0.02 -8.03,-0.03 -1.01,0 -1.83,-0.01 -2.41,-0.01 -0.27,-0.01 -0.49,-0.01 -0.65,-0.01 -0.07,0 -0.13,-0.01 -0.17,-0.01 -0.04,0 -0.06,0 -0.07,0z"/>
    </g>
   </g>
   <g>
    <path class="fil1" d="M105.84 65.83c0,0.03 -2.83,0.06 -6.32,0.06 -3.5,0 -6.33,-0.03 -6.33,-0.06 0,-0.03 2.83,-0.06 6.33,-0.06 3.49,0 6.32,0.03 6.32,0.06z"/>
   </g>
   <path class="fil2" d="M90.42 53.96l1.14 8.82 14.81 0 0 -8.54 -6.73 0 -1.3 -1.15 -7.16 0c-0.46,0 -0.82,0.41 -0.76,0.87z"/>
   <g>
    <path class="fil1" d="M102.29 57.7c0,0.03 -1.62,0.06 -3.62,0.06 -2,0 -3.62,-0.03 -3.62,-0.06 0,-0.04 1.62,-0.07 3.62,-0.07 2,0 3.62,0.03 3.62,0.07z"/>
   </g>
   <g>
    <path class="fil1" d="M102.29 58.56c0,0.04 -1.62,0.06 -3.62,0.06 -2,0 -3.62,-0.02 -3.62,-0.06 0,-0.03 1.62,-0.06 3.62,-0.06 2,0 3.62,0.03 3.62,0.06z"/>
   </g>
   <path class="fil1" d="M102.73 67.48c0,0.03 -1.77,0.06 -3.96,0.06 -2.19,0 -3.97,-0.03 -3.97,-0.06 0,-0.03 1.78,-0.06 3.97,-0.06 2.19,0 3.96,0.03 3.96,0.06z"/>
   <path class="fil1" d="M124.13 50.59l0 12.19 14.81 0 0 -12.19c0,-0.58 -0.47,-1.05 -1.05,-1.05l-12.71 0c-0.58,0 -1.05,0.47 -1.05,1.05z"/>
   <g>
    <polygon class="fil3" points="124.82,56.16 124.92,51.69 137.88,51.69 137.88,54.24 "/>
   </g>
   <g>
    <polygon class="fil3" points="125.76,50.48 125.76,51.69 137.09,51.69 137.09,50.48 "/>
   </g>
   <g>
    <g>
     <path class="fil1" d="M125.76 50.48c0,0 0.02,0 0.06,0 0.04,-0.01 0.1,-0.01 0.16,-0.01 0.16,0 0.37,0 0.64,-0.01 0.58,0 1.39,-0.01 2.4,-0.02 2.05,0 4.88,-0.01 8.07,-0.02l0.06 0 0 0.06c0,0.38 0,0.79 0,1.21 -0.12,0.12 -0.04,0.03 -0.06,0.06l-0.01 0 0 0 -0.02 0 -0.03 0 -0.06 0 -0.11 0 -0.24 0c-0.15,0 -0.31,0 -0.46,0 -0.31,0 -0.62,0 -0.92,0 -0.6,0 -1.19,0 -1.76,0 -1.15,-0.01 -2.22,-0.01 -3.2,-0.01 -1.95,-0.01 -3.52,-0.02 -4.52,-0.03l-0.02 0 0 -0.02c0.01,-0.39 0.01,-0.69 0.01,-0.91 0.01,-0.09 0.01,-0.17 0.01,-0.23 0,-0.05 0,-0.07 0,-0.07 0.01,0 0.01,0.03 0.01,0.08 0,0.06 0,0.14 0.01,0.24 0,0.21 0,0.51 0.01,0.89l-0.03 -0.03c1,0 2.57,-0.01 4.52,-0.02 0.98,0 2.05,-0.01 3.2,-0.01 0.57,0 1.16,0 1.76,0 0.3,0 0.61,0 0.92,0 0.15,0 0.31,0 0.46,0l0.24 0 0.11 0 0.06 0 0.03 0 0.02 0 0 0 0.01 0c-0.03,0.02 0.06,-0.06 -0.06,0.06 0,-0.42 0,-0.83 0,-1.21l0.06 0.06c-3.17,-0.01 -5.99,-0.02 -8.03,-0.03 -1.01,0 -1.83,-0.01 -2.41,-0.01 -0.27,-0.01 -0.49,-0.01 -0.65,-0.01 -0.07,0 -0.13,-0.01 -0.17,-0.01 -0.04,0 -0.06,0 -0.07,0z"/>
    </g>
   </g>
   <g>
    <path class="fil1" d="M138.41 65.83c0,0.03 -2.83,0.06 -6.32,0.06 -3.5,0 -6.33,-0.03 -6.33,-0.06 0,-0.03 2.83,-0.06 6.33,-0.06 3.49,0 6.32,0.03 6.32,0.06z"/>
   </g>
   <path class="fil2" d="M122.99 53.96l1.14 8.82 14.81 0 0 -8.54 -6.73 0 -1.3 -1.15 -7.16 0c-0.46,0 -0.82,0.41 -0.76,0.87z"/>
   <g>
    <path class="fil1" d="M134.86 57.7c0,0.03 -1.62,0.06 -3.62,0.06 -2,0 -3.62,-0.03 -3.62,-0.06 0,-0.04 1.62,-0.07 3.62,-0.07 2,0 3.62,0.03 3.62,0.07z"/>
   </g>
   <g>
    <path class="fil1" d="M134.86 58.56c0,0.04 -1.62,0.06 -3.62,0.06 -2,0 -3.62,-0.02 -3.62,-0.06 0,-0.03 1.62,-0.06 3.62,-0.06 2,0 3.62,0.03 3.62,0.06z"/>
   </g>
   <path class="fil1" d="M135.3 67.48c0,0.03 -1.77,0.06 -3.96,0.06 -2.19,0 -3.97,-0.03 -3.97,-0.06 0,-0.03 1.78,-0.06 3.97,-0.06 2.19,0 3.96,0.03 3.96,0.06z"/>
   <path class="fil3" d="M132.51 19.59l-0.71 -1.18c-6.01,-9.9 -16.88,-15.87 -28.34,-15.15 -1.47,0.09 -2.94,0.29 -4.38,0.6 -10.42,2.23 -19.48,10.11 -23.24,20.2 -2.21,5.93 -2.83,12.76 -7.02,17.47 -5.46,6.13 -14.72,6.33 -22.87,6.07 -8.14,-0.25 -17.41,-0.04 -22.84,6.12 -3.41,3.85 -4.49,9.33 -4.21,14.49 0.72,13.67 10.25,25.88 22.35,31.96 12.11,6.07 26.37,6.61 39.62,3.94 18.57,-3.74 36.22,-14.02 46.83,-29.89 10.61,-15.87 13.3,-37.5 4.81,-54.63z"/>
   <path class="fil3" d="M45.87 22.43c0,7.3 -5.92,13.23 -13.23,13.23 -7.3,0 -13.22,-5.93 -13.22,-13.23 0,-7.31 5.92,-13.23 13.22,-13.23 7.31,0 13.23,5.92 13.23,13.23z"/>
   <path class="fil5" d="M152.59 150.03c0,0.05 -34.16,0.09 -76.29,0.09 -42.15,0 -76.3,-0.04 -76.3,-0.09 0,-0.05 34.15,-0.09 76.3,-0.09 42.13,0 76.29,0.04 76.29,0.09z"/>
   <path class="fil0" d="M94.85 78.86l-27.03 0 -5.16 7.67 -5.04 -7.67 -26.55 0c-1.7,0 -3.08,-1.37 -3.08,-3.07l0 -52.67c0,-1.69 1.38,-3.07 3.08,-3.07l63.78 0c1.7,0 3.08,1.38 3.08,3.07l0 52.67c0,1.7 -1.38,3.07 -3.08,3.07z"/>
   <path class="fil5" d="M94.85 78.86c0,0 0.06,0 0.17,-0.01 0.12,0 0.28,-0.02 0.5,-0.07 0.42,-0.1 1.08,-0.34 1.65,-1 0.28,-0.32 0.52,-0.76 0.65,-1.27 0.04,-0.13 0.04,-0.27 0.07,-0.4 0,-0.14 0.02,-0.28 0.01,-0.43 0,-0.29 0,-0.6 0,-0.92 0,-1.26 0,-2.73 -0.01,-4.37 0,-6.6 -0.01,-16.13 -0.02,-27.91 -0.01,-5.89 -0.01,-12.35 -0.02,-19.27 0.03,-0.85 -0.32,-1.71 -0.96,-2.29 -0.32,-0.29 -0.7,-0.51 -1.11,-0.65 -0.41,-0.14 -0.84,-0.15 -1.3,-0.14 -1.79,0 -3.6,0 -5.45,0 -3.69,0 -7.49,0 -11.38,0 -7.79,0 -15.97,0.01 -24.44,0.01 -4.24,0 -8.55,0 -12.93,0 -2.19,0 -4.39,0 -6.61,0 -0.56,0 -1.11,0 -1.67,0l-0.83 0c-0.14,0 -0.28,0.01 -0.41,0.02 -0.14,0.02 -0.27,0.03 -0.4,0.07 -0.53,0.12 -1.02,0.4 -1.4,0.78 -0.38,0.39 -0.67,0.88 -0.79,1.41 -0.13,0.48 -0.08,0.99 -0.09,1.49 0,0.51 0,1.01 0,1.52 0,1.01 0,2.01 0,3.02 0,2 0,4 0,5.98 0,3.96 0,7.88 0,11.73 0,7.7 0,15.16 0,22.32 0,1.79 0,3.56 0,5.3 0,0.44 0,0.88 0,1.31 0,0.44 -0.03,0.87 0.05,1.28 0.16,0.83 0.7,1.57 1.41,1.99 0.36,0.21 0.76,0.35 1.17,0.4 0.4,0.04 0.84,0.02 1.25,0.02 0.85,0 1.68,0 2.52,0 1.66,0.01 3.3,0.01 4.92,0.01 6.47,0 12.57,0 18.22,0.01l0.04 0 0.02 0.03c1.76,2.68 3.44,5.23 5.03,7.66l-0.1 0c1.84,-2.72 3.56,-5.28 5.17,-7.66l0.01 -0.02 0.03 0c8.55,0.01 15.31,0.02 19.93,0.03 2.31,0 4.09,0.01 5.29,0.01 0.59,0 1.05,0.01 1.35,0.01 0.31,0 0.46,0 0.46,0 0,0 -0.15,0.01 -0.46,0.01 -0.3,0 -0.76,0.01 -1.35,0.01 -1.2,0 -2.98,0.01 -5.29,0.01 -4.62,0.01 -11.38,0.02 -19.93,0.03l0.05 -0.02c-1.6,2.38 -3.32,4.93 -5.16,7.66l-0.05 0.08 -0.05 -0.08c-1.6,-2.43 -3.28,-4.98 -5.05,-7.66l0.06 0.03c-5.65,0.01 -11.75,0.01 -18.22,0.01 -1.62,0 -3.26,0 -4.92,0 -0.84,0 -1.67,0 -2.52,0.01 -0.42,-0.01 -0.83,0.01 -1.27,-0.03 -0.44,-0.05 -0.86,-0.2 -1.23,-0.42 -0.76,-0.45 -1.32,-1.22 -1.49,-2.1 -0.09,-0.44 -0.05,-0.88 -0.06,-1.31 0,-0.43 0,-0.87 0,-1.31 0,-1.74 0,-3.51 0,-5.3 0,-7.16 0,-14.62 -0.01,-22.32 0,-3.85 0,-7.77 0,-11.73 0,-1.98 0,-3.98 0,-5.98 0,-1.01 0,-2.01 0,-3.02 0,-0.51 0,-1.01 0,-1.52l0 -0.76c0.01,-0.26 0.03,-0.52 0.09,-0.77 0.14,-0.57 0.44,-1.08 0.84,-1.49 0.41,-0.41 0.92,-0.71 1.49,-0.84 0.13,-0.04 0.28,-0.05 0.42,-0.07 0.14,-0.01 0.29,-0.02 0.43,-0.02l0.83 0c0.56,0 1.11,0 1.67,0 2.22,0 4.42,0 6.61,0 4.38,0 8.69,0 12.93,0 8.47,0 16.65,0 24.44,0.01 3.89,0 7.69,0 11.38,0 1.85,0 3.66,0 5.45,0 0.44,-0.01 0.92,0 1.35,0.16 0.43,0.14 0.83,0.38 1.16,0.68 0.33,0.31 0.6,0.68 0.77,1.09 0.17,0.42 0.25,0.87 0.24,1.31 0,6.92 0,13.38 -0.01,19.27 -0.01,11.78 -0.02,21.31 -0.03,27.91 0,1.64 0,3.11 0,4.37 0,0.32 -0.01,0.63 -0.01,0.92 0.01,0.14 -0.01,0.29 -0.01,0.43 -0.03,0.14 -0.04,0.28 -0.08,0.41 -0.13,0.52 -0.37,0.96 -0.66,1.28 -0.58,0.67 -1.25,0.91 -1.68,1 -0.22,0.04 -0.38,0.06 -0.5,0.06 -0.11,0 -0.17,0 -0.17,0z"/>
   <path class="fil2" d="M45.82 71.07l-4.44 0c-1.05,0 -1.9,-0.85 -1.9,-1.9l0 -7.6c0,-1.05 0.85,-1.9 1.9,-1.9l4.44 0c1.05,0 1.9,0.85 1.9,1.9l0 7.6c0,1.05 -0.85,1.9 -1.9,1.9z"/>
   <path class="fil2" d="M65.26 71.07l-4.21 0c-1.05,0 -1.9,-0.85 -1.9,-1.9l0 -7.6c0,-1.05 0.85,-1.9 1.9,-1.9l4.21 0c1.06,0 1.91,0.85 1.91,1.9l0 7.6c0,1.05 -0.85,1.9 -1.91,1.9z"/>
   <path class="fil2" d="M55.63 71.07l-4.21 0c-1.06,0 -1.91,-0.85 -1.91,-1.9l0 -7.6c0,-1.05 0.85,-1.9 1.91,-1.9l4.21 0c1.05,0 1.9,0.85 1.9,1.9l0 7.6c0,1.05 -0.85,1.9 -1.9,1.9z"/>
   <path class="fil2" d="M75.08 71.07l-4.43 0c-1.06,0 -1.91,-0.85 -1.91,-1.9l0 -7.6c0,-1.05 0.85,-1.9 1.91,-1.9l4.43 0c1.06,0 1.91,0.85 1.91,1.9l0 7.6c0,1.05 -0.85,1.9 -1.91,1.9z"/>
   <path class="fil2" d="M84.54 71.07l-4.44 0c-1.05,0 -1.9,-0.85 -1.9,-1.9l0 -7.6c0,-1.05 0.85,-1.9 1.9,-1.9l4.44 0c1.05,0 1.91,0.85 1.91,1.9l0 7.6c0,1.05 -0.86,1.9 -1.91,1.9z"/>
   <polygon class="fil6" points="44.66,65.07 45.54,65.55 45.15,66.21 44.26,65.68 44.27,66.66 43.51,66.66 43.52,65.67 42.63,66.21 42.24,65.55 43.13,65.07 42.24,64.58 42.63,63.92 43.52,64.45 43.51,63.47 44.27,63.47 44.26,64.45 45.15,63.92 45.54,64.58 "/>
   <polygon class="fil6" points="54.27,65.02 55.15,65.49 54.75,66.16 53.86,65.63 53.88,66.61 53.12,66.61 53.13,65.62 52.24,66.16 51.85,65.49 52.73,65.02 51.85,64.53 52.24,63.87 53.13,64.4 53.12,63.41 53.88,63.41 53.86,64.4 54.75,63.87 55.15,64.53 "/>
   <polygon class="fil6" points="64.11,65.02 64.99,65.49 64.59,66.16 63.7,65.63 63.72,66.61 62.96,66.61 62.97,65.62 62.08,66.16 61.69,65.49 62.57,65.02 61.69,64.53 62.08,63.87 62.97,64.4 62.96,63.41 63.72,63.41 63.7,64.4 64.59,63.87 64.99,64.53 "/>
   <polygon class="fil6" points="73.64,65.02 74.52,65.49 74.12,66.16 73.23,65.63 73.25,66.61 72.49,66.61 72.49,65.62 71.61,66.16 71.22,65.49 72.1,65.02 71.22,64.53 71.61,63.87 72.49,64.4 72.49,63.41 73.25,63.41 73.23,64.4 74.12,63.87 74.52,64.53 "/>
   <path class="fil5" d="M45.73 71.14l-4.26 0c-1.1,0 -1.99,-0.89 -1.99,-1.99l0 -7.56c0,-1.1 0.89,-1.99 1.99,-1.99l4.26 0c1.1,0 1.99,0.89 1.99,1.99l0 7.56c0,1.1 -0.89,1.99 -1.99,1.99zm-4.26 -11.4l0 0c-1.02,0 -1.85,0.83 -1.85,1.85l0 7.56c0,1.02 0.83,1.85 1.85,1.85l4.26 0c1.02,0 1.85,-0.83 1.85,-1.85l0 -7.56c0,-1.02 -0.83,-1.85 -1.85,-1.85l-4.26 0z"/>
   <path class="fil5" d="M55.63 71.14l-4.26 0c-1.1,0 -1.99,-0.89 -1.99,-1.99l0 -7.56c0,-1.1 0.89,-1.99 1.99,-1.99l4.26 0c1.1,0 1.99,0.89 1.99,1.99l0 7.56c0,1.1 -0.89,1.99 -1.99,1.99zm-4.26 -11.4l0 0c-1.02,0 -1.85,0.83 -1.85,1.85l0 7.56c0,1.02 0.83,1.85 1.85,1.85l4.26 0c1.02,0 1.85,-0.83 1.85,-1.85l0 -7.56c0,-1.02 -0.83,-1.85 -1.85,-1.85l-4.26 0z"/>
   <path class="fil5" d="M65.26 71.14l-4.26 0c-1.1,0 -1.99,-0.89 -1.99,-1.99l0 -7.56c0,-1.1 0.89,-1.99 1.99,-1.99l4.26 0c1.1,0 1.99,0.89 1.99,1.99l0 7.56c0,1.1 -0.89,1.99 -1.99,1.99zm-4.26 -11.4l0 0c-1.02,0 -1.85,0.83 -1.85,1.85l0 7.56c0,1.02 0.83,1.85 1.85,1.85l4.26 0c1.02,0 1.85,-0.83 1.85,-1.85l0 -7.56c0,-1.02 -0.83,-1.85 -1.85,-1.85l-4.26 0z"/>
   <path class="fil5" d="M75 71.14l-4.27 0c-1.09,0 -1.98,-0.89 -1.98,-1.99l0 -7.56c0,-1.1 0.89,-1.99 1.98,-1.99l4.27 0c1.1,0 1.99,0.89 1.99,1.99l0 7.56c0,1.1 -0.89,1.99 -1.99,1.99zm-4.27 -11.4l0 0c-1.01,0 -1.84,0.83 -1.84,1.85l0 7.56c0,1.02 0.83,1.85 1.84,1.85l4.27 0c1.02,0 1.85,-0.83 1.85,-1.85l0 -7.56c0,-1.02 -0.83,-1.85 -1.85,-1.85l-4.27 0z"/>
   <path class="fil5" d="M84.45 71.14l-4.26 0c-1.1,0 -1.99,-0.89 -1.99,-1.99l0 -7.56c0,-1.1 0.89,-1.99 1.99,-1.99l4.26 0c1.1,0 1.99,0.89 1.99,1.99l0 7.56c0,1.1 -0.89,1.99 -1.99,1.99zm-4.26 -11.4l0 0c-1.02,0 -1.85,0.83 -1.85,1.85l0 7.56c0,1.02 0.83,1.85 1.85,1.85l4.26 0c1.02,0 1.85,-0.83 1.85,-1.85l0 -7.56c0,-1.02 -0.83,-1.85 -1.85,-1.85l-4.26 0z"/>
   <path class="fil6" d="M84.61 68.12c0,0.05 -1.03,0.09 -2.29,0.09 -1.26,0 -2.28,-0.04 -2.28,-0.09 0,-0.05 1.02,-0.09 2.28,-0.09 1.26,0 2.29,0.04 2.29,0.09z"/>
   <path class="fil7" d="M72.55 38.63c0,5.09 -4.13,9.21 -9.21,9.21 -5.09,0 -9.21,-4.12 -9.21,-9.21 0,-5.08 4.12,-9.21 9.21,-9.21 5.08,0 9.21,4.13 9.21,9.21z"/>
   <path class="fil4" d="M61.72 36.96l-0.16 0 0 -0.86c0,-0.99 0.81,-1.8 1.8,-1.8 0.99,0 1.8,0.81 1.8,1.8l0 0.7 -0.16 0 0 -0.7c0,-0.91 -0.73,-1.64 -1.64,-1.64 -0.91,0 -1.64,0.73 -1.64,1.64l0 0.86z"/>
   <path class="fil4" d="M65.62 42.96l-4.57 0c-0.41,0 -0.75,-0.34 -0.75,-0.75l0 -4.57c0,-0.42 0.34,-0.76 0.75,-0.76l4.57 0c0.42,0 0.76,0.34 0.76,0.76l0 4.57c0,0.41 -0.34,0.75 -0.76,0.75zm-4.57 -5.93l0 0c-0.33,0 -0.6,0.28 -0.6,0.61l0 4.57c0,0.33 0.27,0.6 0.6,0.6l4.57 0c0.33,0 0.61,-0.27 0.61,-0.6l0 -4.57c0,-0.33 -0.28,-0.61 -0.61,-0.61l-4.57 0z"/>
   <g>
    <path class="fil4" d="M63.36 40.07c-0.4,0 -0.72,-0.32 -0.72,-0.71 0,-0.4 0.32,-0.72 0.72,-0.72 0.4,0 0.72,0.32 0.72,0.72 0,0.39 -0.32,0.71 -0.72,0.71zm0 -1.28l0 0c-0.31,0 -0.56,0.26 -0.56,0.57 0,0.31 0.25,0.56 0.56,0.56 0.31,0 0.56,-0.25 0.56,-0.56 0,-0.31 -0.25,-0.57 -0.56,-0.57z"/>
   </g>
   <g>
    <polygon class="fil4" points="63.41,41.26 63.26,41.26 63.26,39.96 63.41,39.96 "/>
   </g>
   <path class="fil1" d="M94.6 25.27c0,1.57 -1.28,2.85 -2.85,2.85 -1.57,0 -2.84,-1.28 -2.84,-2.85 0,-1.57 1.27,-2.84 2.84,-2.84 1.57,0 2.85,1.27 2.85,2.84z"/>
   <path class="fil4" d="M90.83 26.28c-0.02,0 -0.04,-0.01 -0.06,-0.02 -0.03,-0.04 -0.03,-0.09 0,-0.13l1.84 -1.84c0.04,-0.03 0.09,-0.03 0.12,0 0.04,0.03 0.04,0.09 0,0.12l-1.84 1.85c-0.01,0.01 -0.04,0.02 -0.06,0.02z"/>
   <path class="fil4" d="M92.67 26.28c-0.02,0 -0.04,-0.01 -0.06,-0.02l-1.84 -1.85c-0.03,-0.03 -0.03,-0.09 0,-0.12 0.03,-0.03 0.09,-0.03 0.12,0l1.84 1.84c0.04,0.04 0.04,0.09 0,0.13 -0.01,0.01 -0.04,0.02 -0.06,0.02z"/>
   <path class="fil8" d="M18.59 132.59c0,0 -9.19,-10.57 -12.66,-21.15 -3.46,-10.57 -1.82,-9.36 -1.82,-9.36 0,0 4.68,10.27 8.24,15.23 3.55,4.97 9.88,12.25 9.88,12.25l-3.64 3.03z"/>
   <path class="fil8" d="M20.42 103.73c-0.3,-0.52 -1.09,-0.25 -1,0.34 0.56,3.71 1.77,12.43 1.73,18.08 -0.06,7.35 0,10.19 0,10.19l3.82 0c0,0 -0.68,-15.19 -1.54,-19.81 -0.61,-3.25 -1.89,-6.85 -3.01,-8.8z"/>
   <path class="fil8" d="M22.5 131.1c0,0 2.41,-5.06 3.15,-11.42 0.32,-2.7 -0.24,-6.35 -1.08,-11.23 -0.41,-2.36 -0.5,-4.16 -0.48,-5.4 0.01,-0.94 1.25,-1.25 1.71,-0.43 0.46,0.82 1.8,3.64 2.14,5.4 0.92,4.81 1.97,7.22 1.17,11.79 -0.8,4.56 -3.77,11.6 -3.77,11.6l-2.84 -0.31z"/>
   <path class="fil8" d="M25.95 131.41c0,0 10.09,-21.68 10.79,-24.89 0.7,-3.22 3.07,-10.63 3.35,-10.21 0.28,0.42 0.7,4.33 -1.12,8.81 -1.81,4.47 -9.58,26.95 -9.58,26.95l-3.44 0 0 -0.66z"/>
   <path class="fil5" d="M21.4 130.44c0,0.01 -0.1,-0.06 -0.28,-0.19 -0.18,-0.14 -0.45,-0.33 -0.78,-0.6 -0.68,-0.53 -1.62,-1.33 -2.71,-2.39 -2.21,-2.12 -4.95,-5.38 -7.32,-9.4 -2.38,-4.01 -3.99,-7.94 -5,-10.82 -0.51,-1.44 -0.88,-2.62 -1.12,-3.44 -0.12,-0.4 -0.2,-0.72 -0.26,-0.94 -0.06,-0.22 -0.09,-0.33 -0.08,-0.34 0,0 0.05,0.11 0.12,0.33 0.07,0.23 0.18,0.54 0.3,0.93 0.27,0.81 0.66,1.98 1.18,3.41 1.05,2.86 2.67,6.76 5.04,10.76 2.37,4 5.08,7.26 7.24,9.4 1.08,1.07 2.01,1.89 2.66,2.43 0.32,0.28 0.58,0.48 0.75,0.63 0.18,0.15 0.26,0.22 0.26,0.23z"/>
   <path class="fil5" d="M22.5 120.04c-0.01,0 -0.04,-0.23 -0.09,-0.64 -0.04,-0.45 -0.11,-1.03 -0.18,-1.73 -0.16,-1.47 -0.41,-3.49 -0.77,-5.71 -0.36,-2.23 -0.75,-4.23 -1.06,-5.67 -0.15,-0.69 -0.27,-1.27 -0.37,-1.71 -0.09,-0.4 -0.13,-0.63 -0.11,-0.63 0.01,0 0.08,0.21 0.19,0.61 0.12,0.4 0.26,0.98 0.44,1.7 0.34,1.43 0.77,3.43 1.12,5.66 0.36,2.23 0.59,4.26 0.71,5.73 0.06,0.74 0.1,1.33 0.12,1.75 0.02,0.41 0.02,0.64 0,0.64z"/>
   <path class="fil5" d="M24.87 102.45c0,0 0.04,0.09 0.12,0.27 0.07,0.21 0.17,0.48 0.3,0.81 0.13,0.35 0.29,0.78 0.43,1.29 0.15,0.51 0.35,1.08 0.49,1.74 0.08,0.32 0.16,0.66 0.25,1.02 0.09,0.35 0.15,0.73 0.22,1.11 0.17,0.77 0.27,1.61 0.39,2.48 0.2,1.76 0.31,3.71 0.24,5.75 -0.08,2.04 -0.33,3.97 -0.65,5.71 -0.18,0.87 -0.34,1.69 -0.56,2.45 -0.11,0.38 -0.2,0.75 -0.31,1.09 -0.11,0.35 -0.21,0.69 -0.32,1 -0.19,0.64 -0.42,1.2 -0.61,1.7 -0.18,0.5 -0.37,0.92 -0.52,1.26 -0.15,0.32 -0.27,0.58 -0.36,0.78 -0.09,0.18 -0.14,0.27 -0.14,0.26 -0.01,0 0.02,-0.1 0.1,-0.28 0.08,-0.2 0.18,-0.47 0.32,-0.8 0.14,-0.34 0.32,-0.76 0.49,-1.26 0.17,-0.5 0.4,-1.06 0.58,-1.7 0.1,-0.32 0.2,-0.65 0.31,-1 0.1,-0.35 0.18,-0.72 0.28,-1.1 0.21,-0.75 0.37,-1.57 0.55,-2.44 0.31,-1.73 0.55,-3.65 0.63,-5.68 0.06,-2.03 -0.04,-3.97 -0.22,-5.71 -0.12,-0.88 -0.22,-1.71 -0.37,-2.48 -0.08,-0.38 -0.13,-0.75 -0.21,-1.11 -0.08,-0.35 -0.16,-0.69 -0.24,-1.02 -0.13,-0.65 -0.32,-1.22 -0.45,-1.73 -0.14,-0.52 -0.28,-0.95 -0.4,-1.3 -0.11,-0.34 -0.2,-0.61 -0.26,-0.82 -0.06,-0.19 -0.09,-0.29 -0.08,-0.29z"/>
   <path class="fil5" d="M39.98 96.74c0,0 0,0.04 -0.01,0.1 -0.01,0.08 -0.03,0.17 -0.05,0.28 -0.04,0.25 -0.1,0.61 -0.2,1.08 -0.19,0.93 -0.51,2.28 -1.02,3.9 -0.5,1.63 -1.19,3.54 -2.01,5.64 -0.81,2.1 -1.76,4.38 -2.65,6.82 -0.91,2.43 -1.61,4.8 -2.27,6.95 -0.65,2.16 -1.27,4.09 -1.87,5.69 -0.59,1.6 -1.16,2.85 -1.59,3.7 -0.21,0.43 -0.4,0.75 -0.52,0.97 -0.05,0.1 -0.1,0.18 -0.14,0.25 -0.03,0.06 -0.05,0.08 -0.05,0.08 0,0 0.01,-0.03 0.03,-0.09 0.04,-0.07 0.08,-0.15 0.13,-0.26 0.1,-0.22 0.28,-0.55 0.47,-0.98 0.41,-0.86 0.95,-2.13 1.53,-3.73 0.57,-1.59 1.18,-3.53 1.82,-5.68 0.65,-2.16 1.34,-4.54 2.25,-6.98 0.9,-2.44 1.85,-4.72 2.68,-6.81 0.82,-2.09 1.53,-3.99 2.05,-5.61 0.52,-1.62 0.86,-2.95 1.08,-3.88 0.11,-0.46 0.18,-0.82 0.24,-1.07 0.03,-0.11 0.05,-0.2 0.07,-0.27 0.01,-0.07 0.02,-0.1 0.03,-0.1z"/>
   <path class="fil8" d="M8.87 91.95c-0.64,-0.63 -1.69,0.03 -1.43,0.89 0.27,0.87 0.67,1.99 1.27,3.26 1.38,2.95 5.46,13.52 7.37,19.33 1.9,5.81 4.59,16.64 4.59,16.64l4.07 -0.66c0,0 -3.72,-17.8 -7.36,-24.22 -2.93,-5.15 -5.85,-12.6 -8.51,-15.24z"/>
   <path class="fil5" d="M17.19 119.06c0.01,0 0.09,0.17 0.21,0.49 0.12,0.32 0.28,0.78 0.47,1.37 0.37,1.16 0.83,2.78 1.3,4.58 0.46,1.81 0.84,3.45 1.11,4.64 0.12,0.56 0.22,1.03 0.3,1.41 0.07,0.33 0.1,0.52 0.09,0.52 -0.02,0 -0.07,-0.18 -0.17,-0.5 -0.1,-0.38 -0.22,-0.84 -0.37,-1.4 -0.31,-1.22 -0.72,-2.83 -1.17,-4.61 -0.47,-1.8 -0.9,-3.43 -1.24,-4.6 -0.16,-0.55 -0.29,-1.02 -0.4,-1.38 -0.1,-0.33 -0.14,-0.51 -0.13,-0.52z"/>
   <path class="fil5" d="M22.71 131.74c0,0 -0.01,-0.04 -0.02,-0.11 -0.01,-0.08 -0.03,-0.19 -0.04,-0.32 -0.05,-0.28 -0.09,-0.7 -0.17,-1.23 -0.15,-1.07 -0.42,-2.61 -0.85,-4.49 -0.44,-1.89 -1.07,-4.1 -1.91,-6.51 -0.84,-2.41 -1.88,-5.02 -3.07,-7.72 -2.4,-5.39 -4.79,-10.17 -6.36,-13.7 -0.8,-1.76 -1.41,-3.2 -1.82,-4.21 -0.2,-0.49 -0.35,-0.89 -0.46,-1.15 -0.04,-0.13 -0.08,-0.23 -0.11,-0.31 -0.02,-0.07 -0.03,-0.1 -0.03,-0.1 0,0 0.02,0.03 0.05,0.09 0.04,0.08 0.08,0.18 0.13,0.3 0.12,0.28 0.29,0.66 0.5,1.14 0.43,0.99 1.06,2.42 1.88,4.18 1.6,3.51 4.02,8.28 6.42,13.68 1.19,2.7 2.23,5.31 3.06,7.74 0.83,2.42 1.45,4.64 1.86,6.53 0.42,1.89 0.67,3.44 0.79,4.52 0.08,0.53 0.1,0.95 0.13,1.24 0.01,0.13 0.02,0.23 0.02,0.32 0.01,0.07 0.01,0.11 0,0.11z"/>
   <path class="fil5" d="M24.74 131.41c-0.01,0 -0.06,-0.24 -0.14,-0.68 -0.08,-0.48 -0.18,-1.11 -0.31,-1.88 -0.28,-1.57 -0.71,-3.75 -1.33,-6.11 -0.61,-2.37 -1.29,-4.48 -1.82,-5.99 -0.26,-0.73 -0.48,-1.33 -0.64,-1.79 -0.15,-0.42 -0.23,-0.65 -0.22,-0.66 0.02,-0.01 0.12,0.22 0.3,0.63 0.17,0.42 0.42,1.02 0.7,1.77 0.57,1.5 1.28,3.61 1.89,5.98 0.62,2.38 1.02,4.56 1.27,6.15 0.11,0.79 0.2,1.44 0.25,1.88 0.05,0.45 0.07,0.7 0.05,0.7z"/>
   <polygon class="fil6" points="33.1,150.19 17.2,150.19 17.2,130.82 33.1,130.82 "/>
   <polygon class="fil9" points="33.1,150.19 17.2,150.19 17.2,130.82 33.1,130.82 "/>
   <polygon class="fil7" points="28.03,150.19 13.93,150.19 13.93,130.82 28.03,130.82 "/>
   <polygon class="fil10" points="125.99,87.74 117.63,86.53 100.92,89 96.22,90.66 97.06,100.92 113.13,103.88 123.97,100.67 128.07,94.63 "/>
   <path class="fil7" d="M131.25 88.72l-6.99 -1.65c0,0 -4.94,15.29 -17.15,14.63 -9.94,-0.53 -10.05,-11.64 -10.05,-11.64l-7.17 2.3c0,0 -2.74,18.38 0.29,31.41 0.71,3.04 1.66,7.14 1.66,7.14l-0.97 19.03 53.01 0.09 -12.63 -61.31z"/>
   <path class="fil11" d="M110.48 146.25c2.57,-0.06 4.96,0.15 7.53,0.09 3.1,-0.08 6.22,-0.15 9.27,0.35 2.29,0.38 4.52,1.08 6.82,1.44 3.12,0.49 6.46,0.32 9.24,-1.19l-0.45 -2.59 -10.56 -2.55 -21.85 4.45z"/>
   <path class="fil7" d="M83.9 96.64c2.43,-3.13 6.46,-4.43 6.46,-4.43l2.71 23.61 -5.14 34.37 -16.82 -0.08c0,0 9.28,-48.93 12.79,-53.47z"/>
   <path class="fil7" d="M130.44 88.55c0,0 11.32,0.91 15.38,19.46 1.84,8.39 4.16,18.22 4.83,24.83 0.49,4.79 -2.12,12.3 -6.9,12.91l-6.01 0.81c-1.17,0.16 -2.38,0.13 -3.53,-0.13 -3.8,-0.88 -4.19,-3.48 -4.85,-6.25l-1.76 -5.53c-0.96,-5.27 3.95,-6.25 6.66,-6.19l-2.02 -24.03 -1.8 -15.88z"/>
   <path class="fil5" d="M88.96 105.34c-0.01,-0.01 -0.03,0.08 -0.05,0.25 -0.03,0.19 -0.07,0.44 -0.12,0.75 -0.02,0.17 -0.05,0.35 -0.08,0.54 -0.02,0.2 -0.04,0.42 -0.06,0.65 -0.05,0.46 -0.11,0.99 -0.13,1.58 -0.09,1.17 -0.08,2.57 -0.03,4.13 0.07,1.55 0.24,3.25 0.5,5.02 0.26,1.78 0.59,3.45 0.92,4.97 0.33,1.52 0.66,2.88 0.94,4.02 0.29,1.13 0.53,2.05 0.71,2.68 0.08,0.31 0.15,0.55 0.2,0.73 0.05,0.17 0.07,0.26 0.08,0.25 0.01,0 -0.01,-0.09 -0.05,-0.26 -0.04,-0.18 -0.1,-0.43 -0.17,-0.73 -0.15,-0.66 -0.37,-1.58 -0.64,-2.7 -0.27,-1.15 -0.59,-2.51 -0.9,-4.02 -0.33,-1.52 -0.65,-3.19 -0.91,-4.96 -0.26,-1.77 -0.44,-3.47 -0.51,-5.01 -0.07,-1.55 -0.08,-2.94 -0.01,-4.11 0.01,-0.59 0.06,-1.12 0.1,-1.58 0.02,-0.23 0.03,-0.45 0.05,-0.65 0.02,-0.19 0.04,-0.38 0.06,-0.54 0.04,-0.31 0.06,-0.56 0.08,-0.75 0.02,-0.17 0.02,-0.26 0.02,-0.26z"/>
   <path class="fil5" d="M143.14 134.96c0.01,0 -0.01,-0.17 -0.09,-0.46 -0.07,-0.3 -0.21,-0.72 -0.44,-1.22 -0.44,-1 -1.32,-2.31 -2.68,-3.3 -1.37,-0.99 -2.88,-1.43 -3.96,-1.54 -0.55,-0.06 -0.99,-0.06 -1.3,-0.04 -0.3,0.02 -0.47,0.05 -0.47,0.06 0,0.03 0.68,-0.05 1.75,0.11 1.07,0.14 2.54,0.58 3.87,1.56 1.34,0.97 2.21,2.23 2.68,3.2 0.47,0.97 0.6,1.64 0.64,1.63z"/>
   <path class="fil5" d="M140.52 125.72c0,-0.01 -0.09,-0.02 -0.27,-0.02 -0.18,-0.01 -0.43,0 -0.75,0.03 -0.63,0.06 -1.49,0.23 -2.39,0.6 -0.89,0.37 -1.63,0.85 -2.12,1.25 -0.24,0.2 -0.43,0.38 -0.55,0.51 -0.12,0.12 -0.19,0.2 -0.18,0.21 0.02,0.02 0.31,-0.25 0.81,-0.61 0.5,-0.37 1.23,-0.83 2.11,-1.19 0.88,-0.36 1.72,-0.55 2.34,-0.64 0.61,-0.1 1,-0.11 1,-0.14z"/>
   <path class="fil5" d="M128.8 101.7c0.01,0 0.02,-0.18 0.03,-0.49 0,-0.32 0.02,-0.78 0.06,-1.35 0.07,-1.14 0.28,-2.7 0.75,-4.37 0.47,-1.67 1.11,-3.12 1.63,-4.12 0.26,-0.51 0.49,-0.91 0.65,-1.19 0.16,-0.27 0.25,-0.43 0.24,-0.43 -0.01,-0.01 -0.12,0.13 -0.3,0.4 -0.18,0.26 -0.42,0.65 -0.7,1.16 -0.56,0.99 -1.22,2.44 -1.69,4.13 -0.47,1.69 -0.67,3.27 -0.71,4.41 -0.02,0.57 -0.02,1.04 0,1.36 0.01,0.32 0.03,0.49 0.04,0.49z"/>
   <path class="fil5" d="M107.11 118.54c0,0 0.02,0.07 0.06,0.2 0.04,0.12 0.09,0.31 0.18,0.55 0.18,0.47 0.48,1.13 0.95,1.9 0.46,0.77 1.12,1.64 1.98,2.47 0.85,0.82 1.93,1.61 3.17,2.21 1.24,0.59 2.52,0.94 3.71,1.09 1.18,0.15 2.26,0.12 3.16,0.01 0.89,-0.12 1.6,-0.3 2.08,-0.46 0.24,-0.07 0.42,-0.15 0.54,-0.2 0.12,-0.05 0.19,-0.07 0.18,-0.08 0,-0.01 -0.26,0.07 -0.74,0.21 -0.49,0.14 -1.19,0.3 -2.08,0.4 -1.76,0.21 -4.31,0.05 -6.78,-1.13 -2.46,-1.19 -4.18,-3.08 -5.11,-4.58 -0.48,-0.76 -0.8,-1.41 -0.99,-1.87 -0.2,-0.46 -0.29,-0.72 -0.31,-0.72z"/>
   <path class="fil5" d="M130.98 144.64c0.02,-0.02 0.19,0.24 0.62,0.58 0.42,0.35 1.12,0.74 2.07,0.99 0.94,0.26 2.12,0.37 3.41,0.3 1.29,-0.09 2.72,-0.24 4.2,-0.46 1.48,-0.23 2.9,-0.5 4.1,-0.95 0.59,-0.24 1.09,-0.62 1.51,-1 0.42,-0.39 0.77,-0.8 1.05,-1.2 0.58,-0.79 0.94,-1.51 1.16,-2.01 0.11,-0.25 0.19,-0.45 0.24,-0.58 0.06,-0.14 0.09,-0.21 0.09,-0.21 0.01,0.01 -0.01,0.08 -0.05,0.22 -0.04,0.14 -0.12,0.34 -0.21,0.6 -0.21,0.51 -0.55,1.24 -1.12,2.05 -0.28,0.41 -0.63,0.83 -1.06,1.24 -0.42,0.4 -0.93,0.79 -1.54,1.05 -1.24,0.47 -2.65,0.74 -4.14,0.97 -1.49,0.22 -2.92,0.37 -4.22,0.45 -1.31,0.06 -2.5,-0.06 -3.46,-0.34 -0.95,-0.27 -1.66,-0.7 -2.08,-1.06 -0.2,-0.19 -0.36,-0.34 -0.44,-0.46 -0.09,-0.11 -0.14,-0.18 -0.13,-0.18z"/>
   <path class="fil5" d="M129.11 107.61c0.05,-0.01 1.24,4.63 2.67,10.36 1.42,5.73 2.53,10.38 2.49,10.39 -0.05,0.01 -1.25,-4.62 -2.67,-10.35 -1.42,-5.73 -2.54,-10.38 -2.49,-10.4z"/>
   <path class="fil5" d="M127.67 133.77c-0.01,0 -0.04,-0.13 -0.06,-0.38 -0.02,-0.24 -0.06,-0.6 -0.02,-1.05 0.02,-0.45 0.17,-0.99 0.5,-1.49 0.17,-0.24 0.35,-0.5 0.59,-0.73 0.23,-0.23 0.5,-0.42 0.8,-0.59 1.21,-0.66 2.42,-0.93 3.3,-1.07 0.44,-0.06 0.79,-0.08 1.04,-0.09 0.25,-0.01 0.39,0 0.39,0.01 0,0.03 -0.55,0.05 -1.41,0.21 -0.86,0.16 -2.06,0.46 -3.23,1.09 -0.29,0.17 -0.55,0.36 -0.77,0.57 -0.22,0.21 -0.4,0.46 -0.57,0.7 -0.32,0.47 -0.47,0.97 -0.52,1.4 -0.04,0.43 -0.03,0.79 -0.03,1.04 0,0.25 0,0.38 -0.01,0.38z"/>
   <path class="fil11" d="M89.48 120.91c-2.89,-4.89 -2.95,-11.25 -0.43,-16.34 -0.75,5.42 -0.69,10.98 0.51,16.32l-0.08 0.02z"/>
   <path class="fil10" d="M104.77 133.12c0.01,0.01 0.01,0.01 0.02,0.01 -0.01,0 -0.01,0 -0.02,-0.01z"/>
   <path class="fil10" d="M104.89 133.18c0.02,0.01 0.03,0.02 0.05,0.02 -0.01,0 -0.03,-0.01 -0.05,-0.02z"/>
   <path class="fil10" d="M104.79 133.13c0.04,0.02 0.08,0.04 0.1,0.05 -0.03,-0.01 -0.07,-0.03 -0.1,-0.05z"/>
   <path class="fil10" d="M104.72 133.1c0.02,0.01 0.03,0.02 0.05,0.02 -0.03,-0.01 -0.05,-0.02 -0.05,-0.02z"/>
   <path class="fil10" d="M94.09 142.87c0.91,-1.72 8.01,-6.25 8.01,-6.25l-1.92 -0.45 -2.13 0.9c0,0 -0.13,0.88 -0.91,1.99 -0.78,1.11 -2.1,-0.04 -2.1,-0.04l0.89 -4.3 4.2 -2.53c0,0 3.96,0.61 4.59,0.91l1.69 1.54c0.74,0.58 2.87,2.87 3.46,2.94 0.58,0.07 18.92,-4.06 18.92,-4.06 2.51,1.99 3.83,5.95 4.23,8.8 0,0 0.45,1.4 -0.04,2.16l-22.5 1.77 -4.77 1.32c0,0 -2.64,1.07 -3.92,1.34 -1.59,0.34 -2.66,-0.17 -2.7,-1.05 -0.04,-0.88 1.19,-0.98 1.19,-0.98 0,0 2,-0.72 3.06,-1.35 1.07,-0.62 1.74,-1.89 1.74,-1.89l-1.71 0.2c0,0 -3.61,2.51 -4.97,3.24 -1.36,0.74 -1.63,-0.61 -1.74,-1.02 -0.11,-0.41 4.06,-4.49 4.06,-4.49 0,0 -3.96,2.44 -4.67,3.06 -0.72,0.61 -1.77,0.8 -2,0.39 -0.23,-0.42 -0.87,-0.43 0.04,-2.15z"/>
   <path class="fil10" d="M104.94 133.2c0.02,0.01 0.03,0.02 0.04,0.02 -0.01,0 -0.03,-0.01 -0.04,-0.02z"/>
   <path class="fil10" d="M105 133.23c0.01,0.01 0.01,0.01 0,0z"/>
   <path class="fil10" d="M104.98 133.22c0.01,0.01 0.02,0.01 0.02,0.01 0,0 -0.01,0 -0.02,-0.01z"/>
   <path class="fil12" d="M113.65 143.27c0.01,0 0.02,-0.1 0.02,-0.28 0.01,-0.09 0,-0.2 -0.02,-0.33 -0.01,-0.13 -0.04,-0.27 -0.08,-0.43 -0.14,-0.63 -0.55,-1.44 -1.15,-2.22 -0.6,-0.77 -1.25,-1.38 -1.74,-1.8 -0.48,-0.42 -0.8,-0.65 -0.81,-0.63 -0.02,0.02 0.27,0.28 0.74,0.72 0.45,0.44 1.08,1.05 1.68,1.82 0.59,0.76 1,1.54 1.17,2.14 0.17,0.61 0.15,1.01 0.19,1.01z"/>
   <path class="fil12" d="M102.26 136.48c0,0.05 0.56,0.12 1.22,-0.11 0.65,-0.21 1.06,-0.61 1.03,-0.64 -0.03,-0.04 -0.47,0.28 -1.09,0.49 -0.61,0.21 -1.16,0.21 -1.16,0.26z"/>
   <path class="fil12" d="M101.08 141.19c0.02,0.04 0.83,-0.25 1.81,-0.65 0.98,-0.41 1.77,-0.77 1.75,-0.81 -0.02,-0.04 -0.83,0.25 -1.81,0.65 -0.98,0.41 -1.76,0.77 -1.75,0.81z"/>
   <path class="fil12" d="M104.89 143.6c0.03,0.04 0.43,-0.14 0.93,-0.33 0.5,-0.2 0.92,-0.34 0.91,-0.39 -0.02,-0.04 -0.46,0.03 -0.97,0.23 -0.51,0.2 -0.89,0.45 -0.87,0.49z"/>
   <path class="fil12" d="M101.67 141.51c-0.02,0.04 0.39,0.19 0.7,0.61 0.32,0.4 0.35,0.84 0.4,0.84 0.02,0 0.05,-0.12 0.02,-0.3 -0.03,-0.18 -0.12,-0.42 -0.29,-0.64 -0.17,-0.23 -0.38,-0.38 -0.54,-0.45 -0.17,-0.08 -0.28,-0.08 -0.29,-0.06z"/>
   <path class="fil12" d="M100 138.88c-0.02,0.04 0.29,0.21 0.49,0.57 0.22,0.36 0.21,0.71 0.26,0.71 0.04,0.02 0.13,-0.38 -0.11,-0.79 -0.24,-0.42 -0.63,-0.54 -0.64,-0.49z"/>
   <path class="fil12" d="M100.57 134.18c0.02,0.01 0.08,-0.07 0.13,-0.22 0.05,-0.15 0.07,-0.38 0.01,-0.63 -0.06,-0.24 -0.18,-0.43 -0.3,-0.55 -0.11,-0.11 -0.2,-0.15 -0.22,-0.14 -0.03,0.04 0.26,0.3 0.36,0.73 0.11,0.44 -0.03,0.8 0.02,0.81z"/>
   <path class="fil5" d="M133.18 145.13c-0.01,0 -0.02,-0.19 -0.03,-0.52 0,-0.17 0,-0.37 -0.02,-0.6 -0.02,-0.24 -0.02,-0.51 -0.06,-0.8 -0.1,-1.18 -0.36,-2.81 -0.98,-4.51 -0.31,-0.85 -0.68,-1.63 -1.06,-2.31 -0.21,-0.33 -0.39,-0.66 -0.6,-0.94 -0.1,-0.14 -0.2,-0.28 -0.29,-0.41 -0.1,-0.13 -0.2,-0.25 -0.29,-0.37 -0.75,-0.92 -1.32,-1.39 -1.29,-1.42 0.01,0 0.15,0.11 0.4,0.33 0.13,0.11 0.28,0.24 0.44,0.42 0.17,0.17 0.36,0.36 0.55,0.59 0.1,0.12 0.2,0.24 0.3,0.36 0.1,0.13 0.2,0.27 0.3,0.41 0.22,0.28 0.41,0.61 0.62,0.94 0.4,0.69 0.78,1.48 1.09,2.33 0.63,1.73 0.87,3.38 0.94,4.57 0.03,0.29 0.03,0.57 0.03,0.8 0.01,0.24 0,0.44 -0.01,0.61 -0.01,0.33 -0.02,0.52 -0.04,0.52z"/>
   <path class="fil11" d="M140.91 129.04c-2.08,-0.86 -4.5,-1.09 -6.67,-0.6l0 0c3.89,-0.24 7.65,2.25 9,5.82 0.16,0.43 0.48,0.94 0.94,0.87 0.42,-0.06 0.58,-0.59 0.58,-1.02 0,-2.25 -1.78,-4.2 -3.85,-5.07z"/>
   <path class="fil4" d="M88.82 103.74c0,0.02 -0.11,-0.02 -0.3,-0.1 -0.19,-0.07 -0.46,-0.19 -0.78,-0.36 -0.66,-0.32 -1.53,-0.82 -2.43,-1.49 -0.89,-0.66 -1.63,-1.35 -2.13,-1.88 -0.25,-0.26 -0.45,-0.48 -0.58,-0.64 -0.12,-0.16 -0.19,-0.25 -0.18,-0.26 0.02,-0.02 0.33,0.31 0.85,0.81 0.52,0.51 1.26,1.17 2.15,1.83 0.89,0.65 1.74,1.17 2.38,1.52 0.63,0.35 1.03,0.55 1.02,0.57z"/>
   <path class="fil4" d="M128.96 105.05c0.01,0.01 -0.02,0.03 -0.08,0.06 -0.07,0.05 -0.16,0.1 -0.27,0.16 -0.23,0.15 -0.59,0.34 -1.05,0.58 -0.92,0.48 -2.29,1.11 -4.05,1.71 -1.76,0.59 -3.91,1.14 -6.34,1.52 -2.43,0.38 -5.12,0.59 -7.95,0.66 -2.84,0.07 -5.54,0.02 -7.99,-0.04 -2.45,-0.06 -4.66,-0.21 -6.5,-0.49 -1.84,-0.28 -3.3,-0.66 -4.28,-0.99 -0.49,-0.17 -0.87,-0.31 -1.12,-0.42 -0.12,-0.05 -0.22,-0.09 -0.29,-0.12 -0.06,-0.03 -0.1,-0.04 -0.1,-0.05 0.01,0 0.04,0.01 0.11,0.03 0.07,0.03 0.17,0.06 0.29,0.11 0.25,0.09 0.64,0.22 1.13,0.38 0.99,0.31 2.44,0.68 4.28,0.93 1.83,0.26 4.04,0.4 6.49,0.45 2.45,0.05 5.14,0.1 7.97,0.03 2.83,-0.07 5.52,-0.27 7.94,-0.64 2.42,-0.37 4.56,-0.91 6.32,-1.48 1.76,-0.58 3.13,-1.19 4.06,-1.65 0.46,-0.23 0.82,-0.42 1.06,-0.55 0.12,-0.06 0.21,-0.1 0.28,-0.14 0.06,-0.03 0.09,-0.05 0.09,-0.05z"/>
   <path class="fil4" d="M88.94 117.43c0,0.02 -0.15,-0.02 -0.43,-0.09 -0.31,-0.08 -0.69,-0.19 -1.15,-0.31 -0.98,-0.28 -2.32,-0.67 -3.8,-1.11 -1.48,-0.45 -2.82,-0.86 -3.79,-1.16 -0.45,-0.15 -0.83,-0.27 -1.14,-0.37 -0.26,-0.09 -0.41,-0.15 -0.41,-0.16 0.01,-0.01 0.16,0.02 0.43,0.09 0.31,0.08 0.7,0.19 1.16,0.32 0.98,0.27 2.32,0.66 3.8,1.1 1.48,0.45 2.82,0.86 3.78,1.16 0.46,0.15 0.84,0.28 1.14,0.37 0.27,0.1 0.42,0.15 0.41,0.16z"/>
   <path class="fil4" d="M89.96 136.67c-0.02,0.04 -3.49,-0.95 -7.76,-2.23 -4.27,-1.28 -7.72,-2.35 -7.7,-2.4 0.01,-0.05 3.48,0.95 7.75,2.23 4.27,1.27 7.72,2.35 7.71,2.4z"/>
   <path class="fil4" d="M140.22 95.08c0,0.02 -0.13,0.12 -0.39,0.31 -0.25,0.18 -0.62,0.44 -1.09,0.75 -0.94,0.61 -2.28,1.4 -3.82,2.15 -1.54,0.76 -2.98,1.33 -4.04,1.7 -0.53,0.19 -0.96,0.33 -1.26,0.41 -0.3,0.09 -0.47,0.13 -0.47,0.12 -0.01,-0.01 0.15,-0.08 0.45,-0.18 0.32,-0.13 0.74,-0.28 1.24,-0.47 1.04,-0.4 2.47,-0.99 4,-1.74 1.53,-0.75 2.87,-1.52 3.83,-2.1 0.45,-0.28 0.83,-0.52 1.12,-0.7 0.27,-0.17 0.42,-0.26 0.43,-0.25z"/>
   <path class="fil4" d="M147.14 114.84c0.01,0.01 -0.19,0.11 -0.56,0.27 -0.37,0.16 -0.91,0.38 -1.58,0.63 -1.35,0.5 -3.26,1.08 -5.41,1.51 -2.16,0.43 -4.14,0.61 -5.58,0.67 -0.72,0.03 -1.3,0.04 -1.7,0.03 -0.4,-0.01 -0.62,-0.02 -0.62,-0.03 0,-0.02 0.22,-0.03 0.62,-0.04 0.4,-0.01 0.98,-0.04 1.7,-0.09 1.43,-0.09 3.4,-0.29 5.54,-0.72 2.15,-0.43 4.05,-0.99 5.4,-1.45 0.68,-0.23 1.23,-0.43 1.6,-0.58 0.38,-0.14 0.59,-0.21 0.59,-0.2z"/>
   <path class="fil4" d="M137.13 146.45c-0.01,-0.01 0,-0.07 0.02,-0.2 0.02,-0.14 0.05,-0.32 0.08,-0.55 0.04,-0.23 0.09,-0.52 0.12,-0.86 0.04,-0.34 0.1,-0.73 0.11,-1.16 0.02,-0.21 0.03,-0.44 0.05,-0.67 0.01,-0.23 0,-0.48 0.01,-0.73 0.01,-0.51 -0.03,-1.04 -0.05,-1.61 -0.09,-1.13 -0.26,-2.37 -0.56,-3.65 -0.32,-1.27 -0.73,-2.45 -1.17,-3.5 -0.23,-0.51 -0.45,-1.01 -0.69,-1.45 -0.12,-0.22 -0.22,-0.44 -0.34,-0.65 -0.12,-0.2 -0.24,-0.39 -0.35,-0.58 -0.21,-0.37 -0.44,-0.69 -0.62,-0.97 -0.19,-0.29 -0.36,-0.53 -0.51,-0.72 -0.13,-0.18 -0.24,-0.33 -0.32,-0.45 -0.08,-0.1 -0.11,-0.16 -0.11,-0.16 0.01,0 0.05,0.04 0.14,0.14 0.09,0.11 0.21,0.26 0.35,0.43 0.16,0.18 0.34,0.42 0.53,0.7 0.2,0.28 0.43,0.59 0.65,0.97 0.12,0.18 0.23,0.37 0.36,0.58 0.12,0.2 0.23,0.42 0.35,0.64 0.25,0.44 0.47,0.94 0.71,1.46 0.46,1.05 0.88,2.24 1.19,3.52 0.31,1.29 0.47,2.54 0.55,3.68 0.03,0.57 0.06,1.11 0.04,1.62 -0.01,0.25 -0.01,0.5 -0.03,0.74 -0.01,0.23 -0.03,0.46 -0.05,0.67 -0.02,0.43 -0.09,0.82 -0.14,1.16 -0.04,0.34 -0.09,0.63 -0.15,0.87 -0.05,0.22 -0.09,0.4 -0.12,0.54 -0.03,0.12 -0.05,0.19 -0.05,0.19z"/>
   <path class="fil4" d="M150.56 135.79c-0.02,0 -0.03,-0.29 -0.1,-0.79 -0.08,-0.5 -0.28,-1.22 -0.69,-2.02 -0.4,-0.81 -1.07,-1.68 -1.96,-2.48 -0.9,-0.79 -2.04,-1.49 -3.34,-1.95 -1.31,-0.46 -2.63,-0.64 -3.83,-0.68 -1.2,-0.04 -2.29,0.04 -3.19,0.12 -0.91,0.09 -1.65,0.18 -2.15,0.23 -0.24,0.03 -0.43,0.05 -0.59,0.07 -0.13,0.01 -0.2,0.01 -0.2,0.01 0,-0.01 0.06,-0.02 0.2,-0.05 0.15,-0.02 0.34,-0.06 0.58,-0.1 0.5,-0.07 1.23,-0.18 2.14,-0.29 0.91,-0.1 2,-0.19 3.21,-0.16 1.22,0.04 2.56,0.21 3.89,0.68 1.32,0.47 2.48,1.18 3.39,2 0.9,0.81 1.57,1.71 1.97,2.54 0.4,0.83 0.58,1.56 0.64,2.07 0.04,0.26 0.03,0.46 0.04,0.59 0,0.14 0,0.21 -0.01,0.21z"/>
   <path class="fil4" d="M113.15 125.72c0,0.01 -0.06,0.02 -0.19,0.03 -0.15,0.02 -0.34,0.04 -0.57,0.06 -0.52,0.05 -1.22,0.11 -2.09,0.18 -1.76,0.13 -4.19,0.3 -6.89,0.44 -2.69,0.14 -5.13,0.23 -6.9,0.25 -0.89,0 -1.6,0 -2.1,-0.01 -0.23,-0.01 -0.41,-0.01 -0.56,-0.02 -0.13,-0.01 -0.2,-0.01 -0.2,-0.02 0,0 0.07,-0.01 0.2,-0.02 0.15,0 0.33,0 0.56,-0.01 0.52,-0.01 1.23,-0.03 2.1,-0.05 1.76,-0.05 4.2,-0.16 6.89,-0.3 2.68,-0.15 5.11,-0.29 6.9,-0.39 0.86,-0.05 1.57,-0.09 2.08,-0.12 0.24,-0.01 0.42,-0.02 0.57,-0.02 0.13,-0.01 0.2,0 0.2,0z"/>
   <path class="fil11" d="M115.17 126.44c2.2,0.65 5.23,0.81 7.37,-0.01 -1.68,2.37 -4.9,3.23 -7.7,2.46 -2.79,-0.77 -5.37,-3.57 -5.59,-6.46 1.36,1.84 3.73,3.37 5.92,4.01z"/>
   <path class="fil4" d="M132.94 124.15c0,0.01 -0.06,0.02 -0.18,0.05 -0.13,0.03 -0.3,0.06 -0.5,0.11 -0.44,0.09 -1.08,0.21 -1.87,0.35 -1.58,0.27 -3.78,0.62 -6.21,0.91 -2.43,0.3 -4.65,0.5 -6.25,0.61 -0.8,0.06 -1.45,0.09 -1.9,0.11 -0.2,0.01 -0.38,0.01 -0.51,0.02 -0.12,0 -0.18,0 -0.18,-0.01 -0.01,0 0.06,-0.01 0.17,-0.03 0.14,-0.01 0.31,-0.03 0.52,-0.05 0.47,-0.04 1.11,-0.1 1.89,-0.17 1.6,-0.14 3.81,-0.36 6.24,-0.66 2.43,-0.29 4.62,-0.61 6.21,-0.86 0.77,-0.12 1.4,-0.22 1.88,-0.29 0.2,-0.03 0.37,-0.06 0.51,-0.08 0.11,-0.01 0.18,-0.01 0.18,-0.01z"/>
   <path class="fil11" d="M129.29 108.67c-0.55,6.29 1.17,12.54 2.87,18.63 0.1,0.37 0.21,0.75 0.47,1.05 0.25,0.29 0.69,0.46 1.03,0.28 0.53,-0.27 0.46,-1.03 0.31,-1.61 -1.57,-6.03 -3.15,-12.06 -4.72,-18.09l0.04 -0.26z"/>
   <path class="fil1" d="M41.25 114.94l7.14 35.09 49.55 0 12.49 0c0.68,0 1.24,-0.56 1.24,-1.24 0,-0.69 -0.56,-1.24 -1.24,-1.24l-12.49 0 -6.63 -32.63c-0.12,-0.63 -0.67,-1.08 -1.31,-1.09l-47.41 -0.51c-0.86,-0.01 -1.51,0.78 -1.34,1.62z"/>
   <path class="fil5" d="M41.25 114.94c0,0 -0.01,-0.03 -0.02,-0.1 -0.01,-0.07 -0.02,-0.18 -0.01,-0.32 0.03,-0.27 0.17,-0.73 0.66,-1.03 0.12,-0.07 0.26,-0.12 0.41,-0.16 0.15,-0.04 0.32,-0.03 0.49,-0.03 0.34,0 0.71,0 1.11,0.01 0.81,0 1.74,0.01 2.79,0.02 4.21,0.04 10.32,0.1 17.93,0.17 3.81,0.04 7.99,0.08 12.5,0.13 2.25,0.02 4.59,0.04 7,0.07 1.2,0.01 2.43,0.02 3.67,0.04 0.62,0 1.25,0.01 1.88,0.02 0.16,0 0.31,-0.01 0.48,0.01 0.16,0.02 0.33,0.06 0.48,0.14 0.3,0.14 0.54,0.4 0.68,0.71 0.07,0.16 0.1,0.32 0.13,0.48l0.09 0.47c0.07,0.31 0.13,0.63 0.2,0.95 0.13,0.63 0.26,1.27 0.39,1.91 0.26,1.29 0.52,2.59 0.79,3.91 0.54,2.63 1.08,5.32 1.64,8.07 1.12,5.51 2.29,11.23 3.48,17.12l-0.08 -0.06c2.35,0 4.75,-0.01 7.19,-0.01 1.22,0 2.46,0 3.69,0l0.94 0 0.46 0c0.15,0.01 0.32,0 0.48,0.03 0.33,0.07 0.63,0.27 0.82,0.55 0.19,0.27 0.27,0.62 0.22,0.95 -0.06,0.41 -0.32,0.77 -0.68,0.96 -0.18,0.1 -0.38,0.15 -0.58,0.16l-0.58 0c-0.75,0 -1.51,0 -2.27,0 -1.5,0 -3,0 -4.49,0 -2.99,0 -5.93,0 -8.82,0 -5.8,0 -11.41,0 -16.8,0 -10.77,-0.01 -20.61,-0.01 -29.13,-0.02l-0.05 0 -0.01 -0.05c-2.18,-10.78 -3.96,-19.56 -5.19,-25.64 -0.61,-3.03 -1.09,-5.4 -1.41,-7.01 -0.16,-0.8 -0.28,-1.41 -0.37,-1.82 -0.08,-0.42 -0.11,-0.63 -0.11,-0.63 0,0 0.05,0.21 0.13,0.62 0.09,0.42 0.22,1.03 0.39,1.83 0.33,1.6 0.81,3.97 1.44,7 1.24,6.08 3.04,14.85 5.25,25.63l-0.07 -0.06c8.52,0 18.36,-0.01 29.13,-0.01 5.39,0 11,0 16.8,-0.01 2.89,0 5.83,0 8.82,0 1.49,0 2.99,0 4.49,0 0.76,0 1.52,0 2.27,0l0.57 0c0.18,-0.01 0.35,-0.05 0.51,-0.14 0.31,-0.17 0.54,-0.48 0.59,-0.84 0.04,-0.28 -0.03,-0.59 -0.19,-0.83 -0.17,-0.24 -0.43,-0.41 -0.71,-0.47 -0.14,-0.03 -0.29,-0.02 -0.45,-0.02l-0.46 0 -0.94 0c-1.23,0 -2.47,0 -3.69,0 -2.44,0 -4.84,0 -7.19,-0.01l-0.07 0 -0.01 -0.06c-1.2,-5.9 -2.36,-11.62 -3.48,-17.12 -0.55,-2.75 -1.1,-5.45 -1.63,-8.08 -0.27,-1.32 -0.53,-2.62 -0.79,-3.91 -0.13,-0.64 -0.26,-1.28 -0.39,-1.91 -0.07,-0.32 -0.13,-0.64 -0.19,-0.95l-0.1 -0.47c-0.03,-0.16 -0.06,-0.31 -0.12,-0.45 -0.12,-0.28 -0.34,-0.51 -0.61,-0.64 -0.13,-0.07 -0.28,-0.11 -0.43,-0.12 -0.14,-0.02 -0.31,-0.01 -0.46,-0.02 -0.63,0 -1.26,-0.01 -1.88,-0.02 -1.24,-0.01 -2.47,-0.03 -3.67,-0.04 -2.41,-0.03 -4.75,-0.05 -7,-0.08 -4.51,-0.05 -8.69,-0.1 -12.5,-0.15 -7.61,-0.09 -13.72,-0.17 -17.93,-0.22 -1.05,-0.01 -1.98,-0.03 -2.79,-0.04 -0.4,0 -0.77,-0.01 -1.11,-0.01 -0.18,0 -0.34,-0.01 -0.48,0.02 -0.15,0.04 -0.29,0.09 -0.41,0.16 -0.47,0.29 -0.62,0.73 -0.65,1 -0.03,0.28 0.02,0.42 0.01,0.42z"/>
   <path class="fil4" d="M69.83 131c0,1.13 -0.91,2.05 -2.05,2.05 -1.13,0 -2.04,-0.92 -2.04,-2.05 0,-1.13 0.91,-2.05 2.04,-2.05 1.14,0 2.05,0.92 2.05,2.05z"/>
   <path class="fil5" d="M41.31 115.23c0,0 0.07,-0.01 0.21,-0.01 0.15,0 0.35,0 0.63,-0.01 0.55,0.01 1.37,0.01 2.41,0.01 2.1,0.01 5.13,0.02 8.87,0.04 7.49,0.05 17.84,0.13 29.26,0.21 1.43,0.01 2.84,0.02 4.23,0.03 0.35,0 0.7,0.01 1.04,0.01 0.17,0 0.35,-0.01 0.53,0.03 0.18,0.04 0.35,0.11 0.51,0.21 0.3,0.19 0.53,0.5 0.63,0.85 0.07,0.34 0.13,0.67 0.2,1 0.52,2.64 1.03,5.19 1.51,7.62 0.96,4.86 1.83,9.23 2.55,12.91 0.72,3.67 1.31,6.64 1.71,8.7 0.2,1.03 0.35,1.82 0.45,2.37 0.05,0.27 0.09,0.47 0.12,0.62 0.02,0.14 0.03,0.21 0.03,0.21 0,0 -0.02,-0.07 -0.05,-0.21 -0.03,-0.14 -0.07,-0.35 -0.13,-0.61 -0.11,-0.55 -0.28,-1.34 -0.49,-2.36 -0.41,-2.06 -1.01,-5.03 -1.76,-8.7 -0.73,-3.67 -1.61,-8.04 -2.58,-12.9 -0.49,-2.43 -1,-4.97 -1.52,-7.62 -0.07,-0.32 -0.13,-0.67 -0.21,-0.99 -0.08,-0.3 -0.28,-0.58 -0.55,-0.75 -0.14,-0.09 -0.29,-0.15 -0.45,-0.18 -0.15,-0.04 -0.32,-0.03 -0.5,-0.03 -0.34,0 -0.69,-0.01 -1.04,-0.01 -1.39,-0.01 -2.8,-0.02 -4.23,-0.03 -11.42,-0.1 -21.77,-0.19 -29.26,-0.26 -3.74,-0.04 -6.77,-0.07 -8.87,-0.1 -1.05,-0.01 -1.86,-0.02 -2.41,-0.03 -0.28,-0.01 -0.48,-0.01 -0.63,-0.01 -0.14,-0.01 -0.21,-0.01 -0.21,-0.01z"/>
   <path class="fil5" d="M124.15 61.94c0.19,6.47 -2.56,12.96 -7.33,17.34 -1.09,-3.16 -2.18,-6.33 -3.28,-9.49l10.61 -7.85z"/>
   <path class="fil5" d="M99.45 43.06c2.81,-1.54 6.21,-1.76 9.35,-1.13 3.15,0.63 6.07,2.05 8.85,3.65 1.56,0.91 3.11,1.9 4.23,3.3 2.04,2.57 4.06,6.79 4.25,10.07 0.16,2.65 -0.85,9.28 -1.97,11.69 -1.03,2.21 -5.84,3.89 -8.21,4.43l-21.78 -25.33c0.77,-2.81 2.72,-5.28 5.28,-6.68z"/>
   <path class="fil5" d="M95.69 46.47l5.23 -0.93c-2.86,6.8 -3.63,22.34 -5.27,29.53 -1.92,-2.79 -6.39,-11.3 -6.15,-14.68 0.24,-3.38 -0.01,-14.49 6.19,-13.92z"/>
   <path class="fil10" d="M120.45 57.79c-0.28,-3.97 -2.85,-7.23 -6.71,-8.21l-12.02 -3.07c-5.2,-0.56 -8.67,5.83 -9.01,11.05 -0.38,5.79 -0.61,11.9 0.06,16.23 1.37,8.7 8.03,9.82 8.03,9.82 0,-0.01 0,4.14 0,6.68l4.03 16.66 12.97 -17.92 2.68 -31.14c0,-0.14 -0.02,0.1 -0.03,-0.1z"/>
   <g>
    <g>
     <g>
      <g>
       <g>
        <g>
         <g>
          <g>
           <g>
            <g>
             <g>
              <g>
               <g>
                <g>
                 <path class="fil5" d="M95.32 64.12c-0.02,0.59 0.46,1.1 1.07,1.13 0.62,0.04 1.13,-0.41 1.16,-1 0.02,-0.59 -0.46,-1.09 -1.08,-1.13 -0.61,-0.03 -1.13,0.42 -1.15,1z"/>
                </g>
               </g>
              </g>
             </g>
            </g>
           </g>
          </g>
         </g>
        </g>
       </g>
      </g>
     </g>
    </g>
   </g>
   <g>
    <g>
     <g>
      <g>
       <g>
        <g>
         <g>
          <g>
           <g>
            <g>
             <g>
              <g>
               <g>
                <g>
                 <g>
                  <path class="fil5" d="M94.01 60.96c0.14,0.15 0.99,-0.48 2.19,-0.47 1.2,-0.01 2.08,0.61 2.21,0.46 0.06,-0.06 -0.08,-0.33 -0.46,-0.61 -0.38,-0.28 -1.02,-0.55 -1.77,-0.55 -0.75,0.01 -1.38,0.28 -1.74,0.56 -0.37,0.28 -0.49,0.55 -0.43,0.61z"/>
                 </g>
                </g>
               </g>
              </g>
             </g>
            </g>
           </g>
          </g>
         </g>
        </g>
       </g>
      </g>
     </g>
    </g>
   </g>
   <g>
    <g>
     <g>
      <g>
       <g>
        <g>
         <g>
          <g>
           <g>
            <g>
             <g>
              <g>
               <g>
                <g>
                 <path class="fil5" d="M105.78 64.13c-0.02,0.58 0.46,1.09 1.07,1.12 0.62,0.04 1.13,-0.41 1.16,-1 0.02,-0.59 -0.46,-1.09 -1.08,-1.13 -0.61,-0.03 -1.13,0.42 -1.15,1.01z"/>
                </g>
               </g>
              </g>
             </g>
            </g>
           </g>
          </g>
         </g>
        </g>
       </g>
      </g>
     </g>
    </g>
   </g>
   <g>
    <g>
     <g>
      <g>
       <g>
        <g>
         <g>
          <g>
           <g>
            <g>
             <g>
              <g>
               <g>
                <g>
                 <g>
                  <path class="fil5" d="M105.41 60.96c0.14,0.15 0.99,-0.48 2.19,-0.47 1.19,-0.01 2.07,0.61 2.2,0.46 0.07,-0.06 -0.07,-0.33 -0.46,-0.61 -0.37,-0.28 -1.02,-0.55 -1.76,-0.55 -0.75,0.01 -1.38,0.28 -1.74,0.56 -0.37,0.28 -0.5,0.55 -0.43,0.61z"/>
                 </g>
                </g>
               </g>
              </g>
             </g>
            </g>
           </g>
          </g>
         </g>
        </g>
       </g>
      </g>
     </g>
    </g>
   </g>
   <g>
    <g>
     <g>
      <g>
       <g>
        <g>
         <g>
          <g>
           <g>
            <g>
             <g>
              <g>
               <g>
                <g>
                 <g>
                  <path class="fil5" d="M101.66 70.39c0,-0.07 -0.74,-0.2 -1.95,-0.36 -0.31,-0.03 -0.6,-0.09 -0.65,-0.3 -0.07,-0.22 0.06,-0.55 0.21,-0.91 0.29,-0.74 0.59,-1.52 0.91,-2.33 1.27,-3.32 2.18,-6.05 2.05,-6.1 -0.13,-0.05 -1.27,2.6 -2.53,5.92 -0.31,0.82 -0.6,1.6 -0.88,2.34 -0.11,0.35 -0.32,0.75 -0.16,1.21 0.08,0.23 0.31,0.39 0.5,0.45 0.2,0.06 0.37,0.06 0.52,0.07 1.22,0.07 1.97,0.08 1.98,0.01z"/>
                 </g>
                </g>
               </g>
              </g>
             </g>
            </g>
           </g>
          </g>
         </g>
        </g>
       </g>
      </g>
     </g>
    </g>
   </g>
   <g>
    <g>
     <g>
      <path class="fil12" d="M112.33 80.52c0,0 -2.83,5.97 -11.53,5.14l0 -2.05c0,0 5.73,0.38 11.53,-3.09z"/>
     </g>
    </g>
   </g>
   <g>
    <g>
     <g>
      <g>
       <g>
        <g>
         <g>
          <g>
           <g>
            <g>
             <g>
              <path class="fil5" d="M105.79 56.63c0.11,0.32 1.31,0.17 2.72,0.34 1.41,0.15 2.55,0.56 2.73,0.27 0.09,-0.14 -0.11,-0.45 -0.57,-0.76 -0.45,-0.32 -1.18,-0.62 -2.02,-0.72 -0.85,-0.09 -1.62,0.04 -2.14,0.25 -0.51,0.2 -0.77,0.46 -0.72,0.62z"/>
             </g>
            </g>
           </g>
          </g>
         </g>
        </g>
       </g>
      </g>
     </g>
    </g>
   </g>
   <g>
    <g>
     <g>
      <g>
       <g>
        <g>
         <g>
          <g>
           <g>
            <g>
             <g>
              <path class="fil5" d="M94.41 57.29c0.21,0.27 1.03,-0.01 2.03,-0.02 0.99,-0.04 1.83,0.19 2.03,-0.1 0.08,-0.13 -0.05,-0.41 -0.42,-0.67 -0.36,-0.25 -0.96,-0.47 -1.65,-0.45 -0.68,0.02 -1.27,0.27 -1.62,0.55 -0.35,0.28 -0.47,0.56 -0.37,0.69z"/>
             </g>
            </g>
           </g>
          </g>
         </g>
        </g>
       </g>
      </g>
     </g>
    </g>
   </g>
   <g>
    <g>
     <g>
      <path class="fil5" d="M95.07 49.61c0.53,-1.31 1.97,-2.09 3.38,-2.16 1.41,-0.07 2.79,0.46 4.01,1.17 5.18,2.99 7.84,10.22 12.96,13.32 1.26,0.76 2.89,0.06 3.96,1.07 1.07,1.01 1.77,2.62 1.18,3.97 0.68,-0.94 1.38,-1.9 1.77,-3 0.39,-1.1 0.44,-2.38 -0.14,-3.39 -0.44,-0.77 -1.23,-1.36 -1.44,-2.22 -0.19,-0.75 0.11,-1.54 0.08,-2.32 -0.04,-0.79 -0.41,-1.53 -0.8,-2.22 -2,-3.54 -4.76,-6.75 -8.31,-8.74 -2.32,-1.31 -4.98,-2.07 -7.63,-1.98 -2.66,0.09 -5.32,1.07 -7.26,2.88 -1.15,1.07 -2.35,2.18 -1.76,3.62z"/>
     </g>
    </g>
   </g>
   <g>
    <g>
     <g>
      <g>
       <g>
        <g>
         <g>
          <g>
           <g>
            <g>
             <g>
              <g>
               <g>
                <g>
                 <g>
                  <g>
                   <g>
                    <path class="fil10" d="M119.26 64.09c0.09,-0.25 4.63,-1.89 4.69,2.93 0.06,4.69 -4.67,3.76 -4.68,3.63 -0.01,-0.13 -0.01,-6.56 -0.01,-6.56z"/>
                   </g>
                  </g>
                 </g>
                </g>
               </g>
              </g>
             </g>
            </g>
           </g>
          </g>
         </g>
        </g>
       </g>
      </g>
     </g>
    </g>
   </g>
   <g>
    <g>
     <g>
      <g>
       <g>
        <g>
         <g>
          <g>
           <g>
            <g>
             <g>
              <g>
               <g>
                <g>
                 <g>
                  <g>
                   <g>
                    <g>
                     <path class="fil12" d="M120.7 68.86c0.02,-0.01 0.08,0.06 0.22,0.12 0.13,0.06 0.37,0.1 0.61,0.01 0.49,-0.19 0.9,-0.98 0.92,-1.82 0,-0.43 -0.09,-0.83 -0.24,-1.17 -0.15,-0.34 -0.37,-0.58 -0.62,-0.62 -0.25,-0.05 -0.43,0.1 -0.48,0.23 -0.06,0.13 -0.03,0.22 -0.06,0.23 -0.01,0.01 -0.1,-0.08 -0.06,-0.27 0.02,-0.09 0.07,-0.2 0.18,-0.29 0.11,-0.1 0.27,-0.14 0.45,-0.13 0.36,0.02 0.69,0.35 0.86,0.72 0.19,0.37 0.3,0.82 0.29,1.3 -0.02,0.95 -0.49,1.84 -1.17,2.04 -0.33,0.09 -0.6,-0.01 -0.75,-0.12 -0.14,-0.11 -0.17,-0.22 -0.15,-0.23z"/>
                    </g>
                   </g>
                  </g>
                 </g>
                </g>
               </g>
              </g>
             </g>
            </g>
           </g>
          </g>
         </g>
        </g>
       </g>
      </g>
     </g>
    </g>
   </g>
   <g>
    <g>
     <g>
      <g>
       <path class="fil8" d="M121.12 61.68c0,0.01 -0.1,-0.05 -0.28,-0.16 -0.18,-0.11 -0.46,-0.26 -0.79,-0.5 -0.65,-0.47 -1.56,-1.22 -2.52,-2.3 -0.98,-1.07 -1.99,-2.46 -3.1,-4.01 -1.1,-1.55 -2.31,-3.27 -3.86,-4.82 -0.79,-0.75 -1.62,-1.43 -2.5,-1.97 -0.87,-0.54 -1.79,-0.94 -2.69,-1.22 -1.8,-0.58 -3.54,-0.71 -4.96,-0.61 -1.43,0.09 -2.57,0.39 -3.33,0.65 -0.38,0.12 -0.67,0.25 -0.86,0.32 -0.2,0.08 -0.31,0.12 -0.31,0.11 0,-0.01 0.1,-0.06 0.29,-0.15 0.19,-0.09 0.47,-0.23 0.86,-0.36 0.75,-0.28 1.89,-0.61 3.34,-0.72 1.44,-0.12 3.19,-0.01 5.03,0.57 0.92,0.29 1.85,0.69 2.74,1.23 0.9,0.54 1.74,1.23 2.54,2 1.56,1.57 2.78,3.3 3.87,4.85 1.1,1.56 2.1,2.95 3.05,4.03 0.94,1.09 1.83,1.85 2.46,2.34 0.32,0.24 0.59,0.4 0.76,0.53 0.18,0.12 0.27,0.19 0.26,0.19z"/>
      </g>
     </g>
    </g>
   </g>
   <g>
    <g>
     <g>
      <g>
       <path class="fil4" d="M121.23 69.69c0.46,-0.08 0.95,0.23 1.06,0.68 0.12,0.45 -0.17,0.97 -0.61,1.11 -0.44,0.14 -0.97,-0.12 -1.14,-0.55 -0.17,-0.43 0.05,-0.98 0.47,-1.17l0.22 -0.07z"/>
      </g>
     </g>
    </g>
   </g>
   <g>
    <g>
     <g>
      <g>
       <g>
        <path class="fil5" d="M121.01 69.76c0.03,0.03 -0.3,0.16 -0.42,0.63 -0.05,0.22 -0.02,0.52 0.18,0.73 0.2,0.22 0.56,0.36 0.88,0.25 0.32,-0.1 0.53,-0.41 0.56,-0.7 0.05,-0.3 -0.1,-0.56 -0.27,-0.71 -0.37,-0.31 -0.72,-0.23 -0.71,-0.27 0,-0.01 0.07,-0.05 0.22,-0.05 0.15,0 0.37,0.04 0.58,0.2 0.22,0.16 0.42,0.47 0.38,0.85 -0.03,0.36 -0.28,0.75 -0.7,0.89 -0.42,0.13 -0.85,-0.05 -1.08,-0.32 -0.26,-0.28 -0.27,-0.66 -0.19,-0.91 0.09,-0.26 0.24,-0.42 0.36,-0.51 0.13,-0.08 0.21,-0.09 0.21,-0.08z"/>
       </g>
      </g>
     </g>
    </g>
   </g>
   <path class="fil5" d="M119.94 63.01c0.08,1.28 0.14,2.63 -0.45,3.76 -0.6,1.14 -2.09,1.91 -3.2,1.28 -0.91,-0.52 -1.18,-1.68 -1.33,-2.72 -0.45,-2.98 -0.65,-6 -1.12,-8.97l6.1 6.65z"/>
   <path class="fil8" d="M96.22 47.39c0.01,0.02 0.42,-0.08 1.17,-0.11 0.74,-0.02 1.85,0.08 3.1,0.57 0.62,0.24 1.28,0.56 1.94,1 0.66,0.43 1.33,0.95 2,1.53 1.35,1.16 2.74,2.56 3.93,4.23 0.59,0.83 1.12,1.69 1.69,2.49 0.56,0.8 1.19,1.52 1.88,2.11 1.36,1.18 2.76,2.01 3.95,2.65 1.2,0.63 2.2,1.07 2.9,1.38 0.32,0.14 0.59,0.25 0.8,0.34 0.18,0.08 0.28,0.11 0.28,0.1 0.01,0 -0.08,-0.06 -0.26,-0.15 -0.21,-0.1 -0.46,-0.23 -0.78,-0.38 -0.68,-0.34 -1.67,-0.81 -2.85,-1.46 -1.17,-0.65 -2.55,-1.49 -3.88,-2.66 -0.67,-0.59 -1.28,-1.29 -1.83,-2.08 -0.56,-0.79 -1.09,-1.65 -1.69,-2.5 -1.2,-1.69 -2.61,-3.09 -3.98,-4.26 -0.69,-0.57 -1.37,-1.09 -2.04,-1.52 -0.68,-0.44 -1.36,-0.76 -2,-0.99 -1.28,-0.48 -2.41,-0.55 -3.17,-0.5 -0.38,0.03 -0.67,0.08 -0.86,0.12 -0.2,0.05 -0.3,0.08 -0.3,0.09z"/>
   <path class="fil8" d="M120.07 60.11c0,0.02 0.14,0.12 0.42,0.28 0.32,0.19 0.71,0.42 1.18,0.7 0.13,0.07 0.27,0.15 0.4,0.23 0.15,0.08 0.32,0.15 0.52,0.17 0.09,0 0.21,-0.01 0.31,-0.08 0.11,-0.07 0.17,-0.18 0.18,-0.31 0.01,-0.24 -0.12,-0.42 -0.22,-0.59 -0.42,-0.67 -0.89,-1.41 -1.38,-2.2l-0.19 0.17c0.44,0.33 0.96,0.59 1.51,0.75 0.56,0.17 1.13,0.23 1.68,0.2 0.13,-0.01 0.28,-0.02 0.42,-0.07 0.14,-0.05 0.3,-0.15 0.36,-0.32 0.07,-0.17 0.01,-0.36 -0.07,-0.47 -0.09,-0.12 -0.19,-0.21 -0.27,-0.3 -0.7,-0.67 -1.22,-1.38 -1.6,-2.01 -0.75,-1.27 -0.96,-2.17 -1.01,-2.16 -0.01,0.01 0.02,0.24 0.15,0.63 0.12,0.4 0.34,0.97 0.7,1.62 0.37,0.66 0.88,1.4 1.59,2.1 0.17,0.16 0.35,0.35 0.28,0.5 -0.06,0.15 -0.32,0.22 -0.57,0.22 -0.52,0.03 -1.06,-0.03 -1.58,-0.19 -0.53,-0.16 -1.02,-0.4 -1.43,-0.71l-0.56 -0.41 0.37 0.59c0.5,0.78 0.98,1.51 1.41,2.18 0.11,0.16 0.2,0.32 0.2,0.46 -0.01,0.13 -0.12,0.21 -0.27,0.2 -0.31,-0.02 -0.58,-0.22 -0.84,-0.35 -0.49,-0.25 -0.9,-0.46 -1.23,-0.63 -0.29,-0.14 -0.45,-0.21 -0.46,-0.2z"/>
   <path class="fil12" d="M106.22 72.6c-0.16,-0.71 -0.89,-1.26 -1.61,-1.19 -0.54,0.05 -1.02,0.42 -1.26,0.9 -0.25,0.48 -0.26,1.06 -0.07,1.56l0.02 0.11c0.49,0.55 1.34,0.74 2.01,0.43 0.66,-0.3 1.07,-1.1 0.91,-1.81z"/>
   <g>
    <g>
     <g>
      <g>
       <g>
        <path class="fil5" d="M102.43 74.01c0,-0.18 1.21,-0.12 2.13,-1.12 0.91,-0.99 0.84,-2.29 1.01,-2.3 0.08,-0.01 0.22,0.3 0.21,0.85 -0.01,0.54 -0.22,1.31 -0.78,1.92 -0.56,0.61 -1.28,0.84 -1.78,0.86 -0.51,0.02 -0.8,-0.13 -0.79,-0.21z"/>
       </g>
      </g>
     </g>
    </g>
   </g>
   <path class="fil4" d="M143.31 147.71c0,0 -0.03,0.01 -0.08,0.02 -0.07,0 -0.15,0.01 -0.24,0.02 -0.23,0.02 -0.54,0.04 -0.93,0.08 -0.81,0.06 -1.98,0.14 -3.42,0.23 -2.89,0.17 -6.89,0.34 -11.31,0.42 -4.42,0.07 -8.42,0.03 -11.31,-0.05 -1.45,-0.03 -2.62,-0.07 -3.43,-0.11 -0.39,-0.02 -0.7,-0.04 -0.93,-0.05 -0.1,0 -0.18,-0.01 -0.24,-0.01 -0.06,-0.01 -0.08,-0.01 -0.08,-0.02 0,0 0.02,0 0.08,0 0.06,0 0.14,0 0.24,0 0.23,0 0.54,0 0.93,0.01 0.83,0.01 2,0.03 3.43,0.05 2.89,0.05 6.89,0.07 11.31,-0.01 4.41,-0.07 8.41,-0.22 11.3,-0.36 1.43,-0.07 2.6,-0.13 3.42,-0.17 0.4,-0.02 0.71,-0.04 0.93,-0.05 0.1,0 0.18,0 0.25,0 0.05,0 0.08,0 0.08,0z"/>
   <path class="fil11" d="M40.85 55.42l0 -4.57 0.9 0 1.88 3.07 0 -3.07 0.86 0 0 4.57 -0.93 0 -1.85 -3 0 3 -0.86 0zm6.52 -1.04l0.88 0.14c-0.11,0.32 -0.29,0.57 -0.53,0.74 -0.24,0.16 -0.55,0.25 -0.91,0.25 -0.58,0 -1,-0.19 -1.28,-0.57 -0.22,-0.3 -0.33,-0.68 -0.33,-1.14 0,-0.55 0.15,-0.98 0.43,-1.29 0.29,-0.32 0.65,-0.47 1.09,-0.47 0.49,0 0.88,0.16 1.17,0.49 0.28,0.32 0.42,0.82 0.4,1.5l-2.19 0c0.01,0.26 0.08,0.46 0.22,0.6 0.13,0.15 0.3,0.22 0.5,0.22 0.14,0 0.25,-0.04 0.34,-0.11 0.1,-0.08 0.17,-0.2 0.21,-0.36zm0.06 -0.89c-0.01,-0.26 -0.08,-0.45 -0.2,-0.58 -0.12,-0.13 -0.28,-0.2 -0.45,-0.2 -0.2,0 -0.35,0.07 -0.48,0.21 -0.12,0.14 -0.18,0.33 -0.18,0.57l1.31 0zm2.19 1.93l-1.04 -3.31 0.85 0 0.62 2.17 0.57 -2.17 0.85 0 0.55 2.17 0.63 -2.17 0.86 0 -1.06 3.31 -0.84 0 -0.57 -2.13 -0.56 2.13 -0.86 0zm6.14 0l0 -4.57 1.48 0c0.56,0 0.93,0.02 1.1,0.07 0.26,0.07 0.48,0.22 0.66,0.45 0.17,0.23 0.26,0.52 0.26,0.89 0,0.28 -0.05,0.51 -0.15,0.71 -0.1,0.19 -0.23,0.34 -0.39,0.45 -0.15,0.11 -0.31,0.18 -0.48,0.21 -0.22,0.05 -0.53,0.07 -0.95,0.07l-0.6 0 0 1.72 -0.93 0zm0.93 -3.8l0 1.31 0.5 0c0.36,0 0.61,-0.03 0.73,-0.08 0.12,-0.04 0.22,-0.12 0.29,-0.22 0.06,-0.1 0.1,-0.22 0.1,-0.36 0,-0.16 -0.05,-0.3 -0.15,-0.41 -0.09,-0.11 -0.22,-0.18 -0.37,-0.21 -0.11,-0.02 -0.33,-0.03 -0.66,-0.03l-0.44 0zm3.98 1.51l-0.8 -0.14c0.09,-0.32 0.25,-0.56 0.47,-0.72 0.22,-0.15 0.54,-0.23 0.97,-0.23 0.39,0 0.68,0.05 0.87,0.14 0.19,0.09 0.33,0.21 0.41,0.35 0.08,0.14 0.11,0.4 0.11,0.78l-0.01 1.03c0,0.29 0.02,0.5 0.04,0.64 0.03,0.14 0.08,0.29 0.16,0.44l-0.87 0c-0.02,-0.05 -0.05,-0.14 -0.08,-0.25 -0.02,-0.05 -0.03,-0.09 -0.03,-0.1 -0.15,0.14 -0.31,0.25 -0.48,0.33 -0.17,0.07 -0.35,0.11 -0.55,0.11 -0.34,0 -0.6,-0.09 -0.8,-0.28 -0.2,-0.18 -0.29,-0.42 -0.29,-0.7 0,-0.19 0.04,-0.36 0.13,-0.5 0.09,-0.15 0.21,-0.26 0.38,-0.34 0.16,-0.08 0.39,-0.14 0.69,-0.2 0.41,-0.08 0.69,-0.15 0.85,-0.22l0 -0.09c0,-0.17 -0.04,-0.29 -0.12,-0.36 -0.09,-0.07 -0.24,-0.11 -0.48,-0.11 -0.15,0 -0.27,0.03 -0.36,0.09 -0.09,0.07 -0.16,0.18 -0.21,0.33zm1.17 0.71c-0.11,0.04 -0.29,0.08 -0.53,0.13 -0.24,0.06 -0.4,0.11 -0.48,0.16 -0.11,0.08 -0.17,0.18 -0.17,0.31 0,0.12 0.05,0.22 0.14,0.31 0.09,0.09 0.21,0.14 0.35,0.14 0.15,0 0.31,-0.05 0.45,-0.16 0.1,-0.08 0.18,-0.17 0.21,-0.29 0.02,-0.07 0.03,-0.22 0.03,-0.42l0 -0.18zm1.42 0.65l0.88 -0.13c0.03,0.17 0.11,0.3 0.22,0.38 0.12,0.09 0.28,0.14 0.48,0.14 0.23,0 0.4,-0.05 0.52,-0.13 0.07,-0.06 0.11,-0.14 0.11,-0.23 0,-0.07 -0.02,-0.13 -0.06,-0.17 -0.04,-0.04 -0.14,-0.08 -0.29,-0.12 -0.71,-0.15 -1.16,-0.29 -1.35,-0.42 -0.26,-0.18 -0.39,-0.43 -0.39,-0.75 0,-0.29 0.11,-0.53 0.34,-0.73 0.22,-0.19 0.58,-0.29 1.05,-0.29 0.45,0 0.79,0.07 1.01,0.22 0.22,0.15 0.38,0.37 0.46,0.66l-0.83 0.15c-0.03,-0.13 -0.1,-0.23 -0.2,-0.3 -0.1,-0.06 -0.24,-0.1 -0.42,-0.1 -0.24,0 -0.4,0.03 -0.5,0.1 -0.07,0.04 -0.1,0.1 -0.1,0.18 0,0.06 0.03,0.11 0.08,0.16 0.08,0.05 0.36,0.14 0.83,0.24 0.47,0.11 0.79,0.24 0.98,0.39 0.18,0.16 0.27,0.38 0.27,0.66 0,0.3 -0.12,0.56 -0.38,0.78 -0.25,0.22 -0.63,0.33 -1.13,0.33 -0.45,0 -0.8,-0.09 -1.07,-0.28 -0.26,-0.18 -0.43,-0.42 -0.51,-0.74zm3.55 0l0.88 -0.13c0.04,0.17 0.11,0.3 0.23,0.38 0.11,0.09 0.27,0.14 0.48,0.14 0.22,0 0.39,-0.05 0.51,-0.13 0.08,-0.06 0.11,-0.14 0.11,-0.23 0,-0.07 -0.02,-0.13 -0.06,-0.17 -0.04,-0.04 -0.14,-0.08 -0.29,-0.12 -0.71,-0.15 -1.16,-0.29 -1.35,-0.42 -0.26,-0.18 -0.39,-0.43 -0.39,-0.75 0,-0.29 0.11,-0.53 0.34,-0.73 0.23,-0.19 0.58,-0.29 1.05,-0.29 0.46,0 0.79,0.07 1.02,0.22 0.22,0.15 0.37,0.37 0.45,0.66l-0.82 0.15c-0.04,-0.13 -0.11,-0.23 -0.21,-0.3 -0.09,-0.06 -0.24,-0.1 -0.42,-0.1 -0.23,0 -0.4,0.03 -0.5,0.1 -0.07,0.04 -0.1,0.1 -0.1,0.18 0,0.06 0.03,0.11 0.09,0.16 0.08,0.05 0.35,0.14 0.82,0.24 0.47,0.11 0.79,0.24 0.98,0.39 0.18,0.16 0.28,0.38 0.28,0.66 0,0.3 -0.13,0.56 -0.39,0.78 -0.25,0.22 -0.62,0.33 -1.12,0.33 -0.45,0 -0.81,-0.09 -1.08,-0.28 -0.26,-0.18 -0.43,-0.42 -0.51,-0.74zm4.48 0.93l-1.05 -3.31 0.85 0 0.62 2.17 0.57 -2.17 0.85 0 0.55 2.17 0.63 -2.17 0.87 0 -1.07 3.31 -0.84 0 -0.57 -2.13 -0.56 2.13 -0.85 0zm4.15 -1.69c0,-0.29 0.07,-0.58 0.21,-0.85 0.15,-0.27 0.35,-0.48 0.61,-0.62 0.27,-0.15 0.56,-0.22 0.88,-0.22 0.5,0 0.91,0.16 1.23,0.49 0.33,0.32 0.49,0.74 0.49,1.23 0,0.51 -0.17,0.92 -0.49,1.25 -0.32,0.33 -0.73,0.5 -1.22,0.5 -0.3,0 -0.59,-0.07 -0.87,-0.21 -0.27,-0.14 -0.48,-0.34 -0.63,-0.6 -0.14,-0.27 -0.21,-0.59 -0.21,-0.97zm0.9 0.04c0,0.33 0.08,0.58 0.23,0.76 0.16,0.18 0.35,0.26 0.58,0.26 0.23,0 0.42,-0.08 0.57,-0.26 0.16,-0.18 0.23,-0.43 0.23,-0.76 0,-0.33 -0.07,-0.58 -0.23,-0.75 -0.15,-0.18 -0.34,-0.27 -0.57,-0.27 -0.23,0 -0.42,0.09 -0.58,0.27 -0.15,0.17 -0.23,0.42 -0.23,0.75zm4.04 1.65l-0.87 0 0 -3.31 0.81 0 0 0.47c0.14,-0.22 0.26,-0.37 0.37,-0.44 0.12,-0.07 0.24,-0.1 0.38,-0.1 0.2,0 0.4,0.05 0.58,0.16l-0.27 0.77c-0.15,-0.1 -0.28,-0.15 -0.41,-0.15 -0.13,0 -0.23,0.04 -0.31,0.11 -0.09,0.06 -0.16,0.19 -0.21,0.36 -0.04,0.18 -0.07,0.55 -0.07,1.11l0 1.02zm4.69 0l-0.81 0 0 -0.48c-0.14,0.19 -0.3,0.33 -0.48,0.43 -0.19,0.09 -0.37,0.14 -0.56,0.14 -0.38,0 -0.71,-0.16 -0.98,-0.46 -0.27,-0.31 -0.41,-0.74 -0.41,-1.29 0,-0.56 0.13,-0.99 0.4,-1.28 0.26,-0.29 0.6,-0.44 1,-0.44 0.37,0 0.69,0.15 0.97,0.46l0 -1.65 0.87 0 0 4.57zm-2.34 -1.72c0,0.36 0.05,0.61 0.15,0.77 0.14,0.23 0.34,0.35 0.59,0.35 0.2,0 0.37,-0.09 0.51,-0.26 0.15,-0.17 0.22,-0.43 0.22,-0.77 0,-0.38 -0.07,-0.66 -0.21,-0.83 -0.14,-0.17 -0.31,-0.25 -0.53,-0.25 -0.2,0 -0.38,0.08 -0.52,0.25 -0.14,0.17 -0.21,0.41 -0.21,0.74z"/>
  </g>
 </g>
</svg>
