<?xml version="1.0" encoding="UTF-8"?>
<!DOCTYPE svg PUBLIC "-//W3C//DTD SVG 1.1//EN" "http://www.w3.org/Graphics/SVG/1.1/DTD/svg11.dtd">
<!-- Creator: CorelDRAW 2020 (64-Bit) -->
<svg xmlns="http://www.w3.org/2000/svg" xml:space="preserve" width="300px" height="306px" version="1.1" style="shape-rendering:geometricPrecision; text-rendering:geometricPrecision; image-rendering:optimizeQuality; fill-rule:evenodd; clip-rule:evenodd"
viewBox="0 0 38.85 39.66"
 xmlns:xlink="http://www.w3.org/1999/xlink"
 xmlns:xodm="http://www.corel.com/coreldraw/odm/2003">
 <defs>
  <style type="text/css">
   <![CDATA[
    .fil1 {fill:#E0E0E0}
    .fil10 {fill:#E95B11}
    .fil3 {fill:#FEFEFE;fill-rule:nonzero}
    .fil11 {fill:#F7B8A0;fill-rule:nonzero}
    .fil7 {fill:#F6B7BE;fill-rule:nonzero}
    .fil12 {fill:#F39772;fill-rule:nonzero}
    .fil5 {fill:#EA5563;fill-rule:nonzero}
    .fil0 {fill:#EBECEC;fill-rule:nonzero}
    .fil2 {fill:#E0E0E0;fill-rule:nonzero}
    .fil13 {fill:#BE3E45;fill-rule:nonzero}
    .fil15 {fill:#B5B6B5;fill-rule:nonzero}
    .fil8 {fill:#AAB1B2;fill-rule:nonzero}
    .fil9 {fill:#3F5E69;fill-rule:nonzero}
    .fil4 {fill:#29383E;fill-rule:nonzero}
    .fil14 {fill:#242C2F;fill-rule:nonzero}
    .fil17 {fill:black;fill-rule:nonzero}
    .fil16 {fill:#969595;fill-rule:nonzero}
    .fil18 {fill:#E6E6E6;fill-rule:nonzero}
    .fil6 {fill:#E95B11;fill-rule:nonzero}
   ]]>
  </style>
 </defs>
 <g id="Layer_x0020_1">
  <metadata id="CorelCorpID_0Corel-Layer"/>
  <g id="_2562140556240">
   <path class="fil0" d="M33.6 18.53c0,0.47 -0.38,0.85 -0.85,0.85 -0.46,0 -0.84,-0.38 -0.84,-0.85 0,-0.46 0.38,-0.84 0.84,-0.84 0.47,0 0.85,0.38 0.85,0.84z"/>
   <path class="fil0" d="M31.14 18.53c0,0.5 -0.4,0.91 -0.9,0.91 -0.5,0 -0.9,-0.41 -0.9,-0.91 0,-0.49 0.4,-0.9 0.9,-0.9 0.5,0 0.9,0.41 0.9,0.9z"/>
   <path class="fil0" d="M29.26 16.94c0,0.53 -0.43,0.96 -0.95,0.96 -0.53,0 -0.96,-0.43 -0.96,-0.96 0,-0.53 0.43,-0.96 0.96,-0.96 0.52,0 0.95,0.43 0.95,0.96z"/>
   <path class="fil0" d="M28.91 14.48c0,0.56 -0.44,1 -1,1 -0.55,0 -1,-0.44 -1,-1 0,-0.55 0.45,-1 1,-1 0.56,0 1,0.45 1,1z"/>
   <path class="fil0" d="M30.17 12.34c0,0.57 -0.46,1.03 -1.03,1.03 -0.57,0 -1.04,-0.46 -1.04,-1.03 0,-0.58 0.47,-1.04 1.04,-1.04 0.57,0 1.03,0.46 1.03,1.04z"/>
   <path class="fil0" d="M32.62 11.49c0,0.62 -0.51,1.12 -1.13,1.12 -0.62,0 -1.12,-0.5 -1.12,-1.12 0,-0.63 0.5,-1.13 1.12,-1.13 0.62,0 1.13,0.5 1.13,1.13z"/>
   <path class="fil0" d="M35.44 16.92c0,0.45 -0.37,0.82 -0.82,0.82 -0.45,0 -0.82,-0.37 -0.82,-0.82 0,-0.45 0.37,-0.82 0.82,-0.82 0.45,0 0.82,0.37 0.82,0.82z"/>
   <path class="fil0" d="M35.82 14.46c0,0.42 -0.34,0.76 -0.76,0.76 -0.42,0 -0.76,-0.34 -0.76,-0.76 0,-0.42 0.34,-0.76 0.76,-0.76 0.42,0 0.76,0.34 0.76,0.76z"/>
   <path class="fil0" d="M34.49 12.31c0,0.38 -0.31,0.69 -0.69,0.69 -0.39,0 -0.7,-0.31 -0.7,-0.69 0,-0.39 0.31,-0.7 0.7,-0.7 0.38,0 0.69,0.31 0.69,0.7z"/>
   <path class="fil1" d="M7.64 9.34c-0.7,-0.44 -1.62,-0.23 -2.05,0.47 -0.44,0.69 -0.22,1.61 0.47,2.04 0.7,0.44 1.61,0.23 2.05,-0.47 0.43,-0.69 0.22,-1.61 -0.47,-2.04zm1.65 -1.11c0.21,0.23 0.38,0.47 0.52,0.74l0.84 -0.01 0.31 1.35 -0.76 0.37c-0.01,0.3 -0.05,0.59 -0.14,0.89l0.59 0.59 -0.74 1.17 -0.78 -0.28c-0.23,0.21 -0.48,0.39 -0.74,0.53l0 0.83 -1.35 0.32 -0.36 -0.76c-0.3,-0.01 -0.6,-0.06 -0.89,-0.15l-0.59 0.6 -1.17 -0.74 0.27 -0.79c-0.21,-0.22 -0.38,-0.47 -0.52,-0.73l-0.84 0 -0.31 -1.35 0.76 -0.36c0.01,-0.3 0.05,-0.6 0.14,-0.89l-0.59 -0.59 0.74 -1.18 0.78 0.28c0.23,-0.21 0.48,-0.38 0.74,-0.52l0 -0.84 1.35 -0.31 0.36 0.75c0.3,0.01 0.6,0.06 0.89,0.15l0.59 -0.59 1.17 0.73 -0.27 0.79z"/>
   <path class="fil1" d="M9.19 3.17c-0.39,-0.24 -0.89,-0.12 -1.14,0.26 -0.24,0.39 -0.12,0.89 0.27,1.13 0.38,0.24 0.89,0.13 1.13,-0.26 0.24,-0.38 0.12,-0.89 -0.26,-1.13zm0.91 -0.61c0.12,0.12 0.21,0.26 0.29,0.41l0.46 -0.01 0.18 0.75 -0.42 0.2c-0.01,0.17 -0.03,0.33 -0.08,0.49l0.33 0.33 -0.41 0.65 -0.44 -0.15c-0.12,0.11 -0.26,0.21 -0.4,0.29l0 0.46 -0.75 0.17 -0.2 -0.41c-0.17,-0.01 -0.33,-0.04 -0.49,-0.09l-0.33 0.33 -0.65 -0.4 0.15 -0.44c-0.11,-0.13 -0.21,-0.26 -0.29,-0.41l-0.46 0 -0.17 -0.74 0.41 -0.2c0.01,-0.17 0.04,-0.34 0.09,-0.5l-0.33 -0.32 0.41 -0.65 0.43 0.15c0.13,-0.12 0.26,-0.21 0.41,-0.29l0 -0.46 0.74 -0.18 0.21 0.42c0.16,0.01 0.33,0.03 0.49,0.08l0.32 -0.33 0.65 0.41 -0.15 0.44z"/>
   <path class="fil2" d="M3.6 3.94c0,0 0.02,0 0.04,0.02 0.03,0.01 0.06,0.04 0.1,0.08 0.07,0.07 0.17,0.21 0.19,0.4 0.01,0.1 0,0.21 -0.04,0.31 -0.05,0.11 -0.11,0.21 -0.22,0.29 -0.05,0.04 -0.11,0.08 -0.17,0.1 -0.06,0.03 -0.13,0.04 -0.2,0.05 -0.14,0.01 -0.29,-0.03 -0.41,-0.1 -0.13,-0.08 -0.23,-0.2 -0.28,-0.33 -0.02,-0.07 -0.04,-0.14 -0.04,-0.2 -0.01,-0.07 0,-0.14 0.01,-0.2 0.03,-0.13 0.09,-0.24 0.17,-0.32 0.08,-0.08 0.17,-0.14 0.26,-0.17 0.18,-0.07 0.35,-0.04 0.45,-0.01 0.05,0.02 0.09,0.04 0.11,0.05 0.02,0.02 0.03,0.03 0.03,0.03 0,0 -0.05,-0.03 -0.15,-0.06 -0.1,-0.03 -0.26,-0.05 -0.43,0.02 -0.09,0.03 -0.17,0.08 -0.25,0.16 -0.07,0.09 -0.13,0.19 -0.15,0.31 -0.01,0.06 -0.02,0.12 -0.01,0.18 0,0.07 0.02,0.13 0.04,0.19 0.05,0.13 0.14,0.24 0.26,0.31 0.12,0.07 0.26,0.11 0.39,0.1 0.06,-0.01 0.13,-0.02 0.19,-0.05 0.06,-0.02 0.11,-0.05 0.16,-0.09 0.1,-0.07 0.16,-0.17 0.2,-0.27 0.05,-0.1 0.06,-0.2 0.05,-0.3 -0.02,-0.18 -0.11,-0.32 -0.18,-0.39 -0.07,-0.08 -0.12,-0.11 -0.12,-0.11z"/>
   <path class="fil2" d="M4.34 3.44c0,0 0.01,0 0.01,-0.02 0.01,-0.02 0.01,-0.04 0.02,-0.07 0.02,-0.06 0.05,-0.15 0.09,-0.26l0 0c-0.13,-0.08 -0.31,-0.19 -0.52,-0.32l0.01 0c-0.08,0.08 -0.17,0.17 -0.26,0.26l-0.01 0.01 -0.01 0c-0.12,-0.04 -0.25,-0.06 -0.39,-0.07l-0.01 0 0 0c-0.06,-0.11 -0.11,-0.22 -0.17,-0.34l0.02 0.01c-0.19,0.04 -0.39,0.09 -0.61,0.14l0.02 -0.02c0,0.12 0,0.24 0,0.38l0 0.01 -0.01 0c-0.11,0.06 -0.22,0.14 -0.33,0.23l0 0.01 -0.01 0c-0.11,-0.04 -0.24,-0.08 -0.36,-0.13l0.02 0c-0.1,0.16 -0.21,0.34 -0.33,0.52l0 -0.02c0.08,0.08 0.18,0.17 0.27,0.26l0.01 0.01 -0.01 0.01c-0.03,0.12 -0.06,0.26 -0.06,0.4l0 0.01 -0.01 0.01c-0.11,0.05 -0.23,0.1 -0.34,0.16l0.01 -0.02c0.04,0.19 0.09,0.39 0.14,0.6l-0.02 -0.02c0.12,0 0.25,0 0.37,0l0.02 0 0 0.01c0.06,0.12 0.14,0.23 0.23,0.33l0 0 0 0c0.01,0.01 0,-0.02 0.01,0.02l0 0 0 0 0 0 0 0.01 -0.01 0 0 0.01 -0.01 0.03 -0.01 0.04 -0.03 0.09c-0.02,0.06 -0.04,0.12 -0.07,0.18l0 -0.03c0.17,0.11 0.35,0.22 0.52,0.33l-0.02 0c0.09,-0.09 0.17,-0.18 0.26,-0.26l0.01 -0.01 0.01 0c0.13,0.04 0.26,0.06 0.4,0.07l0.01 0 0 0.01c0.06,0.11 0.11,0.23 0.17,0.34l-0.03 -0.01c0.21,-0.05 0.41,-0.1 0.61,-0.14l-0.02 0.02c0,-0.13 0,-0.26 0,-0.38l0 -0.01 0.01 -0.01c0.12,-0.06 0.23,-0.14 0.33,-0.23l0.01 0 0.01 0c0.12,0.04 0.24,0.08 0.35,0.12l-0.02 0.01c0.12,-0.18 0.23,-0.36 0.33,-0.52l0 0.02c-0.09,-0.1 -0.18,-0.19 -0.26,-0.27l-0.01 -0.01 0 -0.01c0.05,-0.13 0.07,-0.26 0.07,-0.39l0 -0.01 0.01 0c0.12,-0.06 0.23,-0.11 0.34,-0.16l-0.01 0.01c-0.05,-0.24 -0.1,-0.43 -0.13,-0.61l0 0.01c-0.15,0 -0.27,0 -0.37,0l-0.01 0 0 0c-0.06,-0.12 -0.12,-0.21 -0.16,-0.26 -0.02,-0.02 -0.04,-0.04 -0.05,-0.06 -0.01,-0.01 -0.02,-0.02 -0.02,-0.02 0,0 0.01,0.01 0.02,0.02 0.01,0.01 0.03,0.03 0.05,0.06 0.05,0.05 0.11,0.13 0.18,0.25l-0.01 0c0.1,0 0.22,-0.01 0.37,-0.01l0.01 0 0 0.01c0.04,0.17 0.09,0.37 0.15,0.6l0 0.01 -0.01 0.01c-0.11,0.05 -0.22,0.1 -0.34,0.16l0.01 -0.01c0,0.13 -0.02,0.26 -0.07,0.4l0 -0.01c0.08,0.08 0.17,0.17 0.27,0.26l0.01 0.01 -0.01 0.01c-0.1,0.17 -0.21,0.34 -0.33,0.53l-0.01 0.01 -0.01 0c-0.11,-0.04 -0.23,-0.08 -0.35,-0.13l0.01 0c-0.09,0.09 -0.21,0.17 -0.33,0.24l0.01 -0.02c0,0.12 0,0.25 0,0.38l0 0.01 -0.01 0.01c-0.2,0.04 -0.4,0.09 -0.61,0.14l-0.01 0 -0.01 -0.02c-0.05,-0.11 -0.11,-0.22 -0.16,-0.33l0.01 0.01c-0.13,-0.01 -0.27,-0.03 -0.4,-0.07l0.02 0c-0.09,0.08 -0.17,0.17 -0.26,0.26l-0.02 0.01 -0.01 0c-0.17,-0.11 -0.35,-0.22 -0.53,-0.33l-0.01 -0.01 0.01 -0.02c0.02,-0.06 0.04,-0.12 0.06,-0.18l0.03 -0.08 0.01 -0.05 0.01 -0.02 0.01 -0.01 0 -0.01 0 0 0 0 0 0 0 0c0.01,0.04 0,0.01 0,0.02l0 0 0 0c-0.09,-0.1 -0.17,-0.22 -0.23,-0.34l0.01 0.02c-0.12,0 -0.25,0 -0.37,0l-0.02 0 0 -0.02c-0.05,-0.21 -0.1,-0.41 -0.14,-0.6l0 -0.02 0.01 -0.01c0.12,-0.05 0.23,-0.11 0.34,-0.16l-0.01 0.02c0,-0.15 0.03,-0.28 0.06,-0.41l0.01 0.02c-0.09,-0.09 -0.18,-0.18 -0.27,-0.26l-0.01 -0.01 0.01 -0.02c0.12,-0.18 0.23,-0.36 0.33,-0.52l0.01 -0.02 0.01 0.01c0.13,0.04 0.25,0.09 0.36,0.12l-0.02 0.01c0.1,-0.1 0.22,-0.18 0.33,-0.24l-0.01 0.02c0,-0.14 0,-0.26 0,-0.38l0 -0.01 0.02 -0.01c0.21,-0.04 0.41,-0.09 0.6,-0.13l0.01 -0.01 0.01 0.01c0.06,0.12 0.11,0.24 0.16,0.34l-0.01 0c0.14,0 0.28,0.03 0.4,0.06l-0.01 0.01c0.09,-0.1 0.18,-0.19 0.26,-0.27l0.01 0 0.01 0c0.21,0.14 0.39,0.25 0.52,0.33l0.01 0.01 -0.01 0c-0.04,0.11 -0.07,0.2 -0.09,0.26 -0.01,0.03 -0.02,0.05 -0.03,0.07 0,0.02 -0.01,0.02 -0.01,0.02z"/>
   <path class="fil3" d="M25.82 0.08l-2.63 -0.01c-0.36,0 -0.65,0.29 -0.65,0.66l0 0.48c0,0.37 -0.29,0.67 -0.64,0.67l-5.15 -0.02c-0.35,-0.01 -0.63,-0.31 -0.63,-0.68l0 -0.48c0,-0.37 -0.29,-0.67 -0.64,-0.67l-0.93 0 -2.31 -0.01c-1.14,-0.01 -2.08,0.92 -2.08,2.06l-0.14 33.3c-0.01,1.15 0.92,2.08 2.06,2.09l13.58 0.06c1.15,0 2.08,-0.92 2.09,-2.07l0.14 -33.3c0.01,-1.14 -0.92,-2.08 -2.07,-2.08z"/>
   <path class="fil4" d="M25.82 0.08c0,0 0.03,0 0.08,0 0.04,0.01 0.11,0 0.21,0.02 0.18,0.02 0.46,0.08 0.77,0.27 0.16,0.09 0.32,0.22 0.47,0.39 0.16,0.16 0.3,0.37 0.4,0.62 0.1,0.25 0.15,0.53 0.15,0.84 0,0.31 0,0.63 0,0.98 -0.01,2.77 -0.03,6.77 -0.05,11.71 -0.02,4.95 -0.04,10.84 -0.07,17.37 0,0.82 0,1.65 -0.01,2.49 0,0.21 0,0.42 0,0.63 0,0.21 -0.02,0.42 -0.08,0.63 -0.06,0.2 -0.15,0.4 -0.27,0.58 -0.12,0.18 -0.26,0.34 -0.43,0.48 -0.34,0.27 -0.76,0.44 -1.2,0.46 -0.11,0 -0.21,0 -0.32,0l-0.33 0c-0.22,0 -0.43,0 -0.65,0 -0.87,-0.01 -1.76,-0.01 -2.65,-0.02 -1.77,0 -3.58,-0.01 -5.42,-0.02 -0.92,0 -1.85,-0.01 -2.78,-0.01 -0.46,-0.01 -0.93,-0.01 -1.4,-0.01 -0.47,0.02 -0.95,-0.1 -1.35,-0.38 -0.39,-0.27 -0.68,-0.68 -0.81,-1.13 -0.07,-0.23 -0.09,-0.47 -0.08,-0.71 0,-0.23 0,-0.46 0,-0.7 0,-0.93 0.01,-1.85 0.01,-2.77 0.01,-1.84 0.02,-3.65 0.02,-5.43 0.02,-3.56 0.03,-6.99 0.05,-10.26 0.01,-3.27 0.03,-6.37 0.04,-9.28 0.01,-1.46 0.01,-2.86 0.02,-4.21 0,-0.17 0,-0.34 0,-0.5 0,-0.09 0.01,-0.17 0.01,-0.26 0.02,-0.08 0.02,-0.16 0.05,-0.24 0.07,-0.33 0.23,-0.63 0.44,-0.88 0.21,-0.25 0.47,-0.44 0.77,-0.57 0.27,-0.12 0.57,-0.17 0.86,-0.17l0.02 0c0.01,0 0.03,0 0.04,0 0.62,0 1.22,0.01 1.81,0.01 0.29,0 0.58,0 0.87,0 0.14,0 0.28,0.01 0.43,0.01 0.14,-0.01 0.28,0.03 0.4,0.11 0.12,0.08 0.21,0.2 0.25,0.33 0.05,0.14 0.04,0.28 0.04,0.41 0,0.07 0,0.14 0,0.2 0,0.07 0,0.14 0.01,0.2 0.01,0.13 0.07,0.26 0.15,0.35 0.08,0.1 0.2,0.17 0.32,0.2 0.06,0.02 0.12,0.02 0.19,0.02 0.06,0 0.13,0 0.19,0 0.25,0 0.5,0.01 0.75,0.01 0.98,0 1.89,0.01 2.74,0.01 0.42,0 0.82,0.01 1.2,0.01 0.04,0 0.07,0 0.1,0 0.07,0 0.13,0 0.19,0 0.09,-0.01 0.17,-0.05 0.25,-0.09 0.15,-0.1 0.26,-0.26 0.29,-0.42 0.02,-0.09 0.02,-0.17 0.02,-0.25 0,-0.09 0,-0.17 0,-0.25 0,-0.08 0,-0.17 0.02,-0.24 0.01,-0.08 0.04,-0.16 0.07,-0.23 0.08,-0.13 0.2,-0.23 0.34,-0.29 0.1,-0.04 0.22,-0.04 0.32,-0.04 0.03,0 0.06,0 0.09,0 0.53,0 0.98,0.01 1.34,0.01 0.37,0 0.65,0 0.83,0.01 0.19,0 0.28,0 0.28,0 0,0 -0.09,0 -0.28,0 -0.18,0 -0.46,0 -0.83,0 -0.36,0 -0.81,0 -1.34,-0.01 -0.03,0.01 -0.06,0.01 -0.09,0 -0.1,0 -0.21,0 -0.32,0.05 -0.13,0.05 -0.25,0.15 -0.32,0.28 -0.04,0.07 -0.07,0.14 -0.08,0.22 -0.01,0.08 -0.01,0.16 -0.01,0.24 0,0.08 0,0.16 0,0.25 0,0.08 0,0.17 -0.02,0.25 -0.03,0.17 -0.14,0.34 -0.3,0.43 -0.08,0.05 -0.17,0.08 -0.26,0.1 -0.06,0 -0.12,0 -0.19,0 -0.03,0 -0.06,0 -0.1,0 -0.38,0 -0.78,0 -1.2,-0.01 -0.85,0 -1.76,0 -2.74,-0.01 -0.25,0 -0.5,0 -0.75,0 -0.06,0 -0.13,0 -0.19,0 -0.07,0 -0.13,0 -0.2,-0.02 -0.12,-0.03 -0.24,-0.11 -0.33,-0.21 -0.09,-0.1 -0.14,-0.23 -0.16,-0.36 -0.01,-0.07 -0.01,-0.14 -0.01,-0.21 0,-0.06 0,-0.13 0,-0.2 0,-0.13 0.02,-0.27 -0.04,-0.4 -0.04,-0.12 -0.12,-0.24 -0.24,-0.31 -0.11,-0.08 -0.25,-0.12 -0.39,-0.11 -0.14,0 -0.28,0 -0.42,-0.01 -0.29,0 -0.58,0 -0.87,0 -0.59,0 -1.19,0 -1.81,-0.01 -0.31,0 -0.62,0.04 -0.91,0.17 -0.29,0.13 -0.55,0.32 -0.76,0.56 -0.2,0.25 -0.35,0.55 -0.43,0.87 -0.02,0.08 -0.03,0.16 -0.04,0.24 -0.01,0.08 -0.01,0.16 -0.01,0.25 0,0.16 -0.01,0.33 -0.01,0.5 0,1.35 -0.01,2.75 -0.01,4.21 -0.01,2.91 -0.03,6.01 -0.04,9.28 -0.01,3.27 -0.03,6.7 -0.04,10.26 -0.01,1.78 -0.02,3.59 -0.02,5.43 -0.01,0.92 -0.01,1.84 -0.02,2.78 0,0.23 0,0.46 0,0.69 0,0.24 0.01,0.47 0.08,0.69 0.13,0.45 0.42,0.85 0.8,1.11 0.39,0.27 0.86,0.4 1.32,0.37 0.47,0.01 0.94,0.01 1.4,0.01 0.94,0 1.86,0.01 2.78,0.01 1.84,0.01 3.65,0.02 5.42,0.03 0.89,0 1.78,0.01 2.65,0.01 0.22,0 0.43,0 0.65,0l0.33 0.01c0.11,0 0.21,0 0.32,-0.01 0.43,-0.02 0.84,-0.19 1.17,-0.45 0.17,-0.13 0.31,-0.29 0.43,-0.47 0.11,-0.17 0.2,-0.36 0.26,-0.57 0.06,-0.2 0.07,-0.41 0.08,-0.61 0,-0.22 0,-0.42 0,-0.63 0,-0.84 0.01,-1.67 0.01,-2.49 0.03,-6.53 0.06,-12.42 0.08,-17.37 0.02,-4.94 0.04,-8.94 0.06,-11.71 0,-0.35 0,-0.67 0,-0.98 0.01,-0.3 -0.05,-0.59 -0.15,-0.84 -0.1,-0.24 -0.23,-0.45 -0.38,-0.61 -0.15,-0.17 -0.31,-0.3 -0.47,-0.39 -0.31,-0.19 -0.59,-0.25 -0.78,-0.28 -0.09,-0.01 -0.16,-0.01 -0.2,-0.02 -0.05,0 -0.08,0 -0.08,0z"/>
   <path class="fil5" d="M23.39 10.56l-0.21 -0.24 0.61 -0.32 -2.82 -0.96 0.95 2.73 0.35 -0.45c0,0 1.83,3.21 0,5.16 -1.81,1.94 -3.94,1.52 -3.94,1.52l0.41 1.34c0,0 3.36,0.24 5.16,-2.8 1.8,-3.03 -0.51,-5.98 -0.51,-5.98z"/>
   <path class="fil5" d="M14.93 17.3l0.21 0.24 -0.61 0.32 2.82 0.96 -0.95 -2.73 -0.35 0.45c0,0 -1.82,-3.21 0,-5.16 1.81,-1.94 3.95,-1.52 3.95,-1.52l-0.42 -1.34c0,0 -3.36,-0.24 -5.16,2.8 -1.8,3.03 0.51,5.98 0.51,5.98z"/>
   <path class="fil5" d="M23.39 10.56l-0.21 -0.24 0.61 -0.32 -2.82 -0.96 0.95 2.73 0.35 -0.45c0,0 1.83,3.21 0,5.16 -1.81,1.94 -3.94,1.52 -3.94,1.52l0.41 1.34c0,0 3.36,0.24 5.16,-2.8 1.8,-3.03 -0.51,-5.98 -0.51,-5.98z"/>
   <path class="fil5" d="M14.93 17.3l0.21 0.24 -0.61 0.32 2.82 0.96 -0.95 -2.73 -0.35 0.45c0,0 -1.82,-3.21 0,-5.16 1.81,-1.94 3.95,-1.52 3.95,-1.52l-0.42 -1.34c0,0 -3.36,-0.24 -5.16,2.8 -1.8,3.03 0.51,5.98 0.51,5.98z"/>
   <path class="fil6" d="M18.9 19.34l0.01 0 0 0c0.71,0 3.43,-0.17 4.99,-2.8 0.5,-0.85 0.68,-1.69 0.68,-2.46 0,-1.99 -1.19,-3.52 -1.19,-3.52l-0.21 -0.24 0.61 -0.32 -2.82 -0.96 0.95 2.73 0.35 -0.45c0,0 0.81,1.42 0.81,2.95 0,0.77 -0.2,1.56 -0.81,2.21 -1.26,1.35 -2.68,1.55 -3.43,1.55 -0.32,0 -0.51,-0.03 -0.51,-0.03l0.41 1.34c0,0 0.06,0 0.16,0z"/>
   <path class="fil6" d="M17.35 18.82l-1.2 -0.41c0.34,-0.17 0.63,-0.46 0.79,-0.77l0.41 1.18zm-1.68 -2.64c0,0 -1.15,-1.6 -1.67,-2.53 -0.07,-0.14 -0.15,-0.26 -0.24,-0.37 0.07,-0.63 0.27,-1.29 0.66,-1.96 1.56,-2.63 4.28,-2.8 4.99,-2.8 0.11,0 0.17,0 0.17,0l0.42 1.34c0,0 -0.2,-0.03 -0.52,-0.03 -0.75,0 -2.17,0.2 -3.43,1.55 -0.61,0.65 -0.81,1.44 -0.81,2.21 0,0.94 0.31,1.84 0.54,2.4l-0.11 0.19z"/>
   <path class="fil3" d="M19.19 14.83c-0.18,0 -0.35,-0.05 -0.51,-0.15 -0.29,-0.18 -0.45,-0.49 -0.45,-0.82 0,-0.17 0.05,-0.35 0.14,-0.5 0.19,-0.3 0.5,-0.46 0.82,-0.46 0.17,0 0.35,0.05 0.51,0.15 0.29,0.18 0.45,0.5 0.45,0.82 0,0.17 -0.05,0.35 -0.15,0.51 -0.18,0.29 -0.49,0.45 -0.81,0.45z"/>
   <path class="fil4" d="M26.61 3.31c0,0.01 -0.36,0.02 -0.81,0.02 -0.45,0.01 -0.81,0 -0.81,-0.01 0,-0.01 0.36,-0.02 0.81,-0.02 0.45,0 0.81,0 0.81,0.01z"/>
   <path class="fil4" d="M26.61 3.73c0,0.01 -0.36,0.02 -0.81,0.02 -0.45,0 -0.81,0 -0.81,-0.01 0,-0.01 0.36,-0.02 0.81,-0.02 0.45,-0.01 0.81,0 0.81,0.01z"/>
   <path class="fil4" d="M26.62 4.14c0,0.01 -0.37,0.02 -0.81,0.03 -0.45,0 -0.82,-0.01 -0.82,-0.02 0,0 0.37,-0.02 0.82,-0.02 0.44,0 0.81,0 0.81,0.01z"/>
   <path class="fil4" d="M11.83 4.62c0,0 0.02,-0.01 0.04,-0.01 0.02,0 0.06,0 0.09,0 0.09,0 0.21,0 0.35,-0.01l-0.01 0.01c0,-0.08 0,-0.16 -0.01,-0.25 0.01,-0.05 0,-0.09 0.01,-0.14 0,-0.06 0.05,-0.11 0.11,-0.11 0.06,0 0.11,-0.01 0.17,0 0.06,0.01 0.11,0.07 0.11,0.13 0,0.12 0,0.24 0.01,0.37l-0.02 -0.02c0.14,0 0.29,0 0.44,0l-0.02 0.02c0,-0.18 0,-0.36 0,-0.55 0,-0.05 -0.01,-0.09 -0.01,-0.14 0,-0.04 -0.02,-0.07 -0.06,-0.1 -0.06,-0.07 -0.13,-0.13 -0.19,-0.19 -0.06,-0.06 -0.12,-0.12 -0.18,-0.18 -0.03,-0.03 -0.06,-0.06 -0.09,-0.09 -0.03,-0.03 -0.06,-0.06 -0.09,-0.07 -0.04,-0.01 -0.08,0 -0.1,0.02 -0.03,0.02 -0.06,0.05 -0.08,0.08 -0.06,0.05 -0.11,0.11 -0.16,0.16 -0.1,0.1 -0.2,0.2 -0.28,0.28 -0.03,0.05 -0.02,0.11 -0.02,0.17 0,0.05 0,0.1 0,0.15 0,0.1 0,0.18 0,0.25 0,0.06 0,0.12 0,0.16 0,0.04 -0.01,0.05 -0.01,0.06 0,0 0,-0.02 0,-0.06 0,-0.04 0,-0.09 0,-0.15 -0.01,-0.07 -0.01,-0.16 -0.01,-0.25 0,-0.05 0,-0.11 0,-0.16 0,-0.03 0,-0.06 0,-0.09 0,-0.03 0,-0.06 0.02,-0.09 0.08,-0.1 0.18,-0.19 0.28,-0.29 0.05,-0.05 0.1,-0.11 0.15,-0.16 0.03,-0.03 0.05,-0.06 0.09,-0.08 0.03,-0.03 0.08,-0.04 0.12,-0.03 0.05,0.01 0.08,0.05 0.11,0.08 0.03,0.02 0.06,0.05 0.09,0.08 0.06,0.06 0.12,0.12 0.18,0.19 0.07,0.06 0.13,0.12 0.2,0.18 0.01,0.02 0.03,0.03 0.05,0.06 0.01,0.02 0.02,0.04 0.02,0.07 0,0.05 0,0.09 0,0.14 0,0.19 0,0.37 0,0.54l0 0.02 -0.01 0c-0.15,0 -0.3,0 -0.44,0l-0.02 0 0 -0.01c0,-0.13 0,-0.25 0,-0.37 0,-0.05 -0.04,-0.1 -0.09,-0.1 -0.05,-0.01 -0.11,-0.01 -0.16,0 -0.04,0 -0.08,0.04 -0.09,0.08 0,0.04 0,0.1 0,0.14 0,0.09 0,0.17 0,0.25l0 0.01 -0.01 0c-0.15,0 -0.26,0 -0.35,0 -0.04,0 -0.07,0 -0.1,0 -0.02,0 -0.03,0 -0.03,0z"/>
   <path class="fil4" d="M22.59 4.26c0,0.01 -1.37,0.02 -3.06,0.02 -1.68,0 -3.05,-0.01 -3.05,-0.02 0,-0.01 1.37,-0.02 3.05,-0.02 1.69,0 3.06,0.01 3.06,0.02z"/>
   <path class="fil6" d="M22.43 32.62l-6.41 0c-0.82,0 -1.48,-0.66 -1.48,-1.48 0,-0.82 0.66,-1.48 1.48,-1.48l6.41 0c0.82,0 1.48,0.66 1.48,1.48 0,0.82 -0.66,1.48 -1.48,1.48z"/>
   <path class="fil4" d="M25.32 25.59c0,0.01 -2.76,0.02 -6.16,0.02 -3.4,0 -6.16,-0.01 -6.16,-0.02 0,-0.02 2.76,-0.03 6.16,-0.03 3.4,0 6.16,0.01 6.16,0.03z"/>
   <path class="fil4" d="M22.86 26.34c0,0.01 -1.65,0.02 -3.7,0.02 -2.05,0 -3.7,-0.01 -3.7,-0.02 0,-0.01 1.65,-0.02 3.7,-0.02 2.05,0 3.7,0.01 3.7,0.02z"/>
   <polygon class="fil6" points="5.83,37.46 5.28,39.47 7.05,39.64 7.43,37.72 "/>
   <path class="fil4" d="M7.1 39.47c0,0.01 -0.1,0.01 -0.26,-0.01 -0.15,-0.01 -0.37,-0.03 -0.62,-0.07 -0.23,-0.03 -0.44,-0.05 -0.62,-0.08 -0.15,-0.02 -0.25,-0.04 -0.25,-0.04 0,-0.01 0.1,-0.01 0.26,0.01 0.16,0.01 0.38,0.03 0.62,0.07 0.23,0.03 0.44,0.06 0.62,0.08 0.16,0.02 0.25,0.03 0.25,0.04z"/>
   <polygon class="fil3" points="5.28,39.47 5.28,39.45 5.33,39.27 5.34,39.27 "/>
   <path class="fil7" d="M7.05 39.64l-1.77 -0.17 0.06 -0.2 0.01 0c0,0.01 0.1,0.02 0.25,0.04 0.18,0.03 0.39,0.05 0.62,0.08 0.25,0.04 0.47,0.06 0.62,0.07 0.04,0.01 0.07,0.01 0.1,0.01l0.14 0.02 -0.03 0.15z"/>
   <path class="fil8" d="M6.94 39.47c-0.03,0 -0.06,0 -0.1,-0.01 -0.15,-0.01 -0.37,-0.03 -0.62,-0.07 -0.23,-0.03 -0.44,-0.05 -0.62,-0.08 -0.15,-0.02 -0.25,-0.03 -0.25,-0.04l1.59 0.2z"/>
   <path class="fil4" d="M6.16 39.38c-0.01,0 0.07,-0.34 0.17,-0.77 0.1,-0.42 0.2,-0.76 0.21,-0.76 0.01,0 -0.07,0.35 -0.17,0.77 -0.1,0.43 -0.2,0.77 -0.21,0.76z"/>
   <path class="fil4" d="M7.01 39.46c-0.01,0 0.05,-0.15 0,-0.38 -0.03,-0.11 -0.09,-0.24 -0.19,-0.35 -0.11,-0.11 -0.27,-0.18 -0.44,-0.2 -0.18,-0.02 -0.35,0.03 -0.48,0.11 -0.13,0.08 -0.22,0.19 -0.28,0.29 -0.11,0.21 -0.1,0.36 -0.11,0.36 0,0 0,-0.01 0,-0.03 0,-0.01 0,-0.04 0,-0.07 0.01,-0.07 0.03,-0.16 0.09,-0.27 0.05,-0.11 0.14,-0.23 0.28,-0.31 0.13,-0.09 0.31,-0.14 0.5,-0.12 0.18,0.02 0.35,0.1 0.46,0.22 0.12,0.11 0.17,0.25 0.2,0.37 0.02,0.12 0.01,0.22 0,0.28 -0.01,0.03 -0.02,0.06 -0.02,0.07 -0.01,0.02 -0.01,0.03 -0.01,0.03z"/>
   <path class="fil6" d="M13.14 36.92l-0.12 1.79c0,0 1.79,0.59 1.8,0.92l-3.49 0.03 0.07 -2.8 1.74 0.06z"/>
   <path class="fil7" d="M11.98 38.79c-0.06,0 -0.12,-0.05 -0.13,-0.11 -0.01,-0.06 0.03,-0.13 0.09,-0.15 0.01,-0.01 0.02,-0.01 0.04,-0.01 0.05,0 0.12,0.05 0.13,0.1 0.02,0.07 -0.04,0.15 -0.1,0.17 -0.01,0 -0.02,0 -0.03,0z"/>
   <path class="fil3" d="M14.83 39.66l-3.5 0 3.49 -0.03c-0.01,-0.05 -0.05,-0.1 -0.12,-0.16 0.01,0 0.12,0.05 0.13,0.19z"/>
   <path class="fil7" d="M11.33 39.66l0.01 -0.28 3.36 0.09c0,0 0,0 0,0 0.07,0.06 0.11,0.11 0.12,0.16l-3.49 0.03z"/>
   <path class="fil4" d="M13.08 38.69c0,0.02 -0.09,0.02 -0.17,0.08 -0.09,0.05 -0.13,0.12 -0.15,0.11 -0.01,0 0.01,-0.1 0.12,-0.16 0.1,-0.07 0.2,-0.04 0.2,-0.03z"/>
   <path class="fil4" d="M13.44 38.85c0,0.02 -0.07,0.05 -0.13,0.12 -0.06,0.07 -0.08,0.14 -0.1,0.14 -0.01,0 -0.02,-0.1 0.06,-0.18 0.07,-0.09 0.17,-0.09 0.17,-0.08z"/>
   <path class="fil4" d="M13.63 39.3c-0.01,0 -0.03,-0.08 0.01,-0.18 0.05,-0.09 0.13,-0.12 0.14,-0.11 0.01,0.02 -0.05,0.06 -0.08,0.14 -0.04,0.08 -0.05,0.15 -0.07,0.15z"/>
   <path class="fil4" d="M13.06 38.28c-0.01,0.02 -0.08,-0.01 -0.18,-0.01 -0.1,0.01 -0.17,0.04 -0.18,0.02 -0.01,-0.01 0.07,-0.07 0.18,-0.07 0.11,-0.01 0.19,0.05 0.18,0.06z"/>
   <path class="fil4" d="M13.08 37.92c0,0.01 -0.07,0.02 -0.18,-0.01 -0.05,-0.01 -0.11,-0.03 -0.18,-0.06 -0.03,-0.01 -0.06,-0.03 -0.09,-0.05 -0.02,-0.01 -0.04,-0.03 -0.06,-0.05 -0.01,-0.01 -0.02,-0.06 0,-0.09 0.02,-0.02 0.05,-0.03 0.07,-0.03 0.03,0 0.05,0 0.07,0.01 0.04,0.01 0.07,0.02 0.11,0.04 0.06,0.03 0.12,0.07 0.15,0.11 0.08,0.08 0.11,0.14 0.1,0.14 -0.01,0.01 -0.04,-0.05 -0.12,-0.11 -0.04,-0.03 -0.09,-0.07 -0.16,-0.09 -0.03,-0.02 -0.06,-0.03 -0.09,-0.04 -0.04,-0.01 -0.07,-0.01 -0.08,0.01 -0.01,0 -0.01,0.01 0,0.02 0.01,0.01 0.02,0.02 0.04,0.03 0.03,0.02 0.06,0.04 0.09,0.05 0.06,0.04 0.12,0.06 0.17,0.07 0.09,0.03 0.16,0.04 0.16,0.05z"/>
   <path class="fil4" d="M13.06 37.94c-0.01,0.01 -0.04,-0.06 -0.04,-0.17 -0.01,-0.05 0,-0.12 0.02,-0.19 0.02,-0.03 0.03,-0.07 0.05,-0.1 0.02,-0.03 0.05,-0.08 0.12,-0.09 0.03,0 0.06,0.03 0.07,0.06 0.01,0.02 0.01,0.04 0.01,0.06 0.01,0.04 0.01,0.08 0,0.12 -0.01,0.07 -0.05,0.13 -0.08,0.17 -0.07,0.09 -0.14,0.11 -0.14,0.11 -0.01,-0.01 0.05,-0.04 0.11,-0.13 0.02,-0.04 0.05,-0.1 0.06,-0.16 0,-0.03 0,-0.07 0,-0.1 -0.01,-0.04 -0.02,-0.07 -0.04,-0.07 -0.01,0 -0.04,0.03 -0.06,0.06 -0.02,0.03 -0.03,0.06 -0.04,0.09 -0.03,0.06 -0.04,0.12 -0.04,0.18 -0.01,0.1 0.01,0.16 0,0.16z"/>
   <polygon class="fil4" points="13.14,21.36 7.84,21.32 5.27,38.16 7.47,38.44 10.3,24.59 11.14,38.49 11.14,38.53 13.52,38.49 "/>
   <path class="fil9" d="M10.73 22.72c0,0 0.03,0 0.11,0 0.08,-0.01 0.18,-0.01 0.32,-0.01 0.28,-0.01 0.68,-0.02 1.14,-0.04l0.03 0 0 0.02c0,0.34 0,0.71 0,1.1l0 0.02 -0.01 0c-0.06,0.06 -0.13,0.12 -0.2,0.19 -0.2,0.18 -0.4,0.36 -0.59,0.54l-0.01 0.01 -0.02 -0.01c-0.29,-0.26 -0.56,-0.5 -0.78,-0.7l-0.01 -0.01 0 -0.01c0,-0.33 0.01,-0.61 0.01,-0.8 0,-0.09 0,-0.17 0,-0.22 0.01,-0.05 0.01,-0.08 0.01,-0.08 0,0.01 0,0.03 0,0.09 0,0.05 0.01,0.13 0.01,0.22 0,0.19 0,0.46 0.01,0.79l-0.01 -0.01c0.23,0.2 0.5,0.43 0.79,0.69l-0.03 0c0.19,-0.17 0.38,-0.35 0.59,-0.54 0.07,-0.06 0.13,-0.12 0.2,-0.18l-0.01 0.01c0,-0.39 0,-0.76 0,-1.1l0.02 0.03c-0.46,0 -0.85,0 -1.13,0.01 -0.13,0 -0.24,0 -0.32,0 -0.04,0 -0.07,0 -0.09,0 -0.02,0 -0.03,0 -0.03,-0.01z"/>
   <path class="fil9" d="M8.23 22.65c0,0 0.03,0 0.1,0.01 0.07,0 0.17,0.01 0.28,0.02 0.26,0.02 0.61,0.06 1.04,0.09l0.02 0.01 0 0.02c-0.04,0.32 -0.09,0.69 -0.14,1.09l0 0.01 0 0.01c-0.08,0.05 -0.15,0.12 -0.23,0.18 -0.2,0.15 -0.39,0.3 -0.57,0.45l-0.02 0.01 -0.01 -0.02c-0.23,-0.29 -0.44,-0.55 -0.62,-0.78l0 0 0 -0.01c0.04,-0.33 0.08,-0.6 0.11,-0.8 0.01,-0.09 0.02,-0.16 0.03,-0.22 0.01,-0.04 0.01,-0.07 0.01,-0.07 0,0 0,0.03 0,0.08 -0.01,0.06 -0.02,0.13 -0.03,0.22 -0.02,0.2 -0.05,0.47 -0.08,0.79l-0.01 -0.01c0.18,0.23 0.4,0.49 0.63,0.77l-0.04 0c0.18,-0.14 0.37,-0.29 0.57,-0.45 0.08,-0.06 0.15,-0.12 0.23,-0.18l-0.01 0.01c0.05,-0.39 0.09,-0.76 0.13,-1.09l0.02 0.03c-0.41,-0.05 -0.76,-0.09 -1.01,-0.12 -0.12,-0.01 -0.22,-0.02 -0.29,-0.03 -0.07,-0.01 -0.11,-0.02 -0.11,-0.02z"/>
   <path class="fil9" d="M11.48 25.21c-0.01,0 -0.1,-0.04 -0.24,-0.12 -0.15,-0.08 -0.35,-0.18 -0.58,-0.29 -0.22,-0.12 -0.43,-0.21 -0.58,-0.28 -0.14,-0.07 -0.24,-0.12 -0.23,-0.13 0,0 0.1,0.03 0.25,0.09 0.15,0.07 0.36,0.16 0.59,0.27 0.22,0.12 0.42,0.23 0.56,0.31 0.15,0.09 0.23,0.14 0.23,0.15z"/>
   <path class="fil9" d="M11.41 25.62c0,0 -0.07,-0.02 -0.18,-0.07 -0.11,-0.05 -0.25,-0.15 -0.38,-0.28 -0.13,-0.12 -0.22,-0.26 -0.28,-0.37 -0.06,-0.11 -0.08,-0.18 -0.07,-0.18 0.01,-0.01 0.13,0.27 0.38,0.52 0.26,0.25 0.54,0.36 0.53,0.38z"/>
   <path class="fil9" d="M12.91 30.48c0,0 -0.01,0.04 -0.03,0.09 -0.02,0.06 -0.05,0.13 -0.11,0.22 -0.11,0.18 -0.32,0.41 -0.62,0.53 -0.3,0.13 -0.6,0.12 -0.81,0.08 -0.1,-0.03 -0.18,-0.05 -0.23,-0.08 -0.06,-0.02 -0.09,-0.04 -0.08,-0.04 0,-0.01 0.12,0.05 0.32,0.08 0.2,0.04 0.49,0.04 0.78,-0.08 0.29,-0.12 0.5,-0.34 0.61,-0.51 0.12,-0.17 0.16,-0.29 0.17,-0.29z"/>
   <path class="fil9" d="M12.56 30.34c0,0 -0.07,0.05 -0.2,0.09 -0.13,0.04 -0.32,0.08 -0.53,0.09 -0.21,0 -0.4,-0.01 -0.54,-0.04 -0.13,-0.02 -0.21,-0.04 -0.21,-0.05 0,-0.01 0.33,0.05 0.75,0.04 0.2,-0.01 0.39,-0.04 0.52,-0.07 0.13,-0.04 0.21,-0.07 0.21,-0.06z"/>
   <path class="fil9" d="M8.61 30.44c0.01,0 -0.06,0.07 -0.18,0.17 -0.12,0.09 -0.31,0.2 -0.53,0.28 -0.22,0.09 -0.43,0.12 -0.59,0.13 -0.15,0.01 -0.25,0 -0.25,0 0,-0.01 0.1,-0.01 0.25,-0.03 0.15,-0.02 0.36,-0.06 0.57,-0.14 0.22,-0.08 0.4,-0.19 0.53,-0.27 0.13,-0.09 0.2,-0.15 0.2,-0.14z"/>
   <path class="fil9" d="M8.15 30.42c0,0.01 -0.22,0.06 -0.49,0.04 -0.27,-0.02 -0.48,-0.11 -0.47,-0.12 0,-0.01 0.21,0.05 0.48,0.07 0.26,0.02 0.48,-0.01 0.48,0.01z"/>
   <path class="fil9" d="M10.26 24.71c0.01,0 -0.08,0.05 -0.23,0.11 -0.16,0.05 -0.37,0.12 -0.62,0.16 -0.24,0.04 -0.47,0.04 -0.63,0.04 -0.16,-0.01 -0.26,-0.03 -0.26,-0.03 0,-0.01 0.1,-0.01 0.26,-0.01 0.16,0 0.38,-0.01 0.63,-0.05 0.24,-0.04 0.45,-0.1 0.6,-0.15 0.16,-0.04 0.25,-0.08 0.25,-0.07z"/>
   <path class="fil9" d="M10.12 24.17c0.01,0 0.02,0.04 0.03,0.09 0,0.05 -0.01,0.09 -0.03,0.09 -0.01,0 -0.02,-0.04 -0.02,-0.09 0,-0.05 0.01,-0.09 0.02,-0.09z"/>
   <path class="fil9" d="M10.12 23.79c0.01,0 0.02,0.04 0.02,0.1 0,0.05 -0.01,0.09 -0.02,0.09 -0.01,0 -0.03,-0.04 -0.02,-0.09 0,-0.06 0.01,-0.1 0.02,-0.1z"/>
   <path class="fil9" d="M10.13 23.42c0.01,0 0.02,0.04 0.02,0.09 0,0.05 -0.01,0.1 -0.03,0.1 -0.01,0 -0.02,-0.05 -0.02,-0.1 0,-0.05 0.01,-0.09 0.03,-0.09z"/>
   <path class="fil9" d="M10.14 23.05c0.02,0 0.02,0.04 0.02,0.09 0,0.05 -0.01,0.09 -0.03,0.09 -0.01,0 -0.02,-0.04 -0.02,-0.09 0.01,-0.05 0.02,-0.09 0.03,-0.09z"/>
   <path class="fil9" d="M10.16 22.67c0.02,0.01 0.03,0.05 0.02,0.1 0,0.05 -0.01,0.09 -0.03,0.09 -0.01,0 -0.02,-0.04 -0.02,-0.09 0.01,-0.06 0.02,-0.1 0.03,-0.1z"/>
   <path class="fil9" d="M10.19 22.3c0.02,0 0.02,0.05 0.02,0.1 0,0.05 -0.02,0.09 -0.03,0.09 -0.01,0 -0.02,-0.05 -0.02,-0.1 0.01,-0.05 0.02,-0.09 0.03,-0.09z"/>
   <path class="fil9" d="M10.22 22c0.02,0 0.02,0.03 0.02,0.06 0,0.03 -0.02,0.06 -0.03,0.06 -0.01,0 -0.02,-0.03 -0.02,-0.07 0.01,-0.03 0.02,-0.05 0.03,-0.05z"/>
   <path class="fil9" d="M7.22 38.07c0.02,0 0.02,0.05 0.01,0.1 -0.01,0.05 -0.03,0.09 -0.04,0.08 -0.02,0 -0.02,-0.04 -0.01,-0.09 0.01,-0.05 0.03,-0.09 0.04,-0.09z"/>
   <path class="fil9" d="M7.3 37.71c0.01,0 0.01,0.04 0,0.09 -0.01,0.05 -0.03,0.09 -0.04,0.09 -0.01,0 -0.02,-0.05 -0.01,-0.1 0.01,-0.05 0.03,-0.09 0.05,-0.08z"/>
   <path class="fil9" d="M7.37 37.34c0.01,0 0.02,0.04 0.01,0.1 -0.01,0.05 -0.03,0.08 -0.05,0.08 -0.01,0 -0.01,-0.04 0,-0.09 0.01,-0.05 0.03,-0.09 0.04,-0.09z"/>
   <path class="fil9" d="M7.44 36.97c0.02,0.01 0.02,0.05 0.01,0.1 -0.01,0.05 -0.03,0.09 -0.04,0.09 -0.02,-0.01 -0.02,-0.05 -0.01,-0.1 0.01,-0.05 0.03,-0.09 0.04,-0.09z"/>
   <path class="fil9" d="M7.52 36.61c0.01,0 0.01,0.04 0,0.09 -0.01,0.05 -0.03,0.09 -0.04,0.09 -0.01,0 -0.02,-0.05 -0.01,-0.1 0.01,-0.05 0.03,-0.08 0.05,-0.08z"/>
   <path class="fil9" d="M7.59 36.24c0.01,0 0.02,0.05 0.01,0.1 -0.01,0.05 -0.03,0.09 -0.05,0.08 -0.01,0 -0.01,-0.04 0,-0.09 0.01,-0.05 0.03,-0.09 0.04,-0.09z"/>
   <path class="fil9" d="M7.66 35.88c0.02,0 0.02,0.04 0.01,0.09 -0.01,0.05 -0.03,0.09 -0.04,0.09 -0.02,0 -0.02,-0.05 -0.01,-0.1 0.01,-0.05 0.03,-0.09 0.04,-0.08z"/>
   <path class="fil9" d="M7.74 35.51c0.01,0 0.01,0.05 0,0.1 -0.01,0.05 -0.03,0.09 -0.04,0.08 -0.01,0 -0.02,-0.04 -0.01,-0.09 0.01,-0.05 0.03,-0.09 0.05,-0.09z"/>
   <path class="fil9" d="M7.81 35.14c0.01,0.01 0.01,0.05 0,0.1 -0.01,0.05 -0.02,0.09 -0.04,0.09 -0.01,-0.01 -0.01,-0.05 0,-0.1 0.01,-0.05 0.03,-0.09 0.04,-0.09z"/>
   <path class="fil9" d="M7.88 34.78c0.02,0 0.02,0.04 0.01,0.09 -0.01,0.06 -0.03,0.09 -0.04,0.09 -0.02,0 -0.02,-0.04 -0.01,-0.09 0.01,-0.06 0.03,-0.09 0.04,-0.09z"/>
   <path class="fil9" d="M7.96 34.41c0.01,0.01 0.01,0.05 0,0.1 -0.01,0.05 -0.03,0.09 -0.04,0.09 -0.01,-0.01 -0.02,-0.05 -0.01,-0.1 0.01,-0.05 0.03,-0.09 0.05,-0.09z"/>
   <path class="fil9" d="M8.03 34.05c0.01,0 0.01,0.04 0,0.09 -0.01,0.05 -0.02,0.09 -0.04,0.09 -0.01,0 -0.01,-0.05 0,-0.1 0.01,-0.05 0.03,-0.09 0.04,-0.08z"/>
   <path class="fil9" d="M8.1 33.68c0.02,0 0.02,0.05 0.01,0.1 -0.01,0.05 -0.03,0.09 -0.04,0.08 -0.02,0 -0.02,-0.04 -0.01,-0.09 0.01,-0.05 0.03,-0.09 0.04,-0.09z"/>
   <path class="fil9" d="M8.18 33.32c0.01,0 0.01,0.04 0,0.09 -0.01,0.05 -0.03,0.09 -0.04,0.09 -0.01,0 -0.02,-0.05 -0.01,-0.1 0.01,-0.05 0.03,-0.09 0.05,-0.08z"/>
   <path class="fil9" d="M8.25 32.95c0.01,0 0.01,0.05 0,0.1 -0.01,0.05 -0.03,0.09 -0.04,0.08 -0.01,0 -0.01,-0.04 0,-0.09 0.01,-0.05 0.03,-0.09 0.04,-0.09z"/>
   <path class="fil9" d="M8.32 32.58c0.01,0.01 0.02,0.05 0.01,0.1 -0.01,0.05 -0.03,0.09 -0.05,0.09 -0.01,-0.01 -0.01,-0.05 0,-0.1 0.01,-0.05 0.03,-0.09 0.04,-0.09z"/>
   <path class="fil9" d="M8.39 32.22c0.02,0 0.02,0.04 0.01,0.09 -0.01,0.05 -0.03,0.09 -0.04,0.09 -0.02,0 -0.02,-0.04 -0.01,-0.1 0.01,-0.05 0.03,-0.08 0.04,-0.08z"/>
   <path class="fil9" d="M8.47 31.85c0.01,0 0.01,0.05 0,0.1 -0.01,0.05 -0.03,0.09 -0.04,0.09 -0.01,-0.01 -0.01,-0.05 0,-0.1 0.01,-0.05 0.02,-0.09 0.04,-0.09z"/>
   <path class="fil9" d="M8.54 31.49c0.01,0 0.02,0.04 0.01,0.09 -0.01,0.05 -0.03,0.09 -0.05,0.09 -0.01,0 -0.01,-0.05 0,-0.1 0.01,-0.05 0.03,-0.09 0.04,-0.08z"/>
   <path class="fil9" d="M8.61 31.12c0.02,0 0.02,0.05 0.01,0.1 -0.01,0.05 -0.03,0.09 -0.04,0.08 -0.02,0 -0.02,-0.04 -0.01,-0.09 0.01,-0.05 0.03,-0.09 0.04,-0.09z"/>
   <path class="fil9" d="M8.69 30.75c0.01,0.01 0.01,0.05 0,0.1 -0.01,0.05 -0.03,0.09 -0.04,0.09 -0.01,0 -0.01,-0.05 0,-0.1 0.01,-0.05 0.02,-0.09 0.04,-0.09z"/>
   <path class="fil9" d="M8.76 30.39c0.01,0 0.02,0.04 0.01,0.1 -0.01,0.05 -0.03,0.08 -0.05,0.08 -0.01,0 -0.01,-0.04 0,-0.09 0.01,-0.05 0.03,-0.09 0.04,-0.09z"/>
   <path class="fil9" d="M8.83 30.02c0.02,0.01 0.02,0.05 0.01,0.1 -0.01,0.05 -0.03,0.09 -0.04,0.09 -0.02,-0.01 -0.02,-0.05 -0.01,-0.1 0.01,-0.05 0.03,-0.09 0.04,-0.09z"/>
   <path class="fil9" d="M8.91 29.66c0.01,0 0.01,0.04 0,0.09 -0.01,0.05 -0.03,0.09 -0.04,0.09 -0.01,0 -0.02,-0.05 -0.01,-0.1 0.01,-0.05 0.03,-0.09 0.05,-0.08z"/>
   <path class="fil9" d="M8.98 29.29c0.01,0 0.02,0.05 0.01,0.1 -0.01,0.05 -0.03,0.09 -0.05,0.08 -0.01,0 -0.01,-0.04 0,-0.09 0.01,-0.05 0.03,-0.09 0.04,-0.09z"/>
   <path class="fil9" d="M9.05 28.93c0.02,0 0.02,0.04 0.01,0.09 -0.01,0.05 -0.03,0.09 -0.04,0.09 -0.02,0 -0.02,-0.05 -0.01,-0.1 0.01,-0.05 0.03,-0.09 0.04,-0.08z"/>
   <path class="fil9" d="M9.13 28.56c0.01,0 0.01,0.05 0,0.1 -0.01,0.05 -0.03,0.09 -0.04,0.08 -0.01,0 -0.02,-0.04 -0.01,-0.09 0.01,-0.05 0.03,-0.09 0.05,-0.09z"/>
   <path class="fil9" d="M9.2 28.19c0.01,0.01 0.02,0.05 0,0.1 -0.01,0.05 -0.02,0.09 -0.04,0.09 -0.01,-0.01 -0.01,-0.05 0,-0.1 0.01,-0.05 0.03,-0.09 0.04,-0.09z"/>
   <path class="fil9" d="M9.27 27.83c0.02,0 0.02,0.04 0.01,0.09 -0.01,0.06 -0.03,0.09 -0.04,0.09 -0.02,0 -0.02,-0.04 -0.01,-0.09 0.01,-0.06 0.03,-0.09 0.04,-0.09z"/>
   <path class="fil9" d="M9.35 27.46c0.01,0.01 0.01,0.05 0,0.1 -0.01,0.05 -0.03,0.09 -0.04,0.09 -0.01,-0.01 -0.02,-0.05 -0.01,-0.1 0.01,-0.05 0.03,-0.09 0.05,-0.09z"/>
   <path class="fil9" d="M9.42 27.1c0.01,0 0.01,0.04 0,0.09 -0.01,0.05 -0.02,0.09 -0.04,0.09 -0.01,0 -0.01,-0.05 0,-0.1 0.01,-0.05 0.03,-0.09 0.04,-0.08z"/>
   <path class="fil9" d="M9.49 26.73c0.02,0 0.02,0.05 0.01,0.1 -0.01,0.05 -0.03,0.09 -0.04,0.08 -0.02,0 -0.02,-0.04 -0.01,-0.09 0.01,-0.05 0.03,-0.09 0.04,-0.09z"/>
   <g>
    <path class="fil10" d="M16.78 12.79c0.22,1.23 2.59,3.67 3.87,3.29 0.3,-0.1 0.49,-0.3 0.57,-0.63 0.14,-0.62 -0.33,-0.6 -0.89,-0.88 -0.91,-0.44 -0.42,0.63 -1.18,0.06 -0.21,-0.17 -1.18,-1.01 -1.06,-1.29 0.11,-0.25 0.53,-0.16 0.21,-0.81 -0.13,-0.26 -0.21,-0.67 -0.4,-0.8 -0.35,-0.26 -1.3,0.05 -1.12,1.06z"/>
    <path class="fil10" d="M18.78 11.7c0.12,0.14 1.52,-0.02 2.15,1.45 0.23,0.53 0.12,0.84 0.25,0.96 0.14,-0.08 0.09,-0.24 0.03,-0.53 -0.19,-0.98 -0.94,-1.72 -1.91,-1.91l-0.4 -0.04c-0.22,0.04 -0.06,0.02 -0.12,0.07z"/>
    <path class="fil10" d="M18.78 12.3c0.06,0.15 -0.08,0.05 0.34,0.12 0.68,0.11 1.24,0.67 1.34,1.34 0.01,0.06 0.02,0.16 0.02,0.2 0.04,0.21 -0.02,0.09 0.1,0.14 0.2,-0.3 -0.18,-1.34 -1.03,-1.7 -0.2,-0.08 -0.58,-0.23 -0.77,-0.1z"/>
    <path class="fil10" d="M18.77 12.94c0.13,0.16 0.75,0.02 1.03,0.71 0.08,0.2 0.06,0.32 0.08,0.37 0.04,0.13 -0.01,0.03 0.06,0.09 0.26,-0.17 -0.15,-0.94 -0.65,-1.15l-0.39 -0.09c-0.2,0.02 -0.07,0.02 -0.13,0.07z"/>
   </g>
   <path class="fil9" d="M9.57 26.37c0.01,0 0.01,0.04 0,0.09 -0.01,0.05 -0.03,0.09 -0.04,0.09 -0.01,0 -0.02,-0.05 -0.01,-0.1 0.01,-0.05 0.03,-0.09 0.05,-0.08z"/>
   <path class="fil9" d="M9.64 26c0.01,0 0.01,0.05 0,0.1 -0.01,0.05 -0.02,0.09 -0.04,0.08 -0.01,0 -0.01,-0.04 0,-0.09 0.01,-0.05 0.03,-0.09 0.04,-0.09z"/>
   <path class="fil9" d="M9.71 25.63c0.01,0.01 0.02,0.05 0.01,0.1 -0.01,0.05 -0.03,0.09 -0.04,0.09 -0.02,-0.01 -0.02,-0.05 -0.01,-0.1 0.01,-0.05 0.03,-0.09 0.04,-0.09z"/>
   <path class="fil9" d="M9.78 25.27c0.02,0 0.02,0.04 0.01,0.09 -0.01,0.05 -0.03,0.09 -0.04,0.09 -0.01,0 -0.02,-0.04 -0.01,-0.1 0.01,-0.05 0.03,-0.08 0.04,-0.08z"/>
   <path class="fil9" d="M9.86 24.9c0.01,0 0.01,0.05 0,0.1 -0.01,0.05 -0.03,0.09 -0.04,0.09 -0.01,-0.01 -0.01,-0.05 0,-0.1 0.01,-0.05 0.02,-0.09 0.04,-0.09z"/>
   <path class="fil11" d="M17.17 13.62c0,0 0.62,-0.93 0.64,-0.94 0,0 0.56,-0.94 0.75,-0.94 0.18,0 0.12,0.19 -0.08,0.53 -0.17,0.29 -0.18,0.48 -0.18,0.48l0.46 0.28c0,0 0.31,-0.12 0.32,0.17 0,0.09 -0.02,0.21 -0.05,0.38 -0.02,0.11 -0.07,0.22 -0.17,0.18 -0.04,-0.02 -0.08,-0.05 -0.08,-0.12 0,-0.17 0.03,-0.23 0.01,-0.23 -0.03,0 -0.34,0.89 -0.34,0.89l-1.28 -0.68z"/>
   <path class="fil11" d="M18.43 12.89c0.04,-0.03 0.09,-0.06 0.14,-0.09 0.06,-0.02 0.11,-0.03 0.17,-0.02 0.04,0 0.07,0.02 0.09,0.05 0.04,0.03 0.04,0.09 0.02,0.14 -0.01,0.04 -0.04,0.09 -0.07,0.12l-0.35 -0.2z"/>
   <path class="fil11" d="M18.22 12.7c0.04,-0.03 0.09,-0.06 0.14,-0.08 0.05,-0.02 0.1,-0.03 0.15,-0.02 0.04,0 0.07,0.02 0.09,0.04 0.03,0.04 0.03,0.09 0.02,0.14 -0.01,0.04 -0.11,0.14 -0.14,0.18l-0.26 -0.26z"/>
   <path class="fil11" d="M17.39 13.1l-0.9 1.91 0.99 1.02 0.52 -1.43c0,0 0.27,0.05 0.39,-0.13 0.12,-0.21 0.29,-0.8 0.29,-0.8l-1.29 -0.57z"/>
   <path class="fil12" d="M18.03 13.04c-0.01,0 0.01,-0.13 0.11,-0.26 0.04,-0.07 0.1,-0.11 0.15,-0.14 0.05,-0.02 0.08,-0.03 0.08,-0.03 0.01,0.02 -0.11,0.08 -0.19,0.2 -0.09,0.12 -0.14,0.24 -0.15,0.23z"/>
   <path class="fil12" d="M19.03 13.05c-0.01,0.01 -0.04,-0.01 -0.09,-0.02 -0.05,-0.01 -0.13,-0.01 -0.2,0.03 -0.07,0.04 -0.11,0.1 -0.14,0.15 -0.04,0.04 -0.06,0.07 -0.06,0.07 -0.01,-0.01 0,-0.04 0.03,-0.09 0.02,-0.05 0.07,-0.12 0.15,-0.17 0.08,-0.05 0.17,-0.04 0.23,-0.02 0.05,0.02 0.08,0.05 0.08,0.05z"/>
   <path class="fil12" d="M18.69 12.78c0,0.02 -0.11,0.03 -0.21,0.12 -0.1,0.09 -0.15,0.2 -0.16,0.19 -0.01,0 0.02,-0.12 0.13,-0.22 0.05,-0.05 0.12,-0.08 0.16,-0.09 0.05,-0.01 0.08,-0.01 0.08,0z"/>
   <path class="fil12" d="M18.91 13.2c0.01,-0.01 0.04,0.06 -0.01,0.14 -0.05,0.07 -0.12,0.08 -0.12,0.07 -0.01,-0.01 0.04,-0.04 0.08,-0.1 0.04,-0.05 0.04,-0.11 0.05,-0.11z"/>
   <path class="fil11" d="M17.17 13.58c0,0 -0.03,-0.57 0.11,-0.7 0.14,-0.13 0.54,0.01 0.54,0.01l-0.65 0.69z"/>
   <path class="fil12" d="M17.87 12.61c0.01,0.01 -0.08,0.16 -0.2,0.33 -0.13,0.17 -0.24,0.31 -0.25,0.3 -0.01,-0.01 0.08,-0.16 0.21,-0.33 0.12,-0.17 0.23,-0.3 0.24,-0.3z"/>
   <path class="fil11" d="M9.93 8.27l-0.01 4.47 1.91 0.09 0.06 -1.08c0,0 0.68,0.13 0.86,-0.5 0.11,-0.41 0.08,-3.53 0.08,-3.53l-2.9 0.55z"/>
   <path class="fil4" d="M13.08 8.04c-0.3,0.08 -0.37,0.58 -0.37,0.58l-0.47 1.04c-0.24,-0.19 -0.56,-0.17 -0.63,0.25 -0.04,0.31 0.34,0.37 0.34,0.37 -0.22,0.38 -0.37,0.68 -0.69,1.04 -0.35,0.39 -0.55,0.43 -0.93,0.43l-0.42 0c0,0 -0.2,-0.66 -0.58,-2.32 -0.42,-1.84 1.76,-1.61 2.16,-2.08 0.66,-0.76 2.54,0.42 1.59,0.69z"/>
   <path class="fil4" d="M9.37 9.6c-0.35,-0.23 -0.39,-0.9 -0.18,-1.3 0.21,-0.39 0.64,-0.66 1.09,-0.67 0.06,0 0.12,0 0.18,-0.02 0.08,-0.03 0.13,-0.11 0.19,-0.18 0.31,-0.41 0.62,-0.82 1.21,-0.82 0.1,0 0.2,0 0.37,0.09 0.08,0.05 0.2,0.2 0.22,0.3 0.11,-0.05 0.23,-0.11 0.35,-0.13 0.12,-0.01 0.25,0.01 0.34,0.09 0.09,0.08 0.13,0.23 0.06,0.33 0.19,-0.01 0.38,0.15 0.41,0.35 0.03,0.19 -0.25,0.33 -0.28,0.35 0,0 0.16,0.32 -0.21,0.51 -0.15,0.08 -0.34,-0.01 -0.36,-0.02l-3.39 1.12z"/>
   <path class="fil9" d="M10.77 10.03c0.01,0 0.03,0.16 -0.01,0.34 -0.04,0.19 -0.13,0.32 -0.14,0.31 -0.01,0 0.05,-0.14 0.09,-0.32 0.04,-0.18 0.05,-0.33 0.06,-0.33z"/>
   <path class="fil9" d="M11 9.81c0.01,0 0.02,0.15 -0.02,0.33 -0.03,0.18 -0.09,0.31 -0.1,0.31 -0.01,0 0.02,-0.14 0.06,-0.32 0.03,-0.17 0.05,-0.32 0.06,-0.32z"/>
   <path class="fil9" d="M11.67 9.08c0,0 -0.05,0.04 -0.12,0.12 -0.07,0.08 -0.15,0.21 -0.21,0.36 -0.06,0.15 -0.09,0.3 -0.11,0.4 -0.03,0.11 -0.05,0.17 -0.05,0.17 -0.01,0 0,-0.07 0.01,-0.18 0.02,-0.1 0.04,-0.25 0.1,-0.41 0.06,-0.16 0.15,-0.28 0.23,-0.36 0.08,-0.08 0.14,-0.11 0.15,-0.1z"/>
   <path class="fil9" d="M11.93 8.57c0.01,0 0.03,0.05 0.04,0.12 0.01,0.08 0.01,0.19 -0.02,0.31 -0.03,0.12 -0.08,0.21 -0.12,0.28 -0.05,0.06 -0.09,0.09 -0.09,0.09 -0.02,-0.01 0.11,-0.16 0.17,-0.38 0.06,-0.23 0.01,-0.41 0.02,-0.42z"/>
   <path class="fil9" d="M9.65 9.69c-0.01,0.01 -0.07,-0.01 -0.14,-0.05 -0.06,-0.03 -0.11,-0.07 -0.1,-0.08 0,-0.02 0.06,0 0.13,0.04 0.06,0.04 0.11,0.08 0.11,0.09z"/>
   <path class="fil9" d="M10.57 9.21c0.01,0 0.01,0.1 -0.05,0.2 -0.06,0.09 -0.14,0.15 -0.15,0.14 -0.01,-0.02 0.05,-0.08 0.11,-0.17 0.05,-0.09 0.08,-0.17 0.09,-0.17z"/>
   <path class="fil9" d="M10.86 9.06c0.01,0 -0.01,0.12 -0.09,0.23 -0.08,0.12 -0.17,0.18 -0.18,0.17 -0.01,-0.01 0.07,-0.09 0.14,-0.2 0.07,-0.1 0.11,-0.2 0.13,-0.2z"/>
   <path class="fil9" d="M12.27 7.19c0,0 -0.03,-0.03 -0.1,-0.07 -0.07,-0.04 -0.18,-0.08 -0.32,-0.08 -0.14,-0.01 -0.32,0.03 -0.48,0.12 -0.15,0.1 -0.29,0.26 -0.4,0.45 -0.07,0.14 -0.12,0.29 -0.16,0.42l-0.01 0.03 -0.02 -0.01c-0.15,-0.08 -0.3,-0.11 -0.43,-0.11 -0.14,-0.01 -0.25,0.02 -0.35,0.05 -0.19,0.06 -0.28,0.15 -0.28,0.14 0,0 0.02,-0.02 0.06,-0.06 0.05,-0.03 0.12,-0.07 0.21,-0.11 0.1,-0.04 0.22,-0.06 0.36,-0.06 0.14,0 0.3,0.03 0.45,0.1l-0.03 0.02c0.03,-0.14 0.08,-0.29 0.16,-0.43 0.11,-0.2 0.25,-0.36 0.42,-0.46 0.17,-0.1 0.35,-0.14 0.5,-0.13 0.15,0.01 0.26,0.06 0.33,0.1 0.03,0.03 0.06,0.05 0.07,0.06 0.02,0.02 0.02,0.03 0.02,0.03z"/>
   <path class="fil9" d="M13.28 7.43c0,0 0.05,-0.01 0.11,0.05 0.03,0.03 0.05,0.08 0.04,0.14 0,0.06 -0.04,0.12 -0.11,0.16 -0.06,0.04 -0.15,0.05 -0.23,0.03 -0.08,-0.02 -0.16,-0.06 -0.24,-0.11 -0.08,-0.06 -0.15,-0.12 -0.23,-0.17 -0.09,-0.04 -0.19,-0.08 -0.29,-0.1 -0.2,-0.03 -0.4,-0.01 -0.58,0.04 -0.17,0.06 -0.31,0.14 -0.42,0.22 -0.23,0.16 -0.34,0.3 -0.34,0.29 -0.01,0 0.02,-0.04 0.07,-0.09 0.05,-0.06 0.13,-0.14 0.25,-0.23 0.11,-0.08 0.25,-0.17 0.43,-0.23 0.18,-0.06 0.39,-0.08 0.6,-0.04 0.11,0.02 0.21,0.05 0.3,0.1 0.09,0.05 0.16,0.12 0.24,0.17 0.07,0.05 0.14,0.09 0.22,0.11 0.07,0.02 0.15,0.01 0.21,-0.02 0.05,-0.03 0.09,-0.08 0.1,-0.13 0,-0.05 -0.01,-0.1 -0.03,-0.13 -0.05,-0.06 -0.1,-0.05 -0.1,-0.06z"/>
   <path class="fil6" d="M7.89 13.21l-1.71 2.87c-0.19,0.34 -0.37,0.7 -0.54,1.07 -0.14,0.35 -0.06,0.82 0.18,1.11l-0.05 -0.07c0.19,0.24 0.48,0.37 0.78,0.37l0.04 0c0.4,0 0.76,-0.23 0.92,-0.6l0.55 -0.83 -0.17 -3.92z"/>
   <path class="fil6" d="M13.06 12.66c-0.46,-0.24 -0.92,-0.29 -1.41,-0.3 -0.58,-0.02 -1.39,-0.1 -2.01,-0.03 0,0 -1.77,0.13 -1.9,1.34l0.24 5.7 -0.4 2.41 5.67 0.17 -0.04 -2.84c0.07,-1.49 -0.08,-3.58 -0.08,-3.58 0.09,-0.8 0.53,-1.16 0.59,-1.68 0.05,-0.46 -0.25,-0.98 -0.66,-1.19z"/>
   <path class="fil4" d="M11.46 19.45c0,0 -0.03,0.03 -0.09,0.08 -0.05,0.05 -0.14,0.11 -0.26,0.18 -0.22,0.13 -0.58,0.26 -0.99,0.27 -0.41,0.01 -0.77,-0.11 -1,-0.24 -0.12,-0.06 -0.21,-0.12 -0.26,-0.17 -0.06,-0.04 -0.09,-0.07 -0.09,-0.07 0.01,-0.01 0.13,0.1 0.37,0.21 0.23,0.12 0.58,0.23 0.98,0.22 0.4,-0.01 0.75,-0.13 0.98,-0.25 0.23,-0.13 0.35,-0.24 0.36,-0.23z"/>
   <path class="fil4" d="M7.73 13.74c0.01,0 0.01,0.01 0.01,0.05 0,0.04 0.01,0.1 0.01,0.16 0.01,0.14 0.02,0.34 0.03,0.59 0.02,0.5 0.05,1.18 0.08,1.93 0.03,0.75 0.06,1.43 0.09,1.93 0.01,0.24 0.02,0.44 0.03,0.59 0,0.06 0,0.11 0,0.16 0,0.03 0,0.05 0,0.05 0,0 0,-0.02 -0.01,-0.05 0,-0.04 -0.01,-0.1 -0.01,-0.16 -0.02,-0.14 -0.03,-0.34 -0.05,-0.59 -0.03,-0.49 -0.07,-1.17 -0.1,-1.93 -0.03,-0.75 -0.05,-1.44 -0.07,-1.93 0,-0.25 -0.01,-0.44 -0.01,-0.59 0,-0.06 0,-0.12 0,-0.16 0,-0.04 0,-0.05 0,-0.05z"/>
   <path class="fil4" d="M7.38 14.04c0,0 -0.01,0.01 -0.02,0.04 -0.02,0.03 -0.04,0.07 -0.07,0.12 -0.05,0.11 -0.14,0.26 -0.25,0.45 -0.21,0.37 -0.54,0.87 -0.86,1.43 -0.17,0.29 -0.31,0.57 -0.43,0.82 -0.11,0.26 -0.18,0.51 -0.16,0.72 0.01,0.21 0.07,0.38 0.13,0.48 0.06,0.11 0.1,0.16 0.1,0.16 0,0 -0.01,-0.01 -0.03,-0.03 -0.03,-0.03 -0.05,-0.06 -0.09,-0.12 -0.06,-0.1 -0.13,-0.27 -0.14,-0.49 -0.03,-0.21 0.04,-0.48 0.15,-0.73 0.12,-0.26 0.26,-0.54 0.42,-0.83 0.33,-0.57 0.66,-1.06 0.88,-1.43 0.11,-0.18 0.2,-0.33 0.27,-0.44 0.03,-0.04 0.05,-0.08 0.07,-0.11 0.02,-0.03 0.03,-0.04 0.03,-0.04z"/>
   <path class="fil6" d="M17.81 15.6l-1.31 -0.86 -0.83 1.44c0,0 -1.15,-1.6 -1.67,-2.53 -0.48,-0.86 -1.1,-1.1 -1.4,-1.16 -0.09,-0.02 -0.17,0.06 -0.16,0.15l0.45 3.1c0.06,0.16 1.01,1.54 1.54,2.23 0.88,1.15 2.18,0.41 2.54,-0.4 0.29,-0.64 0.73,-1.61 0.84,-1.97z"/>
   <path class="fil4" d="M16.05 17.47c-0.01,0 -0.01,-0.07 -0.02,-0.2 -0.02,-0.13 -0.03,-0.3 -0.07,-0.49 -0.04,-0.19 -0.1,-0.35 -0.17,-0.46 -0.06,-0.11 -0.11,-0.17 -0.1,-0.17 0,-0.01 0.06,0.05 0.13,0.15 0.08,0.11 0.15,0.28 0.19,0.47 0.04,0.19 0.05,0.37 0.05,0.5 0,0.12 0,0.2 -0.01,0.2z"/>
   <path class="fil4" d="M16.43 16.83c0,0 -0.01,-0.06 -0.04,-0.17 -0.03,-0.1 -0.1,-0.23 -0.21,-0.35 -0.11,-0.12 -0.25,-0.19 -0.35,-0.19 -0.11,0 -0.16,0.04 -0.17,0.03 0,0 0.05,-0.06 0.17,-0.06 0.12,-0.01 0.27,0.06 0.38,0.19 0.12,0.12 0.19,0.27 0.21,0.37 0.03,0.11 0.02,0.18 0.01,0.18z"/>
   <path class="fil4" d="M12.52 12.87c0,0.01 -0.01,0.02 -0.04,0.04 -0.01,0.01 -0.02,0.03 -0.04,0.04 -0.01,0.02 -0.03,0.04 -0.05,0.06 -0.07,0.09 -0.17,0.24 -0.22,0.44 -0.07,0.2 -0.09,0.46 -0.05,0.74 0.02,0.13 0.05,0.28 0.11,0.42 0.06,0.14 0.13,0.28 0.21,0.42 0.32,0.56 0.65,1.05 0.89,1.4 0.12,0.17 0.22,0.31 0.29,0.42 0.07,0.09 0.11,0.15 0.11,0.15 -0.01,0 -0.02,-0.01 -0.04,-0.03 -0.02,-0.03 -0.05,-0.06 -0.08,-0.11 -0.08,-0.1 -0.18,-0.23 -0.31,-0.41 -0.24,-0.35 -0.58,-0.83 -0.9,-1.4 -0.08,-0.14 -0.16,-0.28 -0.21,-0.43 -0.07,-0.14 -0.1,-0.29 -0.12,-0.43 -0.03,-0.28 0,-0.54 0.06,-0.75 0.07,-0.2 0.17,-0.35 0.25,-0.44 0.02,-0.02 0.04,-0.04 0.05,-0.06 0.02,-0.01 0.03,-0.03 0.05,-0.04 0.02,-0.02 0.03,-0.03 0.04,-0.03z"/>
   <path class="fil4" d="M12.52 21.12c0,0 -0.01,0.01 -0.04,0.02 -0.03,0.01 -0.07,0.02 -0.12,0.04 -0.05,0.02 -0.11,0.04 -0.19,0.06 -0.07,0.02 -0.16,0.04 -0.25,0.07 -0.19,0.04 -0.42,0.08 -0.67,0.12 -0.26,0.03 -0.54,0.05 -0.83,0.05 -0.3,0 -0.58,-0.02 -0.84,-0.05 -0.25,-0.03 -0.48,-0.07 -0.67,-0.12 -0.09,-0.02 -0.18,-0.04 -0.25,-0.06 -0.08,-0.02 -0.14,-0.04 -0.19,-0.06 -0.05,-0.01 -0.09,-0.03 -0.12,-0.04 -0.03,-0.01 -0.04,-0.01 -0.04,-0.02 0,0 0.02,0.01 0.04,0.01 0.04,0.01 0.08,0.02 0.12,0.03 0.06,0.02 0.12,0.04 0.2,0.05 0.07,0.02 0.15,0.04 0.25,0.06 0.19,0.04 0.42,0.08 0.67,0.11 0.25,0.03 0.53,0.04 0.83,0.04 0.29,0 0.57,-0.02 0.82,-0.05 0.26,-0.03 0.48,-0.07 0.67,-0.11 0.1,-0.02 0.18,-0.04 0.25,-0.06 0.08,-0.01 0.14,-0.03 0.2,-0.05 0.04,-0.01 0.08,-0.02 0.12,-0.03 0.02,-0.01 0.04,-0.01 0.04,-0.01z"/>
   <path class="fil13" d="M7.63 17.78l0.11 -3.23c0.02,0.5 0.04,1.17 0.07,1.92 0.01,0.34 0.03,0.66 0.04,0.96l-0.22 0.35 0 0z"/>
   <path class="fil14" d="M7.85 17.43c-0.01,-0.3 -0.03,-0.62 -0.04,-0.96 -0.03,-0.75 -0.05,-1.42 -0.07,-1.92l0.01 -0.3 0.14 3.13 -0.04 0.05z"/>
   <path class="fil13" d="M13.21 17c-0.04,0 -0.63,-0.93 -0.88,-1.37 -0.27,-0.45 -0.27,-1.59 -0.27,-1.59 0,0.03 0,0.07 0.01,0.11 0,0.01 0,0.03 0,0.04 0.02,0.14 0.05,0.29 0.12,0.43 0.05,0.15 0.13,0.29 0.21,0.43 0.27,0.48 0.55,0.89 0.78,1.22 0,0.19 0.03,0.68 0.03,0.73 0,0 0,0 0,0zm-0.04 -0.8c0,0 0,-0.01 0,-0.01 0,0.01 0,0.01 0,0.01l0 0z"/>
   <path class="fil14" d="M13.18 16.27c-0.23,-0.33 -0.51,-0.74 -0.78,-1.22 -0.08,-0.14 -0.16,-0.28 -0.21,-0.43 -0.07,-0.14 -0.1,-0.29 -0.12,-0.43 0,-0.01 0,-0.03 0,-0.04 0.11,0.68 1.07,2.01 1.1,2.04 0,0 0,0.01 0,0.01 0,0 0,0.02 0.01,0.07z"/>
   <path class="fil3" d="M7.4 17.87c0.01,0 -0.02,0.02 -0.08,0.03 -0.05,0 -0.13,0 -0.23,-0.03 -0.09,-0.04 -0.19,-0.1 -0.29,-0.2 -0.09,-0.09 -0.16,-0.21 -0.23,-0.34 -0.08,-0.13 -0.14,-0.25 -0.22,-0.36 -0.07,-0.1 -0.15,-0.18 -0.23,-0.23 -0.16,-0.11 -0.29,-0.1 -0.28,-0.11 0,-0.01 0.03,-0.01 0.08,0 0.06,0 0.13,0.03 0.22,0.08 0.08,0.05 0.17,0.13 0.25,0.24 0.08,0.1 0.14,0.23 0.22,0.36 0.07,0.12 0.14,0.24 0.23,0.33 0.08,0.1 0.18,0.16 0.26,0.2 0.18,0.07 0.31,0.02 0.3,0.03z"/>
   <path class="fil3" d="M7.75 15.91c-0.01,0 -0.03,-0.07 -0.08,-0.17 -0.05,-0.1 -0.15,-0.23 -0.29,-0.34 -0.14,-0.1 -0.29,-0.16 -0.4,-0.18 -0.11,-0.03 -0.19,-0.03 -0.19,-0.04 0,0 0.08,-0.01 0.19,0 0.12,0.02 0.28,0.08 0.43,0.19 0.14,0.11 0.24,0.24 0.29,0.35 0.05,0.11 0.06,0.19 0.05,0.19z"/>
   <path class="fil3" d="M12.08 14.23c0,0 -0.06,-0.02 -0.18,-0.02 -0.11,-0.01 -0.27,-0.01 -0.46,0.04 -0.2,0.04 -0.42,0.13 -0.66,0.26 -0.23,0.12 -0.48,0.28 -0.76,0.41 -0.28,0.13 -0.58,0.19 -0.84,0.21 -0.27,0.02 -0.52,-0.02 -0.71,-0.07 -0.2,-0.04 -0.35,-0.11 -0.45,-0.16 -0.05,-0.02 -0.09,-0.05 -0.12,-0.06 -0.02,-0.02 -0.03,-0.03 -0.03,-0.03 0,0 0.05,0.03 0.16,0.07 0.1,0.05 0.25,0.11 0.45,0.15 0.19,0.05 0.43,0.07 0.69,0.06 0.27,-0.02 0.55,-0.09 0.83,-0.22 0.28,-0.12 0.53,-0.28 0.76,-0.4 0.24,-0.12 0.47,-0.21 0.67,-0.25 0.2,-0.05 0.36,-0.05 0.48,-0.03 0.05,0 0.1,0.01 0.12,0.02 0.03,0.01 0.05,0.01 0.05,0.02z"/>
   <path class="fil3" d="M13.18 17.33c0,0 -0.02,0.01 -0.05,0.02 -0.04,0.01 -0.09,0.02 -0.15,0.04 -0.14,0.02 -0.33,0.05 -0.58,0.04 -0.24,0 -0.53,-0.05 -0.84,-0.12 -0.32,-0.07 -0.65,-0.17 -1.01,-0.28 -0.35,-0.1 -0.7,-0.18 -1.01,-0.22 -0.32,-0.04 -0.61,-0.04 -0.85,-0.01 -0.23,0.04 -0.42,0.1 -0.54,0.15 -0.13,0.06 -0.19,0.09 -0.19,0.09 -0.01,0 0.01,-0.01 0.04,-0.03 0.03,-0.02 0.08,-0.05 0.14,-0.07 0.12,-0.07 0.31,-0.13 0.55,-0.17 0.24,-0.04 0.53,-0.04 0.85,0 0.32,0.03 0.67,0.11 1.02,0.22 0.36,0.1 0.7,0.21 1.01,0.28 0.31,0.07 0.59,0.12 0.83,0.13 0.24,0.01 0.44,-0.01 0.57,-0.03 0.14,-0.02 0.21,-0.04 0.21,-0.04z"/>
   <path class="fil3" d="M13.21 19.11c0,0.01 -0.26,-0.16 -0.74,-0.21 -0.24,-0.02 -0.53,-0.01 -0.84,0.03 -0.32,0.05 -0.66,0.12 -1.02,0.19 -0.37,0.06 -0.71,0.12 -1.03,0.15 -0.32,0.03 -0.61,0.03 -0.85,0 -0.24,-0.04 -0.43,-0.09 -0.56,-0.14 -0.06,-0.02 -0.11,-0.04 -0.14,-0.06 -0.03,-0.01 -0.05,-0.02 -0.05,-0.02 0,-0.01 0.07,0.02 0.2,0.07 0.13,0.04 0.31,0.09 0.55,0.11 0.24,0.03 0.53,0.03 0.84,0 0.32,-0.03 0.67,-0.09 1.03,-0.16 0.36,-0.07 0.7,-0.14 1.02,-0.18 0.32,-0.04 0.61,-0.05 0.85,-0.02 0.24,0.03 0.43,0.09 0.55,0.14 0.07,0.03 0.11,0.05 0.14,0.07 0.04,0.01 0.05,0.02 0.05,0.03z"/>
   <path class="fil3" d="M10.29 21.39c0,0.01 -0.03,-0.01 -0.08,-0.05 -0.06,-0.04 -0.14,-0.1 -0.24,-0.16 -0.2,-0.14 -0.49,-0.31 -0.82,-0.47 -0.34,-0.17 -0.65,-0.28 -0.88,-0.36 -0.11,-0.04 -0.21,-0.07 -0.27,-0.09 -0.07,-0.02 -0.1,-0.03 -0.1,-0.03 0,-0.01 0.04,0 0.1,0.02 0.07,0.01 0.16,0.03 0.28,0.07 0.23,0.07 0.55,0.18 0.89,0.34 0.33,0.17 0.62,0.35 0.82,0.49 0.1,0.07 0.17,0.13 0.23,0.17 0.05,0.05 0.08,0.07 0.07,0.07z"/>
   <path class="fil3" d="M13.06 21.36c0,0.01 -0.07,0.05 -0.19,0.1 -0.12,0.04 -0.3,0.08 -0.5,0.08 -0.21,-0.01 -0.38,-0.06 -0.5,-0.11 -0.12,-0.06 -0.19,-0.11 -0.18,-0.11 0,-0.01 0.07,0.03 0.19,0.08 0.12,0.04 0.29,0.08 0.49,0.09 0.19,0 0.37,-0.03 0.49,-0.06 0.12,-0.04 0.19,-0.07 0.2,-0.07z"/>
   <path class="fil3" d="M15.02 15.44c0,0 0,0.03 -0.01,0.08 -0.01,0.05 -0.04,0.12 -0.1,0.19 -0.06,0.07 -0.15,0.15 -0.26,0.21 -0.1,0.06 -0.23,0.11 -0.36,0.16 -0.12,0.05 -0.24,0.11 -0.34,0.18 -0.09,0.07 -0.16,0.15 -0.2,0.23 -0.09,0.16 -0.05,0.28 -0.06,0.28 0,0 -0.01,-0.03 -0.02,-0.08 0,-0.05 0.01,-0.13 0.05,-0.22 0.04,-0.08 0.11,-0.17 0.21,-0.25 0.09,-0.07 0.22,-0.13 0.35,-0.19 0.12,-0.05 0.25,-0.09 0.35,-0.15 0.11,-0.06 0.19,-0.12 0.25,-0.19 0.12,-0.13 0.13,-0.25 0.14,-0.25z"/>
   <path class="fil3" d="M13.92 13.53c0,0.01 0,0.03 -0.02,0.09 0,0.02 -0.01,0.05 -0.02,0.09 -0.02,0.03 -0.03,0.08 -0.05,0.12 -0.04,0.09 -0.09,0.19 -0.16,0.29 -0.07,0.11 -0.16,0.22 -0.27,0.32 -0.11,0.1 -0.22,0.18 -0.33,0.24 -0.11,0.07 -0.21,0.12 -0.3,0.15 -0.05,0.01 -0.09,0.02 -0.12,0.04 -0.04,0.01 -0.07,0.01 -0.1,0.02 -0.05,0.01 -0.08,0.01 -0.08,0.01 0,-0.01 0.11,-0.03 0.29,-0.1 0.08,-0.04 0.18,-0.09 0.29,-0.15 0.1,-0.07 0.21,-0.15 0.32,-0.25 0.1,-0.1 0.19,-0.2 0.26,-0.3 0.07,-0.1 0.13,-0.2 0.17,-0.28 0.08,-0.17 0.11,-0.29 0.12,-0.29z"/>
   <path class="fil3" d="M12.19 12.36c0,0 -0.04,0.02 -0.13,0.06 -0.08,0.03 -0.21,0.08 -0.37,0.13 -0.15,0.05 -0.34,0.09 -0.56,0.14 -0.21,0.04 -0.45,0.07 -0.7,0.09 -0.25,0.02 -0.49,0.02 -0.7,0.01 -0.22,-0.01 -0.42,-0.03 -0.58,-0.06 -0.16,-0.02 -0.29,-0.05 -0.38,-0.07 -0.09,-0.02 -0.14,-0.04 -0.14,-0.04 0,0 0.05,0 0.14,0.02 0.09,0.02 0.22,0.04 0.38,0.06 0.17,0.02 0.36,0.04 0.58,0.05 0.21,0.01 0.45,0 0.7,-0.01 0.25,-0.02 0.48,-0.06 0.7,-0.09 0.21,-0.05 0.4,-0.09 0.55,-0.14 0.16,-0.04 0.29,-0.08 0.37,-0.11 0.09,-0.03 0.14,-0.05 0.14,-0.04z"/>
   <path class="fil3" d="M15.72 16.26c0,0 0.01,0.03 0.03,0.09 0.01,0.06 0.03,0.15 0.04,0.26 0.01,0.23 -0.03,0.53 -0.09,0.86 -0.03,0.17 -0.07,0.33 -0.12,0.46 -0.06,0.14 -0.13,0.25 -0.21,0.33 -0.08,0.09 -0.16,0.13 -0.21,0.16 -0.06,0.03 -0.1,0.03 -0.1,0.03 0,-0.01 0.14,-0.04 0.28,-0.21 0.08,-0.08 0.15,-0.19 0.2,-0.32 0.05,-0.14 0.08,-0.29 0.11,-0.46 0.06,-0.33 0.11,-0.63 0.1,-0.84 0,-0.22 -0.04,-0.35 -0.03,-0.36z"/>
   <path class="fil3" d="M17.52 16.49c-0.01,0.01 -0.05,-0.09 -0.15,-0.22 -0.09,-0.14 -0.24,-0.32 -0.45,-0.46 -0.21,-0.14 -0.43,-0.23 -0.59,-0.27 -0.16,-0.04 -0.26,-0.05 -0.26,-0.06 0,0 0.03,0 0.07,0 0.05,0 0.12,0.01 0.2,0.03 0.08,0.01 0.18,0.04 0.29,0.09 0.1,0.04 0.21,0.1 0.31,0.17 0.11,0.08 0.2,0.16 0.28,0.24 0.07,0.08 0.14,0.16 0.18,0.24 0.04,0.07 0.08,0.13 0.09,0.17 0.02,0.05 0.03,0.07 0.03,0.07z"/>
   <path class="fil13" d="M10.42 21.43c-0.3,0 -0.58,-0.01 -0.83,-0.04 -0.25,-0.03 -0.48,-0.07 -0.67,-0.11 0,0 -0.01,0 -0.01,0 -0.18,-0.04 -0.32,-0.08 -0.41,-0.1 -0.01,0 -0.02,0 -0.03,-0.01 -0.01,0 -0.03,-0.01 -0.05,-0.01 -0.11,-0.04 -0.13,-0.09 -0.12,-0.16 0.01,-0.08 0.08,-0.13 0.15,-0.15 0.03,-0.01 0.06,-0.01 0.08,-0.01 0.05,0 0.09,0 0.14,0.01 0.34,0.07 0.67,0.2 1.01,0.3 0.13,0.04 0.27,0.08 0.4,0.1 0.05,0.04 0.09,0.06 0.13,0.09 0.05,0.03 0.08,0.05 0.08,0.05 0,0 0,0 0,0 0.01,0 -0.02,-0.02 -0.07,-0.07 -0.02,-0.02 -0.05,-0.04 -0.08,-0.06 0.1,0.02 0.21,0.03 0.31,0.03 0.09,0 0.18,-0.01 0.27,-0.03 0.46,-0.08 0.86,-0.39 1.33,-0.4 0,0 0.01,0 0.01,0 0.09,0 0.19,0.02 0.25,0.09 0.05,0.07 0.03,0.2 -0.07,0.24 -0.02,0.01 -0.05,0.02 -0.08,0.02 -0.04,0.01 -0.08,0.02 -0.12,0.03 -0.03,0.01 -0.07,0.02 -0.1,0.03 -0.01,0 -0.02,0 -0.03,0 -0.19,0.04 -0.41,0.08 -0.67,0.11 -0.25,0.03 -0.53,0.05 -0.82,0.05z"/>
   <path class="fil14" d="M10.35 21.47c-0.48,0 -1.04,-0.11 -1.44,-0.19 0,0 0.01,0 0.01,0 0.19,0.04 0.42,0.08 0.67,0.11 0.25,0.03 0.53,0.04 0.83,0.04 0.29,0 0.57,-0.02 0.82,-0.05 0.26,-0.03 0.48,-0.07 0.67,-0.11 0.01,0 0.02,0 0.03,0 -0.35,0.07 -0.97,0.19 -1.54,0.2 -0.02,0 -0.03,0 -0.05,0zm1.69 -0.23c0.04,-0.01 0.08,-0.02 0.12,-0.03 0.03,0 0.06,-0.01 0.08,-0.02 0,0 0,0 0,0 0,0 -0.07,0.02 -0.2,0.05zm-3.54 -0.06c-0.05,-0.01 -0.08,-0.02 -0.08,-0.02 0,0 0,0 0,0 0.02,0 0.04,0.01 0.05,0.01 0.01,0.01 0.02,0.01 0.03,0.01z"/>
   <path class="fil15" d="M10.29 21.39c0,0 -0.03,-0.02 -0.08,-0.05 -0.04,-0.03 -0.08,-0.05 -0.13,-0.09 0.02,0.01 0.04,0.01 0.06,0.01 0.03,0.02 0.06,0.04 0.08,0.06 0.05,0.05 0.08,0.07 0.07,0.07 0,0 0,0 0,0z"/>
   <polygon class="fil4" points="29.9,35.23 36.16,35.23 36.16,34.37 29.9,34.37 "/>
   <path class="fil4" d="M29.91 35.21l6.23 0 0 -0.83 -6.23 0 0 0.83zm6.26 0.03l-6.29 0 0 -0.89 6.29 0 0 0.89z"/>
   <polygon class="fil4" points="30.48,34.94 31.38,39.38 34.71,39.38 35.58,35.23 "/>
   <polygon class="fil9" points="30.48,38.96 30.96,39.62 35.01,39.62 35.58,38.96 "/>
   <path class="fil4" d="M32.79 35.07c-0.01,0 -0.03,-2.06 -0.03,-4.6 -0.01,-2.54 -0.01,-4.6 0,-4.6 0.02,0 0.03,2.06 0.04,4.6 0.01,2.54 0,4.6 -0.01,4.6z"/>
   <path class="fil4" d="M34.18 29.92c0.01,0 0,0.01 -0.01,0.04 -0.02,0.04 -0.04,0.08 -0.06,0.14 -0.01,0.03 -0.02,0.06 -0.04,0.09 -0.01,0.04 -0.03,0.08 -0.04,0.12 -0.02,0.04 -0.03,0.09 -0.05,0.13 -0.02,0.05 -0.03,0.1 -0.04,0.16 -0.07,0.21 -0.13,0.47 -0.18,0.76 -0.05,0.3 -0.08,0.62 -0.1,0.96 -0.03,0.69 0.01,1.31 0.05,1.75 0.02,0.23 0.04,0.41 0.06,0.53 0,0.06 0.01,0.11 0.01,0.14 0.01,0.04 0.01,0.06 0.01,0.06 -0.01,0 -0.01,-0.02 -0.02,-0.05 0,-0.04 -0.01,-0.09 -0.02,-0.15 -0.02,-0.12 -0.04,-0.3 -0.07,-0.52 -0.05,-0.45 -0.09,-1.07 -0.06,-1.76 0.02,-0.34 0.05,-0.67 0.1,-0.96 0.05,-0.3 0.11,-0.56 0.18,-0.77 0.02,-0.06 0.04,-0.11 0.05,-0.16 0.02,-0.04 0.04,-0.09 0.06,-0.13 0.01,-0.04 0.03,-0.08 0.04,-0.12 0.02,-0.03 0.03,-0.06 0.05,-0.09 0.02,-0.05 0.04,-0.1 0.06,-0.13 0.01,-0.03 0.02,-0.05 0.02,-0.04z"/>
   <path class="fil4" d="M34.02 28.25c0.01,0 0,0.02 -0.02,0.07 -0.01,0.05 -0.03,0.11 -0.06,0.19 -0.01,0.04 -0.03,0.09 -0.05,0.14 -0.01,0.05 -0.03,0.1 -0.05,0.16 -0.04,0.12 -0.08,0.26 -0.12,0.41 -0.02,0.08 -0.04,0.16 -0.06,0.24 -0.02,0.08 -0.04,0.17 -0.06,0.26 -0.04,0.18 -0.07,0.37 -0.11,0.58 -0.07,0.41 -0.13,0.86 -0.17,1.33 -0.04,0.48 -0.06,0.94 -0.07,1.35 0,0.42 0.01,0.79 0.02,1.11 0.01,0.15 0.02,0.29 0.03,0.42 0,0.12 0.01,0.23 0.02,0.32 0.01,0.08 0.01,0.15 0.02,0.2 0,0.05 0,0.07 0,0.07 0,0 -0.01,-0.02 -0.01,-0.07 -0.01,-0.05 -0.02,-0.12 -0.03,-0.2 -0.01,-0.09 -0.02,-0.2 -0.03,-0.32 -0.01,-0.12 -0.02,-0.27 -0.03,-0.42 -0.02,-0.32 -0.03,-0.69 -0.03,-1.11 0.01,-0.41 0.02,-0.87 0.06,-1.35 0.04,-0.48 0.11,-0.93 0.18,-1.34 0.04,-0.2 0.07,-0.4 0.12,-0.58 0.02,-0.09 0.04,-0.18 0.06,-0.26 0.02,-0.08 0.04,-0.16 0.06,-0.24 0.04,-0.15 0.09,-0.29 0.13,-0.4 0.02,-0.06 0.03,-0.12 0.05,-0.17 0.02,-0.05 0.04,-0.09 0.05,-0.14 0.03,-0.08 0.06,-0.14 0.08,-0.19 0.01,-0.04 0.02,-0.06 0.02,-0.06z"/>
   <path class="fil4" d="M32.39 35.43c0,0 0,0 0,-0.02 0,-0.02 0,-0.04 0,-0.07 -0.01,-0.07 -0.02,-0.16 -0.02,-0.27 -0.02,-0.24 -0.04,-0.59 -0.07,-1.01 -0.05,-0.84 -0.13,-2.01 -0.27,-3.3 -0.07,-0.64 -0.16,-1.25 -0.25,-1.81 -0.04,-0.28 -0.09,-0.54 -0.13,-0.78 -0.05,-0.25 -0.1,-0.48 -0.14,-0.68 -0.04,-0.21 -0.09,-0.4 -0.12,-0.56 -0.04,-0.17 -0.07,-0.31 -0.1,-0.42 -0.03,-0.12 -0.05,-0.2 -0.07,-0.27 0,-0.03 -0.01,-0.05 -0.01,-0.07 -0.01,-0.01 -0.01,-0.02 -0.01,-0.02 0,0 0.01,0.01 0.01,0.02 0.01,0.02 0.01,0.04 0.02,0.07 0.02,0.06 0.04,0.15 0.07,0.26 0.04,0.12 0.07,0.26 0.11,0.42 0.04,0.17 0.09,0.35 0.13,0.56 0.05,0.21 0.1,0.43 0.14,0.68 0.05,0.24 0.1,0.51 0.14,0.78 0.09,0.56 0.18,1.17 0.25,1.81 0.15,1.29 0.22,2.46 0.27,3.31 0.02,0.42 0.03,0.77 0.04,1 0.01,0.12 0.01,0.21 0.01,0.28 0,0.03 0.01,0.05 0.01,0.07 0,0.02 0,0.02 -0.01,0.02z"/>
   <path class="fil6" d="M32.74 26.86c-0.03,-0.29 -0.32,-0.51 -0.62,-0.51 -0.29,-0.01 -0.56,0.17 -0.74,0.4 -0.18,0.23 -0.28,0.52 -0.36,0.8 -0.2,0.68 -0.31,1.41 -0.22,2.12 0.08,0.71 0.37,1.41 0.88,1.91 0.08,0.08 0.19,0.16 0.31,0.14 0.06,-0.02 0.11,-0.06 0.16,-0.1 1,-0.91 1.57,-2.26 1.53,-3.61 0,-0.27 -0.04,-0.55 -0.19,-0.78 -0.15,-0.22 -0.5,-0.46 -0.75,-0.37z"/>
   <path class="fil5" d="M30.55 24.52c-0.14,0.25 -0.27,0.5 -0.41,0.75 -0.01,0.02 -0.02,0.04 -0.04,0.04 -0.03,0 -0.04,-0.02 -0.05,-0.04 -0.37,-0.56 -0.73,-1.11 -1.09,-1.67l0.25 -0.14 1.34 1.06z"/>
   <path class="fil16" d="M30.09 25.31c-0.02,0 -0.03,-0.02 -0.04,-0.04 -0.37,-0.56 -0.73,-1.11 -1.09,-1.67l0.25 -0.14 1.34 1.06c-0.14,0.25 -0.27,0.5 -0.41,0.75 -0.01,0.02 -0.02,0.04 -0.04,0.04 0,0 -0.01,0 -0.01,0z"/>
   <path class="fil6" d="M32.76 25.87c-1.24,-0.73 -2.48,-1.46 -3.72,-2.2 -0.04,-0.02 -0.08,-0.04 -0.09,-0.09 -0.01,-0.05 0.03,-0.11 0.07,-0.15 0.51,-0.52 1.25,-0.83 1.99,-0.78 0.73,0.06 1.44,0.48 1.8,1.12 0.35,0.64 0.37,1.49 -0.05,2.1z"/>
   <path class="fil4" d="M29.58 22.97c0,0 0.02,0 0.05,0 0.03,0 0.08,-0.01 0.14,-0.01 0.12,0 0.3,0.01 0.51,0.04 0.22,0.04 0.48,0.11 0.74,0.22 0.27,0.12 0.54,0.29 0.79,0.52 0.25,0.22 0.44,0.48 0.59,0.73 0.14,0.25 0.24,0.5 0.29,0.71 0.06,0.21 0.09,0.39 0.1,0.51 0,0.06 0,0.11 0,0.14 0,0.03 0,0.05 0,0.05 0,0 -0.01,-0.07 -0.02,-0.19 -0.02,-0.12 -0.05,-0.29 -0.11,-0.5 -0.11,-0.41 -0.39,-0.97 -0.88,-1.42 -0.49,-0.45 -1.08,-0.66 -1.5,-0.74 -0.21,-0.04 -0.39,-0.05 -0.51,-0.05 -0.12,0 -0.19,0 -0.19,-0.01z"/>
   <path class="fil4" d="M32.26 24.35c0,0.01 -0.07,0.04 -0.19,0.09 -0.12,0.05 -0.28,0.11 -0.47,0.17 -0.18,0.05 -0.35,0.1 -0.48,0.13 -0.12,0.03 -0.2,0.05 -0.2,0.04 0,-0.01 0.07,-0.03 0.2,-0.07 0.13,-0.04 0.29,-0.09 0.47,-0.15 0.18,-0.05 0.34,-0.11 0.47,-0.15 0.12,-0.04 0.2,-0.06 0.2,-0.06z"/>
   <path class="fil4" d="M31.67 22.78c0.02,0 0.04,0.18 0.05,0.42 0,0.23 -0.01,0.41 -0.02,0.41 -0.02,0 -0.02,-0.18 -0.03,-0.41 0,-0.23 -0.01,-0.42 0,-0.42z"/>
   <path class="fil4" d="M29.01 23.63c0,0 0.1,-0.04 0.27,-0.09 0.17,-0.05 0.41,-0.12 0.67,-0.18 0.26,-0.07 0.5,-0.12 0.67,-0.15 0.18,-0.03 0.29,-0.04 0.29,-0.03 0,0 -0.11,0.03 -0.28,0.06 -0.17,0.04 -0.41,0.1 -0.67,0.16 -0.26,0.06 -0.5,0.12 -0.67,0.17 -0.17,0.04 -0.28,0.07 -0.28,0.06z"/>
   <path class="fil6" d="M31.05 26.17c-0.32,-0.24 -0.66,-0.29 -1.06,-0.27 -0.4,0.01 -0.79,0.13 -1.16,0.29 -0.63,0.28 -1.22,0.68 -1.59,1.26 -0.38,0.57 -0.51,1.33 -0.23,1.96 0.03,0.06 0.07,0.12 0.13,0.15 0.06,0.03 0.14,0.01 0.21,-0.02 0.71,-0.23 1.43,-0.46 2.09,-0.83 0.65,-0.36 1.25,-0.87 1.6,-1.53 0.09,-0.16 0.16,-0.33 0.17,-0.51 0.02,-0.18 -0.03,-0.37 -0.16,-0.5z"/>
   <path class="fil4" d="M31.05 26.09c0.01,0.01 -0.01,0.01 -0.05,0.03 -0.04,0.01 -0.08,0.03 -0.15,0.05 -0.03,0.01 -0.07,0.02 -0.1,0.03 -0.04,0.02 -0.09,0.03 -0.13,0.05 -0.09,0.04 -0.2,0.08 -0.31,0.13 -0.05,0.02 -0.11,0.05 -0.17,0.08 -0.06,0.03 -0.12,0.06 -0.19,0.09 -0.13,0.07 -0.26,0.15 -0.4,0.23 -0.27,0.17 -0.56,0.38 -0.84,0.63 -0.28,0.25 -0.52,0.51 -0.73,0.76 -0.1,0.12 -0.2,0.24 -0.28,0.36 -0.04,0.06 -0.08,0.12 -0.12,0.18 -0.03,0.05 -0.06,0.11 -0.1,0.16 -0.06,0.1 -0.11,0.2 -0.16,0.29 -0.02,0.04 -0.05,0.08 -0.07,0.12 -0.01,0.03 -0.03,0.07 -0.05,0.1 -0.02,0.06 -0.05,0.1 -0.07,0.14 -0.01,0.03 -0.02,0.05 -0.02,0.05 0,0 0,-0.02 0.02,-0.05 0.01,-0.04 0.03,-0.09 0.06,-0.15 0.01,-0.03 0.03,-0.07 0.04,-0.1 0.02,-0.04 0.04,-0.08 0.07,-0.13 0.04,-0.08 0.09,-0.18 0.16,-0.29 0.03,-0.05 0.06,-0.11 0.1,-0.16 0.03,-0.06 0.07,-0.12 0.11,-0.18 0.08,-0.12 0.18,-0.24 0.28,-0.37 0.2,-0.25 0.45,-0.52 0.73,-0.77 0.28,-0.24 0.58,-0.45 0.85,-0.62 0.14,-0.09 0.28,-0.17 0.41,-0.23 0.06,-0.03 0.12,-0.07 0.18,-0.09 0.07,-0.03 0.12,-0.06 0.18,-0.08 0.11,-0.05 0.22,-0.09 0.31,-0.12 0.05,-0.02 0.09,-0.03 0.13,-0.05 0.04,-0.01 0.08,-0.02 0.11,-0.03 0.06,-0.02 0.11,-0.03 0.15,-0.04 0.04,-0.01 0.05,-0.02 0.05,-0.02z"/>
   <path class="fil4" d="M28.55 27.45c0.01,0.01 -0.34,0.12 -0.77,0.25 -0.44,0.13 -0.79,0.22 -0.8,0.21 0,-0.01 0.35,-0.13 0.78,-0.25 0.44,-0.13 0.79,-0.22 0.79,-0.21z"/>
   <path class="fil4" d="M28.52 29.17c0,0 -0.01,-0.1 -0.01,-0.25 -0.01,-0.15 -0.01,-0.35 0,-0.58 0,-0.23 0.02,-0.44 0.03,-0.59 0.01,-0.15 0.02,-0.24 0.03,-0.24 0,0 0,0.09 0,0.24 -0.01,0.17 -0.01,0.37 -0.02,0.59 0,0.22 -0.01,0.42 -0.01,0.58 -0.01,0.15 -0.01,0.25 -0.02,0.25z"/>
   <path class="fil4" d="M29.99 28.42c-0.01,0 -0.05,-0.42 -0.08,-0.94 -0.04,-0.52 -0.06,-0.95 -0.05,-0.95 0.02,0 0.05,0.42 0.09,0.94 0.04,0.52 0.06,0.95 0.04,0.95z"/>
   <path class="fil4" d="M28.16 26.49c0,-0.01 0.1,-0.01 0.25,-0.01 0.16,0 0.37,0.01 0.6,0.02 0.24,0 0.45,0.01 0.6,0.02 0.16,0.01 0.25,0.02 0.25,0.03 0,0 -0.09,0.01 -0.25,0 -0.15,0 -0.36,0 -0.6,-0.01 -0.23,-0.01 -0.45,-0.02 -0.6,-0.02 -0.15,-0.01 -0.25,-0.02 -0.25,-0.03z"/>
   <path class="fil4" d="M31.84 31.78c0,0 0,-0.02 0,-0.05 -0.01,-0.04 -0.01,-0.09 -0.01,-0.15 -0.01,-0.13 -0.01,-0.31 0,-0.54 0,-0.23 0.02,-0.5 0.04,-0.8 0.03,-0.29 0.07,-0.62 0.13,-0.96 0.07,-0.35 0.14,-0.67 0.22,-0.96 0.07,-0.29 0.15,-0.55 0.23,-0.76 0.07,-0.22 0.14,-0.39 0.19,-0.51 0.02,-0.05 0.04,-0.1 0.05,-0.13 0.02,-0.03 0.02,-0.05 0.02,-0.05 0.01,0 0,0.02 -0.01,0.05 -0.01,0.04 -0.03,0.08 -0.05,0.14 -0.04,0.12 -0.1,0.29 -0.17,0.51 -0.07,0.21 -0.15,0.47 -0.22,0.76 -0.08,0.29 -0.15,0.61 -0.21,0.95 -0.06,0.34 -0.11,0.67 -0.14,0.97 -0.03,0.3 -0.04,0.57 -0.05,0.79 -0.01,0.23 -0.01,0.41 -0.01,0.54 0,0.06 0,0.11 -0.01,0.15 0,0.03 0,0.05 0,0.05z"/>
   <path class="fil4" d="M32.04 29.24c0,0 -0.05,0.07 -0.15,0.16 -0.1,0.1 -0.23,0.23 -0.39,0.36 -0.16,0.14 -0.3,0.26 -0.41,0.34 -0.11,0.08 -0.18,0.13 -0.18,0.13 0,-0.01 0.06,-0.06 0.16,-0.15 0.11,-0.1 0.25,-0.22 0.4,-0.35 0.15,-0.13 0.28,-0.25 0.4,-0.35 0.1,-0.09 0.16,-0.15 0.17,-0.14z"/>
   <path class="fil4" d="M33.22 30.19c-0.01,0 -0.07,-0.08 -0.16,-0.22 -0.1,-0.15 -0.23,-0.33 -0.37,-0.54 -0.14,-0.2 -0.27,-0.38 -0.38,-0.53 -0.09,-0.14 -0.15,-0.22 -0.15,-0.22 0.01,-0.01 0.08,0.07 0.18,0.2 0.1,0.13 0.24,0.32 0.39,0.53 0.14,0.21 0.27,0.4 0.35,0.54 0.09,0.14 0.14,0.23 0.14,0.24z"/>
   <path class="fil4" d="M32.6 27.2c0,0.01 -0.39,0.28 -0.88,0.59 -0.49,0.32 -0.89,0.56 -0.89,0.55 -0.01,-0.01 0.38,-0.27 0.87,-0.59 0.49,-0.31 0.89,-0.56 0.9,-0.55z"/>
   <path class="fil4" d="M33.7 28.39c-0.01,0.01 -0.27,-0.23 -0.59,-0.54 -0.32,-0.31 -0.57,-0.57 -0.56,-0.58 0.01,-0.01 0.27,0.23 0.59,0.54 0.32,0.32 0.57,0.57 0.56,0.58z"/>
   <path class="fil6" d="M33.98 28.37l0.33 -0.03c0.24,-0.02 0.47,-0.09 0.68,-0.21 0.11,-0.05 0.21,-0.11 0.32,-0.15 0.41,-0.17 0.88,-0.14 1.33,-0.16 0.72,-0.04 1.45,-0.22 2.1,-0.54 0.04,-0.02 0.08,-0.05 0.1,-0.09 0.01,-0.01 0.01,-0.03 0.01,-0.05l0 -0.04c-0.01,-0.09 -0.1,-0.16 -0.18,-0.21 -0.57,-0.35 -1.15,-0.7 -1.79,-0.88 -0.64,-0.17 -1.37,-0.14 -1.92,0.24 -0.64,0.44 -0.87,1.35 -0.98,2.12z"/>
   <path class="fil4" d="M38.84 27.15c0,0 -0.02,-0.01 -0.05,-0.02 -0.04,-0.03 -0.1,-0.05 -0.16,-0.09 -0.14,-0.07 -0.34,-0.18 -0.59,-0.3 -0.25,-0.12 -0.56,-0.25 -0.91,-0.35 -0.35,-0.1 -0.76,-0.15 -1.18,-0.09 -0.42,0.05 -0.8,0.21 -1.08,0.46 -0.27,0.24 -0.44,0.53 -0.56,0.78 -0.11,0.26 -0.19,0.47 -0.24,0.62 -0.02,0.07 -0.04,0.12 -0.06,0.17 -0.01,0.03 -0.02,0.05 -0.02,0.05 0,0 0,-0.02 0.01,-0.06 0.01,-0.04 0.03,-0.1 0.05,-0.17 0.05,-0.15 0.12,-0.36 0.23,-0.62 0.12,-0.25 0.29,-0.55 0.57,-0.8 0.27,-0.25 0.67,-0.42 1.09,-0.48 0.43,-0.05 0.84,0 1.2,0.1 0.36,0.1 0.66,0.24 0.91,0.36 0.25,0.13 0.45,0.24 0.59,0.32 0.06,0.03 0.11,0.07 0.15,0.09 0.04,0.02 0.05,0.03 0.05,0.03z"/>
   <path class="fil4" d="M38.04 27.59c-0.01,0.01 -0.45,-0.28 -0.98,-0.64 -0.54,-0.36 -0.97,-0.66 -0.96,-0.67 0.01,-0.01 0.45,0.27 0.98,0.63 0.54,0.36 0.96,0.67 0.96,0.68z"/>
   <path class="fil4" d="M37.61 26.24c0.01,0.01 -0.15,0.05 -0.34,0.07 -0.19,0.01 -0.35,0 -0.35,-0.01 0,-0.01 0.16,-0.02 0.35,-0.04 0.19,-0.02 0.34,-0.04 0.34,-0.02z"/>
   <path class="fil4" d="M35.64 25.88c0.02,0.01 -0.05,0.14 -0.14,0.29 -0.09,0.16 -0.17,0.27 -0.18,0.27 -0.01,-0.01 0.05,-0.14 0.14,-0.29 0.09,-0.15 0.17,-0.27 0.18,-0.27z"/>
   <path class="fil4" d="M36.04 27.84c0,0.01 -0.09,-0.03 -0.21,-0.11 -0.13,-0.08 -0.3,-0.19 -0.48,-0.32 -0.19,-0.14 -0.35,-0.26 -0.47,-0.35 -0.11,-0.1 -0.18,-0.16 -0.18,-0.16 0.01,-0.01 0.08,0.04 0.2,0.13 0.14,0.1 0.29,0.21 0.47,0.34 0.18,0.13 0.35,0.25 0.47,0.33 0.13,0.09 0.2,0.14 0.2,0.14z"/>
   <path class="fil6" d="M34.47 29.8c-0.32,-0.09 -0.7,0.22 -0.76,0.55 -0.07,0.32 0.05,0.66 0.19,0.95 0.32,0.67 0.75,1.28 1.33,1.74 0.57,0.46 1.29,0.75 2.02,0.74 -0.13,-0.62 0.04,-1.28 -0.04,-1.92 -0.06,-0.56 -0.32,-1.09 -0.72,-1.49 -0.4,-0.39 -0.94,-0.65 -1.49,-0.71 -0.21,-0.02 -0.44,-0.05 -0.53,0.14z"/>
   <path class="fil4" d="M37.25 33.78c0,0.01 -0.01,0 -0.04,-0.02 -0.03,-0.01 -0.07,-0.04 -0.12,-0.08 -0.1,-0.07 -0.22,-0.22 -0.32,-0.42 -0.05,-0.1 -0.11,-0.21 -0.16,-0.33 -0.06,-0.12 -0.11,-0.24 -0.17,-0.38 -0.06,-0.13 -0.13,-0.27 -0.22,-0.4 -0.08,-0.14 -0.18,-0.27 -0.29,-0.4 -0.22,-0.26 -0.45,-0.48 -0.66,-0.69 -0.2,-0.22 -0.37,-0.42 -0.5,-0.61 -0.12,-0.18 -0.2,-0.35 -0.24,-0.47 -0.02,-0.06 -0.04,-0.1 -0.05,-0.13 0,-0.04 -0.01,-0.05 -0.01,-0.05 0.01,0 0.03,0.06 0.07,0.18 0.05,0.11 0.13,0.27 0.26,0.45 0.12,0.19 0.3,0.39 0.5,0.6 0.21,0.21 0.45,0.43 0.67,0.69 0.11,0.13 0.21,0.26 0.29,0.4 0.09,0.14 0.15,0.28 0.21,0.42 0.06,0.13 0.12,0.26 0.17,0.38 0.06,0.12 0.11,0.23 0.16,0.33 0.1,0.2 0.2,0.34 0.3,0.42 0.09,0.08 0.16,0.11 0.15,0.11z"/>
   <path class="fil4" d="M35.6 33.26c-0.01,0 0,-0.08 0.03,-0.21 0.02,-0.14 0.06,-0.32 0.12,-0.51 0.05,-0.2 0.11,-0.38 0.16,-0.5 0.05,-0.13 0.08,-0.21 0.09,-0.2 0,0 -0.02,0.08 -0.06,0.21 -0.04,0.12 -0.09,0.3 -0.15,0.5 -0.05,0.19 -0.1,0.37 -0.13,0.5 -0.04,0.13 -0.06,0.21 -0.06,0.21z"/>
   <path class="fil4" d="M37.19 31.72c0,0 -0.08,-0.02 -0.22,-0.05 -0.14,-0.04 -0.33,-0.09 -0.54,-0.14 -0.21,-0.05 -0.41,-0.08 -0.55,-0.11 -0.14,-0.03 -0.23,-0.04 -0.22,-0.05 0,-0.01 0.08,0 0.23,0.02 0.14,0.02 0.33,0.05 0.55,0.1 0.21,0.05 0.4,0.1 0.54,0.14 0.13,0.05 0.22,0.08 0.21,0.09z"/>
   <path class="fil4" d="M34.41 32.17c-0.01,-0.01 0.01,-0.1 0.03,-0.25 0.03,-0.16 0.08,-0.37 0.14,-0.6 0.06,-0.23 0.12,-0.43 0.17,-0.58 0.05,-0.15 0.09,-0.24 0.09,-0.23 0.01,0 -0.02,0.09 -0.06,0.24 -0.04,0.15 -0.1,0.36 -0.16,0.58 -0.06,0.23 -0.11,0.44 -0.15,0.59 -0.03,0.15 -0.06,0.25 -0.06,0.25z"/>
   <path class="fil4" d="M36.46 30.37c0,0.01 -0.4,-0.02 -0.89,-0.07 -0.5,-0.05 -0.89,-0.11 -0.89,-0.12 0,-0.01 0.4,0.02 0.89,0.07 0.49,0.06 0.89,0.11 0.89,0.12z"/>
   <path class="fil9" d="M36.17 35.22c0,0.01 -1.41,0.02 -3.14,0.02 -1.74,0 -3.14,-0.01 -3.14,-0.02 0,-0.01 1.4,-0.02 3.14,-0.02 1.73,0 3.14,0.01 3.14,0.02z"/>
   <path class="fil9" d="M35.19 37.03c0,0.01 -0.95,0.02 -2.12,0.02 -1.17,0 -2.11,-0.01 -2.11,-0.02 0,-0.01 0.94,-0.02 2.11,-0.02 1.17,0 2.12,0.01 2.12,0.02z"/>
   <path class="fil9" d="M35.22 37.29c0,0.01 -0.94,0.02 -2.11,0.02 -1.17,0 -2.12,-0.01 -2.12,-0.02 0,-0.01 0.95,-0.02 2.12,-0.02 1.17,0 2.11,0.01 2.11,0.02z"/>
   <path class="fil9" d="M35.22 36.82c0,0.01 -0.98,0.02 -2.18,0.02 -1.21,0 -2.19,-0.01 -2.19,-0.02 0,-0.01 0.98,-0.02 2.19,-0.02 1.2,0 2.18,0.01 2.18,0.02z"/>
   <path class="fil4" d="M37.91 39.62c0,0.02 -8.49,0.03 -18.95,0.03 -10.48,0 -18.96,-0.01 -18.96,-0.03 0,-0.01 8.48,-0.02 18.96,-0.02 10.46,0 18.95,0.01 18.95,0.02z"/>
   <path class="fil17" d="M16.51 22.13c-0.08,0 -0.15,-0.01 -0.21,-0.05 -0.07,-0.03 -0.11,-0.08 -0.14,-0.14 -0.03,-0.07 -0.05,-0.14 -0.05,-0.23l0 -0.73 0.16 0 0 0.73c0,0.09 0.02,0.15 0.06,0.2 0.05,0.04 0.11,0.07 0.18,0.07 0.08,0 0.14,-0.03 0.18,-0.07 0.04,-0.05 0.07,-0.11 0.07,-0.2l0 -0.73 0.16 0 0 0.73c0,0.09 -0.02,0.16 -0.05,0.23 -0.03,0.06 -0.08,0.11 -0.14,0.14 -0.06,0.04 -0.13,0.05 -0.22,0.05zm0.74 -0.61l0.37 0c0.03,0 0.06,0 0.09,-0.02 0.03,-0.02 0.05,-0.04 0.06,-0.07 0.02,-0.03 0.02,-0.06 0.02,-0.1l0 0c0,-0.04 0,-0.08 -0.02,-0.11 -0.01,-0.03 -0.03,-0.05 -0.06,-0.07 -0.03,-0.01 -0.06,-0.02 -0.09,-0.02l-0.37 0 0 -0.15 0.36 0c0.07,0 0.13,0.01 0.18,0.04 0.06,0.03 0.1,0.07 0.13,0.12 0.02,0.06 0.04,0.12 0.04,0.19l0 0c0,0.07 -0.02,0.13 -0.04,0.18 -0.03,0.05 -0.07,0.1 -0.13,0.12 -0.05,0.03 -0.11,0.05 -0.18,0.05l-0.36 0 0 -0.16zm-0.08 -0.54l0.16 0 0 1.14 -0.16 0 0 -1.14zm1.1 0.99l0.26 0c0.08,0 0.15,-0.02 0.2,-0.07 0.04,-0.04 0.07,-0.1 0.07,-0.18l0 -0.34c0,-0.08 -0.03,-0.14 -0.07,-0.19 -0.05,-0.04 -0.12,-0.06 -0.2,-0.06l-0.26 0 0 -0.15 0.25 0c0.1,0 0.17,0.01 0.24,0.04 0.07,0.04 0.12,0.08 0.15,0.14 0.03,0.07 0.05,0.14 0.05,0.23l0 0.32c0,0.09 -0.02,0.16 -0.05,0.22 -0.03,0.07 -0.08,0.11 -0.15,0.14 -0.07,0.04 -0.14,0.05 -0.24,0.05l-0.25 0 0 -0.15zm-0.11 -0.99l0.16 0 0 1.14 -0.16 0 0 -1.14zm1.33 0l0.13 0 0.43 1.14 -0.18 0 -0.31 -0.92 -0.32 0.92 -0.18 0 0.43 -1.14zm-0.23 0.74l0.6 0 0 0.15 -0.6 0 0 -0.15zm1.1 -0.65l0.16 0 0 1.05 -0.16 0 0 -1.05zm-0.33 -0.09l0.81 0 0 0.15 -0.81 0 0 -0.15zm0.97 0l0.16 0 0 1.14 -0.16 0 0 -1.14zm0.08 0.99l0.66 0 0 0.15 -0.66 0 0 -0.15zm0 -0.49l0.57 0 0 0.15 -0.57 0 0 -0.15zm0 -0.5l0.66 0 0 0.15 -0.66 0 0 -0.15zm-5.28 1.94l0.14 0 0.56 0.88 -0.02 0.02 0 -0.9 0.16 0 0 1.14 -0.14 0 -0.56 -0.87 0.02 -0.02 0 0.89 -0.16 0 0 -1.14zm1.51 1.16c-0.08,0 -0.15,-0.02 -0.21,-0.05 -0.06,-0.04 -0.11,-0.09 -0.14,-0.15 -0.03,-0.06 -0.05,-0.14 -0.05,-0.23l0 -0.73 0.16 0 0 0.73c0,0.09 0.02,0.15 0.07,0.2 0.04,0.04 0.1,0.07 0.17,0.07 0.08,0 0.14,-0.03 0.18,-0.07 0.05,-0.05 0.07,-0.11 0.07,-0.2l0 -0.73 0.16 0 0 0.73c0,0.09 -0.02,0.17 -0.05,0.23 -0.03,0.06 -0.08,0.11 -0.14,0.15 -0.06,0.03 -0.13,0.05 -0.22,0.05zm1.49 -1.16l0.15 0 0 1.14 -0.16 0 0 -0.86 0.01 0.05 -0.28 0.65 -0.12 0 -0.28 -0.63 0.01 -0.07 0 0.86 -0.16 0 0 -1.14 0.15 0 0.34 0.75 0.34 -0.75zm0.53 0.99l0.31 0c0.08,0 0.14,-0.01 0.18,-0.04 0.03,-0.03 0.05,-0.08 0.05,-0.13l0 -0.01c0,-0.03 0,-0.07 -0.02,-0.1 -0.01,-0.02 -0.03,-0.05 -0.06,-0.06 -0.03,-0.02 -0.07,-0.02 -0.11,-0.02l-0.35 0 0 -0.15 0.35 0c0.06,0 0.1,-0.01 0.13,-0.04 0.03,-0.03 0.05,-0.07 0.05,-0.12l0 0c0,-0.06 -0.02,-0.1 -0.05,-0.13 -0.04,-0.03 -0.09,-0.05 -0.16,-0.05l-0.32 0 0 -0.14 0.35 0c0.08,0 0.14,0.01 0.19,0.03 0.05,0.03 0.09,0.06 0.11,0.11 0.03,0.05 0.04,0.1 0.04,0.17l0 0c0,0.04 -0.01,0.07 -0.02,0.11 -0.02,0.03 -0.04,0.06 -0.07,0.09 -0.03,0.02 -0.07,0.04 -0.12,0.05 0.05,0 0.09,0.02 0.12,0.04 0.03,0.03 0.06,0.06 0.08,0.1 0.02,0.04 0.02,0.08 0.02,0.13l0 0c0,0.06 -0.01,0.12 -0.04,0.17 -0.02,0.04 -0.06,0.08 -0.11,0.1 -0.06,0.03 -0.11,0.04 -0.18,0.04l-0.37 0 0 -0.15zm-0.1 -0.99l0.16 0 0 1.14 -0.16 0 0 -1.14zm1.05 0l0.16 0 0 1.14 -0.16 0 0 -1.14zm0.07 0.99l0.66 0 0 0.15 -0.66 0 0 -0.15zm0 -0.49l0.58 0 0 0.15 -0.58 0 0 -0.15zm0 -0.5l0.66 0 0 0.15 -0.66 0 0 -0.15zm0.96 0.51l0.39 0c0.03,0 0.06,-0.01 0.08,-0.03 0.03,-0.01 0.05,-0.03 0.06,-0.06 0.01,-0.03 0.02,-0.06 0.02,-0.09l0 0c0,-0.04 -0.01,-0.07 -0.02,-0.1 -0.01,-0.02 -0.03,-0.05 -0.05,-0.06 -0.03,-0.01 -0.06,-0.02 -0.09,-0.02l-0.39 0 0 -0.16 0.39 0c0.06,0 0.12,0.02 0.17,0.05 0.05,0.02 0.09,0.06 0.12,0.11 0.03,0.05 0.04,0.11 0.04,0.18l0 0c0,0.06 -0.01,0.12 -0.04,0.17 -0.03,0.05 -0.07,0.09 -0.12,0.12 -0.05,0.02 -0.11,0.04 -0.17,0.04l-0.39 0 0 -0.15zm-0.07 -0.52l0.16 0 0 1.15 -0.16 0 0 -1.15zm0.38 0.63l0.16 -0.03 0.3 0.55 -0.19 0 -0.27 -0.52z"/>
   <path class="fil18" d="M17.69 30.65l0.14 0 0 0.58c0,0.1 -0.01,0.18 -0.04,0.24 -0.02,0.06 -0.06,0.11 -0.12,0.15 -0.06,0.03 -0.14,0.05 -0.24,0.05 -0.09,0 -0.17,-0.01 -0.23,-0.05 -0.06,-0.03 -0.1,-0.08 -0.13,-0.14 -0.02,-0.06 -0.04,-0.14 -0.04,-0.25l0 -0.58 0.14 0 0 0.58c0,0.09 0.01,0.15 0.02,0.19 0.02,0.04 0.05,0.08 0.09,0.1 0.04,0.02 0.08,0.03 0.14,0.03 0.1,0 0.17,-0.02 0.21,-0.06 0.04,-0.05 0.06,-0.13 0.06,-0.26l0 -0.58zm0.34 1.29l0 -1.02 0.12 0 0 0.1c0.02,-0.04 0.05,-0.07 0.09,-0.08 0.03,-0.02 0.07,-0.03 0.12,-0.03 0.06,0 0.12,0.01 0.17,0.05 0.04,0.03 0.08,0.07 0.1,0.13 0.03,0.06 0.04,0.12 0.04,0.19 0,0.08 -0.01,0.15 -0.04,0.21 -0.03,0.06 -0.07,0.1 -0.12,0.13 -0.05,0.04 -0.1,0.05 -0.16,0.05 -0.04,0 -0.08,-0.01 -0.11,-0.02 -0.03,-0.02 -0.06,-0.04 -0.08,-0.07l0 0.36 -0.13 0zm0.12 -0.65c0,0.1 0.02,0.17 0.05,0.21 0.04,0.05 0.09,0.07 0.14,0.07 0.06,0 0.1,-0.02 0.14,-0.07 0.04,-0.05 0.06,-0.12 0.06,-0.22 0,-0.09 -0.02,-0.16 -0.05,-0.21 -0.04,-0.04 -0.09,-0.06 -0.14,-0.06 -0.05,0 -0.1,0.02 -0.14,0.07 -0.04,0.05 -0.06,0.12 -0.06,0.21zm1.14 0.37l0 -0.1c-0.04,0.07 -0.11,0.11 -0.2,0.11 -0.06,0 -0.11,-0.01 -0.16,-0.05 -0.05,-0.03 -0.09,-0.07 -0.12,-0.13 -0.02,-0.06 -0.04,-0.13 -0.04,-0.2 0,-0.07 0.02,-0.14 0.04,-0.2 0.02,-0.06 0.06,-0.1 0.11,-0.13 0.05,-0.04 0.1,-0.05 0.16,-0.05 0.05,0 0.09,0.01 0.12,0.03 0.03,0.01 0.06,0.04 0.08,0.07l0 -0.36 0.13 0 0 1.01 -0.12 0zm-0.39 -0.37c0,0.09 0.02,0.16 0.06,0.21 0.04,0.05 0.09,0.07 0.14,0.07 0.05,0 0.1,-0.02 0.14,-0.07 0.04,-0.04 0.06,-0.11 0.06,-0.2 0,-0.1 -0.02,-0.17 -0.06,-0.22 -0.04,-0.05 -0.09,-0.07 -0.15,-0.07 -0.05,0 -0.1,0.02 -0.13,0.07 -0.04,0.04 -0.06,0.11 -0.06,0.21zm1.18 0.27c-0.04,0.04 -0.09,0.07 -0.13,0.09 -0.04,0.01 -0.09,0.02 -0.14,0.02 -0.08,0 -0.14,-0.02 -0.18,-0.06 -0.05,-0.04 -0.07,-0.09 -0.07,-0.15 0,-0.03 0.01,-0.07 0.03,-0.1 0.01,-0.03 0.03,-0.05 0.06,-0.07 0.03,-0.01 0.06,-0.03 0.09,-0.04 0.02,0 0.06,-0.01 0.11,-0.02 0.1,-0.01 0.17,-0.02 0.22,-0.04 0,-0.02 0,-0.03 0,-0.03 0,-0.05 -0.01,-0.09 -0.03,-0.11 -0.03,-0.03 -0.08,-0.04 -0.14,-0.04 -0.06,0 -0.11,0.01 -0.13,0.03 -0.03,0.02 -0.05,0.06 -0.07,0.11l-0.12 -0.02c0.01,-0.05 0.03,-0.09 0.06,-0.12 0.02,-0.03 0.06,-0.06 0.11,-0.08 0.05,-0.01 0.1,-0.02 0.16,-0.02 0.07,0 0.12,0.01 0.16,0.02 0.04,0.01 0.07,0.03 0.08,0.06 0.02,0.02 0.03,0.05 0.04,0.08 0.01,0.02 0.01,0.06 0.01,0.11l0 0.17c0,0.11 0,0.19 0.01,0.22 0,0.03 0.01,0.06 0.03,0.09l-0.13 0c-0.02,-0.03 -0.02,-0.06 -0.03,-0.1zm-0.01 -0.27c-0.04,0.02 -0.11,0.03 -0.2,0.05 -0.05,0 -0.09,0.01 -0.11,0.02 -0.02,0.01 -0.04,0.02 -0.05,0.04 -0.01,0.02 -0.02,0.04 -0.02,0.06 0,0.03 0.02,0.06 0.04,0.08 0.03,0.02 0.06,0.03 0.11,0.03 0.05,0 0.09,-0.01 0.13,-0.03 0.04,-0.02 0.06,-0.05 0.08,-0.08 0.02,-0.03 0.02,-0.07 0.02,-0.13l0 -0.04zm0.59 0.25l0.02 0.11c-0.04,0.01 -0.07,0.02 -0.1,0.02 -0.04,0 -0.08,-0.01 -0.1,-0.03 -0.03,-0.01 -0.04,-0.03 -0.05,-0.05 -0.01,-0.03 -0.02,-0.07 -0.02,-0.15l0 -0.42 -0.09 0 0 -0.1 0.09 0 0 -0.18 0.12 -0.07 0 0.25 0.13 0 0 0.1 -0.13 0 0 0.43c0,0.03 0.01,0.06 0.01,0.07 0.01,0.01 0.01,0.01 0.02,0.02 0.01,0.01 0.03,0.01 0.04,0.01 0.02,0 0.04,0 0.06,-0.01zm0.62 -0.12l0.13 0.02c-0.02,0.07 -0.06,0.13 -0.11,0.17 -0.06,0.04 -0.13,0.06 -0.21,0.06 -0.11,0 -0.19,-0.03 -0.26,-0.1 -0.06,-0.06 -0.09,-0.16 -0.09,-0.27 0,-0.13 0.03,-0.22 0.1,-0.29 0.06,-0.07 0.14,-0.1 0.24,-0.1 0.1,0 0.18,0.03 0.24,0.1 0.06,0.06 0.09,0.16 0.09,0.28 0,0.01 0,0.02 0,0.03l-0.54 0c0,0.08 0.02,0.14 0.07,0.19 0.04,0.04 0.09,0.06 0.15,0.06 0.04,0 0.08,-0.01 0.11,-0.04 0.04,-0.02 0.06,-0.06 0.08,-0.11zm-0.41 -0.2l0.41 0c0,-0.06 -0.02,-0.11 -0.04,-0.14 -0.04,-0.05 -0.1,-0.07 -0.16,-0.07 -0.05,0 -0.1,0.02 -0.14,0.06 -0.04,0.03 -0.06,0.09 -0.07,0.15z"/>
  </g>
 </g>
</svg>
