<?xml version="1.0" encoding="UTF-8"?>
<!DOCTYPE svg PUBLIC "-//W3C//DTD SVG 1.1//EN" "http://www.w3.org/Graphics/SVG/1.1/DTD/svg11.dtd">
<!-- Creator: CorelDRAW 2020 (64-Bit) -->
<svg xmlns="http://www.w3.org/2000/svg" xml:space="preserve" width="299px" height="196px" version="1.1" style="shape-rendering:geometricPrecision; text-rendering:geometricPrecision; image-rendering:optimizeQuality; fill-rule:evenodd; clip-rule:evenodd"
viewBox="0 0 26.96 17.65"
 xmlns:xlink="http://www.w3.org/1999/xlink"
 xmlns:xodm="http://www.corel.com/coreldraw/odm/2003">
 <defs>
  <style type="text/css">
   <![CDATA[
    .fil5 {fill:#FEFEFE;fill-rule:nonzero}
    .fil18 {fill:#F7B8A0;fill-rule:nonzero}
    .fil10 {fill:#F39772;fill-rule:nonzero}
    .fil13 {fill:#F194A0;fill-rule:nonzero}
    .fil7 {fill:#EA5563;fill-rule:nonzero}
    .fil19 {fill:#FAFAFA;fill-rule:nonzero}
    .fil2 {fill:#F4F4F4;fill-rule:nonzero}
    .fil0 {fill:#EBECEC;fill-rule:nonzero}
    .fil22 {fill:#D8434D;fill-rule:nonzero}
    .fil1 {fill:#E0E0E0;fill-rule:nonzero}
    .fil21 {fill:#D07C5A;fill-rule:nonzero}
    .fil15 {fill:#BE3E45;fill-rule:nonzero}
    .fil20 {fill:#CCCCCB;fill-rule:nonzero}
    .fil24 {fill:#CAC9C9;fill-rule:nonzero}
    .fil8 {fill:#892E34;fill-rule:nonzero}
    .fil17 {fill:#B5B6B5;fill-rule:nonzero}
    .fil12 {fill:#8CA0A6;fill-rule:nonzero}
    .fil11 {fill:#7C888B;fill-rule:nonzero}
    .fil4 {fill:#3F5E69;fill-rule:nonzero}
    .fil14 {fill:#31444B;fill-rule:nonzero}
    .fil3 {fill:#29383E;fill-rule:nonzero}
    .fil16 {fill:#242C2F;fill-rule:nonzero}
    .fil9 {fill:#1F2427;fill-rule:nonzero}
    .fil23 {fill:#CC750B;fill-rule:nonzero}
    .fil6 {fill:#E95B11;fill-rule:nonzero}
   ]]>
  </style>
 </defs>
 <g id="Layer_x0020_1">
  <metadata id="CorelCorpID_0Corel-Layer"/>
  <g id="_2562152276304">
   <path class="fil0" d="M23.85 0.05c0,0 -0.43,-0.33 -1.06,0.71 -0.63,1.05 -0.88,1.66 -0.88,1.66 0,0 -0.16,0.21 -0.31,0.05 -0.15,-0.16 -0.33,-0.59 -0.6,-0.53 -0.28,0.05 -0.39,0.35 -0.37,0.81 0.02,0.45 0.03,1.45 0.03,1.54 0,0.09 -0.06,0.22 -0.18,0.12 -0.12,-0.09 -0.76,-0.92 -1.14,-0.59 -0.38,0.33 -0.12,1.59 -0.09,1.72 0.03,0.14 0,0.2 -0.07,0.23 -0.07,0.03 -0.26,-0.28 -0.45,-0.51 -0.2,-0.22 -0.46,-0.46 -0.66,-0.25 -0.21,0.21 -0.33,1.13 0.44,2.7l0.41 0.7 0.81 0.01c1.74,-0.08 2.49,-0.63 2.57,-0.91 0.09,-0.28 -0.24,-0.4 -0.54,-0.46 -0.29,-0.06 -0.65,-0.08 -0.65,-0.15 -0.01,-0.07 0.02,-0.13 0.16,-0.17 0.13,-0.04 1.36,-0.42 1.47,-0.91 0.11,-0.49 -0.94,-0.66 -1.08,-0.71 -0.13,-0.06 -0.05,-0.17 0.03,-0.22 0.07,-0.04 0.95,-0.51 1.36,-0.72 0.41,-0.2 0.62,-0.44 0.53,-0.72 -0.08,-0.26 -0.55,-0.21 -0.76,-0.26 -0.21,-0.05 -0.1,-0.3 -0.1,-0.3 0,0 0.41,-0.51 1.03,-1.57 0.61,-1.06 0.09,-1.28 0.09,-1.28l0.01 0.01z"/>
   <path class="fil1" d="M23.29 0.98c0,0 -0.01,0.01 -0.01,0.03 -0.01,0.01 -0.03,0.03 -0.04,0.06 -0.03,0.06 -0.08,0.15 -0.14,0.25 -0.13,0.22 -0.31,0.53 -0.54,0.92 -0.45,0.77 -1.08,1.84 -1.78,3.01 -0.7,1.17 -1.34,2.23 -1.79,3.01 -0.23,0.38 -0.42,0.69 -0.54,0.91 -0.07,0.11 -0.12,0.19 -0.15,0.25 -0.02,0.02 -0.03,0.05 -0.04,0.06 -0.01,0.02 -0.01,0.02 -0.01,0.02 0,0 0,-0.01 0.01,-0.02 0.01,-0.02 0.02,-0.04 0.04,-0.07 0.03,-0.05 0.08,-0.14 0.14,-0.25 0.12,-0.21 0.3,-0.53 0.53,-0.91 0.45,-0.78 1.08,-1.84 1.79,-3.01 0.7,-1.17 1.33,-2.24 1.79,-3.01 0.23,-0.38 0.41,-0.69 0.54,-0.91 0.06,-0.11 0.11,-0.19 0.14,-0.25 0.02,-0.03 0.03,-0.05 0.04,-0.06 0.01,-0.02 0.02,-0.03 0.02,-0.03z"/>
   <path class="fil1" d="M21.23 2.56c0,0 0.01,0.02 0.02,0.05 0.01,0.04 0.02,0.09 0.03,0.16 0.03,0.13 0.06,0.31 0.1,0.52 0.03,0.2 0.06,0.38 0.08,0.51 0.01,0.07 0.02,0.12 0.03,0.16 0,0.04 0,0.06 0,0.06 0,0 0,-0.02 -0.01,-0.06 -0.01,-0.03 -0.02,-0.09 -0.04,-0.15 -0.02,-0.13 -0.05,-0.32 -0.09,-0.52 -0.03,-0.2 -0.06,-0.38 -0.08,-0.52 -0.01,-0.06 -0.02,-0.11 -0.03,-0.16 -0.01,-0.03 -0.01,-0.05 -0.01,-0.05z"/>
   <path class="fil1" d="M21.57 4.04c-0.01,-0.01 0.37,-0.09 0.83,-0.19 0.47,-0.1 0.84,-0.17 0.84,-0.17 0.01,0.01 -0.37,0.1 -0.83,0.19 -0.47,0.1 -0.84,0.18 -0.84,0.17z"/>
   <path class="fil1" d="M20.41 5.79c0,0 0.02,0 0.06,0 0.04,0.01 0.09,0.01 0.16,0.01 0.14,0.01 0.32,0.03 0.53,0.03 0.21,0.01 0.4,0.01 0.54,0.01 0.06,0 0.12,0 0.16,0 0.04,0 0.06,0 0.06,0 0,0 -0.02,0.01 -0.06,0.01 -0.04,0 -0.09,0.01 -0.16,0.01 -0.14,0 -0.33,0.01 -0.54,0 -0.21,-0.01 -0.4,-0.02 -0.53,-0.04 -0.07,-0.01 -0.13,-0.01 -0.16,-0.02 -0.04,0 -0.06,-0.01 -0.06,-0.01z"/>
   <path class="fil1" d="M19.81 4.52c0,-0.01 0.01,0.01 0.03,0.04 0.02,0.04 0.04,0.08 0.07,0.14 0.05,0.11 0.13,0.27 0.22,0.44 0.08,0.18 0.16,0.33 0.21,0.45 0.02,0.05 0.04,0.1 0.06,0.14 0.01,0.03 0.02,0.05 0.02,0.05 0,0 -0.01,-0.02 -0.03,-0.05 -0.02,-0.04 -0.04,-0.08 -0.07,-0.13 -0.05,-0.12 -0.13,-0.27 -0.22,-0.45 -0.08,-0.17 -0.16,-0.33 -0.21,-0.45 -0.02,-0.05 -0.04,-0.1 -0.06,-0.13 -0.02,-0.04 -0.02,-0.05 -0.02,-0.05z"/>
   <path class="fil1" d="M18.59 5.93c0,0 0.01,0.02 0.03,0.06 0.03,0.05 0.06,0.1 0.09,0.17 0.08,0.15 0.18,0.35 0.29,0.57 0.11,0.22 0.21,0.43 0.28,0.57 0.03,0.07 0.06,0.13 0.08,0.18 0.02,0.04 0.03,0.06 0.03,0.06 0,0 -0.02,-0.02 -0.04,-0.06 -0.02,-0.04 -0.05,-0.1 -0.09,-0.17 -0.07,-0.14 -0.17,-0.35 -0.28,-0.57 -0.11,-0.22 -0.21,-0.42 -0.28,-0.57 -0.04,-0.07 -0.06,-0.13 -0.08,-0.17 -0.02,-0.04 -0.03,-0.07 -0.03,-0.07z"/>
   <path class="fil1" d="M19.38 7.5c0,0 0.03,0 0.07,0 0.06,0 0.13,0 0.21,0.01 0.17,0 0.42,0.01 0.68,0.01 0.27,0 0.51,0 0.68,-0.01 0.08,0 0.15,0 0.21,0 0.05,0 0.07,0 0.07,0 0,0 -0.02,0.01 -0.07,0.01 -0.05,0 -0.12,0.01 -0.21,0.01 -0.17,0.01 -0.41,0.02 -0.68,0.02 -0.27,0 -0.51,-0.02 -0.68,-0.03 -0.09,0 -0.16,-0.01 -0.21,-0.01 -0.04,-0.01 -0.07,-0.01 -0.07,-0.01z"/>
   <polygon class="fil1" points="2.32,17.26 1.98,17.27 1.89,2.05 2.24,2.05 "/>
   <polygon class="fil1" points="3.14,17.26 2.8,17.26 2.71,2.04 3.06,2.04 "/>
   <polygon class="fil1" points="10.3,17.22 9.96,17.22 9.88,2.01 10.22,2 "/>
   <polygon class="fil1" points="11.12,17.22 10.78,17.22 10.7,2 11.04,2 "/>
   <polygon class="fil1" points="11.04,2.35 1.9,2.4 1.89,2.05 11.04,2 "/>
   <polygon class="fil1" points="11.06,5.23 1.91,5.28 1.91,5.17 11.06,5.12 "/>
   <polygon class="fil1" points="11.07,8.17 1.93,8.22 1.93,8.12 11.07,8.07 "/>
   <polygon class="fil1" points="11.09,11.12 1.94,11.17 1.94,11.06 11.09,11.01 "/>
   <polygon class="fil1" points="11.1,14.06 1.96,14.11 1.96,14.01 11.1,13.96 "/>
   <polygon class="fil0" points="7.29,13.98 5.67,13.99 5.66,12.27 7.28,12.26 "/>
   <polygon class="fil2" points="8.9,13.97 7.28,13.98 7.27,12.26 8.89,12.25 "/>
   <path class="fil1" d="M5.66 12.74c1.08,0.01 2.16,0 3.24,-0.02 0.01,0 0.01,-0.02 0,-0.02 -1.08,-0.01 -2.16,0 -3.24,0.02 -0.01,0 -0.01,0.02 0,0.02z"/>
   <polygon class="fil0" points="6.82,7.05 5.63,7.06 5.63,5.8 6.81,5.79 "/>
   <polygon class="fil2" points="8,7.04 6.81,7.05 6.81,5.79 7.99,5.78 "/>
   <path class="fil1" d="M5.63 6.14c0.79,0.01 1.58,0.01 2.37,-0.01 0.01,0 0.01,-0.02 0,-0.02 -0.79,-0.01 -1.58,0 -2.37,0.01 -0.02,0 -0.01,0.02 0,0.02z"/>
   <polygon class="fil0" points="7.05,8.05 4.89,8.07 4.89,7.04 7.04,7.03 "/>
   <polygon class="fil2" points="9.19,8.04 7.04,8.05 7.03,7.03 9.19,7.02 "/>
   <path class="fil1" d="M4.89 7.33c1.43,0.01 2.87,0 4.3,-0.03 0.02,0 0.02,-0.02 0,-0.02 -1.43,-0.01 -2.87,-0.01 -4.3,0.02 -0.02,0 -0.02,0.03 0,0.03z"/>
   <polygon class="fil0" points="5.5,5.16 4.96,5.16 4.95,3.05 5.49,3.05 "/>
   <polygon class="fil1" points="4.95,5.16 4.41,5.16 4.4,3.62 4.94,3.62 "/>
   <polygon class="fil1" points="6.35,5.15 5.51,5.15 5.5,3.44 6.34,3.44 "/>
   <polygon class="fil0" points="6.6,5.15 6.33,5.15 6.33,3.44 6.59,3.44 "/>
   <polygon class="fil1" points="6.87,5.15 6.6,5.15 6.59,3.83 6.86,3.83 "/>
   <polygon class="fil1" points="4.62,11.06 4.12,10.86 4.87,9.02 5.37,9.23 "/>
   <polygon class="fil0" points="5.85,11.05 5.31,11.06 5.3,8.95 5.84,8.94 "/>
   <polygon class="fil1" points="6.97,11.04 6.13,11.05 6.12,9.34 6.96,9.33 "/>
   <polygon class="fil0" points="6.13,11.05 5.95,11.05 5.93,8.7 6.12,8.7 "/>
   <polygon class="fil2" points="5.95,11.05 5.85,11.05 5.84,9.07 5.94,9.07 "/>
   <polygon class="fil2" points="8.96,10.95 8.96,11.04 6.98,11.05 6.98,10.96 "/>
   <polygon class="fil0" points="9.13,10.94 6.97,10.96 6.97,10.41 9.13,10.4 "/>
   <polygon class="fil1" points="8.7,10.4 6.97,10.4 6.97,9.86 8.7,9.85 "/>
   <path class="fil3" d="M26.96 17.27c0,0.01 -6.04,0.01 -13.48,0.01 -7.45,0 -13.48,0 -13.48,-0.01 0,-0.01 6.03,-0.02 13.48,-0.02 7.44,0 13.48,0.01 13.48,0.02z"/>
   <path class="fil4" d="M18.25 17.25l-9.8 0c-0.38,0 -0.68,-0.31 -0.68,-0.69l0 -15.87c0,-0.38 0.3,-0.69 0.68,-0.69l9.8 0c0.38,0 0.69,0.31 0.69,0.69l0 15.87c0,0.38 -0.31,0.69 -0.69,0.69z"/>
   <path class="fil3" d="M13.7 16.45c0,0.25 -0.2,0.46 -0.43,0.46 -0.24,0 -0.43,-0.21 -0.43,-0.46 0,-0.26 0.19,-0.46 0.43,-0.46 0.23,0 0.43,0.2 0.43,0.46z"/>
   <polygon class="fil3" points="8.15,15.54 18.62,15.54 18.62,0.99 8.15,0.99 "/>
   <path class="fil5" d="M15.9 14.04c0,0 0.01,0 0.04,0 0.02,0 0.06,-0.01 0.11,-0.02 0.05,-0.01 0.11,-0.02 0.17,-0.06 0.07,-0.03 0.14,-0.07 0.21,-0.14 0.06,-0.07 0.13,-0.15 0.17,-0.26 0.04,-0.11 0.06,-0.23 0.05,-0.36 -0.02,-0.14 -0.07,-0.28 -0.16,-0.39 -0.09,-0.12 -0.23,-0.22 -0.39,-0.27 -0.04,-0.01 -0.08,-0.01 -0.12,-0.02 -0.04,0 -0.09,0 -0.13,0 -0.09,0 -0.18,0 -0.27,0 -0.19,0 -0.38,0 -0.58,0 -0.4,0 -0.82,0 -1.27,0 -0.9,0 -1.88,0 -2.91,0 -0.13,0 -0.26,0.03 -0.37,0.09 -0.1,0.07 -0.2,0.15 -0.26,0.26 -0.07,0.1 -0.11,0.22 -0.11,0.34 -0.01,0.13 0,0.25 0.05,0.36 0.05,0.11 0.12,0.21 0.21,0.28 0.09,0.08 0.19,0.13 0.31,0.16 0.11,0.02 0.22,0.01 0.34,0.02 0.11,0 0.23,0 0.34,0 0.89,0 1.7,0 2.38,0 0.67,0 1.22,0 1.6,0 0.19,0.01 0.34,0.01 0.44,0.01 0.05,0 0.08,0 0.11,0 0.03,0 0.04,0 0.04,0 0,0 -0.01,0 -0.04,0 -0.03,0 -0.06,0 -0.11,0 -0.1,0 -0.25,0.01 -0.44,0.01 -0.38,0 -0.93,0 -1.6,0 -0.68,0 -1.49,0 -2.38,0.01 -0.11,0 -0.23,0 -0.34,0 -0.06,0 -0.12,0 -0.17,0 -0.03,-0.01 -0.06,-0.01 -0.09,-0.01 -0.03,-0.01 -0.06,-0.01 -0.09,-0.02 -0.12,-0.02 -0.23,-0.08 -0.32,-0.16 -0.09,-0.07 -0.17,-0.18 -0.22,-0.29 -0.05,-0.12 -0.06,-0.24 -0.05,-0.37 0,-0.12 0.04,-0.25 0.11,-0.36 0.07,-0.11 0.17,-0.2 0.28,-0.26 0.11,-0.07 0.24,-0.1 0.38,-0.1 1.03,0 2.01,0 2.91,0 0.45,0 0.87,0 1.27,0 0.2,0 0.39,0 0.58,0 0.09,0 0.18,0 0.27,0 0.04,0 0.09,0.01 0.13,0.01 0.04,0 0.09,0.01 0.13,0.02 0.16,0.05 0.3,0.15 0.4,0.27 0.09,0.13 0.14,0.27 0.15,0.4 0.01,0.14 -0.01,0.27 -0.05,0.38 -0.04,0.1 -0.11,0.19 -0.18,0.26 -0.06,0.06 -0.14,0.11 -0.2,0.14 -0.07,0.03 -0.13,0.05 -0.18,0.06 -0.05,0.01 -0.09,0.01 -0.11,0.01 -0.03,0 -0.04,0 -0.04,0z"/>
   <path class="fil5" d="M12.04 13.17l-0.04 0.05c-0.02,-0.03 -0.06,-0.05 -0.1,-0.05 -0.08,0 -0.14,0.06 -0.14,0.13 0,0.08 0.06,0.13 0.14,0.13 0.04,0 0.07,-0.01 0.1,-0.04l0.04 0.04c-0.04,0.04 -0.09,0.06 -0.14,0.06 -0.11,0 -0.2,-0.08 -0.2,-0.19 0,-0.1 0.09,-0.19 0.2,-0.19 0.05,0 0.1,0.03 0.14,0.06z"/>
   <path class="fil5" d="M12.13 13.3c0,0.08 0.06,0.14 0.14,0.14 0.07,0 0.13,-0.06 0.13,-0.14 0,-0.07 -0.06,-0.13 -0.13,-0.13 -0.08,0 -0.14,0.06 -0.14,0.13zm0.33 0c0,0.11 -0.08,0.19 -0.2,0.19 -0.11,0 -0.19,-0.08 -0.19,-0.19 0,-0.1 0.08,-0.19 0.19,-0.19 0.12,0 0.2,0.09 0.2,0.19z"/>
   <polygon class="fil5" points="12.79,13.49 12.59,13.22 12.59,13.49 12.53,13.49 12.53,13.12 12.59,13.12 12.79,13.39 12.79,13.12 12.86,13.12 12.86,13.49 "/>
   <polygon class="fil5" points="13.02,13.17 13.02,13.28 13.19,13.28 13.19,13.34 13.02,13.34 13.02,13.49 12.96,13.49 12.96,13.12 13.21,13.12 13.21,13.17 "/>
   <polygon class="fil5" points="13.26,13.49 13.33,13.49 13.33,13.12 13.26,13.12 "/>
   <path class="fil5" d="M13.58 13.32c0.06,0 0.09,-0.02 0.09,-0.07 0,-0.05 -0.03,-0.08 -0.09,-0.08l-0.09 0 0 0.15 0.09 0zm0.02 0.06c-0.01,0 -0.02,0 -0.02,0l-0.09 0 0 0.11 -0.06 0 0 -0.37 0.15 0c0.09,0 0.15,0.04 0.15,0.12 0,0.06 -0.03,0.11 -0.08,0.13l0.09 0.12 -0.08 0 -0.06 -0.11z"/>
   <polygon class="fil5" points="14.15,13.49 14.15,13.21 14.03,13.45 13.99,13.45 13.87,13.21 13.87,13.49 13.81,13.49 13.81,13.12 13.89,13.12 14.01,13.37 14.14,13.12 14.21,13.12 14.21,13.49 "/>
   <polygon class="fil5" points="14.37,13.17 14.37,13.27 14.56,13.27 14.56,13.33 14.37,13.33 14.37,13.43 14.58,13.43 14.58,13.49 14.31,13.49 14.31,13.12 14.58,13.12 14.58,13.17 "/>
   <path class="fil5" d="M14.72 13.43l0.1 0c0.07,0 0.12,-0.05 0.12,-0.13 0,-0.07 -0.05,-0.13 -0.13,-0.13l-0.09 0 0 0.26zm0.09 -0.31c0.12,0 0.2,0.07 0.2,0.18 0,0.11 -0.08,0.19 -0.2,0.19l-0.15 0 0 -0.37 0.15 0z"/>
   <polygon class="fil6" points="9.34,6.06 17.27,6.01 17.49,11.4 9.28,11.32 "/>
   <polygon class="fil7" points="9.34,6.06 13.36,2.81 17.27,6.01 "/>
   <polygon class="fil6" points="9.34,6.06 13.36,2.81 17.27,6.01 "/>
   <path class="fil3" d="M9.28 11.32c-0.01,-0.01 0.62,-0.7 1.41,-1.55 0.8,-0.84 1.45,-1.52 1.46,-1.51 0.01,0.01 -0.63,0.7 -1.42,1.55 -0.79,0.84 -1.44,1.52 -1.45,1.51z"/>
   <path class="fil3" d="M17.49 11.4c-0.01,0.01 -0.63,-0.67 -1.38,-1.52 -0.75,-0.85 -1.36,-1.54 -1.35,-1.55 0.01,-0.01 0.63,0.67 1.38,1.52 0.76,0.84 1.36,1.54 1.35,1.55z"/>
   <path class="fil8" d="M13.29 9.19l-1.15 -0.91c0.01,-0.01 0.01,-0.02 0.01,-0.02 0,0 0,0 0,0 0,0 -0.01,0 -0.02,0.01l-2.79 -2.21 7.93 -0.05 -3.98 3.18z"/>
   <path class="fil9" d="M12.14 8.28l-0.01 -0.01c0.01,-0.01 0.02,-0.01 0.02,-0.01 0,0 0,0 0,0 0,0 0,0.01 -0.01,0.02z"/>
   <polygon class="fil0" points="9.74,6.36 9.73,4.05 16.67,3.88 16.75,6.41 13.29,9.15 "/>
   <path class="fil6" d="M13.38 4.92c-0.84,0 -1.56,0.63 -1.66,1.48 -0.05,0.44 0.08,0.88 0.35,1.23 0.28,0.35 0.68,0.57 1.12,0.62 0.44,0.05 0.88,-0.08 1.23,-0.36 0.35,-0.27 0.57,-0.67 0.62,-1.11 0.05,-0.45 -0.08,-0.88 -0.36,-1.23 -0.27,-0.35 -0.67,-0.57 -1.11,-0.62 -0.07,-0.01 -0.13,-0.01 -0.19,-0.01zm0 3.4c-0.06,0 -0.13,-0.01 -0.2,-0.01 -0.45,-0.06 -0.87,-0.28 -1.15,-0.65 -0.29,-0.36 -0.42,-0.81 -0.37,-1.27 0.11,-0.94 0.97,-1.63 1.91,-1.52 0.46,0.05 0.87,0.28 1.16,0.64 0.29,0.36 0.42,0.81 0.37,1.27 -0.06,0.46 -0.28,0.87 -0.64,1.16 -0.31,0.25 -0.69,0.38 -1.08,0.38z"/>
   <polygon class="fil6" points="12.2,6.83 12.49,6.47 13.17,6.96 14.27,5.67 14.6,5.96 13.19,7.59 "/>
   <path class="fil3" d="M20.85 9.17c0.01,0.04 0.07,0.06 0.11,0.04 0.04,-0.02 0.05,-0.07 0.05,-0.12 -0.01,-0.04 -0.03,-0.08 -0.06,-0.12 0.07,0.04 0.17,0 0.19,-0.08 0.03,-0.08 -0.04,-0.17 -0.12,-0.17 0.05,-0.01 0.11,-0.02 0.16,-0.06 0.04,-0.04 0.06,-0.1 0.04,-0.15 -0.02,-0.06 -0.1,-0.08 -0.14,-0.03 0.03,-0.02 0.06,-0.04 0.08,-0.07 0.02,-0.03 0.02,-0.07 0,-0.1 -0.02,-0.03 -0.07,-0.03 -0.11,-0.02 -0.04,0.01 -0.07,0.04 -0.1,0.06 -0.09,0.05 -0.2,0.04 -0.28,-0.01l-0.22 0.19 0.4 0.64z"/>
   <path class="fil3" d="M19.67 8.16c-0.13,0.04 -0.22,0.15 -0.23,0.28 -0.01,0.05 0,0.1 0.03,0.14 0.04,0.04 0.1,0.05 0.15,0.04 0.06,-0.01 0.11,-0.04 0.15,-0.08 0.07,-0.05 0.14,-0.11 0.14,-0.18 0.01,-0.08 -0.04,-0.16 -0.11,-0.19 -0.07,-0.03 -0.16,-0.02 -0.23,0.01l0.1 -0.02z"/>
   <path class="fil3" d="M19.86 9.26c-0.02,0.08 -0.05,0.15 -0.1,0.22 -0.05,0.07 -0.12,0.12 -0.2,0.13 -0.08,0 -0.17,-0.04 -0.19,-0.12 -0.02,0.05 -0.05,0.08 -0.1,0.09 -0.05,0.02 -0.1,-0.01 -0.12,-0.05 -0.03,-0.04 -0.01,-0.1 0.03,-0.13 -0.05,0.03 -0.11,0.06 -0.15,0.03 -0.02,-0.01 -0.04,-0.03 -0.05,-0.06 -0.02,-0.07 0.03,-0.15 0.08,-0.21 0.05,-0.06 0.11,-0.12 0.12,-0.19 0.01,-0.07 -0.01,-0.13 -0.02,-0.19 -0.02,-0.07 -0.03,-0.14 -0.01,-0.21 0.01,-0.07 0.05,-0.13 0.11,-0.17 0.07,-0.03 0.15,-0.03 0.2,0.02l0.01 0.1 0.39 0.74z"/>
   <path class="fil10" d="M20.79 10.44c0,0 0.13,1.47 0.02,1.66 -0.12,0.19 -1.55,2.19 -1.55,2.19l0.01 0c-0.03,0.01 -0.06,0.02 -0.1,0.04 -0.05,0.01 -0.1,0.02 -0.15,0.02 -0.06,0 -0.15,0 -0.2,-0.02 -0.05,-0.01 -0.1,0.04 -0.07,0.09 0.03,0.05 0.18,0.1 0.38,0.09 0.19,-0.02 -0.03,0.19 -0.1,0.27 -0.08,0.08 -0.31,0.34 -0.31,0.38 0.01,0.07 0.08,0.07 0.16,-0.01 0.07,-0.08 0.32,-0.31 0.36,-0.27 0.04,0.04 -0.36,0.45 -0.36,0.45 0,0 -0.1,0.07 -0.06,0.12 0.08,0.09 0.48,-0.37 0.52,-0.41 0.02,-0.03 0.07,0.01 0.04,0.05 -0.03,0.03 -0.41,0.39 -0.33,0.48 0.06,0.08 0.33,-0.37 0.45,-0.4 0.12,-0.03 -0.24,0.32 -0.18,0.38 0.03,0.03 0.05,0.04 0.22,-0.19 0.1,-0.12 0.26,-0.4 0.39,-0.62 0.19,-0.2 2.03,-2.21 2.05,-2.59 0.01,-0.39 0.08,-1.73 0.08,-1.73l-1.27 0.02z"/>
   <path class="fil6" d="M18.58 16.97l-0.02 -0.54 1.02 -0.04 0.04 0.8 -0.07 0c-0.28,0.03 -1.43,0.12 -1.62,0.07 -0.21,-0.06 0.65,-0.29 0.65,-0.29z"/>
   <path class="fil5" d="M17.92 17.25c0,0 0,0 -0.01,0 0,0 -0.01,0 -0.01,0l0.01 0c0,0 0.01,0 0.01,0z"/>
   <path class="fil11" d="M17.94 17.26c-0.01,0 -0.02,0 -0.03,-0.01 0.01,0 0.01,0 0.01,0 0,0.01 0.01,0.01 0.01,0.01 0.01,0 0.01,0 0.01,0z"/>
   <path class="fil12" d="M17.91 17.25l-0.01 0c0,0 0,0 0,0 -0.01,-0.01 0,-0.02 0,-0.02 0,0 0,0.01 0.01,0.02z"/>
   <path class="fil5" d="M18.73 17.25c-0.01,0 -0.01,0 -0.02,0 0.35,-0.01 0.7,-0.04 0.84,-0.06l0.07 0c-0.22,0.03 -0.57,0.05 -0.89,0.06z"/>
   <path class="fil11" d="M18.64 17.26c0.02,0 0.05,0 0.07,-0.01 0.01,0 0.01,0 0.02,0 -0.03,0.01 -0.06,0.01 -0.09,0.01z"/>
   <path class="fil12" d="M18.09 17.12c0.04,-0.01 0.06,-0.02 0.07,-0.02 -0.02,0.01 -0.05,0.02 -0.07,0.02z"/>
   <path class="fil13" d="M18.18 17.27c-0.1,0 -0.19,0 -0.24,-0.01 0,0 0,0 -0.01,0 0,0 -0.01,0 -0.01,-0.01 0,0 -0.01,0 -0.01,0 -0.01,-0.01 -0.01,-0.02 -0.01,-0.02 0.02,-0.04 0.12,-0.08 0.19,-0.11 0.02,0 0.05,-0.01 0.07,-0.02 0,0 0,0 0,0 0.06,0 0.1,0.13 0.1,0.13l0.99 -0.05c0,0.01 0,0.01 0,0.01l0 0c0,0 0,0 0,-0.01l0.36 -0.01 0.01 0.02 -0.07 0c-0.14,0.02 -0.49,0.05 -0.84,0.06 -0.02,0.01 -0.05,0.01 -0.07,0.01 -0.17,0 -0.33,0.01 -0.46,0.01z"/>
   <path class="fil3" d="M19.63 17.16c0,0 -0.01,0.01 -0.02,0.01 -0.01,0 -0.03,0 -0.05,0 -0.05,0.01 -0.11,0.01 -0.18,0.02 -0.16,0.01 -0.38,0.02 -0.61,0.03 -0.24,0.01 -0.46,0.01 -0.62,0.01 -0.07,0 -0.13,0 -0.18,0 -0.02,0 -0.04,0 -0.05,0 -0.02,0 -0.02,0 -0.02,0 0,0 0,0 0.02,0 0.01,0 0.03,0 0.05,0 0.05,0 0.11,0 0.18,0 0.16,-0.01 0.38,-0.01 0.62,-0.02 0.23,-0.01 0.45,-0.02 0.61,-0.03 0.07,-0.01 0.13,-0.01 0.18,-0.01 0.02,0 0.04,-0.01 0.05,-0.01 0.01,0 0.02,0 0.02,0z"/>
   <path class="fil3" d="M18.26 17.24c-0.01,0 -0.01,-0.04 -0.04,-0.08 -0.03,-0.05 -0.07,-0.07 -0.07,-0.07 0,0 0.05,0.01 0.08,0.06 0.03,0.05 0.03,0.09 0.03,0.09z"/>
   <path class="fil3" d="M18.55 17.08c0,0 -0.02,-0.02 -0.03,-0.04 -0.02,-0.02 -0.03,-0.04 -0.03,-0.04 0.01,0 0.02,0.01 0.04,0.03 0.01,0.03 0.02,0.05 0.02,0.05z"/>
   <path class="fil3" d="M18.63 17.03c0,0.01 -0.02,0 -0.03,-0.02 -0.02,-0.01 -0.03,-0.03 -0.03,-0.03 0,0 0.02,0.01 0.03,0.02 0.02,0.02 0.04,0.03 0.03,0.03z"/>
   <path class="fil3" d="M18.68 16.93c0,0.01 -0.02,0.01 -0.05,0.01 -0.03,0 -0.05,0 -0.05,0 -0.01,0 0.02,-0.01 0.05,-0.01 0.03,0 0.05,0 0.05,0z"/>
   <path class="fil3" d="M18.7 16.87c0,0 -0.03,0.01 -0.06,0.02 -0.04,0 -0.06,-0.01 -0.06,-0.01 0,0 0.02,0 0.06,-0.01 0.03,0 0.06,-0.01 0.06,0z"/>
   <path class="fil3" d="M18.51 16.99c0,0 -0.02,0.01 -0.06,0 -0.02,0 -0.05,0 -0.07,-0.01 -0.01,0 -0.03,-0.01 -0.04,-0.01 -0.01,-0.01 -0.02,-0.01 -0.02,-0.02 0,-0.01 0,-0.02 0.01,-0.03 0.06,-0.03 0.12,0 0.15,0.03 0.01,0.02 0.02,0.03 0.02,0.04 0.01,0.01 0.01,0.02 0,0.02 0,0 0,-0.03 -0.03,-0.05 -0.01,-0.02 -0.03,-0.03 -0.05,-0.04 -0.03,0 -0.06,-0.01 -0.08,0.01 -0.01,0.01 -0.01,0.02 0,0.03 0.01,0 0.03,0.01 0.04,0.01 0.03,0.01 0.05,0.01 0.07,0.02 0.04,0 0.06,0 0.06,0z"/>
   <path class="fil3" d="M18.5 17c0,0 -0.01,-0.02 -0.01,-0.05 0,-0.01 0,-0.03 0.01,-0.05 0.02,-0.01 0.03,-0.03 0.06,-0.03 0.01,0 0.02,0.02 0.02,0.03 0,0.01 -0.01,0.02 -0.01,0.03 -0.01,0.01 -0.02,0.03 -0.03,0.04 -0.02,0.02 -0.04,0.03 -0.04,0.02 0,0 0.02,-0.01 0.03,-0.03 0.01,-0.01 0.02,-0.02 0.03,-0.04 0.01,-0.01 0.01,-0.04 0,-0.04 -0.02,0 -0.04,0.02 -0.05,0.03 -0.01,0.01 -0.01,0.03 -0.01,0.04 -0.01,0.03 0,0.05 0,0.05z"/>
   <path class="fil3" d="M19.6 16.89c0,0 -0.03,-0.01 -0.08,0 -0.04,0.01 -0.1,0.03 -0.16,0.07 -0.05,0.05 -0.08,0.11 -0.1,0.15 -0.01,0.05 -0.01,0.08 -0.01,0.08 0,0 0,-0.01 0,-0.02 0,-0.02 0,-0.04 0.01,-0.06 0.01,-0.04 0.04,-0.11 0.09,-0.15 0.06,-0.05 0.13,-0.07 0.17,-0.08 0.03,0 0.05,0 0.06,0 0.01,0 0.02,0 0.02,0.01z"/>
   <path class="fil3" d="M19.48 16.46c0,0 0.01,0.1 0.01,0.21 0.01,0.12 0.01,0.21 0.01,0.21 0,0 -0.01,-0.09 -0.02,-0.21 0,-0.11 -0.01,-0.21 0,-0.21z"/>
   <path class="fil3" d="M19.11 17.1c0.01,0 -0.06,0.02 -0.14,0.02 -0.09,0 -0.15,0 -0.15,-0.01 0,0 0.06,0 0.15,0 0.08,-0.01 0.14,-0.01 0.14,-0.01z"/>
   <path class="fil3" d="M19.31 17.09c0.01,0 0,0.02 -0.01,0.03 0,0.02 -0.01,0.03 -0.01,0.03 0,0 -0.01,-0.02 0,-0.03 0.01,-0.02 0.02,-0.03 0.02,-0.03z"/>
   <path class="fil3" d="M19.39 16.99c0,0.01 -0.01,0.02 -0.02,0.03 -0.01,0.01 -0.02,0.02 -0.02,0.01 0,0 0,-0.01 0.01,-0.02 0.01,-0.01 0.02,-0.02 0.03,-0.02z"/>
   <path class="fil3" d="M19.49 16.95c0,0 -0.01,0 -0.03,0.01 -0.01,0 -0.02,0.01 -0.02,0.01 -0.01,0 0,-0.02 0.02,-0.02 0.02,-0.01 0.03,-0.01 0.03,0z"/>
   <path class="fil3" d="M19.57 16.92c0,0.01 -0.01,0.01 -0.01,0.02 -0.01,0 -0.02,0 -0.02,0 0,-0.01 0,-0.01 0.01,-0.01 0.01,-0.01 0.02,-0.01 0.02,-0.01z"/>
   <path class="fil14" d="M18.58 16.88l-0.01 -0.12 0.01 0.12c0,0 0,0 0,0l0 0z"/>
   <path class="fil15" d="M18.58 16.88l-0.01 -0.12 0.92 0.03c0,0.03 0,0.05 0,0.07l-0.81 0.02c0.01,-0.01 0.02,-0.01 0.02,-0.01 0,0 0,0 -0.01,0 0,0 -0.03,0 -0.05,0 -0.03,0.01 -0.06,0.01 -0.06,0.01z"/>
   <path class="fil16" d="M18.58 16.88l0 0c0,0 0,0 0,0 0,0 0.03,0 0.06,-0.01 0.02,0 0.05,0 0.05,0 0.01,0 0.01,0 0.01,0 0,0 -0.01,0 -0.02,0.01l-0.1 0z"/>
   <polygon class="fil17" points="19.6,16.81 19.6,16.79 19.6,16.79 "/>
   <path class="fil15" d="M19.5 16.86c0,-0.02 0,-0.04 0,-0.07l0.1 0 0 0.02 0 0.05 -0.1 0z"/>
   <path class="fil16" d="M19.49 16.86c0,-0.02 0,-0.04 0,-0.07l0.01 0c0,0.03 0,0.05 0,0.07l-0.01 0z"/>
   <path class="fil3" d="M22.42 13.28l-3.22 -0.05c0,0 -0.9,0.09 -0.9,1.26l0.11 2.3 1.38 0 -0.1 -2.21c0.08,0 1.12,0.04 1.12,0.04l1.61 -1.34z"/>
   <path class="fil4" d="M18.41 16.79c0,0 0,-0.01 0,-0.04 0,-0.03 -0.01,-0.07 -0.01,-0.12 0,-0.1 -0.01,-0.24 -0.02,-0.42 -0.02,-0.35 -0.06,-0.84 -0.09,-1.38 -0.01,-0.27 -0.03,-0.53 0,-0.77 0.01,-0.06 0.02,-0.12 0.04,-0.17 0.01,-0.06 0.04,-0.11 0.06,-0.15 0.06,-0.09 0.12,-0.17 0.19,-0.23 0.07,-0.06 0.14,-0.1 0.2,-0.13 0.07,-0.03 0.12,-0.05 0.17,-0.06 0.03,-0.01 0.05,-0.01 0.07,-0.02 0.02,0 0.03,0 0.05,-0.01 0.02,0 0.04,0 0.04,0 0,0 -0.02,0 -0.04,0.01 -0.02,0 -0.03,0.01 -0.05,0.01 -0.02,0.01 -0.04,0.01 -0.06,0.02 -0.05,0.01 -0.11,0.03 -0.17,0.06 -0.06,0.04 -0.13,0.08 -0.2,0.14 -0.06,0.06 -0.13,0.13 -0.18,0.22 -0.02,0.05 -0.04,0.09 -0.06,0.15 -0.01,0.05 -0.02,0.11 -0.03,0.16 -0.03,0.23 -0.01,0.49 0,0.76 0.03,0.55 0.06,1.04 0.08,1.39 0.01,0.18 0.01,0.32 0.01,0.42 0,0.05 0,0.09 0,0.12 0,0.02 0,0.04 0,0.04z"/>
   <path class="fil6" d="M24.57 16.97l-0.54 0.04 -0.08 -1.02 0.8 -0.06 0.01 0.06c0.03,0.28 0.16,1.43 0.12,1.62 -0.05,0.22 -0.31,-0.64 -0.31,-0.64z"/>
   <path class="fil5" d="M24.86 17.65c-0.01,0 -0.01,0 -0.01,-0.01 0,0.01 0,0.01 0,0.01 0.01,0 0.02,-0.01 0.03,-0.04 0,0 0,0 0,-0.01 0,0.03 -0.01,0.04 -0.01,0.05 0,0 -0.01,0 -0.01,0zm-0.12 -0.19c-0.02,-0.04 -0.03,-0.07 -0.03,-0.07l0 0c0.01,0.02 0.02,0.05 0.03,0.07zm0.11 -0.55c-0.03,-0.37 -0.07,-0.77 -0.09,-0.92l-0.01 -0.06c0.04,0.24 0.08,0.63 0.1,0.98z"/>
   <path class="fil13" d="M24.85 17.65c0,0 0,0 0,-0.01 -0.04,-0.02 -0.08,-0.11 -0.11,-0.18 -0.01,-0.02 -0.02,-0.05 -0.03,-0.07 0,-0.06 0.13,-0.1 0.13,-0.1l-0.11 -1.36 0.02 0 0 0 0.01 0.06c0.02,0.15 0.06,0.55 0.09,0.92 0.03,0.31 0.04,0.59 0.03,0.69 0,0.01 0,0.01 0,0.01 -0.01,0.03 -0.02,0.04 -0.03,0.04z"/>
   <path class="fil3" d="M24.72 15.92c0,0 0,0 0.01,0.02 0,0.01 0,0.03 0,0.05 0.01,0.05 0.02,0.11 0.02,0.18 0.02,0.16 0.04,0.37 0.06,0.61 0.02,0.24 0.03,0.46 0.04,0.61 0,0.08 0,0.14 0,0.19 0,0.02 0,0.03 0,0.05 0,0.01 0,0.02 0,0.02 0,0 0,-0.01 0,-0.02 0,-0.02 0,-0.03 0,-0.05 -0.01,-0.05 -0.01,-0.11 -0.01,-0.19 -0.01,-0.15 -0.02,-0.37 -0.04,-0.61 -0.02,-0.24 -0.04,-0.45 -0.05,-0.61 -0.01,-0.07 -0.02,-0.13 -0.02,-0.18 0,-0.02 0,-0.04 -0.01,-0.05 0,-0.02 0,-0.02 0,-0.02z"/>
   <path class="fil3" d="M24.85 17.29c0,0 -0.04,0.01 -0.08,0.04 -0.05,0.03 -0.07,0.07 -0.07,0.07 0,0 0.01,-0.05 0.06,-0.08 0.04,-0.03 0.09,-0.03 0.09,-0.03z"/>
   <path class="fil3" d="M24.68 17c0,0 -0.02,0.02 -0.04,0.03 -0.02,0.02 -0.04,0.03 -0.04,0.03 -0.01,0 0.01,-0.02 0.03,-0.04 0.03,-0.01 0.05,-0.02 0.05,-0.02z"/>
   <path class="fil3" d="M24.63 16.92c0,0 -0.01,0.02 -0.02,0.04 -0.02,0.02 -0.03,0.03 -0.03,0.03 -0.01,0 0,-0.02 0.02,-0.04 0.01,-0.02 0.03,-0.03 0.03,-0.03z"/>
   <path class="fil3" d="M24.53 16.87c0,0 0.01,0.03 0.01,0.06 0,0.03 0,0.05 0,0.05 -0.01,0 -0.01,-0.02 -0.01,-0.05 -0.01,-0.03 -0.01,-0.05 0,-0.06z"/>
   <path class="fil3" d="M24.46 16.86c0,0 0.02,0.03 0.02,0.06 0.01,0.03 0,0.06 0,0.06 -0.01,0 -0.01,-0.03 -0.01,-0.06 -0.01,-0.03 -0.01,-0.06 -0.01,-0.06z"/>
   <path class="fil3" d="M24.59 17.04c0,0 0.01,0.03 0.01,0.07 -0.01,0.02 -0.01,0.04 -0.01,0.07 -0.01,0.01 -0.01,0.02 -0.02,0.04 0,0 -0.01,0.01 -0.02,0.02 -0.01,0 -0.02,-0.01 -0.02,-0.01 -0.04,-0.06 -0.01,-0.13 0.02,-0.15 0.02,-0.02 0.03,-0.02 0.04,-0.03 0.01,0 0.02,0 0.02,0 0,0 -0.03,0.01 -0.05,0.03 -0.02,0.02 -0.03,0.04 -0.04,0.06 0,0.02 0,0.06 0.01,0.08 0.01,0.01 0.03,0 0.03,-0.01 0.01,-0.01 0.01,-0.02 0.01,-0.04 0.01,-0.02 0.01,-0.05 0.02,-0.06 0,-0.04 0,-0.07 0,-0.07z"/>
   <path class="fil3" d="M24.6 17.06c0,0 -0.02,0.01 -0.05,0.01 -0.01,0 -0.03,-0.01 -0.05,-0.02 -0.01,-0.01 -0.03,-0.02 -0.04,-0.05 0.01,-0.01 0.02,-0.02 0.03,-0.02 0.01,0 0.02,0 0.03,0.01 0.02,0.01 0.03,0.02 0.04,0.03 0.03,0.02 0.04,0.03 0.03,0.03 0,0 -0.01,-0.01 -0.03,-0.03 -0.01,-0.01 -0.03,-0.01 -0.04,-0.02 -0.02,-0.01 -0.04,-0.01 -0.04,0 0,0.02 0.01,0.03 0.03,0.04 0.01,0.01 0.03,0.02 0.04,0.02 0.02,0 0.03,0 0.03,0 0.01,0 0.02,0 0.02,0z"/>
   <path class="fil3" d="M24.45 15.96c0,0 0,0.03 0,0.07 0.01,0.05 0.04,0.11 0.08,0.16 0.05,0.06 0.11,0.08 0.16,0.1 0.04,0.01 0.07,0.01 0.07,0.01 0,0 -0.01,0 -0.02,0 -0.01,0 -0.03,0 -0.06,-0.01 -0.04,-0.01 -0.1,-0.03 -0.16,-0.09 -0.05,-0.05 -0.07,-0.12 -0.07,-0.16 -0.01,-0.03 -0.01,-0.05 -0.01,-0.06 0,-0.01 0.01,-0.02 0.01,-0.02z"/>
   <path class="fil3" d="M24.03 16.1c0,-0.01 0.09,-0.02 0.21,-0.03 0.11,-0.01 0.21,-0.01 0.21,-0.01 0,0 -0.09,0.01 -0.21,0.02 -0.12,0.01 -0.21,0.02 -0.21,0.02z"/>
   <path class="fil3" d="M24.68 16.44c0,0 0.02,0.06 0.02,0.14 0.01,0.09 0,0.15 0,0.15 0,0 0,-0.06 -0.01,-0.14 -0.01,-0.09 -0.02,-0.15 -0.01,-0.15z"/>
   <path class="fil3" d="M24.66 16.24c0,-0.01 0.02,0 0.03,0.01 0.02,0 0.03,0.01 0.03,0.01 0,0 -0.01,0.01 -0.03,0 -0.02,-0.01 -0.03,-0.02 -0.03,-0.02z"/>
   <path class="fil3" d="M24.56 16.17c0,0 0.02,0 0.03,0.01 0.01,0.01 0.02,0.02 0.01,0.02 0,0.01 -0.01,0 -0.02,-0.01 -0.01,-0.01 -0.02,-0.02 -0.02,-0.02z"/>
   <path class="fil3" d="M24.51 16.06c0.01,0 0.01,0.02 0.01,0.03 0.01,0.02 0.02,0.03 0.02,0.03 -0.01,0 -0.02,0 -0.03,-0.02 -0.01,-0.02 0,-0.04 0,-0.04z"/>
   <path class="fil3" d="M24.49 15.99c0,0 0,0 0.01,0.01 0,0.01 0,0.02 0,0.02 0,0 -0.01,-0.01 -0.01,-0.01 -0.01,-0.01 -0.01,-0.02 0,-0.02z"/>
   <path class="fil17" d="M24.35 16.99l0 0 0.13 -0.01c0,0 0,0 0,0l0 0 -0.13 0.01z"/>
   <path class="fil15" d="M24.35 16.99l0 -0.92c0.03,0 0.06,0 0.07,0l0.05 0.81c0,-0.01 -0.01,-0.02 -0.01,-0.02 0,0 0,0 0,0 0,0 0,0.03 0.01,0.06 0,0.03 0,0.06 0.01,0.06l-0.13 0.01z"/>
   <path class="fil16" d="M24.48 16.98c0,0 0,0 0,0 -0.01,0 -0.01,-0.03 -0.01,-0.06 -0.01,-0.03 -0.01,-0.06 -0.01,-0.06 0,0 0,0 0,0 0,0 0.01,0.01 0.01,0.02l0.01 0.1z"/>
   <polygon class="fil17" points="24.35,15.96 24.35,15.96 24.37,15.96 "/>
   <path class="fil15" d="M24.35 16.06l0 -0.1 0.02 0 0.05 0 0 0.1c-0.01,0 -0.04,0 -0.07,0z"/>
   <path class="fil16" d="M24.35 16.07l0 -0.01c0.03,0 0.06,0 0.07,0l0 0.01c-0.01,0 -0.04,0 -0.07,0z"/>
   <path class="fil3" d="M21.23 15.97l0 0c0,0 2.75,-1.5 3.07,-1.99 0.32,-0.51 0.09,-0.98 0.09,-0.98l-2.32 0.31 -1.64 1.65c-0.36,0.28 -1.01,0.88 -1.01,1.46 0,1 1.3,0.84 2.23,0.84 1.27,0 2.7,0.01 2.7,0.01l0 -1.36 -3.12 0.06z"/>
   <path class="fil4" d="M20.58 16.25c0,0.01 0.16,-0.05 0.34,-0.13 0.18,-0.08 0.33,-0.15 0.33,-0.16 -0.01,0 -0.16,0.06 -0.34,0.14 -0.19,0.08 -0.33,0.15 -0.33,0.15z"/>
   <path class="fil4" d="M20.8 15.92c0,0.01 0.1,0.02 0.24,0.02 0.13,0 0.24,0 0.24,-0.01 0,0 -0.11,-0.01 -0.24,-0.02 -0.13,0 -0.24,0 -0.24,0.01z"/>
   <path class="fil4" d="M21.89 13.54c0,0 -0.01,0.01 -0.02,0.03 -0.02,0.02 -0.05,0.05 -0.08,0.08 -0.07,0.07 -0.17,0.16 -0.29,0.28 -0.26,0.24 -0.6,0.56 -0.98,0.92 -0.19,0.18 -0.37,0.35 -0.53,0.51 -0.16,0.16 -0.29,0.31 -0.38,0.46 -0.09,0.14 -0.14,0.28 -0.16,0.37 0,0.02 -0.01,0.04 -0.01,0.06 0,0.02 -0.01,0.03 -0.01,0.05 0,0.02 0,0.03 0,0.03 -0.01,0 -0.01,-0.01 0,-0.04 0,-0.01 0,-0.02 0,-0.04 0,-0.02 0.01,-0.04 0.01,-0.07 0.02,-0.09 0.06,-0.23 0.15,-0.37 0.09,-0.15 0.22,-0.31 0.38,-0.47 0.16,-0.17 0.34,-0.33 0.53,-0.51 0.38,-0.36 0.73,-0.68 0.98,-0.92 0.12,-0.11 0.23,-0.2 0.3,-0.27 0.03,-0.03 0.06,-0.06 0.08,-0.07 0.02,-0.02 0.03,-0.03 0.03,-0.03z"/>
   <path class="fil18" d="M21.07 10.56c-0.25,0.13 -0.56,0.02 -0.66,-0.24 -0.06,-0.14 -0.11,-0.25 -0.11,-0.25 0,0 -0.35,0.12 -0.53,-0.2 -0.11,-0.18 -0.25,-0.5 -0.35,-0.74 -0.09,-0.2 -0.07,-0.43 0.05,-0.61 0.29,-0.37 0.53,-0.31 0.99,-0.23l0.07 0.01 0.74 1.65c0.1,0.22 0.01,0.49 -0.2,0.61z"/>
   <path class="fil3" d="M19.64 9.3c0.01,-0.03 0,-0.06 -0.03,-0.07 -0.03,-0.01 -0.06,0 -0.07,0.03 -0.01,0.03 0.01,0.06 0.03,0.07 0.03,0.01 0.06,-0.01 0.07,-0.03z"/>
   <path class="fil3" d="M19.5 9.24c0,0 0.02,-0.04 0.07,-0.06 0.04,-0.03 0.09,-0.02 0.09,-0.03 0,0 -0.01,-0.01 -0.03,-0.02 -0.02,0 -0.05,0 -0.08,0.02 -0.03,0.02 -0.04,0.04 -0.05,0.06 -0.01,0.02 -0.01,0.03 0,0.03z"/>
   <path class="fil3" d="M20.03 9.03c-0.01,0.03 0,0.06 0.02,0.07 0.03,0.02 0.06,0.01 0.08,-0.02 0.01,-0.02 0,-0.06 -0.02,-0.07 -0.03,-0.02 -0.06,-0.01 -0.08,0.02z"/>
   <path class="fil3" d="M19.99 9.02c0.01,0 0.03,-0.04 0.07,-0.07 0.05,-0.02 0.09,-0.02 0.09,-0.02 0,-0.01 -0.01,-0.02 -0.03,-0.02 -0.02,0 -0.05,0 -0.07,0.02 -0.03,0.01 -0.05,0.04 -0.06,0.05 -0.01,0.02 0,0.04 0,0.04z"/>
   <path class="fil3" d="M20.03 9.5c0,-0.01 -0.04,0 -0.08,0.02 -0.02,0 -0.03,0.01 -0.03,0 -0.01,-0.01 -0.01,-0.02 -0.01,-0.04 -0.01,-0.03 -0.01,-0.07 -0.01,-0.11 -0.03,-0.16 -0.05,-0.28 -0.06,-0.28 -0.01,0 0,0.13 0.03,0.29 0,0.03 0.01,0.07 0.01,0.11 0.01,0.01 0.01,0.03 0.02,0.05 0.01,0.01 0.02,0.01 0.03,0.01 0.01,-0.01 0.02,-0.01 0.02,-0.01 0.05,-0.03 0.08,-0.04 0.08,-0.04z"/>
   <path class="fil10" d="M20.3 10.06c0,0 0.22,-0.09 0.36,-0.35 0,0 0.03,0.29 -0.32,0.44l-0.04 -0.09z"/>
   <path class="fil18" d="M20.68 8.66c0,0 0.26,-0.15 0.33,0.13 0.07,0.24 -0.2,0.28 -0.21,0.27 0,-0.01 -0.12,-0.4 -0.12,-0.4z"/>
   <path class="fil10" d="M20.85 8.92c0,0 0.01,0 0.01,0 0.01,0 0.02,0 0.04,-0.01 0.02,-0.02 0.02,-0.06 0.01,-0.1 -0.01,-0.03 -0.02,-0.04 -0.03,-0.06 -0.02,-0.01 -0.03,-0.02 -0.05,-0.02 -0.01,0 -0.02,0.01 -0.02,0.02 0,0.01 0.01,0.01 0.01,0.01 0,0.01 -0.01,0 -0.01,-0.01 0,0 0,-0.01 0,-0.02 0.01,0 0.01,-0.01 0.02,-0.01 0.02,-0.01 0.04,0.01 0.06,0.02 0.01,0.02 0.03,0.04 0.03,0.06 0.02,0.05 0.01,0.1 -0.02,0.12 -0.01,0.01 -0.03,0.01 -0.04,0.01 -0.01,0 -0.01,-0.01 -0.01,-0.01z"/>
   <path class="fil6" d="M20.56 10.52c0,0 0.64,-1.08 1.63,-0.17 0.64,0.59 1.7,1.8 2.07,2.28 0.09,0.11 0.22,0.27 0.13,0.37 -0.28,0.3 -1.05,0.99 -2.48,0.48l-1.35 -1.88c-0.23,-0.33 -0.23,-0.76 0,-1.08z"/>
   <polygon class="fil7" points="21.38,10.01 21.2,9.71 20.27,10.44 20.45,10.72 "/>
   <path class="fil15" d="M20.6 10.66c0,0 0,0 0,0 0,0 -0.02,-0.01 -0.04,-0.03l0.64 -0.49 0.14 -0.1c0,0 -0.72,0.62 -0.74,0.62z"/>
   <path class="fil15" d="M20.56 10.63c-0.08,-0.06 -0.25,-0.18 -0.25,-0.18l0.26 0.14 0.63 -0.45 -0.64 0.49z"/>
   <path class="fil3" d="M21.38 10c0,0 -0.01,0.01 -0.04,0.03 -0.03,0.02 -0.07,0.04 -0.12,0.08 -0.1,0.07 -0.23,0.16 -0.38,0.27 -0.1,0.08 -0.2,0.15 -0.28,0.2l0.01 0c-0.08,-0.04 -0.16,-0.08 -0.21,-0.11 -0.05,-0.02 -0.08,-0.04 -0.08,-0.04 0,0.01 0.03,0.02 0.08,0.05 0.05,0.03 0.12,0.07 0.2,0.12l0.01 0.01 0 -0.01c0.09,-0.05 0.18,-0.12 0.28,-0.19 0.15,-0.11 0.28,-0.21 0.38,-0.29 0.04,-0.03 0.08,-0.06 0.11,-0.08 0.03,-0.02 0.05,-0.04 0.04,-0.04z"/>
   <path class="fil18" d="M17.45 12.82l-0.18 -0.07c0,0 -0.11,-0.03 -0.29,-0.11 -0.05,-0.03 -0.09,-0.06 -0.13,-0.1 -0.05,-0.04 -0.1,-0.1 -0.13,-0.15 -0.02,-0.05 -0.1,-0.05 -0.11,0.01 -0.01,0.05 0.06,0.2 0.21,0.33 0.15,0.12 -0.16,0.12 -0.27,0.12 -0.11,0 -0.46,0.02 -0.49,0.05 -0.04,0.05 0.01,0.1 0.12,0.1 0.11,0 0.45,0.01 0.45,0.07 -0.01,0.06 -0.58,0.05 -0.58,0.05 0,0 -0.12,-0.02 -0.12,0.05 -0.01,0.12 0.59,0.09 0.65,0.08 0.04,0 0.04,0.06 0,0.06 -0.05,0 -0.57,-0.02 -0.58,0.11 -0.01,0.09 0.5,-0.03 0.6,0.04 0.11,0.06 -0.39,0.05 -0.4,0.14 0,0.04 0.01,0.06 0.29,0.03 0.3,-0.04 1.08,-0.27 1.08,-0.27l-0.13 -0.55 0.01 0.01z"/>
   <path class="fil18" d="M20.87 10.89c0,0 -0.94,1.3 -1.16,1.35 -0.22,0.05 -2.65,0.43 -2.65,0.43l0.13 0.79c0,0 3.01,-0.08 3.3,-0.35 0.29,-0.26 1.17,-1.62 1.17,-1.62l-0.79 -0.6z"/>
   <path class="fil10" d="M20.21 13.09c0,0 0,0.01 0.02,0.02 0.02,0.01 0.05,0.02 0.09,0.02 0.04,0 0.09,-0.02 0.12,-0.07 0.03,-0.04 0.04,-0.11 0.01,-0.16 -0.02,-0.03 -0.04,-0.05 -0.07,-0.06 -0.03,-0.01 -0.06,-0.01 -0.09,0.01 -0.05,0.02 -0.06,0.09 -0.03,0.12 0.02,0.04 0.06,0.04 0.08,0.03 0.02,-0.01 0.03,-0.02 0.03,-0.02 0,-0.01 -0.01,0 -0.03,0.01 -0.02,0 -0.05,0 -0.07,-0.03 -0.02,-0.02 -0.01,-0.07 0.03,-0.09 0.02,-0.01 0.05,-0.01 0.07,-0.01 0.02,0.01 0.04,0.03 0.05,0.05 0.03,0.04 0.02,0.1 0,0.14 -0.03,0.04 -0.07,0.06 -0.1,0.06 -0.07,0.01 -0.11,-0.02 -0.11,-0.02z"/>
   <path class="fil6" d="M21.94 11.29l-0.89 1.53 -1.03 -0.85c0,0 0.71,-1.17 1.05,-1.53l0.87 0.85z"/>
   <path class="fil4" d="M19.38 14.21c0,0 0.12,0.04 0.21,0.16 0.09,0.11 0.1,0.24 0.09,0.24 -0.01,0 -0.03,-0.11 -0.11,-0.22 -0.09,-0.12 -0.19,-0.17 -0.19,-0.18z"/>
   <path class="fil3" d="M20.45 8.8c0.01,0.03 0.04,0.04 0.06,0.05 0.03,0 0.06,0 0.09,0.01 0.04,0.01 0.08,0.03 0.1,0.06 0.02,0.02 0.03,0.03 0.04,0.04 0.02,0.02 0.04,0.02 0.05,0.01 0.03,-0.02 0.02,-0.05 0,-0.08 -0.05,-0.11 -0.11,-0.22 -0.16,-0.33l-0.32 0.06 0.14 0.16 0 0.02z"/>
   <path class="fil3" d="M19.42 8.43c0.03,-0.05 0.09,-0.08 0.13,-0.05 0.04,0.04 0.06,0.1 0.08,0.16 0.01,0.05 0.02,0.11 0.05,0.16 0.04,0.06 0.12,0.09 0.19,0.08 0.07,-0.01 0.13,-0.05 0.16,-0.12 0.04,0.06 0.09,0.13 0.15,0.18 0.06,0.04 0.15,0.07 0.22,0.04 0.07,-0.03 0.12,-0.12 0.08,-0.19 0.04,0.03 0.09,0.05 0.14,0.05 0.06,0 0.11,-0.02 0.13,-0.07 0.02,-0.05 -0.01,-0.12 -0.06,-0.13 0.06,0.04 0.14,0.04 0.2,0 0.05,-0.04 0.07,-0.13 0.03,-0.19 -0.03,-0.06 -0.12,-0.08 -0.18,-0.04 0.04,-0.02 0.08,-0.04 0.1,-0.08 0.02,-0.05 0.02,-0.1 -0.02,-0.12 -0.05,-0.03 -0.11,0.02 -0.16,0.03 -0.09,0.02 -0.16,-0.06 -0.23,-0.12 -0.13,-0.1 -0.31,-0.12 -0.46,-0.09 -0.16,0.03 -0.31,0.12 -0.43,0.22 -0.08,0.07 -0.15,0.18 -0.12,0.28z"/>
   <path class="fil3" d="M19.61 9.07c0,0.02 -0.03,0.05 -0.06,0.06 -0.03,0.01 -0.06,0.01 -0.08,-0.01 -0.02,-0.02 0,-0.06 0.05,-0.08 0.04,-0.02 0.08,0 0.09,0.03z"/>
   <path class="fil3" d="M20.08 8.84c-0.01,0.03 -0.04,0.04 -0.07,0.06 -0.03,0.01 -0.07,0.03 -0.09,0.01 -0.01,-0.01 -0.01,-0.02 -0.01,-0.04 0.01,-0.02 0.03,-0.04 0.06,-0.06 0.03,-0.01 0.06,-0.01 0.08,0 0.02,0.01 0.03,0.02 0.03,0.03z"/>
   <path class="fil3" d="M20.21 9.39c0.01,0 0.03,0.06 0,0.13 -0.03,0.06 -0.09,0.09 -0.09,0.08 0,0 0.04,-0.04 0.06,-0.1 0.03,-0.05 0.02,-0.11 0.03,-0.11z"/>
   <path class="fil4" d="M20.9 8.44c0,0 0,0 -0.01,0.01 -0.01,0 -0.03,0.01 -0.05,0.01 -0.04,0 -0.11,-0.02 -0.14,-0.09l0.01 0.01c-0.04,0.04 -0.11,0.07 -0.19,0.07 -0.08,0.01 -0.18,-0.02 -0.24,-0.1l0.02 -0.01c0.01,0.04 -0.02,0.08 -0.05,0.1 -0.04,0.03 -0.08,0.04 -0.12,0.03 -0.07,-0.01 -0.12,-0.05 -0.16,-0.1 -0.04,-0.04 -0.07,-0.09 -0.11,-0.12 -0.04,-0.04 -0.08,-0.07 -0.13,-0.08 -0.04,0 -0.09,0 -0.12,0.02 -0.08,0.03 -0.12,0.08 -0.15,0.11 -0.04,0.03 -0.05,0.05 -0.06,0.05 0,0 0.02,-0.02 0.05,-0.06 0.03,-0.03 0.07,-0.09 0.15,-0.12 0.04,-0.02 0.09,-0.03 0.14,-0.02 0.05,0.01 0.1,0.04 0.14,0.08 0.04,0.03 0.07,0.08 0.11,0.12 0.04,0.04 0.09,0.08 0.15,0.09 0.06,0.01 0.14,-0.04 0.13,-0.1l0 -0.04 0.03 0.03c0.06,0.07 0.14,0.1 0.22,0.1 0.07,0 0.14,-0.03 0.18,-0.07l0.01 -0.01 0.01 0.01c0.02,0.07 0.09,0.08 0.12,0.09 0.04,0 0.06,-0.01 0.06,-0.01z"/>
   <path class="fil3" d="M22.09 11.05c0,0 0,-0.04 -0.01,-0.1 -0.01,-0.06 -0.04,-0.15 -0.1,-0.25 -0.06,-0.09 -0.15,-0.19 -0.29,-0.25 -0.14,-0.06 -0.31,-0.07 -0.47,-0.01 -0.08,0.02 -0.15,0.07 -0.22,0.12 -0.06,0.05 -0.12,0.1 -0.16,0.16 -0.1,0.12 -0.17,0.23 -0.23,0.33 -0.06,0.1 -0.11,0.18 -0.15,0.23 -0.01,0.03 -0.03,0.05 -0.04,0.06 -0.01,0.01 -0.01,0.02 -0.01,0.02 -0.01,0 0.01,-0.03 0.04,-0.09 0.04,-0.06 0.08,-0.14 0.14,-0.23 0.06,-0.1 0.13,-0.22 0.22,-0.34 0.1,-0.11 0.23,-0.23 0.4,-0.29 0.17,-0.06 0.35,-0.05 0.49,0.02 0.14,0.06 0.24,0.16 0.3,0.26 0.06,0.1 0.08,0.2 0.09,0.26 0.01,0.03 0.01,0.06 0.01,0.07 0,0.02 0,0.03 -0.01,0.03z"/>
   <path class="fil19" d="M21.83 11.61c0,0 0.01,-0.02 -0.02,-0.05 -0.02,-0.01 -0.04,-0.02 -0.06,-0.02 -0.03,0 -0.06,0 -0.1,-0.02 -0.07,-0.03 -0.11,-0.11 -0.14,-0.2 -0.01,-0.04 -0.02,-0.09 -0.03,-0.13 -0.02,-0.05 -0.04,-0.09 -0.08,-0.12 -0.04,-0.02 -0.09,-0.04 -0.14,-0.04 -0.05,-0.01 -0.09,-0.01 -0.14,-0.01 -0.09,0.01 -0.17,0 -0.24,-0.03 -0.06,-0.04 -0.1,-0.09 -0.1,-0.13 -0.01,-0.02 -0.01,-0.03 -0.01,-0.04 0.01,-0.01 0.01,-0.02 0.01,-0.02 0,0 0,0.02 0.01,0.06 0.01,0.03 0.04,0.08 0.1,0.11 0.06,0.03 0.14,0.03 0.23,0.03 0.09,-0.01 0.2,-0.02 0.29,0.05 0.05,0.03 0.08,0.08 0.09,0.13 0.02,0.05 0.03,0.09 0.04,0.14 0.02,0.08 0.06,0.16 0.12,0.18 0.03,0.02 0.06,0.02 0.09,0.02 0.03,0.01 0.05,0.02 0.07,0.03 0.01,0.02 0.02,0.03 0.02,0.04 0,0.02 -0.01,0.02 -0.01,0.02z"/>
   <path class="fil19" d="M21.48 12.12c-0.01,0 -0.01,-0.02 -0.03,-0.05 -0.02,-0.03 -0.06,-0.06 -0.12,-0.07 -0.06,-0.02 -0.14,-0.02 -0.22,-0.05 -0.04,-0.01 -0.09,-0.04 -0.11,-0.08 -0.03,-0.04 -0.05,-0.08 -0.07,-0.12 -0.06,-0.08 -0.15,-0.1 -0.23,-0.12 -0.08,-0.02 -0.16,-0.04 -0.21,-0.08 -0.05,-0.04 -0.08,-0.1 -0.09,-0.13 0,-0.04 0.01,-0.06 0.01,-0.06 0,0 0,0.02 0.01,0.06 0,0.03 0.03,0.07 0.08,0.11 0.05,0.03 0.13,0.05 0.21,0.07 0.04,0.01 0.08,0.02 0.13,0.04 0.04,0.02 0.08,0.05 0.11,0.09 0.03,0.04 0.05,0.09 0.07,0.12 0.03,0.04 0.06,0.06 0.1,0.07 0.08,0.03 0.15,0.03 0.22,0.06 0.06,0.02 0.1,0.05 0.12,0.09 0.01,0.01 0.01,0.03 0.02,0.03 0,0.01 0,0.02 0,0.02z"/>
   <path class="fil19" d="M23.12 11.31c0,0 0,0.01 0,0.03 -0.01,0.01 -0.01,0.04 -0.03,0.06 -0.03,0.06 -0.1,0.12 -0.2,0.17 -0.05,0.02 -0.11,0.04 -0.16,0.07 -0.06,0.03 -0.12,0.06 -0.17,0.11 -0.1,0.1 -0.15,0.25 -0.22,0.4 -0.04,0.08 -0.08,0.15 -0.14,0.21 -0.02,0.01 -0.03,0.03 -0.05,0.04 -0.01,0.01 -0.03,0.02 -0.05,0.03 -0.03,0.02 -0.07,0.03 -0.11,0.04 -0.14,0.03 -0.27,0.02 -0.38,0.05 -0.1,0.03 -0.17,0.1 -0.2,0.15 -0.03,0.05 -0.02,0.09 -0.03,0.09 0,0 0,-0.01 0,-0.03 0,-0.02 0.01,-0.04 0.02,-0.07 0.03,-0.05 0.1,-0.13 0.21,-0.16 0.1,-0.03 0.24,-0.03 0.38,-0.06 0.03,-0.01 0.07,-0.02 0.1,-0.04 0.01,0 0.03,-0.01 0.04,-0.03 0.02,-0.01 0.03,-0.02 0.05,-0.03 0.05,-0.05 0.09,-0.12 0.13,-0.2 0.07,-0.15 0.12,-0.31 0.23,-0.41 0.05,-0.06 0.12,-0.09 0.18,-0.11 0.06,-0.03 0.11,-0.05 0.16,-0.07 0.1,-0.04 0.17,-0.1 0.2,-0.15 0.03,-0.05 0.04,-0.09 0.04,-0.09z"/>
   <path class="fil19" d="M23.72 12.05c0,0 0,0.04 -0.04,0.09 -0.03,0.06 -0.11,0.12 -0.22,0.17 -0.1,0.05 -0.24,0.07 -0.37,0.14 -0.07,0.03 -0.12,0.09 -0.16,0.16 -0.04,0.07 -0.07,0.15 -0.1,0.23 -0.07,0.17 -0.2,0.29 -0.33,0.37 -0.14,0.08 -0.28,0.1 -0.39,0.1 -0.12,0 -0.21,-0.03 -0.27,-0.05 -0.03,-0.02 -0.05,-0.03 -0.07,-0.04 -0.01,-0.01 -0.02,-0.01 -0.02,-0.01 0,0 0.03,0.01 0.09,0.03 0.06,0.03 0.15,0.05 0.27,0.05 0.11,0 0.25,-0.03 0.37,-0.1 0.13,-0.08 0.25,-0.2 0.32,-0.36 0.03,-0.08 0.06,-0.16 0.1,-0.24 0.04,-0.07 0.11,-0.13 0.18,-0.17 0.13,-0.07 0.27,-0.09 0.38,-0.13 0.1,-0.05 0.18,-0.1 0.21,-0.15 0.04,-0.06 0.05,-0.09 0.05,-0.09z"/>
   <path class="fil19" d="M24.26 12.63c0,0.01 -0.11,0.04 -0.24,0.15 -0.06,0.05 -0.13,0.13 -0.19,0.23 -0.03,0.05 -0.04,0.11 -0.07,0.17 -0.02,0.06 -0.06,0.12 -0.12,0.16 -0.06,0.04 -0.13,0.05 -0.19,0.06 -0.06,0.01 -0.12,0.01 -0.18,0.02 -0.11,0.02 -0.21,0.05 -0.29,0.09 -0.16,0.08 -0.23,0.16 -0.24,0.15 0,0 0.02,-0.02 0.06,-0.05 0.04,-0.04 0.09,-0.08 0.17,-0.12 0.08,-0.04 0.18,-0.08 0.3,-0.1 0.05,-0.01 0.11,-0.01 0.18,-0.02 0.06,-0.01 0.12,-0.02 0.17,-0.06 0.06,-0.03 0.09,-0.09 0.11,-0.14 0.03,-0.06 0.05,-0.12 0.08,-0.17 0.05,-0.11 0.13,-0.18 0.2,-0.24 0.07,-0.05 0.13,-0.09 0.18,-0.11 0.02,-0.01 0.04,-0.01 0.05,-0.01 0.01,-0.01 0.02,-0.01 0.02,-0.01z"/>
   <path class="fil19" d="M21.87 11.53c0,-0.01 0.06,-0.01 0.14,-0.09 0.03,-0.03 0.06,-0.08 0.09,-0.14 0.03,-0.06 0.04,-0.14 0.06,-0.21 0.02,-0.08 0.04,-0.15 0.07,-0.21 0.04,-0.06 0.08,-0.11 0.12,-0.15 0.04,-0.03 0.08,-0.05 0.11,-0.06 0.03,0 0.04,0 0.04,0 0,0.01 -0.06,0.01 -0.14,0.08 -0.04,0.03 -0.07,0.08 -0.1,0.14 -0.03,0.06 -0.05,0.13 -0.07,0.21 -0.01,0.07 -0.03,0.15 -0.06,0.21 -0.03,0.06 -0.07,0.11 -0.11,0.15 -0.04,0.03 -0.08,0.05 -0.11,0.06 -0.02,0.01 -0.04,0.01 -0.04,0.01z"/>
   <path class="fil19" d="M21.7 10.46c-0.01,0 0.01,-0.09 0.08,-0.17 0.08,-0.08 0.16,-0.11 0.17,-0.1 0,0.01 -0.08,0.05 -0.14,0.12 -0.07,0.07 -0.1,0.15 -0.11,0.15z"/>
   <path class="fil19" d="M21.28 9.85c0,0 -0.03,0.05 -0.09,0.14 -0.03,0.04 -0.07,0.09 -0.11,0.14 -0.03,0.03 -0.06,0.05 -0.1,0.07 -0.03,0.02 -0.07,0.02 -0.11,0.02 -0.04,0 -0.08,0 -0.12,0 -0.03,0.01 -0.07,0.02 -0.09,0.03 -0.06,0.04 -0.1,0.08 -0.12,0.13 -0.04,0.09 -0.02,0.16 -0.02,0.16 0,0 -0.01,-0.01 -0.01,-0.04 -0.01,-0.03 -0.01,-0.08 0.01,-0.13 0.02,-0.05 0.06,-0.1 0.12,-0.14 0.03,-0.02 0.07,-0.03 0.11,-0.04 0.04,0 0.08,0 0.12,0 0.03,0 0.07,0 0.1,-0.02 0.03,-0.01 0.06,-0.03 0.08,-0.06 0.05,-0.05 0.09,-0.1 0.12,-0.14 0.07,-0.08 0.11,-0.13 0.11,-0.12z"/>
   <path class="fil20" d="M21.62 13.07l-0.11 -0.15c0,-0.01 0,-0.01 0,-0.01l0.11 0.16 0 0z"/>
   <path class="fil21" d="M21.51 12.92l-0.12 -0.17c0,0 0,0 0,0l0.12 0.16c0,0 0,0 0,0.01z"/>
   <path class="fil22" d="M21.62 13.07l-0.11 -0.16 -0.12 -0.16c0,-0.02 0,-0.05 0.02,-0.08 0.03,-0.05 0.1,-0.12 0.2,-0.15 0.05,-0.01 0.1,-0.02 0.15,-0.02l-0.14 0.57z"/>
   <path class="fil21" d="M21.38 12.74l-0.16 -0.22 0.01 0 0.15 0.22c0,0 0,0 0,0z"/>
   <path class="fil23" d="M21.38 12.74l-0.15 -0.22 0.6 -0.91c0,0 0,0 0,0l0 0 0 0c0,0 0,0 0.01,-0.01l0.04 -0.07c0.01,0 0.02,0 0.03,-0.01 0.03,-0.01 0.07,-0.02 0.11,-0.06l-0.25 1.01c-0.06,0.01 -0.11,0.02 -0.16,0.03 -0.11,0.03 -0.18,0.11 -0.21,0.16 -0.01,0.03 -0.02,0.05 -0.02,0.07 0,0 0,0.01 0,0.01z"/>
   <path class="fil24" d="M21.83 11.61c0,0 0,0 0,0l0.01 -0.01c-0.01,0.01 -0.01,0.01 -0.01,0.01l0 0 0 0z"/>
   <path class="fil24" d="M21.39 12.75l-0.01 -0.01c0,0 0,0 0,0 0,0 0,-0.01 0,-0.01 0,-0.02 0.01,-0.04 0.02,-0.07 0.03,-0.05 0.1,-0.13 0.21,-0.16 0.05,-0.01 0.1,-0.02 0.16,-0.03l-0.01 0.03c-0.05,0 -0.1,0.01 -0.15,0.02 -0.1,0.03 -0.17,0.1 -0.2,0.15 -0.02,0.03 -0.02,0.06 -0.02,0.08 0,0 0,0 0,0z"/>
   <path class="fil22" d="M21.89 11.52l0.18 -0.28 -0.04 0.18c-0.01,0.01 -0.02,0.02 -0.02,0.02 -0.05,0.05 -0.1,0.07 -0.12,0.08z"/>
   <path class="fil24" d="M21.88 11.53l0.01 -0.01c0.02,-0.01 0.07,-0.03 0.12,-0.08 0,0 0.01,-0.01 0.02,-0.02l-0.01 0.04c-0.04,0.04 -0.08,0.05 -0.11,0.06 -0.01,0.01 -0.02,0.01 -0.03,0.01z"/>
   <path class="fil4" d="M24.03 17.27c-0.01,0 -0.01,-0.3 -0.01,-0.68 0,-0.37 0,-0.68 0.01,-0.68 0.01,0 0.02,0.31 0.02,0.68 0,0.38 -0.01,0.68 -0.02,0.68z"/>
   <path class="fil6" d="M3.9 13.9c0.18,0 0.34,0.1 0.46,0.24 0.12,0.13 0.19,0.3 0.23,0.48 0.09,0.33 0.03,0.73 -0.07,1.06 -0.36,-0.13 -0.58,-0.52 -0.68,-0.72 -0.16,-0.33 -0.24,-1.01 0.06,-1.06z"/>
   <path class="fil6" d="M5.04 16.09c-0.11,-0.16 -0.11,-0.39 -0.02,-0.57 0.09,-0.18 0.27,-0.3 0.46,-0.36 0.09,-0.03 0.19,-0.04 0.27,0.01 0.07,0.05 0.1,0.15 0.09,0.23 -0.01,0.09 -0.05,0.17 -0.11,0.24 -0.17,0.23 -0.39,0.43 -0.69,0.45z"/>
   <path class="fil3" d="M5.07 17.22c0,0 0,-0.03 -0.01,-0.07 -0.01,-0.05 -0.02,-0.12 -0.04,-0.2 -0.03,-0.16 -0.07,-0.39 -0.03,-0.64 0.03,-0.25 0.13,-0.46 0.24,-0.59 0.05,-0.07 0.1,-0.11 0.14,-0.14 0.02,-0.01 0.03,-0.02 0.04,-0.03 0.01,-0.01 0.02,-0.01 0.02,-0.01 0,0.01 -0.09,0.06 -0.19,0.19 -0.1,0.13 -0.19,0.34 -0.23,0.59 -0.03,0.24 0.01,0.47 0.03,0.63 0.01,0.08 0.02,0.15 0.03,0.19 0,0.05 0,0.08 0,0.08z"/>
   <path class="fil3" d="M4.01 14.41c0,0 0,0.01 0.01,0.02 0.01,0.03 0.03,0.05 0.04,0.09 0.03,0.07 0.08,0.17 0.13,0.3 0.11,0.25 0.25,0.61 0.4,1 0.15,0.4 0.28,0.76 0.36,1.02 0.05,0.13 0.08,0.24 0.11,0.31 0.01,0.04 0.02,0.06 0.02,0.09 0.01,0.02 0.01,0.03 0.01,0.03 0,0 -0.01,-0.01 -0.01,-0.03 -0.01,-0.02 -0.02,-0.05 -0.03,-0.09 -0.03,-0.07 -0.07,-0.18 -0.11,-0.31 -0.1,-0.26 -0.23,-0.62 -0.37,-1.01 -0.15,-0.39 -0.29,-0.75 -0.4,-1.01 -0.05,-0.12 -0.09,-0.23 -0.12,-0.3 -0.01,-0.03 -0.02,-0.06 -0.03,-0.08 -0.01,-0.02 -0.01,-0.03 -0.01,-0.03z"/>
   <path class="fil6" d="M4.65 16.47c-0.21,-0.37 -0.61,-0.62 -1.03,-0.65 -0.11,-0.01 -0.24,0.01 -0.29,0.1 -0.05,0.1 0.02,0.21 0.09,0.29 0.3,0.34 0.81,0.45 1.23,0.29l0 -0.03z"/>
   <path class="fil3" d="M3.78 16.11c0,-0.01 0.02,0 0.07,0 0.02,0 0.04,0 0.07,0.01 0.03,0.01 0.07,0.01 0.11,0.02 0.03,0.01 0.08,0.02 0.12,0.03 0.04,0.02 0.09,0.04 0.14,0.06 0.09,0.04 0.19,0.1 0.28,0.17 0.09,0.07 0.17,0.16 0.24,0.24 0.03,0.04 0.06,0.08 0.08,0.12 0.02,0.04 0.04,0.07 0.06,0.11 0.02,0.03 0.03,0.07 0.04,0.1 0.01,0.02 0.02,0.05 0.03,0.07 0.01,0.04 0.02,0.06 0.02,0.06 -0.01,0.01 -0.03,-0.09 -0.11,-0.22 -0.01,-0.04 -0.03,-0.07 -0.06,-0.11 -0.02,-0.04 -0.05,-0.08 -0.08,-0.12 -0.07,-0.08 -0.14,-0.16 -0.23,-0.23 -0.1,-0.07 -0.19,-0.13 -0.28,-0.17 -0.05,-0.02 -0.09,-0.04 -0.14,-0.06 -0.04,-0.01 -0.08,-0.02 -0.12,-0.03 -0.15,-0.04 -0.24,-0.05 -0.24,-0.05z"/>
  </g>
 </g>
</svg>
