<?xml version="1.0" encoding="UTF-8"?>
<!DOCTYPE svg PUBLIC "-//W3C//DTD SVG 1.1//EN" "http://www.w3.org/Graphics/SVG/1.1/DTD/svg11.dtd">
<!-- Creator: CorelDRAW 2020 (64-Bit) -->
<svg xmlns="http://www.w3.org/2000/svg" xml:space="preserve" width="100px" height="100px" version="1.1" style="shape-rendering:geometricPrecision; text-rendering:geometricPrecision; image-rendering:optimizeQuality; fill-rule:evenodd; clip-rule:evenodd"
viewBox="0 0 6.11 6.11"
 xmlns:xlink="http://www.w3.org/1999/xlink"
 xmlns:xodm="http://www.corel.com/coreldraw/odm/2003">
 <defs>
  <style type="text/css">
   <![CDATA[
    .fil0 {fill:#E6E6E6}
    .fil1 {fill:#E95B11}
   ]]>
  </style>
 </defs>
 <g id="Layer_x0020_1">
  <metadata id="CorelCorpID_0Corel-Layer"/>
  <g id="_2562129972944">
   <path class="fil0" d="M2.29 0.09l-0.15 0.05c-0.05,0.01 -0.11,0.03 -0.15,0.05 -0.04,0.02 -0.12,0.05 -0.15,0.06 -0.01,0 -0.14,0.07 -0.16,0.08 -0.06,0.01 -0.1,0.05 -0.15,0.08 -0.1,0.06 -0.12,0.06 -0.24,0.15l-0.22 0.17c-0.02,0.01 -0.02,0.02 -0.04,0.03 0,0.02 -0.01,0.02 -0.03,0.03 -0.01,0.01 -0.02,0.01 -0.03,0.02 -0.02,0.03 -0.02,0.05 -0.05,0.05l-0.04 0.05c-0.02,0.02 -0.04,0.04 -0.06,0.06 -0.02,0.02 -0.03,0.05 -0.05,0.05 -0.01,0.02 -0.01,0.02 -0.02,0.03l-0.01 0.02c0,0 -0.01,0 -0.01,0 -0.08,0.1 -0.18,0.22 -0.25,0.33 -0.02,0.03 -0.04,0.09 -0.07,0.12 -0.03,0.04 -0.06,0.1 -0.08,0.15 -0.02,0.04 -0.03,0.05 -0.04,0.09 -0.02,0.02 -0.03,0.06 -0.04,0.08 -0.01,0.03 -0.04,0.11 -0.06,0.14 -0.01,0.03 -0.02,0.05 -0.03,0.07 0,0.02 -0.01,0.06 -0.02,0.07l-0.05 0.19 -0.03 0.12c-0.04,0.2 -0.06,0.41 -0.06,0.62 0,0.11 0.01,0.21 0.01,0.32 0.01,0.1 0.03,0.2 0.05,0.3l0.03 0.15 0.13 0.4c0.03,0.06 0.06,0.12 0.09,0.18 0.02,0.06 0.07,0.11 0.09,0.18 0.02,0.02 0.03,0.05 0.05,0.07 0.01,0.02 0.02,0.02 0.03,0.04 0.03,0.05 0.05,0.1 0.12,0.19l0.01 0.01 0.07 0.09c0.03,0.03 0.02,0.03 0.05,0.05l0.03 0.05c0.03,0.01 0.03,0.03 0.05,0.05 0.02,0.03 0.04,0.04 0.05,0.06 0.02,0.01 0.01,0.01 0.03,0.02 0.02,0.02 0.01,0.01 0.02,0.03 0.01,0.01 0.02,0.01 0.03,0.03l0.04 0.03c0,0 0,0 0,0 0.02,-0.04 0.12,-0.07 0.15,-0.09 0.06,-0.03 0.11,-0.05 0.16,-0.08 0.1,-0.06 0.21,-0.11 0.31,-0.16 0.25,-0.13 0.43,-0.2 0.57,-0.39 0.07,-0.08 0.13,-0.19 0.15,-0.32 0.04,-0.21 -0.02,-0.17 -0.09,-0.36 -0.04,-0.12 -0.08,-0.24 -0.12,-0.36 -0.1,-0.3 -0.04,-0.1 -0.18,-0.3 -0.11,-0.17 -0.15,-0.46 -0.05,-0.65 0.02,-0.04 0.04,-0.04 0.03,-0.08 -0.07,-0.28 -0.13,-0.54 -0.03,-0.82 0.17,-0.44 0.56,-0.74 1.17,-0.74 0.61,0 0.99,0.32 1.17,0.74 0.06,0.14 0.08,0.23 0.06,0.4 -0.01,0.13 -0.04,0.27 -0.07,0.4 -0.03,0.09 0.01,0.03 0.05,0.17 0.06,0.2 0.02,0.43 -0.08,0.58 -0.14,0.2 -0.08,-0.01 -0.18,0.3 -0.04,0.12 -0.07,0.26 -0.11,0.36 -0.08,0.19 -0.14,0.16 -0.1,0.35 0.05,0.23 0.22,0.42 0.4,0.55 0.1,0.06 0.72,0.37 0.91,0.47 0.03,0.01 0.02,0 0.03,0.03 0.02,-0.01 0.01,0 0.02,-0.01 0.01,-0.01 0.01,-0.01 0.01,-0.02 0.01,-0.02 0.02,-0.02 0.03,-0.03 0.02,-0.02 0.04,-0.04 0.07,-0.06 0,-0.02 0.02,-0.03 0.04,-0.05 0.02,-0.02 0.02,-0.03 0.05,-0.05 0.01,-0.02 0.02,-0.02 0.04,-0.05l0.11 -0.13 0.01 -0.02c0.03,-0.06 0.11,-0.14 0.15,-0.22 0.02,-0.03 0.03,-0.06 0.05,-0.08 0.01,-0.03 0.03,-0.05 0.04,-0.08 0.01,-0.02 0.03,-0.05 0.04,-0.08 0.01,-0.02 0.07,-0.15 0.08,-0.16 0.01,-0.04 0.04,-0.11 0.06,-0.15 0.02,-0.04 0.03,-0.09 0.05,-0.14l0.04 -0.16 0.04 -0.15 0.02 -0.15c0.01,-0.1 0.04,-0.21 0.03,-0.31l0 -0.15 0 -0.15 -0.03 -0.31 -0.03 -0.15 -0.03 -0.16c-0.02,-0.04 -0.04,-0.1 -0.04,-0.14 -0.01,-0.01 -0.1,-0.26 -0.12,-0.32 -0.03,-0.04 -0.04,-0.1 -0.07,-0.14 -0.02,-0.05 -0.07,-0.1 -0.08,-0.15 -0.02,-0.02 -0.1,-0.15 -0.12,-0.19 -0.01,-0.01 -0.03,-0.03 -0.04,-0.05 -0.06,-0.09 -0.11,-0.15 -0.17,-0.23l-0.03 -0.03c-0.03,-0.02 -0.1,-0.1 -0.11,-0.13 -0.02,-0.01 -0.03,-0.01 -0.04,-0.03 -0.02,-0.02 -0.05,-0.04 -0.07,-0.06 -0.01,-0.01 -0.02,-0.02 -0.03,-0.03 -0.01,-0.01 -0.02,-0.01 -0.03,-0.03 -0.02,-0.01 -0.01,0 -0.02,-0.02 -0.04,-0.02 -0.08,-0.06 -0.12,-0.09 -0.02,-0.02 -0.03,-0.02 -0.05,-0.04 -0.13,-0.1 -0.13,-0.08 -0.24,-0.16 -0.02,-0.02 -0.04,-0.03 -0.06,-0.03 -0.03,-0.02 -0.08,-0.05 -0.12,-0.07 -0.11,-0.06 -0.25,-0.12 -0.37,-0.16l-0.27 -0.09c-0.1,-0.03 -0.21,-0.03 -0.3,-0.06 -0.2,-0.04 -0.43,-0.03 -0.64,-0.03 -0.23,0 -0.42,0.07 -0.59,0.09z"/>
   <path class="fil1" d="M0.98 5.3c0.01,0 0.02,0.01 0.03,0.02 0,0 0,0 0.01,0.01 0.01,0.01 0,0 0.01,0.02 0.02,0 0,-0.01 0.02,0.01 0.01,0.01 0.01,0.01 0.01,0.01 0.03,0.02 0.06,0.04 0.08,0.06 0.02,0.02 0.07,0.04 0.08,0.07 0.02,0 0.02,0.01 0.04,0.02 0.04,0.04 0.27,0.17 0.28,0.19 0.03,0.01 0.11,0.05 0.15,0.07 0.03,0.02 0.11,0.05 0.14,0.07l0.33 0.13c0.03,0 0.1,0.02 0.13,0.03 0.03,0.01 0.06,0.01 0.09,0.02 0.02,0.01 0.03,0.01 0.04,0.01 0.03,0.01 0.04,0 0.05,0.02 0.04,-0.01 0.09,0.01 0.12,0.01l0.31 0.03 0.06 0.01c0.18,0.01 0.37,-0.01 0.55,-0.04 0.07,-0.01 0.16,-0.02 0.23,-0.04 0.08,-0.02 0.17,-0.05 0.24,-0.06 0,0 0.27,-0.1 0.28,-0.1 0.02,-0.02 0.02,-0.02 0.04,-0.03 0.02,-0.01 0.03,-0.01 0.05,-0.02 0.03,-0.01 0.05,-0.02 0.08,-0.04 0.04,-0.02 0.11,-0.07 0.16,-0.08 0,0 0,0 0,0l0.27 -0.18c0.02,-0.01 0,0 0.01,-0.01 0.02,-0.02 0.01,-0.01 0.04,-0.02 0.01,-0.02 0.03,-0.04 0.06,-0.06 0.01,0 0.02,-0.01 0.03,-0.02 0.02,-0.02 0.01,-0.01 0.03,-0.02 0.01,-0.01 0,0 0.01,-0.02 0.01,0 0.02,-0.01 0.02,-0.01 0.01,-0.02 0.02,-0.02 0.03,-0.03 0.01,0 0,0 0.02,-0.02 0.01,-0.01 0,0 0.02,-0.01 -0.01,-0.03 0,-0.02 -0.03,-0.03 -0.19,-0.1 -0.81,-0.41 -0.91,-0.47 -0.18,-0.13 -0.35,-0.32 -0.4,-0.55 -0.04,-0.19 0.02,-0.16 0.1,-0.35 0.04,-0.1 0.07,-0.24 0.11,-0.36 0.1,-0.31 0.04,-0.1 0.18,-0.3 0.1,-0.15 0.14,-0.38 0.08,-0.58 -0.04,-0.14 -0.08,-0.08 -0.05,-0.17 0.03,-0.13 0.06,-0.27 0.07,-0.4 0.02,-0.17 0,-0.26 -0.06,-0.4 -0.18,-0.42 -0.56,-0.74 -1.17,-0.74 -0.61,0 -1,0.3 -1.17,0.74 -0.1,0.28 -0.04,0.54 0.03,0.82 0.01,0.04 -0.01,0.04 -0.03,0.08 -0.1,0.19 -0.06,0.48 0.05,0.65 0.14,0.2 0.08,0 0.18,0.3 0.04,0.12 0.08,0.24 0.12,0.36 0.07,0.19 0.13,0.15 0.09,0.36 -0.02,0.13 -0.08,0.24 -0.15,0.32 -0.14,0.19 -0.32,0.26 -0.57,0.39 -0.1,0.05 -0.21,0.1 -0.31,0.16 -0.05,0.03 -0.1,0.05 -0.16,0.08 -0.03,0.02 -0.13,0.05 -0.15,0.09z"/>
  </g>
 </g>
</svg>
